<svg xmlns="http://www.w3.org/2000/svg" viewBox="0 0 601.43 484.69"><defs><style>.cls-1{fill:#231f20;}</style></defs><title>Asset 7</title><g id="Layer_2" data-name="Layer 2"><g id="Layer_1-2" data-name="Layer 1"><path class="cls-1" d="M26.79,4.21,39.78,37c1.28,3.33,2.16,4.09,3.62,4.5,2.28.64,3.45.82,3.45,1.76,0,1.11-1.34,1.46-9,1.46-8.37,0-10-.23-10-1.58,0-1.81,5.33-.7,5.33-3.33,0-.82-.53-2-2.64-7.43-.7-1.88-1.28-2.11-6.31-2.11H18.66c-4.39,0-5.15.41-5.62,1.58-1.93,4.85-2.51,6-2.51,7.55,0,3.45,5.79,1.63,5.79,3.74,0,1.23-1.7,1.58-9,1.58C1.7,44.75,0,44.46,0,43.29c0-2.11,4.5.29,6.79-5.15L21.12,4.27C22.46,1.11,22.75,0,23.81,0S25.56,1.11,26.79,4.21ZM19.24,17c-1.75,4.27-3.86,9.13-3.86,9.83s1.29.94,6.67.94c5.56,0,6.38-.24,6.38-1s-.76-2.63-2.69-8.07C23.4,12.11,23,10.82,22.4,10.82S21.47,11.58,19.24,17Z"/><path class="cls-1" d="M59.78,44.75c-7.2,0-8.84-.29-8.84-1.41,0-.93,1.29-1.17,3.1-1.52,1.64-.29,2.58-1.46,2.58-4.68V8.19c-.06-3-1.06-4-2.64-4.39s-2.92-.58-2.92-1.52c0-1.11,2.16-1.4,8.6-1.4h.17C65.1.82,67.15.58,70,.58c9,0,13.22,3.34,13.22,9.31,0,9.06-7.07,9.65-7.07,10.76s2.39.58,6.08,2.63c2.87,1.58,4.85,5.21,4.85,9,0,7.78-5.73,12.46-16.49,12.46Zm3.1-28.6c0,3.56.93,4,4.56,4,7,0,9.47-1.87,9.47-8,0-5.85-3.8-8.89-10.23-8.89-3.1,0-3.8.82-3.8,5Zm0,19.42c0,5.55,2,6.49,7.72,6.49,6.67,0,9.65-3.34,9.65-8.07,0-7.9-5.68-11.24-11.64-11.24-4.8,0-5.73.76-5.73,5Z"/><path class="cls-1" d="M113,3c-7.31,0-13,5.68-13,18.25,0,11.12,7,19.36,16.09,19.36s12.05-8.07,13.63-8.07c.88,0,1.34.41,1.34,1.41,0,1.93-5.2,11.34-16.32,11.34-14.09,0-21.64-8.65-21.64-22.22,0-14,8.78-22.82,19.54-22.82,3.8,0,5.21.88,6.78.88,2.34,0,3.57-.59,5.15-.59,2.22,0,4,7.73,4,10.77a1.28,1.28,0,0,1-1.46,1.4C124.7,12.75,122.77,3,113,3Z"/><path class="cls-1" d="M140.84,8.19c0-3-1.05-4-2.63-4.39s-2.93-.58-2.93-1.52c0-1.11,2.17-1.4,8.6-1.4h.35c4.1,0,8-.3,11.88-.3,13,0,22.28,7.14,22.28,21.41,0,13.75-10.7,22.76-23.45,22.76H144c-7.2,0-8.84-.29-8.84-1.41,0-.93,1.29-1.17,3.1-1.52,1.64-.29,2.58-1.46,2.58-4.68Zm6.26,28.25c0,5.21,2.51,5.68,7.08,5.68,9.06,0,17.08-7,17.08-17.73C171.26,10.3,162,3.22,152,3.22c-2.81,0-4.85.12-4.91,4.79Z"/><path class="cls-1" d="M200.85,20.3c3.21,0,4.38-1,4.68-2.63.41-2.17.41-3.81,1.52-3.81s1.69,2.11,1.69,7.61c0,6.61-.58,7.78-1.69,7.78s-1.05-1.47-1.52-3.8c-.35-1.64-1.47-2.58-4.68-2.58h-2.28c-3.34,0-4.16.94-4.16,4.33V37c0,4.15,1.06,5,4.57,5h.93c15.39,0,15-9.24,17.08-9.24.76,0,1.41.35,1.41,1.17,0,3.21-1.76,10.76-6.09,10.76H191.2c-7.08,0-8.72-.29-8.72-1.41,0-.93,1.29-1.17,3.1-1.52,1.64-.29,2.57-1.46,2.57-4.68V8.42c0-3.16-1-4.27-2.63-4.62-1.46-.29-2.92-.58-2.92-1.52,0-1.11,2.16-1.4,8.6-1.4h13.33c5.44,0,5.74-.88,7.31-.88,2,0,3.69,7.14,3.69,10.18a1.28,1.28,0,0,1-1.46,1.4c-1.87,0-1.64-8.13-11.12-8.13H199.8c-4.16,0-5.39.53-5.39,5V17.2c0,2.75,1.29,3.1,4.16,3.1Z"/><path class="cls-1" d="M241.15,21.7c3.21,0,4.32-1,4.68-2.63.46-2.22.58-3.51,1.52-3.51,1.11,0,1.69,1.52,1.69,7.31,0,6.2-.58,7.49-1.69,7.49-.94,0-1.06-1.29-1.52-3.51-.36-1.64-1.47-2.57-4.68-2.57h-2.29c-3.33,0-4.15.93-4.15,4.32v8.54c0,3.22,1,4.27,2.93,4.62,2.16.41,3.39.65,3.39,1.58,0,1.12-1.29,1.41-9.36,1.41-7.25,0-8.89-.29-8.89-1.41,0-.93,1.29-1.17,3.1-1.52,1.64-.29,2.57-1.46,2.57-4.68V8.48c0-3.22-1-4.33-2.63-4.68-1.46-.29-2.92-.58-2.92-1.52,0-1.11,2.1-1.4,8.48-1.4h13.45c5.44,0,5.73-.88,7.31-.88,2,0,3.1,8.31,3.1,11.35a1.28,1.28,0,0,1-1.46,1.4c-1.87,0-1.58-9.3-10.53-9.3h-2.69c-4.5,0-5.85.7-5.85,5V18.6c0,2.75,1.29,3.1,4.15,3.1Z"/><path class="cls-1" d="M279.45,3c-7.31,0-14.15,6-14.15,18.55,0,11.11,7.78,20.35,16.9,20.35,5.85,0,8.08-2.87,8.08-8.19,0-3.27-.36-5.56-2.34-6.14-2.52-.76-4-.82-4-2S286.18,24,293.79,24c6.78,0,7.95.35,7.95,1.46,0,.88-.93,1.29-2.92,1.88-1.7.46-2.4,2-2.4,5.49,0,1.35.23,3,.23,4.62,0,3.87-8.07,7.84-16,7.84-13.57,0-22.46-8.36-22.46-21.93,0-14,10.18-23.11,20.94-23.11,3.81,0,6,.88,7.61.88,2.34,0,3.8-.59,5.38-.59,2.22,0,4,7.14,4,10.18a1.29,1.29,0,0,1-1.47,1.41C292.21,12.17,290.16,3,279.45,3Z"/><path class="cls-1" d="M338.35,8.48c0-3.22-1-4.33-2.63-4.68-1.46-.29-2.92-.58-2.92-1.52,0-1.11,2.16-1.4,8.59-1.4,7.26,0,8.72.29,8.72,1.4,0,.94-1.46,1.23-2.92,1.52-1.64.35-2.58,1.46-2.58,4.68V37.14c0,3.22,1,4.33,2.63,4.68,2.17.47,3.1.59,3.1,1.52,0,1.12-2.34,1.41-8.77,1.41-7.25,0-8.89-.29-8.89-1.41,0-.93,1.29-1.17,3.1-1.52,1.58-.29,2.57-1.4,2.57-4.38V27.73c0-3.1-.64-4-4.09-4h-13c-3.21,0-4,.53-4.09,3.34V37.14c0,3.22,1,4.33,2.63,4.68,2.16.47,3.1.59,3.1,1.52,0,1.12-2.34,1.41-8.77,1.41-7.26,0-8.89-.29-8.89-1.41,0-.93,1.28-1.17,3.1-1.52,1.63-.29,2.57-1.46,2.57-4.68V8.19c0-3-1.05-4-2.63-4.39s-2.93-.58-2.93-1.52c0-1.11,2.17-1.4,8.6-1.4,7.25,0,8.72.29,8.72,1.4,0,.94-1.47,1.23-2.93,1.52s-2.57,1.41-2.57,4.39v9c0,3.16.47,3.68,4.09,3.68h13.05c3.33,0,4-.58,4-3Z"/><path class="cls-1" d="M361.75,8.19c0-3-1.06-4-2.64-4.39-2-.41-3.8-.58-3.8-1.52,0-1.11,1.81-1.4,9.48-1.4,7.89,0,9.59.29,9.59,1.4,0,.94-1.87,1.11-3.8,1.52C369,4.15,368,5.21,368,8.19V37.44c0,3,1.06,4,2.64,4.38,2.16.47,4.15.59,4.15,1.52,0,1.12-1.7,1.41-9.83,1.41S355,44.46,355,43.34c0-.93,1.81-1.05,4.15-1.52,1.64-.35,2.58-1.46,2.58-4.68Z"/><path class="cls-1" d="M399.7,29c0,11.24-6,16.27-12.51,16.27-4.62,0-8.89-1.23-8.89-4.57a3.83,3.83,0,0,1,3.68-4c1.52,0,2.93,5.55,7.66,5.55,3.05,0,3.81-3.8,3.81-10.58V8.48c0-3.22-1-4.33-2.64-4.68-2-.41-3.33-.58-3.33-1.52,0-1.11,1.35-1.4,9-1.4,7.25,0,8.71.29,8.71,1.4,0,.94-1.46,1.23-2.92,1.52-1.64.35-2.58,1.46-2.58,4.62Z"/><path class="cls-1" d="M420.93,37.14c0,3.22,1,4.33,2.64,4.68,2.16.47,3.1.59,3.1,1.52,0,1.12-2.34,1.41-8.78,1.41-7.25,0-8.89-.29-8.89-1.41,0-.93,1.29-1.17,3.1-1.52,1.58-.29,2.58-1.34,2.58-4.33V8.31c0-3.1-1.06-4.16-2.64-4.51s-2.92-.58-2.92-1.52c0-1.11,2.16-1.4,8.6-1.4,7.25,0,8.71.29,8.71,1.4,0,.94-1.46,1.23-2.92,1.52-1.64.35-2.58,1.46-2.58,4.68V19c0,1.17.3,1.52.94,1.52s2.46-.41,5.38-3.92l7.31-8.77A4.78,4.78,0,0,0,436,5.26c0-2.39-3.28-1.28-3.28-3,0-.93,3.34-1.4,8.6-1.4,4.91,0,6.49.23,6.49,1.28,0,1.76-4.21.59-8.19,5.09L431.81,16c-1.57,1.75-2.63,2.81-2.63,3.86,0,1.23,1.23,2.28,2.63,4.09l8.43,10.71C445.21,41,447,42,449,42c.88,0,1.52-.18,2.11-.18a1,1,0,0,1,1.05,1.12c0,1.46-2.69,2.39-7,2.39-3.63,0-6.14-.58-11-7.25l-9-12.28c-1.29-1.76-2.46-3-3.22-3s-.94.41-.94,1.64Z"/><path class="cls-1" d="M461,8.48c0-3.22-1-4.33-2.63-4.68-1.47-.29-2.93-.58-2.93-1.52,0-1.11,2.16-1.4,8.6-1.4,7.25,0,8.72.29,8.72,1.4,0,.94-1.47,1.23-2.93,1.52-1.64.35-2.57,1.46-2.57,4.68V37.67c0,3.51.87,4.39,3.8,4.39h1.7c13.45,0,13.27-9.24,15.32-9.24.76,0,1.4.35,1.4,1.17,0,3.21-1.75,10.76-6.08,10.76H464.21c-7.25,0-8.89-.29-8.89-1.41,0-.93,1.29-1.17,3.1-1.52,1.64-.29,2.58-1.46,2.58-4.68Z"/><path class="cls-1" d="M507.85,4l11.34,25.74c1.12,2.57,1.29,3.62,2,3.62s1.06-1.17,2.05-3.74l10-25.74c1-2.51,2.28-3,5.79-3,5.5,0,6.79.11,6.79,1,0,2.4-4.5.59-4.33,5.27l1.17,30.53c.12,2.81,1.4,3.74,3,4,2.17.41,3.1.7,3.1,1.58,0,1.17-2.34,1.46-8.77,1.46-7.25,0-8.72-.23-8.72-1.41s1.23-1.11,3.05-1.52c1.34-.29,2.16-1.28,2.1-3.74l-.94-23.75c-.11-3.22-.17-4.15-.58-4.15s-.88.88-2.16,4L522.12,40.77c-.7,1.76-1.4,3.57-2.4,3.57s-1.64-1.52-2.57-3.63L505.68,15c-1-2.16-1.58-4.15-2.22-4.15s-.64,2.34-.82,5.62l-.88,19.48c-.17,4,.71,5.49,2.87,5.9,1.46.3,3.28.53,3.28,1.47,0,1.23-2.05,1.46-8.84,1.46-6.61,0-7.89-.29-7.89-1.46s1.4-1.17,3.51-1.53C497,41.41,498,40.3,498.25,36l1.47-28.6c.23-4.86-5-2.75-5-5.21,0-1.11,2.28-1.34,7.89-1.34C506,.88,506.79,1.52,507.85,4Z"/><path class="cls-1" d="M590.84,12.34c0-7.43-1.28-7.95-4-8.54-1.47-.29-3.28-.17-3.28-1.46s1.64-1.46,9.3-1.46c7.31,0,8.6.29,8.6,1.46s-1.4,1.17-3.51,1.52-3.57,1.23-3.57,6.9V39.48c0,3.69-.41,5.27-1.52,5.27-1.87,0-2.69-1.93-5.09-4.91L568,15.15c-2.75-3.39-2.92-3.8-3.68-3.8s-.88,1.4-.88,5.2V33.28c0,7.43,1.28,7.9,4.62,8.54,1.46.3,3.27-.06,3.27,1.47,0,1.34-1.17,1.46-9.76,1.46-7.78,0-8.72-.29-8.72-1.46s1.4-1.17,3.51-1.53c2.28-.35,3.57-1.28,3.57-7.83V9.18c0-7.07-5.21-4.5-5.21-7,0-1,1.17-1.28,7.43-1.28,3.8,0,3.28,1,7,5.67l16.09,20.12c2.45,3,3.92,4.63,4.79,4.63.7,0,.76-2.35.76-5.15Z"/><path class="cls-1" d="M26.67,71.47C39,71.47,48,80.07,48,93.58c0,13.75-9.88,22.93-21.93,22.93-13.69,0-21.59-8.36-21.59-21.93C4.5,80.25,15.33,71.47,26.67,71.47Zm.76,42.18c8.49,0,13.46-7,13.46-17.67,0-14.68-8-21.76-15.68-21.76-7.31,0-13.57,6-13.57,18.55C11.64,103.88,18.31,113.65,27.43,113.65Z"/><path class="cls-1" d="M86,84.46c0,9.07-7.6,14.62-15,14.62-2.17,0-4-.11-4.92-.11a2,2,0,0,0-2,2v7.78c0,2.87,1.06,3.86,2.93,4.16,2.16.4,3.39.64,3.39,1.57,0,1.12-1.28,1.41-9.36,1.41-7.25,0-8.89-.29-8.89-1.41,0-.93,1.29-1.17,3.1-1.52,1.64-.29,2.58-1.46,2.58-4.68V78.9c0-2.46-1.17-3.57-2.64-3.92s-2.92-.58-2.92-1.52c0-1.11,2.22-1.4,8.66-1.4h.58c5.09-.06,7.14-.3,10-.3C81.71,71.76,86,77.5,86,84.46ZM64,92.82c0,3.34,1.58,3.75,4.57,3.75,6.49,0,10.82-3.75,10.82-10.3A11.88,11.88,0,0,0,67.85,74.46c-3.1,0-3.81.82-3.81,5Z"/><path class="cls-1" d="M106.45,115.93c-8.48-1.81-15.21-9.07-15.21-21.35,0-14.33,10.82-23.11,22.17-23.11,12.34,0,21.35,8.6,21.35,22.11,0,9.77-5,16.5-10.47,19.37-3.16,1.63-3.39,2-3.39,2.63s.58,1.75,3.39,3.68c3.16,2.17,6.9,3.92,10.88,3.92,2.92,0,5.2-1.87,6.2-1.87a1.3,1.3,0,0,1,1.4,1.35c0,1.28-5.55,5-10.53,5C119.26,127.69,117,118.21,106.45,115.93Zm7.72-2.28c8.48,0,13.45-7,13.45-17.67,0-14.68-8-21.76-15.67-21.76-7.31,0-13.57,6-13.57,18.55C98.38,103.88,105,113.65,114.17,113.65Z"/><path class="cls-1" d="M152.36,108.32c0,3.22,1,4.27,2.93,4.63,2.16.4,3.39.64,3.39,1.57,0,1.12-1.29,1.41-9.36,1.41-7.25,0-8.89-.29-8.89-1.41,0-.93,1.29-1.17,3.1-1.52,1.64-.29,2.57-1.46,2.57-4.68V78.84c0-2.34-1.17-3.51-2.63-3.86s-2.93-.58-2.93-1.52c0-1.11,2.23-1.4,8.66-1.4h1.87c3.81-.06,5.85-.3,8.66-.3,9.89,0,13.81,4.51,13.81,10.83,0,5.55-2.4,8.89-6.5,11.17-2.16,1.17-2.4,1.34-2.4,1.93s.53,1.4,2.52,4L171.9,106c5.09,6.79,6.43,7.14,9.42,7.14,1.34,0,1.75.41,1.75,1.17,0,1.29-1.64,2.16-5.91,2.16-5.44,0-6.43-.23-11-7.25L159,98.5c-1.11-1.64-1.64-1.93-4.27-1.93-1.81,0-2.34.58-2.34,3Zm0-19c0,3.86.94,4.33,5.15,4.33,6.49,0,9.47-2.75,9.47-8.71,0-6.26-4.38-10.47-10.82-10.47-3.1,0-3.8.82-3.8,5Z"/><path class="cls-1" d="M210.26,73.11c2.11,0,3.05,6.55,3.05,10.41,0,1.35-.47,1.7-1.12,1.7C209.91,85.22,207.57,74,199,74a6.6,6.6,0,0,0-6.84,6.61c0,3.63,1.58,7.19,9.77,9.77,9.3,2.92,13.45,7.19,13.45,14.15,0,6.79-5.67,12-14.56,12-5.44,0-7.14-1.69-11.47-1.69-3.39,0-3.92-8-3.92-13.11,0-.93.29-1.69,1.35-1.69,2,0,2.69,13.74,14.86,13.74a7.3,7.3,0,0,0,7.42-7.31c0-3.86-1.34-7.54-11.29-10.7-8.48-2.69-11.28-7.43-11.28-12.29,0-6.78,5.79-12,13.74-12C204.77,71.47,206.11,73.11,210.26,73.11Z"/><path class="cls-1" d="M241.44,108.32c0,3.69,1.28,4.33,2.92,4.68,2.17.47,3.4.47,3.4,1.52s-1.58,1.41-9.36,1.41-9.48-.29-9.48-1.41,1.58-1.17,3.39-1.52c1.64-.29,2.87-1,2.87-4.68V79.6c0-4.27-1.35-5-4-5h-.35c-9.24,0-8.71,9.3-10.59,9.3a1.28,1.28,0,0,1-1.46-1.4c0-3,1.11-11.35,3.1-11.35,1.58,0,1.87.88,7.31.88h18.31c5.44,0,5.74-.88,7.31-.88,2,0,3.1,8.31,3.1,11.35a1.28,1.28,0,0,1-1.46,1.4c-1.87,0-1.17-9.3-10.58-9.3h-.36c-2.69,0-4,.7-4,5Z"/><path class="cls-1" d="M266.58,99.26V79.49c-.05-3.1-1.05-4.16-2.63-4.51S261,74.4,261,73.46c0-1.11,2.16-1.4,8.6-1.4,7.25,0,8.71.29,8.71,1.4,0,.94-1.46,1.23-2.92,1.52-1.64.35-2.58,1.46-2.58,4.68V96.22c0,11.58,3.75,15.38,12.05,15.38,8,0,10.59-5.38,10.59-13.57V83c-.06-6.91-1.34-7.43-4-8-1.46-.29-3.27-.17-3.27-1.46s1.64-1.46,9.3-1.46c7.31,0,8.6.29,8.6,1.46s-1.41,1.17-3.51,1.52c-2.28.35-3.57,1.29-3.57,7.84V97.33c0,12.81-4,19.18-16.73,19.18C270.8,116.51,266.58,109.79,266.58,99.26Z"/><path class="cls-1" d="M327.24,73.52c0,1.93-2.87,1.4-4.56,1.87-1.93.53-1.76,2.52-.41,5.44l9.18,21.59c1.17,2.51,1.23,3.16,1.93,3.16s.88-.71,1.87-3.22L343,81.42c1.7-4.21.82-5.74-1.11-6.09s-3.74-.23-3.74-1.81c0-1.23,1.52-1.46,9.65-1.46,6,0,7.49,0,7.49,1.46,0,1.17-1,1.17-3.11,1.52-3.21.53-3.91,2.87-5.61,7.2l-12.23,31.23c-.7,1.76-1.4,3-2.39,3s-1.64-.93-2.58-3.1L315.83,81.83c-4.09-9.13-7.78-5.5-7.78-8.43,0-1.11,1-1.34,8.43-1.34C325.19,72.06,327.24,72.23,327.24,73.52Z"/><path class="cls-1" d="M401.23,73.52c0,2.87-5.38.82-5.38,4.33,0,.7.87,2.81,2,5.67l7.37,18.72c.71,1.7.76,2.22,1.35,2.22s.58-.58,1.17-2.63l6-20.35c1.29-4.33.94-5.8-.81-6.15-1.93-.35-3.51-.23-3.51-1.81,0-1.23,1.34-1.46,8.95-1.46,5.49,0,6.9,0,6.9,1.46,0,1.17-.94,1.17-2.93,1.52-2.92.53-3.8,2.81-5.14,7.2l-9.54,31.29c-.53,1.81-1.23,3-2.1,3-1.06,0-1.76-1.17-2.52-3.1l-10.12-26c-.41-1-.82-1.87-1.23-1.87s-.82.88-1.23,1.93l-9.53,26c-.7,1.76-1.35,3-2.34,3s-1.58-.93-2.34-3.1L365,81.83c-3.34-9.42-7.31-5.5-7.31-8.43,0-1.11,1-1.34,8-1.34,7.78,0,9.95.17,9.95,1.46,0,1.93-2.87,1.4-4.16,1.87-1.87.53-1.11,2.4-.06,5.44l7.26,21.24c.52,1.57.82,2.86,1.46,2.86s1-1.23,1.58-2.81l6-16.67c1.41-3.86,1.7-5.9,1.7-7.43,0-3.27-5.61-2-5.61-4.56,0-1.17,2.16-1.4,8-1.4C399.53,72.06,401.23,72.23,401.23,73.52Z"/><path class="cls-1" d="M446.55,73.46c0,2.22-5.14.82-5.14,3.22,0,1.34,6.43,11.7,7.89,11.7s8-10.06,8-11.58c0-2.64-3.86-1-3.86-3,0-1.17,2.22-1.69,8.3-1.69,5.44,0,6.79.23,6.79,1.4,0,2.17-3.86.24-7.14,4.68l-6.73,9c-2,2.69-3,4-3,5s.7,2.11,2.22,4.27l4.8,7c2.51,3.63,4.5,6.2,6.78,8,2.64,2,5,1.34,5,3.1,0,1.46-2.4,1.46-8.48,1.46-8,0-10.65.06-10.65-1.35,0-2,4.8-.7,4.8-2.86,0-1.64-7.9-13.81-9.36-13.81-1.64,0-8.49,11.47-8.49,13.11,0,2.51,4.51,1.22,4.51,3.39,0,1.29-1.11,1.52-10.35,1.52-4.39,0-6.09-.29-6.09-1.35,0-2.51,4.45-.23,8.72-6.31L441,99.73c2.45-3.51,3.21-4.8,3.21-5.62s-.7-2.16-2.57-5.09L436,80.89a14.29,14.29,0,0,0-4.45-4.68c-2.46-1.52-4.39-1-4.39-2.57,0-1.41,2.05-1.58,8.89-1.58C444.1,72.06,446.55,72.29,446.55,73.46Z"/><path class="cls-1" d="M490.48,101.31A7.75,7.75,0,0,0,489.19,97L476.85,78.55c-3-4.44-5.74-2.92-5.74-5.15,0-1.11,1.93-1.34,8.43-1.34,8.71,0,9.94.17,9.94,1.46s-2.05,1.29-3.74,1.76c-1.93.52-2.93,1.28-.12,5.43l7.2,10.59c1.05,1.58,1.81,2.87,2.39,2.87s1.47-1,2.52-2.93l5.32-9.76c2.52-4.63,1.87-5.91-.47-6.32-1.75-.29-2.8-.7-2.8-1.64,0-1.23.64-1.46,8.07-1.46,6,0,7.49,0,7.49,1.46,0,2.34-3.57.06-7.2,6.14l-9.65,16.2c-1.46,2.46-1.76,3.75-1.76,5.39v7.07c0,3.69,1.29,4.33,2.93,4.68,2.16.47,3.28.47,3.28,1.52s-1.47,1.41-9.25,1.41-9.24-.29-9.24-1.41,1.35-1.17,3.16-1.52c1.64-.29,2.87-1,2.87-4.68Z"/><path class="cls-1" d="M540,79.66c0,7.49-6.85,9.13-6.85,10.41,0,.94,1.35,1.82,3.63,4.62,3.45,4.22,4.09,6.15,5,6.15,1.11,0,7.37-9,7.37-10.94,0-3.34-4.45-2.11-4.45-3.69,0-.87,1.17-1.28,7.9-1.28,4.45,0,6.14.29,6.14,1.28,0,1.29-3,.18-5.85,4.39-7.31,10.94-9.24,11.76-9.12,12.93,0,.58.52,1.34,2.63,4,1.58,2,3.39,3.46,4.86,3.46,4.56,0,5.55-3.57,6.49-3.57s1.05.23,1.05,1c0,1.7-3.33,8.07-9.36,8.07s-9.06-7.78-10.35-7.78-6.2,7.78-13.34,7.78A11.46,11.46,0,0,1,514.16,105c0-10.35,10.88-12.52,10.88-13.92,0-1.81-5-3-5-10.24,0-5.32,5-9.24,11.11-9.24C536.51,71.59,540,75,540,79.66Zm-20.3,22.64c0,5.38,4.44,9.36,8.6,9.36,4.73,0,8.07-4.45,8.07-5.56s-.53-2.92-4.56-7.84c-3.22-3.8-4.16-4.15-5.33-4.15C524.28,94.11,519.72,97.74,519.72,102.3Zm5.56-23.22c0,4.44,4.15,8.89,5.61,8.89s4-2.93,4-6.67c0-4.5-1.64-7.6-5.09-7.6C527.44,73.7,525.28,75.57,525.28,79.08Z"/><path class="cls-1" d="M593,72.06c1.58,0,2.1.35,2.1,1.34,0,.76-.7,1.76-1.46,3l-22,33.92c-1.35,2-.24,2.46,6.2,2.46,14.8,0,16-12.28,18.42-12.28.82,0,1.17.29,1.17,1.05,0,2.1-1.81,14.39-6.72,14.39h-27.5c-.87,0-1.4-.35-1.4-1.05s.58-1.35,1.87-3.4l21.53-32.81c2-3,1.34-3.69-4.92-3.69-13.57,0-12.92,11.53-15.44,11.53-.82,0-1.58-.3-1.58-1.29s1.87-13.75,4.15-13.75c1.35,0,1.58.59,3.63.59Z"/><path class="cls-1" d="M91.89,164.7v15.21c0,1.87.64,3.4,2.22,3.4,1.17,0,2.34-1.06,2.92-1.06s.82.29.82.88c0,1.29-4.27,4.56-7.19,4.56-3.8,0-3.45-3.1-5.38-3.1s-4.8,3.1-8.78,3.1-7.25-2.8-7.25-7.95c0-4.45,3.69-6.73,8.42-8,5.79-1.52,8.54-1.05,8.54-5.67,0-3.75-2.22-6.55-6-6.55-5.38,0-6.55,3.15-7.78,3.15a1.34,1.34,0,0,1-1.41-1.34c0-1.7,6-5.85,12.4-5.85C88.2,155.52,91.89,158.56,91.89,164.7ZM80.31,184.12c3.21,0,5.9-1.93,5.9-5.55,0-4.68-.29-5.62-3-5.62-4.09,0-8,1.7-8,4.92S77.56,184.12,80.31,184.12Z"/><path class="cls-1" d="M128.73,161.78A22.63,22.63,0,0,1,130.9,172c0,7.6-6,15.67-16.44,15.67-8.77,0-12-2.75-12-6.14V144.93a2.26,2.26,0,0,0-1.58-2.34c-.7-.23-2.57-.11-2.57-1.17,0-1.4,6.55-3.45,8.71-3.45.76,0,1.11.7,1.11,2.34v15.33c0,2.75.12,3.68,1.41,3.68,1.52,0,6-3.8,9.47-3.8C123.7,155.52,126.74,158.15,128.73,161.78Zm-12.34,23.75c3.8,0,8.25-4.68,8.25-11.76,0-10.59-5.62-13.63-9.3-13.63-5.21,0-7.49,2.05-7.49,12.46S111.6,185.53,116.39,185.53Z"/><path class="cls-1" d="M161.78,160.55c0,2.11-1.4,3.28-3.63,3.28-2.45,0-2-6.26-7.25-6.26-5.09,0-8.25,5.55-8.25,13.16,0,8,4,13.16,9.83,13.16,5.5,0,8-5.67,9.24-5.67a.79.79,0,0,1,.88.82c0,2.33-4.45,8.65-11.82,8.65-9.59,0-14.68-6.14-14.68-15.67s7.2-16.5,15.56-16.5C157.74,155.52,161.78,158.21,161.78,160.55Z"/><path class="cls-1" d="M195.7,180.5c0,1.93.7,2.81,1.93,2.81.82,0,1.81-.41,2.52-.41a1,1,0,0,1,1,1.11c0,1.34-7.19,3.68-9.47,3.68-1.82,0-1.12-3.57-2.4-3.57-1.64,0-5.21,3.57-9,3.57a11.54,11.54,0,0,1-9.07-3.86c-2.51-2.63-3.92-6.61-3.92-11.87,0-9,6-16.44,14.39-16.44,2.52,0,4.74.88,6.67.88,1.46,0,1.7-1,1.7-3v-8.25a2.25,2.25,0,0,0-1.46-2.4c-1-.29-2.75-.17-2.75-1.23,0-1.29,6.61-3.51,8.77-3.51.7,0,1.11.7,1.11,2Zm-12.11,3.27c4.51,0,6.73-3.51,6.73-12.28,0-10.82-4.33-13.75-8.48-13.75-4.68,0-8.31,4.27-8.31,12.76C173.53,178.27,178,183.77,183.59,183.77Z"/><path class="cls-1" d="M229.86,164.94c0,3.27-2.11,4.27-8.25,4.27h-9.3a1.34,1.34,0,0,0-1.46,1.58c.41,8.6,4.85,13,9.88,13,5.38,0,7.26-4.5,8.78-4.5.52,0,.82.29.82.7,0,2-4.63,7.72-11.88,7.72-8.42,0-13.86-6.26-13.86-16.26,0-9.12,6.9-15.91,14.39-15.91S229.86,160,229.86,164.94ZM218.45,167c3.57,0,5.15-.46,5.15-2.22A6.46,6.46,0,0,0,217,158c-2.93,0-5.85,2.28-5.85,7.31C211.14,166.58,211.84,167,218.45,167Z"/><path class="cls-1" d="M259.69,142.48c0,2.28-1.64,3.33-3.57,3.33s-2.46-4.74-6.79-4.74c-2.57,0-5.09,2.17-5.09,8.89v4.92c0,1.93.53,2.1,2,2.1h4.15c1.41,0,2.23.41,2.23,1.46s-.65,1.88-2.23,1.76l-4.09-.23c-1.58-.12-2.11.11-2.11,2.28V179.8c0,3.45.53,4.32,2.17,4.68,1.46.29,2.34.64,2.34,1.22,0,1.11-1.23,1.41-7.31,1.41s-7.32-.3-7.32-1.41c0-.58.88-.93,2.34-1.22,1.64-.36,2.11-1.29,2.11-4.8v-17.2c0-3.27-4-2.1-4-3.92s4-.12,4-4.27c0-12.22,7.78-16.32,13.45-16.32C256.59,138,259.69,140.08,259.69,142.48Z"/><path class="cls-1" d="M277.64,157.16c4.39,0,6-1.64,7.14-1.64a1.4,1.4,0,0,1,1.11,1.35c0,2.1-4.56,1.81-4.56,3.74,0,1,.87,2.34.87,5.5a11.77,11.77,0,0,1-11.7,12.16h-.93c-4.15,0-5.44.82-5.44,2.7s1.29,3.27,5,3.27h7.25c5,0,9.6,2.57,9.6,8.07,0,5-6.73,10.53-16.32,10.53-6.2,0-8.95-.82-11.29-2.1-2.93-1.64-3.51-3.4-3.51-5.39,0-3.74,6.84-5.73,6.84-7.31,0-1.28-2.75-1.34-2.75-4.73,0-2.17,3.75-3.51,3.75-5.09,0-1.17-2.34-1.58-4-3.4a11,11,0,0,1-2.57-7.37c0-6.84,5.09-11.93,12.63-11.93C273.14,155.52,275.13,157.16,277.64,157.16Zm-16.9,37c0,3.39,3.21,5.9,11,5.9,5.33,0,9.19-2.28,9.19-6,0-4.21-4.8-5.32-12.58-5.32C263.37,188.75,260.74,191.61,260.74,194.13Zm1.63-28c0,5.79,3.28,10.12,7.67,10.12,3.62,0,6-3.75,6-9.3,0-5.79-4-9.54-7.54-9.54C265.65,157.39,262.37,160.84,262.37,166.11Z"/><path class="cls-1" d="M298.81,179.68c0,3.51.53,4.44,2.17,4.8,1.46.29,2.34.64,2.34,1.22,0,1.11-1.23,1.41-7.32,1.41s-7.31-.3-7.31-1.41c0-.58.88-.93,2.34-1.22s2.11-1.12,2.11-4V144.93a2.26,2.26,0,0,0-1.58-2.34c-.7-.23-2.63-.11-2.63-1.17,0-1.4,6.61-3.45,8.77-3.45.7,0,1.11.65,1.11,2.05v17.84c0,1.52.82,1.46,1.17,1.46,1.29,0,6-3.8,10.3-3.8,4.73,0,8.07,3.92,8.07,10.06v14.86c0,2.92.64,3.74,2.16,4s2.34.64,2.34,1.22c0,1.11-1.23,1.41-7.31,1.41s-7.31-.3-7.31-1.41c0-.58.88-.93,2.34-1.22s2.1-1.12,2.1-4V169.27c0-6.56-2.45-9.6-7-9.6-4.21,0-6.9,2.11-6.9,7.2Z"/><path class="cls-1" d="M336.3,179.68c0,3.51.53,4.44,2.17,4.8,1.46.29,2.34.64,2.34,1.22,0,1.11-1.23,1.41-7.32,1.41s-7.31-.3-7.31-1.41c0-.58.88-.93,2.34-1.22s2.11-1.23,2.11-4.63V162.48a2.25,2.25,0,0,0-1.58-2.34c-.7-.23-2.46-.12-2.46-1.17,0-1.4,6.44-3.45,8.6-3.45.76,0,1.11.7,1.11,2.34Zm-6.73-36.33a3.6,3.6,0,1,0,7.2,0,3.63,3.63,0,0,0-3.51-3.68A3.79,3.79,0,0,0,329.57,143.35Z"/><path class="cls-1" d="M348.93,162.83c0-1.58-.64-2.4-1.58-2.69-.7-.23-2.45-.12-2.45-1.17,0-1.4,6.43-3.45,8.6-3.45.76,0,1.11.7,1.11,2.34v25.62c0,13.75-10.77,18.84-13.63,18.84a.82.82,0,0,1-.88-.82c0-1.23,8.83-2.75,8.83-15.62Zm-1.34-19.48a3.6,3.6,0,1,0,7.19,0,3.63,3.63,0,0,0-3.51-3.68A3.78,3.78,0,0,0,347.59,143.35Z"/><path class="cls-1" d="M372.91,180c0,3.28.53,4.15,2.17,4.51,1.46.29,2.34.64,2.34,1.22,0,1.11-1.23,1.41-7.31,1.41s-7.32-.3-7.32-1.41c0-.58.88-.93,2.34-1.22,1.64-.36,2.11-1.29,2.11-4.8V144.93a2.26,2.26,0,0,0-1.58-2.34c-.7-.23-2.63-.11-2.63-1.17,0-1.4,6.61-3.45,8.77-3.45.7,0,1.11.65,1.11,2.05v28c0,1.17.59,1.52,1.29,1.52,1.35,0,2.4-.88,5.44-3.68l2.57-2.75c1.23-1.35,2.05-2.11,2.05-3.22,0-1.76-3.22-1-3.22-2.34,0-.94,1.76-1.4,8-1.4,3.92,0,5.67.23,5.67,1.28,0,1.23-2.05,1-3.92,1.87a16,16,0,0,0-4.27,3.22L384,165c-2.17,2.1-3,3.1-3,4s1.17,2.52,2.57,4.27l4.39,5.38c2.34,2.87,4.44,5.74,7.13,5.74,1.76,0,2.46-.65,3.05-.65s.7.3.7.82c0,1.29-4,3.1-6.73,3.1-3.1,0-5.56-1.05-8.07-4.44l-6.73-9.07c-1.11-1.52-2.16-3-3-3s-1.29.41-1.29,1.63Z"/><path class="cls-1" d="M404.61,145.23a2.53,2.53,0,0,0-1.58-2.64c-.7-.23-2.45-.11-2.45-1.17,0-1.4,6.43-3.45,8.6-3.45.76,0,1.11.7,1.11,2.34v39.54c0,3.4.52,4.27,2.16,4.63,1.46.29,2.34.64,2.34,1.22,0,1.11-1.23,1.41-7.31,1.41s-7.31-.3-7.31-1.41c0-.58.87-.93,2.34-1.22,1.63-.36,2.1-1.29,2.1-4.8Z"/><path class="cls-1" d="M448.36,179.68c0,3.51.53,4.44,2.17,4.8,1.46.29,2.34.64,2.34,1.22,0,1.11-1.23,1.41-7.31,1.41s-7.32-.3-7.32-1.41c0-.58.88-.93,2.34-1.22,1.64-.36,2.11-1.29,2.11-4.8V169.27c0-6.56-2.46-9.6-7-9.6-4.21,0-6.9,2.29-6.9,7.2v13.57c0,2.92.64,3.74,2.16,4s2.34.64,2.34,1.22c0,1.11-1.23,1.41-7.31,1.41s-7.31-.3-7.31-1.41c0-.58.87-.93,2.34-1.22,1.63-.36,2.1-1.29,2.1-4.8v-17.2a2.25,2.25,0,0,0-1.58-2.34c-.7-.23-2.45-.12-2.45-1.17,0-1.4,6.43-3.45,8.6-3.45.76,0,1.11.7,1.11,2.34s.52,1.46.87,1.46c1.29,0,6.09-3.8,10.07-3.8,5.26,0,5.55,3.92,8.07,3.92,2.75,0,6.78-3.92,12-3.92,4.74,0,8.07,3.92,8.07,10.06v14.1c0,3.51.53,4.44,2.16,4.8,1.47.29,2.34.64,2.34,1.22,0,1.11-1.22,1.41-7.31,1.41s-7.31-.3-7.31-1.41c0-.58.88-.93,2.34-1.22,1.64-.36,2.11-1.29,2.11-4.8V169.27c0-6.56-2.46-9.6-7-9.6-4.22,0-6.79,2-6.91,6.85Z"/><path class="cls-1" d="M480.18,162.83c0-1.58-.65-2.4-1.58-2.69-.7-.23-2.46-.12-2.46-1.17,0-1.4,6.44-3.45,8.6-3.45.76,0,1.11.7,1.11,2.34s.53,1.46.88,1.46c1.29,0,6.26-3.8,10.59-3.8,4.73,0,8.07,3.92,8.07,10.06v14.1c0,3.51.53,4.44,2.16,4.8,1.47.29,2.34.64,2.34,1.22,0,1.11-1.23,1.41-7.31,1.41s-7.31-.3-7.31-1.41c0-.58.88-.93,2.34-1.22,1.64-.36,2.1-1.29,2.1-4.8V169.27c0-6.56-2.45-9.6-7-9.6-4.21,0-6.9,2.05-6.9,7.2v13.57c0,2.92.65,3.74,2.17,4s2.34.64,2.34,1.22c0,1.11-1.23,1.41-7.32,1.41s-7.31-.3-7.31-1.41c0-.58.88-.93,2.34-1.22s2-1.06,2.11-3.75Z"/><path class="cls-1" d="M532.7,150.61c0,8.65-9.53,11.11-9.53,15.85,0,3.22,2.69,2.46,2.63,4.33-.06,1.46-3.69,2.69-6,2.69-1.11,0-1.58-.47-1.58-2.4,0-6.9,8-11.06,8-17.61,0-4-2-6.37-5.38-6.43-4.45-.06-5.39,3.51-6.73,3.51-1,0-1.35-.65-1.35-1.46,0-1.64,4.27-6.44,11.35-6.44C530,142.65,532.7,146.63,532.7,150.61Zm-11.52,36.5a3.72,3.72,0,1,1,3.68-3.69A3.79,3.79,0,0,1,521.18,187.11Z"/><path class="cls-1" d="M78.67,212c.58,0,.76.29.76.7,0,1-3.45,2.4-3.45,5.5,0,3.51,3.45,3.16,3.45,5.15a3.78,3.78,0,0,1-3.57,3.39c-2.22,0-3.92-2.11-3.92-5.91C71.94,216.17,76.39,212,78.67,212Zm10.17,0c.59,0,.77.29.77.7,0,1-3.46,2.4-3.46,5.5,0,3.51,3.46,3.16,3.46,5.15A3.78,3.78,0,0,1,86,226.7c-2.23,0-3.92-2.11-3.92-5.91C82.12,216.17,86.56,212,88.84,212Z"/><path class="cls-1" d="M105.34,226.7c7.78,0,15,5.73,15,15.56,0,10.94-7,16.61-15.44,16.61-9.42,0-15.38-6.32-15.38-16.08A15.91,15.91,0,0,1,105.34,226.7Zm.64,30c4.92,0,7.84-5.44,7.84-12.29,0-11.11-5-15.55-9.71-15.55-4.09,0-8,4.85-8,12.28C96.1,250.22,100.66,256.71,106,256.71Z"/><path class="cls-1" d="M134.11,230.5c1.87,0,5.56-3.8,10.36-3.8,4,0,6.37,1.64,8.65,5,1.88,2.75,2.81,7.14,2.81,10.88,0,8.07-5.5,16.26-14.21,16.26-3.1,0-5-1.17-6.5-1.17s-2,1.11-2,2.52v6.31c0,2.87.64,3.69,2.16,4s2.93.47,2.93,1.23c0,1.11-1.47,1.4-7.9,1.4-6.08,0-7.31-.29-7.31-1.4,0-.59.88-.94,2.34-1.23,1.64-.35,2.1-1.28,2.1-4.79V233.66a2.25,2.25,0,0,0-1.58-2.34c-.7-.23-2.45-.12-2.45-1.17,0-1.4,6.43-3.45,8.6-3.45.76,0,1.11.7,1.11,2.34C133.18,230.21,133.53,230.5,134.11,230.5Zm8,26.21c3.8,0,7.6-5,7.6-11.7,0-10.12-4.68-14.27-9.42-14.27-7.48,0-7.36,10-7.36,12.46C132.89,252.85,137.8,256.71,142.07,256.71Z"/><path class="cls-1" d="M184.77,229.39c1.69,0,2.39-3,3.86-3,.52,0,.93.29.93,1.05a68.44,68.44,0,0,0-.82,10.59v28.37c0,3,.59,3.8,2.11,4.15s2.34.64,2.34,1.23c0,1.11-1.23,1.4-7.31,1.4-6.44,0-7.9-.29-7.9-1.4,0-.76,1.46-.94,2.92-1.23,1.64-.35,2.17-1.28,2.17-4.79v-7.49c0-1.7-.53-2.34-1.41-2.34-1.75,0-5.14,2.92-8.77,2.92-3.92,0-6.9-1.23-9.07-3.57-1.93-2-3.51-6-3.51-12.16,0-8.78,6.2-16.5,15.27-16.5C180.26,226.64,183.36,229.39,184.77,229.39Zm-18.2,11.88c0,9.12,4.8,14.39,9.89,14.39,3.74,0,6.9-4.33,6.9-13.81,0-8.83-4-13.22-8.42-13.22C170.9,228.63,166.57,232.84,166.57,241.27Z"/><path class="cls-1" d="M205.82,250.86c0,3.8.88,4.44,2.51,4.8,1.47.29,2.46.64,2.46,1.22,0,1.11-1.7,1.41-7.78,1.41s-7.31-.3-7.31-1.41c0-.58.88-.93,2.34-1.22,1.64-.36,2.1-1.29,2.1-4.8v-17.2a2.25,2.25,0,0,0-1.57-2.34c-.71-.23-2.46-.12-2.46-1.17,0-1.4,6.43-3.45,8.6-3.45.76,0,1.11.7,1.11,2.34,0,1.05.35,1.46.93,1.46,1.06,0,4.74-4,7.26-4s4.5,1.52,4.5,3.62-1.34,4.21-3.16,4.21c-1.63,0-2.1-3-5.9-3-2.29,0-3.63,1.76-3.63,5.38Z"/><path class="cls-1" d="M241.09,227.87c1.28,0,1.58,1.7,1.58,4,0,3.39-.24,4.44-1.06,4.44-2.22,0-2.57-7.66-8.24-7.66-3.34,0-5.21,1.93-5.21,4.68,0,2.52,1.46,4.56,7.2,7,6.78,2.87,9,5.85,9,10.12,0,5.21-4.32,8.48-10.7,8.48-4,0-6.32-1.17-9.42-1.17-2.16,0-2.1-3.39-2.1-5.61,0-1.93.11-4.33,1.22-4.33,1.93,0,2.64,9.18,10,9.18,3.45,0,5-2.1,5-4.74,0-2.8-1.82-5.2-8.13-7.78s-7.43-5.9-7.43-9.35c0-4.74,4.39-8.37,10.29-8.37C236.47,226.7,238.57,227.87,241.09,227.87Z"/><path class="cls-1" d="M257.87,225.24c.29,2,.59,3,3,3h4c1.11,0,2,.35,2,1.46s-.41,1.82-2.22,1.7l-3.57-.23c-2.28-.18-2.87.35-2.87,3.1v13.86c0,4.62,2.46,6.43,5.33,6.43,2.16,0,3.62-2.22,4.62-2.22.53,0,.76.29.76.88,0,1.75-4.74,5.67-8.13,5.67a8,8,0,0,1-8.25-8.24V235.77c0-2.93-.29-3.92-1.17-4.57s-2.46-.4-2.46-1.58c0-1.34,1.29-.81,4-3.68,2.4-2.51,2.22-4.21,3.69-4.21C257.52,221.73,257.58,223.25,257.87,225.24Z"/><path class="cls-1" d="M300.45,250.92c0,2.1.65,3.16,1.82,3.16.7,0,1.28-.36,1.75-.36s.82.3.82.94c0,1.58-6.43,4.21-8.42,4.21-1.82,0-1.11-3.74-2.34-3.74s-5.85,3.74-10.18,3.74c-5.15,0-8.66-4.21-8.66-10.35V233.66a2.25,2.25,0,0,0-1.58-2.34c-.7-.23-2.45-.12-2.45-1.17,0-1.4,6.43-3.45,8.59-3.45.77,0,1.12.7,1.12,2.28v16.38c0,6.55,2.63,9.77,7.13,9.77,3.45,0,6.73-2.69,6.73-7.61V233.66a2.25,2.25,0,0,0-1.58-2.34c-.7-.23-2.46-.12-2.46-1.17,0-1.4,6.44-3.45,8.6-3.45.76,0,1.11.7,1.11,2.34Z"/><path class="cls-1" d="M331.16,235.47a13.11,13.11,0,0,0,1.17-4.15c0-2.22-3.34-1.11-3.34-2.69,0-.82,2-1.34,6.5-1.34,3.68,0,5.09.29,5.09,1.11,0,1.81-3.51.29-5.33,4.74l-8.65,21.4c-1.23,3.1-1.93,4.33-3.1,4.33s-1.88-1.17-3-3.86l-9.77-22.34c-1.63-3.75-4.33-2.17-4.33-3.92,0-1.29,2.23-1.46,7.14-1.46,5.38,0,7.37.17,7.37,1.4,0,1.7-3.63.7-3.63,2.63a12.17,12.17,0,0,0,1.17,4.33l4.22,10.47c1.05,2.63,1.4,4.33,2.1,4.33s1.23-1.58,1.93-3.39Z"/><path class="cls-1" d="M361.86,254.54c-1.34,3.4-1.93,4.33-3.1,4.33s-1.87-1-3-3.86l-8.72-22.34c-1.46-3.8-4.32-2.17-4.32-3.92,0-1.29,2.22-1.46,7.13-1.46,5.38,0,7.31.29,7.31,1.4,0,1.81-3.74.64-3.74,2.69a13.79,13.79,0,0,0,1.11,4.45l3.86,10.76c.94,2.69,1.11,3.74,1.81,3.74s1.18-1.28,1.93-3.21l3.81-10c1.23-3.21,1.46-4.09,1.46-5.5,0-2.34-3.57-1.28-3.57-2.92,0-1.23,1.35-1.4,6.38-1.4,4.33,0,6.55.17,6.55,1.4,0,1.64-3.74.53-3.74,2.87,0,.52-.06,1.4,1,4.21l4.21,10.41c1.05,2.57,1.23,4,1.93,4s.82-1.17,1.46-3.16l3.69-11.47a15.14,15.14,0,0,0,1-4.09c0-2.28-3.33-1.17-3.33-2.81,0-.82,1.87-1.34,6.37-1.34,3.69,0,5.09.29,5.09,1.11,0,1.93-3.62.11-5.2,4.74l-7.43,21.4c-1.17,3.4-1.93,4.33-3.1,4.33s-2-1.28-3-3.86l-5.9-15.85c-.24-.7-.41-1.34-.88-1.34s-.59.46-.88,1.16Z"/><path class="cls-1" d="M411.46,228.34c0,1.4-3,.7-3,2.57,0,1.23,3.8,7.72,4.85,7.72.65,0,1.52-1.17,2.69-2.92,1.64-2.46,2.93-4.51,2.93-5,0-1.93-2.75-.82-2.75-2.28,0-.82,1.52-1.17,5.85-1.17,3.57,0,4.68.17,4.68.93,0,1.4-2.69.47-4.8,3.51l-4.44,6.49c-1.53,2.23-1.88,2.81-1.88,3.34s.35,1.29,1.47,3l3.21,4.8a23.21,23.21,0,0,0,4.62,5.61c1.88,1.47,3.86.88,3.86,2.11,0,1.05-2.22,1.23-6.49,1.23-5.79,0-8.3-.12-8.3-1.11,0-1.47,3.27-.59,3.27-2.17,0-1.17-4.85-8.89-5.91-8.89-.58,0-1.4,1.29-2.92,3.74-1.29,2.11-2.63,4.39-2.63,4.92,0,1.81,3.1.88,3.1,2.4,0,.87-1,1.11-7.61,1.11-3.74,0-4.85-.3-4.85-1.06,0-1.28,1.4-.87,3.86-2.1a7.53,7.53,0,0,0,2.51-2l4.68-6.78c1.35-2,1.64-2.64,1.64-3.34s-.7-1.69-2.05-3.68l-2.45-3.69c-2.29-3.39-3.05-4.21-4.27-5-1.76-1.11-3.51-.64-3.51-2.05,0-1,1.81-1.28,6.61-1.28C409.18,227.29,411.46,227.46,411.46,228.34Z"/><path class="cls-1" d="M433.62,232.67c-1.63-3.75-4.32-2.17-4.32-3.92,0-1.29,2.22-1.46,7.13-1.46,5.38,0,7.37.17,7.37,1.4,0,1.7-3.62.7-3.62,2.63a11.94,11.94,0,0,0,1.17,4.33l4.21,10.47c1.05,2.63,1.46,4.21,2.16,4.21s1.23-1.4,1.93-3.33l4.27-11.41a15.77,15.77,0,0,0,1.29-4.27c0-2.22-3.33-1.11-3.33-2.69,0-.82,1.87-1.34,6.37-1.34,3.69,0,5.15.29,5.15,1.11,0,1.81-3.45.23-5.27,4.74L448,258.29c-2.8,7.08-6.43,15.21-11.29,15.21-2.8,0-4.85-1.64-4.85-4a3.21,3.21,0,0,1,2.87-3.22c1.4,0,1.87,1.87,4.15,1.87,2,0,5.21-6,5.21-10,0-1.93-1.64-5.32-3.63-9.83Z"/><path class="cls-1" d="M487.08,227.29c1.58,0,2.11.35,2.11,1.34,0,.76-.76,1.76-1.46,3L476.2,249.4c-2,3-3.1,4.62-3.1,5.61s1.12,1.11,4.27,1.11c8.84,0,11.06-8.19,12.64-8.19.82,0,1.17.3,1.17,1.06,0,2.1-2,9.3-5.27,9.3H466.08c-.87,0-1.4-.35-1.4-1.06s.64-1.34,1.87-3.39l11.82-17.6c2.1-3.1,3.16-4.8,3.16-5.74s-.88-1.23-3.69-1.23c-8.13,0-9.71,7.2-11.29,7.2-.82,0-1.11-.29-1.11-1.29s2.46-8.48,4.74-8.48c1.34,0,1.58.59,3.63.59Z"/><path class="cls-1" d="M500.77,258.29a3.72,3.72,0,1,1,3.68-3.69A3.79,3.79,0,0,1,500.77,258.29Zm4.15-42.76c0,3.74-2.34,18.19-2.34,26.91,0,1.05-.41,2.22-1.64,2.22s-1.69-1.52-1.69-3.16c0-9.53-1.93-22.11-1.93-23.92,0-2.58,3-3.75,6.08-3.75C504.45,213.83,504.92,214.24,504.92,215.53Z"/><path class="cls-1" d="M512.58,226.7c-.58,0-.76-.29-.76-.7,0-1,3.45-2.4,3.45-5.5,0-3.51-3.45-3.16-3.45-5.15a3.77,3.77,0,0,1,3.57-3.39c2.22,0,3.92,2.11,3.92,5.91C519.31,222.49,514.86,226.7,512.58,226.7Zm10.18,0c-.59,0-.76-.29-.76-.7,0-1,3.45-2.4,3.45-5.5,0-3.51-3.45-3.16-3.45-5.15a3.77,3.77,0,0,1,3.57-3.39c2.22,0,3.92,2.11,3.92,5.91C529.49,222.49,525,226.7,522.76,226.7Z"/><path class="cls-1" d="M121.25,309.05c-2.58,9.83-2.81,13.16-2.81,14.8,0,1.11.35,1.7,1.17,1.7,3.22,0,5.15-5,6.43-5,.36,0,.59.23.59.76,0,2.34-4.91,8.42-9.53,8.42-2.7,0-4.1-1.23-4.1-4.15,0-2.69,1.93-5.33,1-5.33-1.16,0-5.61,9.48-12.81,9.48-4.09,0-6-4.33-6-8.6,0-12.63,10.12-23,17.72-23,3.86,0,4.92,1.29,6.61,1.29,2.17,0,2.75-1.87,3.8-1.87C124.76,297.59,123.88,299,121.25,309.05Zm-4.27-4.5c0-2.87-1.52-4.39-4-4.39-5,0-11.7,10.24-11.7,19,0,4.1.88,6.26,3.22,6.26s7.19-4.74,9.36-8.89A31.63,31.63,0,0,0,117,304.55Z"/><path class="cls-1" d="M156.81,306.13c0,11.64-9.54,23.57-18.89,23.57-4.86,0-9-1.93-7.84-7.78l6.78-34.33c.53-2.64.29-3.63-1-3.63-2.52,0-4.33,1.11-4.33-.24,0-1.57,4.91-3.39,10.65-3.39,1.05,0,1.63.59,1.34,1.93l-3.16,14.86c-2.05,9.48-4.21,11.46-3.51,11.76.53.23,1.17-1.29,1.7-2.05,3-4.56,7.49-8.66,12.17-8.66C154.35,298.17,156.81,300.69,156.81,306.13Zm-6,2.16c0-3.8-1.28-6-3.86-6-3.62,0-7.84,6.26-9.47,9.25a29.21,29.21,0,0,0-2.34,10.12c0,2.57,1.34,4.91,4.68,4.91C144.35,326.6,150.78,321.16,150.78,308.29Z"/><path class="cls-1" d="M182.42,320.69c0,2-6.08,9.07-13.33,9.07-4.62,0-7.61-3.74-7.61-9.36,0-13.22,8.72-22.23,16.38-22.23,5,0,7.61,2.46,7.61,4.56a3.06,3.06,0,0,1-3,3.34c-2.69,0-2-4.45-6.84-4.45-4.45,0-8.19,7.67-8.19,16.09,0,4.33,1.23,7.72,4.39,7.72,4.85,0,8.48-5.5,9.88-5.5A.66.66,0,0,1,182.42,320.69Z"/><path class="cls-1" d="M208.33,283.72c0-1.57,4.92-3.39,10.65-3.39,1.05,0,1.64.59,1.35,1.93-.41,1.87-8.72,37-8.72,41.59,0,1.11.35,1.7,1.17,1.7,3.22,0,5.73-5.68,7-5.68.35,0,.58.24.58.76,0,2.58-5.67,9.13-10.12,9.13-2.69,0-3.68-1.23-3.68-4.15,0-1.88,1.81-5.33.88-5.33-1.17,0-6.15,9.48-13.34,9.48-4.09,0-6-4.33-6-8.6,0-12.63,10-23,17.61-23,4,0,4.86,2.75,5.79-1.4l2.11-9.18c.58-2.64.29-3.63-1-3.63C210.15,284,208.33,285.07,208.33,283.72Zm1.53,21.12c0-2.87-1.58-4.68-4.1-4.68-5,0-11.58,10.24-11.58,19,0,4.1.88,6.26,3.22,6.26s7.72-4.74,9.88-8.89C209,313.21,209.86,307.94,209.86,304.84Z"/><path class="cls-1" d="M245.77,321.39c0,1.94-6,8.37-13.28,8.37-4.92,0-8.25-3-8.25-10.41,0-11.7,8.31-21.18,17.67-21.18,2.86,0,5.67,1.11,5.67,5.15,0,4.27-4,8.71-14,10.82-2.52.53-3.92.53-3.92,2.34,0,6.73,2.11,9.24,5.91,9.24,5,0,8.07-5.09,9.47-5.09A.67.67,0,0,1,245.77,321.39ZM230.21,311c0,.88.35,1.17,1.46,1.17,4.44,0,9.94-2.28,9.94-7.13,0-2.52-1.17-3.63-3.21-3.63C235.12,301.39,230.21,306.36,230.21,311Z"/><path class="cls-1" d="M280,284.78a3.14,3.14,0,0,1-3.33,3.39c-2.4,0-2.29-4.74-6.91-4.74s-6.55,12.34-6.55,14.8c0,1,.47,1.11,1.52,1.11h5.5c1,0,1.46.29,1.46,1.35s-.7,1.87-2.45,1.87c-.88,0-3.92-.24-5-.24-1.47,0-1.7,1.12-1.88,2.52-.46,4.21-1.93,17.26-3.86,25.27-1.81,7.6-4.56,14-12.57,14-4.57,0-6.38-2-6.38-4.33,0-1.93,1.35-3.1,3.45-3.1s1.52,4.68,5.15,4.68c4.1,0,5.32-10.47,6.73-19.07,1.17-7.13,2.1-16.61,2.1-17.66,0-3.34-4.21-1.88-4.21-3.75s4.45-.29,5.09-3.62c1.93-9.71,6.73-16.91,15.5-16.91C277,280.33,280,282.38,280,284.78Z"/><path class="cls-1" d="M292.85,298.82c2.63,0,5-1.23,5.91-1.23a1.15,1.15,0,0,1,1.17,1.23c0,1.81-4.8,1.63-4.8,3.33,0,.76.82,2.28.82,5,0,5.85-3.4,11.76-10.94,13.63-2.28.59-3.1,1.52-3.1,2.81,0,4.39,13.75,2.63,13.75,10.53,0,5.26-6.91,10.58-17.61,10.58-8.66,0-11.29-2.57-11.29-5.79,0-6.72,11.46-9,11.76-9.88.17-.59-1.76-1.23-1.76-3,0-2.81,3.63-3.63,3.63-4.27,0-.41-.7-.65-1.35-.82-3.8-1.06-6-3.81-6-8a14.67,14.67,0,0,1,14.33-14.74C289.57,298.17,291.33,298.82,292.85,298.82ZM272.26,337c0,3.34,2.81,5.33,8.3,5.33,5.33,0,10.24-2.58,10.24-6.26,0-4-8.25-5.5-10.18-5.5C278.05,330.58,272.26,333.27,272.26,337ZM290.1,306.6c0-3.22-.88-6.15-4.1-6.15-2.69,0-7,4.16-7,12.4,0,3,.94,6.09,4.45,6.09C286.41,318.94,290.1,314.14,290.1,306.6Z"/><path class="cls-1" d="M304,283.72c0-1.57,4.91-3.39,10.64-3.39,1.06,0,1.64.59,1.35,1.93-.24,1-2.87,12.34-4.33,18.95a74.29,74.29,0,0,1-2.34,8.78,10.6,10.6,0,0,0-.64,2c0,.3.17.41.35.41s.7-1.05,1.11-1.81c2.81-5.2,7.9-12.46,14.51-12.46,3,0,5.08,1.93,5.08,6.38,0,11.64-8,25.21-12.86,25.21-2.23,0-3.34-1.11-3.34-2.93,0-5.38,5-.81,7.37-3.27,2.63-2.69,3.57-11.06,3.57-15.56,0-3.22-1.29-4.62-3.57-4.62-2.75,0-6.49,2.4-11.41,11.93-2.86,5.56-2.28,10.88-3.21,12.34a4.88,4.88,0,0,1-4.21,1.82c-1,0-1.35-.35-1.35-1.17,0-2.4,3.51-11.12,8.6-40.71.47-2.64.29-3.63-1-3.63C305.83,284,304,285.07,304,283.72Z"/><path class="cls-1" d="M334.43,305.72c0-1.41,4.74-7.55,9.12-7.55,2.17,0,3.1,1.29,3.1,3.63,0,4.15-6.14,18.72-6.14,22.05,0,1.11.35,1.7,1.17,1.7,3.22,0,5.27-5,6.55-5,.36,0,.59.23.59.76,0,2.57-5.21,8.48-9.65,8.48-2.69,0-4.1-1.23-4.1-4.15,0-4.27,6.09-18.2,6.09-21.3,0-1.05-.3-1.52-1.06-1.52-2.28,0-3.74,3.63-4.85,3.63C334.78,306.42,334.43,306.19,334.43,305.72Zm7.66-20a3.6,3.6,0,1,0,3.69-3.68A3.79,3.79,0,0,0,342.09,285.71Z"/><path class="cls-1" d="M352.79,305.54c0-1.4,4.92-7.37,9.31-7.37,2.16,0,3.21,1.29,3.21,3.63,0,9.42-7.08,42.29-18.36,42.29-2.23,0-3.34-.88-3.34-3.1,0-5.26,5.38.23,8.13-3.22s7.84-28,7.84-33.46c0-1.05-.29-1.52-1.05-1.52-2.28,0-3.75,3.63-4.86,3.63A.9.9,0,0,1,352.79,305.54Zm7.73-19.83A3.6,3.6,0,1,0,364.2,282,3.78,3.78,0,0,0,360.52,285.71Z"/><path class="cls-1" d="M373.15,283.72c0-1.57,4.91-3.39,10.64-3.39,1.06,0,1.64.59,1.35,1.93l-3.22,15c-2,9.31-4,11.29-3.21,11.53,1,.29,7.42-10.65,15.26-10.65a4.19,4.19,0,0,1,4.56,4.51c0,3.62-2.57,7.43-7.19,10.35-2.87,1.81-4.15,2.05-4.15,3.22,0,1.34,4.79,9.88,8.07,9.88,2.34,0,3.51-2.57,4.33-2.57.41,0,.76.17.76.64,0,1.64-3.28,5.85-7.84,5.85-2.22,0-3.63.12-9.3-9.88-1.7-3-2.28-3.16-4-3.16-1.11,0-1.46.52-2,2.28-1.34,4.44-1.23,7.49-1.81,8.36a4.88,4.88,0,0,1-4.21,1.82c-1,0-1.35-.35-1.35-1.17,0-2.4,3.51-11.12,8.6-40.71.47-2.64.29-3.63-1-3.63C375,284,373.15,285.07,373.15,283.72Zm19.71,22.17a2.27,2.27,0,0,0-2.4-2.51c-4.79,0-12.52,7.08-12.52,10.76,0,.76.36,1.17,1.41,1.17C385.49,315.31,392.86,310.46,392.86,305.89Z"/><path class="cls-1" d="M406.6,283.72c0-1.57,4.92-3.39,10.65-3.39,1.05,0,1.64.59,1.34,1.93-.41,1.87-8.71,37-8.71,41.59,0,1.11.35,1.7,1.17,1.7,3.22,0,5.73-5.68,7-5.68.35,0,.58.24.58.76,0,2.58-5.67,9.13-10.12,9.13-2.69,0-4.09-1.23-4.09-4.15,0-6.32,7.08-36.27,7.49-38,.58-2.64.29-3.63-1-3.63C408.42,284,406.6,285.07,406.6,283.72Z"/><path class="cls-1" d="M434.38,301.86c0,3.57-2.92,9.59-2.92,10.29a.36.36,0,0,0,.35.41c.29,0,.47-.17.94-.93,2.39-3.92,8.24-13.46,14.15-13.46,2.93,0,4.27,1.64,4.27,4.39s-2.81,8.54-2.81,9.12c0,.3.18.41.36.41s.46-.17.93-.93c2.4-3.92,8-13,13.92-13,2.93,0,4.51,2,4.51,4.92,0,3.8-5.79,17.72-5.79,21.05,0,1.11.35,1.7,1.17,1.7,3.21,0,5.73-5.67,7-5.67.35,0,.58.23.58.76,0,2.57-5.67,9.12-10.12,9.12-2.69,0-4.09-1.23-4.09-4.15,0-4.27,5.67-18.72,5.67-21.23,0-1.7-.7-2.23-1.75-2.23-2.81,0-7.61,5.91-11.24,12.4-3.27,5.91-3,11.64-3.91,13.11a4.9,4.9,0,0,1-4.22,1.81c-1,0-1.34-.35-1.34-1.17,0-2.22,5.79-21.41,5.79-23.92,0-1.7-.7-2.23-1.76-2.23-2.8,0-7.6,5.91-11.23,12.4-3.27,5.91-3,11.64-3.92,13.11a4.88,4.88,0,0,1-4.21,1.81c-1,0-1.34-.35-1.34-1.17,0-2.4,5.85-21.59,5.85-24.1,0-1.23-.3-1.7-1.06-1.7-2.22,0-3.8,3.63-5,3.63a.62.62,0,0,1-.7-.7c0-1.41,4.74-7.55,8.95-7.55C433.33,298.17,434.38,299.34,434.38,301.86Z"/><path class="cls-1" d="M487.2,301.86c0,3.57-2.93,9.59-2.93,10.29a.36.36,0,0,0,.36.41c.29,0,.46-.17.93-.93,2.4-3.92,8.25-13.46,14.16-13.46,2.92,0,4.5,2,4.5,4.92,0,3.8-5.79,17.72-5.79,21.05,0,1.11.35,1.7,1.17,1.7,3.22,0,5.73-5.67,7-5.67.35,0,.58.23.58.76,0,2.57-5.67,9.12-10.12,9.12-2.69,0-4.09-1.23-4.09-4.15,0-4.27,5.67-18.72,5.67-21.23,0-1.7-.7-2.23-1.75-2.23-2.81,0-7.61,5.91-11.23,12.4-3.28,5.91-3,11.64-3.92,13.11a4.88,4.88,0,0,1-4.21,1.81c-1,0-1.35-.35-1.35-1.17,0-2.4,5.85-21.59,5.85-24.1,0-1.23-.29-1.7-1.05-1.7-2.22,0-3.8,3.63-5,3.63a.62.62,0,0,1-.71-.7c0-1.41,4.74-7.55,8.95-7.55C486.15,298.17,487.2,299.34,487.2,301.86Z"/><path class="cls-1" d="M133,381c0,8.31-6.79,19.95-16.67,19.95-7.26,0-9.71-4.86-9.71-11.41,0-10,8-20.18,17-20.18C130.49,369.35,133,373.56,133,381Zm-6,0c0-4.38-1.23-8.65-5.21-8.65-3.74,0-9.24,5.38-9.24,17.08,0,4.09,1.23,8.54,5.68,8.54C122.3,398,127,391.7,127,381Z"/><path class="cls-1" d="M147.33,410.88c0,1.58-5.56,4.39-11.29,4.39-1,0-1.52-.41-1.34-1.93.11-1,4-20,6.84-31,.82-3.16,1.76-4.74,1.58-5.15-.29-.58-3.22,3.45-4,4.51-1.22,1.69-2.63.46-1.81-.88,2.57-4.39,5-5.62,7-9.95,1.46-3.21,1.64-3.68,4.15-3.68,1.12,0,1.29.23,1.06,1.34-1.17,5.21-4,11.18-3.22,11.47.29.12,1.29-1.11,2-2.11,3.22-4.44,8.31-8.54,12-8.54,4.09,0,6,4.33,6,8.6,0,12.64-10,23-17.61,23-4,0-6-3.1-6.67,1.23l-.88,5.85c-.47,3.1,0,3.62,1.29,3.62C144.52,411.64,147.33,408.84,147.33,410.88Zm-3.39-16.61a4.54,4.54,0,0,0,4.68,4.68c5,0,11.58-10.24,11.58-19,0-4.09-.88-6.26-3.22-6.26-3,0-8.65,6.08-10.35,9.53A26.51,26.51,0,0,0,143.94,394.27Z"/><path class="cls-1" d="M197.63,373l-7.25,35.09c-.47,2.4-.35,3.1,1,3.1,2.46,0,4.45-2.63,4.45-.64s-5.91,4.68-10.71,4.68c-1,0-1.4-.64-1.22-1.81.29-1.93,1.87-8.84,2.57-11.88,1.87-7.89,3.57-10.41,2.63-10.41-1.17,0-6.14,9.77-13.33,9.77-4.1,0-6-4.33-6-8.6,0-12.63,10-23,17.61-23,3.86,0,4.79,1.29,6.49,1.29,2.16,0,2.57-1.87,3.8-1.87C198.74,368.77,198.28,370,197.63,373Zm-6.14,2.69c0-2.87-1.58-4.39-4.09-4.39-5,0-11.59,10.24-11.59,19,0,4.1.88,6.26,3.22,6.26s7.72-5,9.89-9.18C190.67,384.09,191.49,378.83,191.49,375.73Z"/><path class="cls-1" d="M214.36,373c0,3.57-3.28,9.59-3.28,10.29a.36.36,0,0,0,.35.41c.3,0,.59-.29,1-1.05,3.16-5.91,7-13.34,12.22-13.34a3.32,3.32,0,0,1,3.57,3.51c0,2.58-1.52,3.75-2.81,3.75-1.52,0-2.22-2.05-4.09-2.05s-4.56,3.39-8.6,11.58c-4.27,8.66-2.63,11.46-3.57,12.93-.76,1.17-2.57,1.87-4.44,1.87-1,0-1.35-.35-1.35-1.17,0-2.4,5.85-21.59,5.85-24.1,0-1.23-.29-1.7-1.05-1.7-2.23,0-3.8,3.63-5,3.63a.62.62,0,0,1-.7-.7c0-1.41,4.74-7.55,9-7.55C213.3,369.35,214.36,370.52,214.36,373Z"/><path class="cls-1" d="M249.28,373.91a3.08,3.08,0,0,1-2.87,3.22c-2.16,0-2.34-5.15-7.19-5.15a3.5,3.5,0,0,0-3.57,3.57c0,5.85,11.4,8.31,11.4,16.09,0,5-4.27,9.3-12.11,9.3-3.56,0-7.89-1.58-7.89-5,0-1.64,1.69-3.63,3-3.63,2.28,0,2.93,5.85,8.19,5.85,2.57,0,4.21-1.4,4.21-3.74,0-6.61-11.7-9.65-11.7-16.44,0-4.56,4.68-8.6,11.23-8.6C246.82,369.35,249.28,372,249.28,373.91Z"/><path class="cls-1" d="M263.49,364.15c.7,0,.93.29.76,1.4-.7,4.56-.18,5.44,1.52,5.38l3.51-.12c1-.05,1.52.18,1.52,1.06a2.25,2.25,0,0,1-2.28,2.16c-1.17,0-2.93-.06-3.8-.06-1.29,0-1.64.59-2.23,2.75-1.58,5.91-3.57,15.15-3.57,17.84,0,1.12.59,1.52,1.41,1.52,3.22,0,6-5.49,7.25-5.49.47,0,.59.29.59.87,0,2.58-5.44,9.48-10.47,9.48-2.93,0-4.33-1.23-4.33-4.15,0-4.27,4.09-19,4.09-21.18,0-2.69-3.16-1.58-3.16-3s3.22-1.11,5-3.28C261.79,366.43,262.26,364.15,263.49,364.15Z"/><path class="cls-1" d="M291.39,397.25c0-3.56,2.86-9.3,2.86-10,0-.29-.17-.41-.35-.41s-.47.18-.93.94c-2.4,3.92-8.14,13.16-14,13.16-2.93,0-4.51-2-4.51-4.91,0-3.81,5.68-17.44,5.68-20.77,0-.88-.24-1.29-.88-1.29-2.63,0-3.92,3.75-5.21,3.75-.35,0-.58-.24-.58-.76,0-1.88,4.85-7.61,8.83-7.61,2.34,0,3.34.94,3.34,3.51,0,4.51-5.62,19.07-5.62,21.59,0,1.69.7,2.22,1.75,2.22,2.81,0,7.49-5.62,11.12-12.11,3.27-5.91,3.57-11.64,4.5-13.1a4.88,4.88,0,0,1,4.21-1.82c1.12,0,1.47.47,1.06,1.53-1.7,4.38-6.09,20.7-6.09,23.8,0,1.11.3,1.7,1.06,1.7,3.39,0,5.79-5.56,7-5.56a.62.62,0,0,1,.7.7c0,2.52-5.56,9.13-10.18,9.13C292.56,400.94,291.39,399.77,291.39,397.25Z"/><path class="cls-1" d="M311.45,395.5c0-3.28,3.62-16.91,3.62-20.24,0-.88-.23-1.29-.88-1.29-2.63,0-3.91,3.75-5.2,3.75-.35,0-.59-.24-.59-.76,0-1.88,4.86-7.61,8.84-7.61,2.34,0,3.33.94,3.33,3.51,0,4.51-3.57,18.25-3.57,20.77,0,2.05.7,2.92,2.22,2.92,3.57,0,12.46-9.77,12.46-16.26,0-5.44-3.45-4.5-3.45-7.43a3.37,3.37,0,0,1,3.28-3.51c3,0,4.44,3.28,4.44,7.78,0,9.48-11.81,23.81-19.77,23.81C312.85,400.94,311.45,399,311.45,395.5Z"/><path class="cls-1" d="M359.64,395.56c0-2.75,1.64-6.73,1.05-7s-1,2-3.51,5.55c-2.28,3.16-6.26,6.79-9.94,6.79-3.33,0-4.74-2-4.74-5.44,0-3.28,3.63-16.91,3.63-20.24,0-.88-.24-1.29-.88-1.29-2.63,0-3.92,3.75-5.2,3.75-.36,0-.59-.24-.59-.76,0-1.88,4.86-7.61,8.83-7.61,2.34,0,3.34.94,3.34,3.51,0,4.51-3.57,18.25-3.57,20.77,0,2.05.7,2.92,2.22,2.92,4.21,0,11.47-12.46,11.47-19.12v-3.69c0-2.34,1.05-4.39,4.62-4.39a1.73,1.73,0,0,1,1.87,1.93c0,4-3.63,11-3.63,19.48,0,3.45.06,5.79,2.46,5.79,3.57,0,11.93-10.41,11.93-16.26,0-5.44-3.45-4.5-3.45-7.43a3.37,3.37,0,0,1,3.28-3.51c3,0,4.44,3.28,4.44,7.78,0,9.48-11.93,23.81-19.24,23.81C360.69,400.94,359.64,399,359.64,395.56Z"/><path class="cls-1" d="M402.39,379.35c.36,1.23.71,1.35,1.41.06,4.74-8.6,6.2-10.06,9.3-10.06a3.31,3.31,0,0,1,3.39,3.34c0,2.22-1.17,3.51-2.75,3.51-1.4,0-1.75-1.58-3.27-1.58-.94,0-2.23,1-6.5,8.3-.52.94-.23,1.64.18,2.75,2.63,7.49,2.75,10.3,4.56,10.3,2.17,0,4.15-4.62,5.27-4.62.46,0,.52.35.52.76,0,2.4-3.51,8.83-8.3,8.83-3.28,0-3.63-3.28-6.32-11.06-.29-.87-.7-.87-1.29.06-5.2,8.31-6.72,11-10.29,11a3.71,3.71,0,0,1-3.86-3.45,3.41,3.41,0,0,1,3.21-3.69c1.52,0,1.52,2.28,3.45,2.28,1.06,0,1.82-2,7-9.53a2.81,2.81,0,0,0,.11-2.57c-2-7.37-2.63-9.54-3.86-9.54s-3.27,3.16-4.33,3.16c-.46,0-.7-.17-.7-.7,0-1.41,3.63-7.55,8.07-7.55C399.47,369.35,399.94,370.76,402.39,379.35Z"/><path class="cls-1" d="M434,393.57c.11,1.81.29,2.16.93,2.16,1.46,0,9.19-8.65,9.19-15.15s-4.74-4.38-4.74-7.72a3.57,3.57,0,0,1,3.39-3.51c2.75,0,5.32,3,5.32,7.2,0,12.22-9.82,19.07-14,24.45-3.39,4.33-8.65,14.27-16.84,14.27-2.87,0-4.8-1-4.8-3.16a3.45,3.45,0,0,1,3.34-3.68c1.81,0,2,2.75,4.62,2.75,3.51,0,8.83-6.32,8.83-12.35,0-3-1.05-24-5.15-24-1.93,0-2.86,4.15-4.39,4.15-.46,0-.7-.35-.7-.87,0-1.87,3.75-8.72,8.49-8.72C430.23,369.35,432.63,372.92,434,393.57Z"/><path class="cls-1" d="M470.24,370.52c2,0,4.56-1.17,5.67-1.17.59,0,.88.18.88.82,0,4.5-21.18,24.39-20.12,25.33.41.35,1.28-.59,4.44-.59,1.93,0,5.09.59,7.14.59,3.86,0,5.21-5.32,6.32-5.32.46,0,.64.52.64,1.11,0,2-3.39,9.65-7.31,9.65-1.76,0-6-1.29-10.18-1.29-2.22,0-4.91,1.29-5.79,1.29-.59,0-.94-.18-.94-1,0-5.5,20.42-23.4,19.48-24.81-.35-.52-1.52.12-4,.12-2.16,0-6.14-.7-7.31-.7-2.45,0-3.33,4.27-4.62,4.27-.47,0-.7-.29-.7-.94,0-1.34,3-8.54,6.43-8.54C464.68,369.35,467.26,370.52,470.24,370.52Z"/><path class="cls-1" d="M489.77,359.47c1.05,1.11,3.16-2.4,6-2.4a2,2,0,0,1,.82,3.86c-2.64,1.05-5.74-.24-6.26.88-.59,1.34,3.8,2.34,4.5,4.79a2.12,2.12,0,0,1-2.86,2.63c-2.75-1.22-2.29-6-3.69-6s-1.52,4.1-4.33,5.44a2.08,2.08,0,0,1-2.86-2.69c1-2.57,5.55-2.92,5.08-4.39s-4-.52-5.9-2c-1.64-1.23-.24-4.1,2-3.63s3.57,4.09,4.8,3.33c1.4-.82-.94-4.73.18-6.55a2.1,2.1,0,0,1,3.8.18C491.94,355.49,488.66,358.41,489.77,359.47Z"/><path class="cls-1" d="M142.54,434.86c0,1.17-.12,2.8-.12,3.62,0,.59.12.76.88,1a17.75,17.75,0,0,0,5.2,1.17c1.29,0,1.58,1.69,1.58,4,0,3.39-.23,4.44-1.05,4.44-2.05,0-2.11-6.78-6.2-7.72-.64-.18-.7.23-.7.64l-.3,6.67c-.11,3.51-.11,4.21.65,4.51,7.25,3,9.3,6.49,9.3,10.76,0,5-4,8.48-10,8.48-.76,0-.88.35-.94,1.4-.06.76-.12,1.93-.12,2.58,0,1-.17,1.93-1.23,1.93s-1-1.17-.93-2.11c.06-.52.12-1.93.12-3.1a1.08,1.08,0,0,0-1-1.05c-2.16-.35-4-1.23-6-1.23s-2.11-3.39-2.11-5.61c0-1.93.12-4.33,1.23-4.33,1.58,0,2.22,6.67,6.61,8.77,1.46.7,1.7.82,1.75-2.34l.18-7.25c.06-1.87-.18-2.11-.76-2.34-7.49-3.1-8.37-7-8.37-10.3,0-4.5,3.92-8.3,9.19-8.3.7,0,.93-.24,1-1v-2.86c.12-1.17.29-1.88,1.11-1.88S142.54,434,142.54,434.86Zm-2.64,15.5.3-8.48c0-.59,0-.82-.76-.82-2.52,0-4.62,2.1-4.62,5.2,0,3.51,3.33,5.74,4.56,5.74C139.79,452,139.85,451.59,139.9,450.36Zm1.29,11.11-.23,7.2c-.06,1.52.06,1.87.58,1.87a5.79,5.79,0,0,0,5.15-5.5,6.18,6.18,0,0,0-4.86-5.85C141.25,459.19,141.25,459.43,141.19,461.47Z"/><path class="cls-1" d="M173.65,440.24c7.78,0,15,5.91,15,15.73,0,10.94-7,16.44-15.45,16.44-9.41,0-15.38-6.43-15.38-16.2C157.86,445.39,166.93,440.24,173.65,440.24Zm.65,29.13c4.91,0,8.71-4.62,8.71-11.41,0-10.76-5.38-14.68-10.59-14.68-4.09,0-8.89,4-8.89,11.41C163.53,463.75,168.5,469.37,174.3,469.37Z"/><path class="cls-1" d="M200.61,447.55a2.5,2.5,0,0,0-1.58-2.69c-1.57-.59-4.44,1-4.44-1,0-1.7,7.95-3.63,10.59-3.63.76,0,1.11.7,1.11,2.34v22c0,3.4.7,4.16,2.75,4.62,1.75.41,3.33.41,3.33,1.41s-1.34,1.23-8.89,1.23-8.89-.3-8.89-1.17c0-1.12,1.34-1,3.33-1.47s2.69-1.28,2.69-4.79Z"/><path class="cls-1" d="M234.59,460.65c-4.15,3.28-6.9,5.21-6.9,6.15,0,.35.12.52.82.52h6.08c10.07,0,9.83-4.68,11.41-4.68.59,0,.94.29.94,1.06,0,1.87-1.17,8.13-5,8.13H220.09c-.88,0-1.41-.36-1.41-1.12,0-1.69,3-3,10.48-9.12,4.56-3.69,6.66-7,6.66-11.06,0-3.74-2.28-6.26-5.9-6.26-4,0-5.5,2.58-6.67,2.58a1.31,1.31,0,0,1-1.35-1.29c0-1.87,5.38-5.32,11.88-5.32,4.27,0,8.19,3.16,8.19,8.6C242,453.81,238.92,457.26,234.59,460.65Z"/><path class="cls-1" d="M269.45,457.26c-1.17.82-1.93,1.29-1.93,1.64,0,.88,1.93,0,5,1.28,2.46,1,4.57,3.63,4.57,7.84,0,10.88-9.77,15.21-16,15.21-5.38,0-7.43-1.11-7.43-3a2.82,2.82,0,0,1,2.46-3c1.17,0,2.69,3.21,7.25,3.21,3.92,0,7.84-2.92,7.84-9.53,0-7.43-4.86-8.66-7.66-8.66-2.46,0-3.4.53-4.51.53-.7,0-1-.59-1-1.17,0-1.35,2.16-1.06,6.2-3.39,3.51-2.05,4.79-3.69,4.79-7.14,0-3.75-2.69-7-6.31-7-4,0-5.44,2.69-6.61,2.69a1.31,1.31,0,0,1-1.35-1.29c0-1.87,6-5.32,11.88-5.32,4.27,0,8.18,3.16,8.18,8.6C274.83,453.34,272,455.56,269.45,457.26Z"/><path class="cls-1" d="M307.53,443.34v22.28c0,.88.23,1.06.82,1.06,3.57,0,4.27.06,4.27.7a3.36,3.36,0,0,1-1.52,2.81,7.8,7.8,0,0,1-2.69.35c-.65,0-.88.12-.88,1v10c0,1.58-.76,1.75-2.81,1.75s-2.86-.29-2.86-1.75v-10c0-.64-.18-.93-.94-.93H285.83c-2.05,0-2.75-.35-2.75-1.58s1.29-3,4.27-7.08l11.46-15.44c3.57-4.8,5.62-6.2,7.2-6.2C307.24,440.24,307.53,441.17,307.53,443.34Zm-9.24,8.13-9.07,12.58c-1.64,2.34-1.05,2.63.64,2.63h11.06c.7,0,.94-.18.94-1.17V450.65c0-1.7-.18-2-.76-2S299.63,449.48,298.29,451.47Z"/><path class="cls-1" d="M321.68,445c.29-2.11.53-2.34,2.34-2.64l12.75-2.16c1-.18,1.35.23,1.35,1,0,3.1-1.17,4.16-3,4.27l-8.49.65c-1.93.11-2.28.41-2.45,1.87l-.7,5.73c-.18,1.4.17,1.58,1.4,1.7,8.83.64,16.2,4.44,16.44,12.46.46,10.58-9.25,15.32-15,15.32-5.38,0-7.54-1.28-7.54-3.27,0-1.47.87-3,2-3s3.15,3.56,7.72,3.56c3.92,0,7.43-3.39,7.19-10-.23-7.66-9.12-9.65-13.74-10-1.76-.12-2.17-.59-1.94-2.4Z"/><path class="cls-1" d="M370.64,429.89c-2,.76-11.76,3.09-15.68,17.84-.23.93,0,1.11.53,1.11,1.11,0,5.5-3.16,8.83-3.16,6.79,0,10.47,4.8,10.59,12.28s-4.86,14.45-14.51,14.45c-7.66,0-12.75-6.32-12.87-14.92C347.3,439.24,361.69,428,370.05,428,371.51,428,372,429.36,370.64,429.89ZM354,456c0,8.6,3.74,14.22,9.06,14.22,3,0,5.79-3.34,5.79-10.07,0-8.95-4.33-10.82-8.6-10.82C355.84,449.36,354,451,354,456Z"/><path class="cls-1" d="M399.82,441.41c2.63,0,3.57-.59,5.15-.59.88,0,1.4.3,1.4,1.11,0,1.53-2.34,5-6.37,18.08l-6,19.13c-.76,2.4-4.5,3.57-5.85,3.57-.7,0-1-.3-1-1s.29-1.81,2.57-6.78l11-25.86c.76-1.87.82-2.81-1.29-2.81h-9.36c-7,0-6.26,4.86-7.9,4.86-.4,0-.76-.29-.76-1.29,0-3,2.52-9,4-9,1.05,0,1.35.59,3.45.59Z"/><path class="cls-1" d="M435.62,438.43a10.41,10.41,0,0,1-5.09,8.71c-1.17.7-1.64.88-1.64,1.35s.53.64,1.4,1.05c4.1,1.93,7.61,5.56,7.61,10.88,0,8.07-7.61,12-13.51,12-7.2,0-12.4-3.45-12.4-10.12,0-4.21,1.63-7.19,5.49-9.71,1.58-1.05,2.64-1.29,2.64-2.05,0-.58-1.82-1.11-3.05-2.34a10.69,10.69,0,0,1-3.51-8.42c0-6.26,4.68-10.7,11.53-10.7C431.4,429.07,435.62,432.63,435.62,438.43Zm-3,23.86c0-6.32-7-10.24-9.42-10.24-1.52,0-5.62,3.57-5.62,8.19,0,6.67,4.21,9.95,8.25,9.95C429.42,470.19,432.58,467.73,432.58,462.29Zm-14.1-24.51a9.11,9.11,0,0,0,7.72,9.3c1.87,0,4.56-4.15,4.56-7.25,0-5.38-3-8.6-6.43-8.6C420.64,431.23,418.48,433.57,418.48,437.78Z"/><path class="cls-1" d="M448.31,482.76c2-.76,11.75-3.1,15.67-17.84.24-.93,0-1.11-.52-1.11-1.12,0-4.63,3.16-8,3.16-6.61,0-11.35-5.21-11.46-12.4-.12-7.37,4.85-14.33,14.5-14.33,7.67,0,12.75,6.32,12.87,14.91.23,18.26-14.15,29.54-22.52,29.54C447.43,484.69,447,483.29,448.31,482.76Zm16.61-26.14c0-8.6-3.75-14.22-9.07-14.22-3,0-5.79,3.22-5.79,10,0,8.36,5.21,10.94,9.48,10.94C462.75,463.29,464.92,461.65,464.92,456.62Z"/></g></g></svg>