<svg xmlns="http://www.w3.org/2000/svg" viewBox="0 0 902.38 862.27"><title>blur_beziers_1</title><g id="Layer_2" data-name="Layer 2"><g id="Layer_6" data-name="Layer 6"><path d="M902.38,829.83a5,5,0,0,0-4.61-5V815a3.16,3.16,0,1,0-.75,0v8.54c-2.25-6.5-8.61-10.75-19.06-14.66a2.09,2.09,0,0,0,0-.36,3.14,3.14,0,0,0-5.82-1.65c-6.75-2.2-14.81-4.39-24.19-7-3.74-1-7.58-2.06-11.62-3.19a4.78,4.78,0,0,0,.08-.77,5,5,0,0,0-9.55-2c-24.06-7.92-39.78-23.33-61.71-78.65l1.41-8.83-4.24,1.62L517.17,88.52l4.18-1.59-7.11-5.79q-4-9.9-7.62-18.33L493.15,29.4a3.15,3.15,0,1,0-4.67-2.75,2.77,2.77,0,0,0,0,.3c-8-12.65-15.4-19.3-23.33-21.59h9.09a3.15,3.15,0,1,0,0-.75h-11.1a5,5,0,0,0-9.9,0H441.5a3.16,3.16,0,1,0,0,.75h10.26c-6.9,2.1-12.13,7.86-17.82,18.34a3.14,3.14,0,0,0-2.85,5.54c-4.24,8.65-8.89,19.8-14.76,33.87-2.28,5.46-4.81,11.52-7.56,18l-7.23,5.75,4.11,1.62-271,640.43-4.28-1.69,1.29,8.61c-26.36,58.29-67.38,66-94.76,71.2-15.95,3-28.16,5.32-31.54,15.8V792.53a3.15,3.15,0,1,0-.75,0v32.16a5,5,0,0,0,0,9.9v14.24a3.16,3.16,0,1,0,.75,0V835.59c4.43,13.19,25.37,19.21,78.94,21.32H40.58a3.16,3.16,0,1,0,0,.75h73.59q11.74.17,25,.18a5,5,0,0,0,9.87,0c11.19,0,21.61-.07,31.33-.18H280.5a3.15,3.15,0,1,0,0-.75H216.93c30-1,50.77-2.69,65.43-5.34,19.93-3.59,30.12-9,33.09-18.08V847.7a3.15,3.15,0,1,0,.75,0V832.28a5,5,0,0,0,0-9.9V790.51a3.16,3.16,0,1,0-.75,0v30.62c-4.35-12.8-23.18-15.67-44.57-18.93-28.92-4.41-61.48-9.4-64.53-41.3a5,5,0,0,0-.15-9.83c.59-12.58,3.58-24.86,10.1-43.2h.11a3.14,3.14,0,0,0,1.93-5.63c4.89-13.27,11.46-29.62,20.06-51,4.09-10.16,8.66-21.54,13.73-34.26a4.93,4.93,0,0,0,6.35-4.78,5,5,0,0,0-2.52-4.3c9.38-18.71,27.78-25,99.67-25.23l7.8,4.5v-4.51h100v4.51l7.8-4.5c85.44.14,100.41,4.31,113,35.1a5,5,0,0,0,2.35,9.35,4.86,4.86,0,0,0,1.22-.17c6.49,16.75,12.17,31.31,17.12,44,2.32,5.95,4.48,11.49,6.49,16.66L623.48,719l1.61,4.3a3.14,3.14,0,0,0,1.5,5.9,3.39,3.39,0,0,0,.64-.06c2.89,8,4.94,14.13,6.34,19.16v.09A3.17,3.17,0,0,0,634,750a66.83,66.83,0,0,1,1.82,9.16,5,5,0,0,0-.17,9.78c-3.75,22.5-31.85,28.18-56.85,33.22-19.88,4-38.79,7.82-43.15,19.57V796a3.16,3.16,0,1,0-.75,0v26.53a5,5,0,0,0,0,9.9v17.49a3.15,3.15,0,1,0,.75,0V834.05c3,9.75,13.4,15,35,18.36,15.07,2.35,36.27,3.72,63.51,4.5H569.53a3.16,3.16,0,1,0,0,.75H677.19q20.26.18,43.57.19a5,5,0,0,0,9.86,0q17.64,0,32.93-.19h104.9a3.15,3.15,0,1,0,0-.75H801.21c70.3-2.2,91.46-8.49,95.81-21.24v11.94a3.15,3.15,0,1,0,.75,0V834.78A5,5,0,0,0,902.38,829.83Zm-1.57,0a3.41,3.41,0,0,1-3,3.37v-.77a22.58,22.58,0,0,0,.19-3,20.66,20.66,0,0,0-.19-2.77v-.21A3.41,3.41,0,0,1,900.81,829.83Zm-4-.4a19.94,19.94,0,0,1-.31,3.68,3.39,3.39,0,0,1,.08-6.59A18.06,18.06,0,0,1,896.83,829.43Zm-68.74-33.89c1.12.35,2.26.69,3.42,1l3,.85a3.41,3.41,0,0,1-6.5-1.43A3,3,0,0,1,828.09,795.54Zm3.37-3a3.41,3.41,0,0,1,3.41,3.41c0,.12,0,.23,0,.35l-3-.85c-1.15-.32-2.28-.66-3.39-1A3.4,3.4,0,0,1,831.46,792.56ZM491.63,29.8a3.12,3.12,0,0,0,.82-.12l7.06,17.5C496.19,40.3,493,34.38,490,29.33A3.2,3.2,0,0,0,491.63,29.8ZM458.43,5.55a24.73,24.73,0,0,1,3.11.2,3.4,3.4,0,0,1-6.62.06A23.36,23.36,0,0,1,458.43,5.55Zm-.21-4a3.4,3.4,0,0,1,3.37,3h-.09a26,26,0,0,0-3.07-.18,26.87,26.87,0,0,0-3.16.18h-.43A3.4,3.4,0,0,1,458.22,1.58ZM5.55,829.43a23.56,23.56,0,0,1,.2-3.11,3.4,3.4,0,0,1,.1,6.61A19.83,19.83,0,0,1,5.55,829.43Zm-4,.21a3.41,3.41,0,0,1,3-3.37v.07a25.2,25.2,0,0,0-.18,3.09,22.81,22.81,0,0,0,.18,2.9V833A3.42,3.42,0,0,1,1.57,829.64Zm142.68,27.08H140.8a3.4,3.4,0,0,1,6.71,0Zm-.1,4a3.41,3.41,0,0,1-3.35-2.85h6.71A3.42,3.42,0,0,1,144.15,860.7Zm171.11-33.49a19.87,19.87,0,0,1-.28,3.41,3.39,3.39,0,0,1,0-6.59A19,19,0,0,1,315.26,827.21Zm4,.12a3.4,3.4,0,0,1-3,3.37v-.55a23.42,23.42,0,0,0,.19-2.94,20.73,20.73,0,0,0-.19-2.79V824A3.4,3.4,0,0,1,319.23,827.33Zm-114.16-68a3.4,3.4,0,0,1,0-6.73c0,1.09-.05,2.17-.05,3.27S205,758.24,205.07,759.36Zm3.87-3.37a3.43,3.43,0,0,1-2.74,3.35c-.07-1.12-.11-2.26-.11-3.44s0-2.18,0-3.26A3.41,3.41,0,0,1,208.94,756Zm44-144c-.42,1.06-.82,2.08-1.24,3.11a3.4,3.4,0,0,1,1.82-6.29,3.66,3.66,0,0,1,.75.09C253.78,609.88,253.34,610.91,252.91,612Zm4,.23a3.42,3.42,0,0,1-3.41,3.42,3.33,3.33,0,0,1-.78-.1c.42-1,.83-2.07,1.25-3.13s.86-2.09,1.32-3.08A3.41,3.41,0,0,1,256.9,612.2ZM587.08,622q-.62-1.65-1.23-3.21a3.38,3.38,0,0,1,.72-.08,3.4,3.4,0,0,1,1.7,6.36C587.88,624.06,587.48,623,587.08,622Zm-.51,3.54a3.4,3.4,0,0,1-1.76-6.32c.4,1,.81,2.09,1.22,3.18s.8,2.05,1.19,3.07A3.5,3.5,0,0,1,586.57,625.55Zm50.52,141.37c.1-1,.16-2.11.16-3.22s0-2-.11-3a3.4,3.4,0,0,1,0,6.75ZM636.34,755c-.22-1.16-.5-2.39-.82-3.7a3.78,3.78,0,0,0,.82.2Zm-3,9.09a3.43,3.43,0,0,1,2.71-3.34c.08,1,.12,2,.12,3a31.54,31.54,0,0,1-.23,3.7A3.43,3.43,0,0,1,633.3,764.09Zm-97.43,63.12a14.65,14.65,0,0,1,.31-3,3.4,3.4,0,0,1-.07,6.59A25.68,25.68,0,0,1,535.87,827.21Zm-4,.26a3.4,3.4,0,0,1,3-3.37v.64a16.36,16.36,0,0,0-.2,2.47,25.65,25.65,0,0,0,.2,3.22v.42A3.4,3.4,0,0,1,531.9,827.47Zm193.92,29.25h-3.49a3.4,3.4,0,0,1,6.71,0Zm-.13,4a3.42,3.42,0,0,1-3.36-2.85H729A3.41,3.41,0,0,1,725.69,860.7Zm4.93-4a5,5,0,0,0-9.86,0c-143.85-.09-179.83-4.26-184.36-24.39a5,5,0,0,0,.19-9.66c3.82-11.57,22.65-15.38,42.48-19.38,24.53-4.95,52-10.5,57.27-31.85v39.42a3.16,3.16,0,1,0,.75,0V769a5,5,0,0,0,0-9.9V751.5a3.15,3.15,0,1,0-2.87-5c-1.39-4.78-3.33-10.54-6-17.77a3.15,3.15,0,0,0-1.68-5.81,3.29,3.29,0,0,0-.44.05c-4.74-12.77-11.29-29.57-20.19-52.4-5-12.7-10.63-27.25-17.12-44a5,5,0,0,0-2.27-9.4,5.18,5.18,0,0,0-1.31.19c-.36-.88-.73-1.75-1.1-2.59l-9.64-25.07a3.13,3.13,0,1,0-1.47.38,2.81,2.81,0,0,0,.77-.11l6.66,17.31c-9.48-16.74-23.54-22.77-62.14-24.79h40.45a3.15,3.15,0,1,0,0-.75H494.46c-7.1-.11-14.82-.16-23.21-.18L463.41,577v4.52h-100V577l-7.83,4.53c-5.64,0-11,.08-16,.17H280a3.16,3.16,0,1,0,0,.75h38.66c-37.84,2.11-52.67,8-60.89,20.15l3.8-9.49a3.09,3.09,0,0,0,.86.13,3.18,3.18,0,1,0-1.55-.42l-5.64,14.08-.27.53a4.81,4.81,0,0,0-1.43-.23,5,5,0,0,0-2.4,9.33c-5.07,12.73-9.64,24.11-13.73,34.27-7.62,19-13.65,34-18.34,46.38l-1.8,4.5a3.11,3.11,0,0,0-.81-.12,3.15,3.15,0,0,0-1.22,6c-5,14.08-7.93,24.62-9.29,34.47V730.37a3.15,3.15,0,1,0-.75,0v19.28c0,.47-.05.93-.07,1.4a5,5,0,0,0,.07,9.89v57.89a3.16,3.16,0,1,0,.75,0v-53c5.74,28.49,36.95,33.25,64.81,37.5,21.52,3.28,40.39,6.16,43.94,19.18a5,5,0,0,0,0,9.67c-5.12,19.11-43.66,24.43-165.57,24.56a5,5,0,0,0-9.86,0C43.3,856.55,11,851.5,6.2,834.46a5,5,0,0,0-.18-9.7c2.43-11.17,14.21-13.41,31.09-16.59,25.71-4.85,63.34-11.95,89.87-60.38L91.84,832.26a3,3,0,0,0-.85-.14,3.18,3.18,0,1,0,1.55.42l39-93.63c.32-.69.65-1.38,1-2.08l7.35-5.86-4.11-1.62,271-640.43,4.3,1.69-1.31-8.73c2.38-5.63,4.59-10.92,6.62-15.79l14.51-33.68c.44-.93.88-1.83,1.31-2.71A3.13,3.13,0,0,0,436,26.65a3.13,3.13,0,0,0-1.12-2.39c5.88-10.82,11.24-16.46,18.46-18.15A5,5,0,0,0,463.1,6C479,9.23,492.48,29.87,513.28,81.77l-1.41,8.78,4.25-1.63,245.19,619.6-4.19,1.6,7.07,5.75c.71,1.78,1.41,3.51,2.1,5.21l19.17,50.19a3.2,3.2,0,1,0,.7-.27l-12.89-33.74C788.77,771,802,784.71,819,792.2l-12.28-3.34a2.31,2.31,0,0,0,0-.46,3.15,3.15,0,1,0-.23,1.18l19.55,5.33.44.14a4.71,4.71,0,0,0-.1.92,5,5,0,0,0,9.61,1.86l8.88,2.44L871.75,808a2.73,2.73,0,0,0,0,.5,3.14,3.14,0,0,0,5.94,1.44c10.6,4,16.81,8.3,18.62,15a5,5,0,0,0-.11,9.66C891.44,850.88,859.7,856.58,730.62,856.72Z"/><path d="M546.82,509.59V502.9a3.14,3.14,0,1,0-2.83-5.06c-2.14-7.64-5.46-17.66-10.11-31a3.14,3.14,0,0,0-1.92-5.63h-.06c-3.71-10.49-8.14-22.82-13.39-37.39-6.1-17-13-36.05-21.07-58.84a5,5,0,0,0-3.31-9.31L486,332.88c-13-36.33-22.22-62.34-29.28-80.76L452,239a3.15,3.15,0,0,0-1.41-6,3.11,3.11,0,0,0-1.42.36c-5.25-12.15-9-18.41-12.6-21.14a5.45,5.45,0,0,0,.12-.81h3.06a3.16,3.16,0,1,0,0-.75h-3.06a5,5,0,0,0-9.9,0h-3.07a3.15,3.15,0,1,0,0,.75h3.07a1,1,0,0,0,0,.17c-3.1,1.6-6.27,5.2-10.48,12.6a3.14,3.14,0,1,0-4,4.67L399.1,260.76c-6.78,15.68-15.29,36.13-26.29,62.75a5,5,0,0,0-3.76,9.12c-6.83,16.57-13.91,33.58-20.78,50.09-3.39,8.13-6.73,16.14-10,23.93l-.3,0a3.13,3.13,0,0,0-2,5.56c-15.82,38.13-29.06,70.69-35.09,89a3.14,3.14,0,1,0-3.3,4.27v5.06a5,5,0,0,0,0,9.9v7.73a3.16,3.16,0,1,0,.75,0V520.4l.21,0c2.45,4.81,9.15,7.91,22.62,9.9a3.14,3.14,0,1,0,4.53,3.17h58.35c10.74.13,22.7.18,36,.19a5,5,0,0,0,9.86,0c10.32,0,19.74-.08,28.36-.19h69.42a3.15,3.15,0,1,0,0-.75H489.15c40.43-1.61,53.56-5.52,56.89-13.22h0v6.31a3.16,3.16,0,1,0,.75,0v-6.31a5,5,0,0,0,0-9.9Zm-.93,4.55a12.54,12.54,0,0,1-.49,3.63,3.4,3.4,0,0,1,.31-6.56A28.87,28.87,0,0,1,545.89,514.14Zm.18-11.24v3.42c-.22-1.13-.5-2.33-.81-3.62A3.69,3.69,0,0,0,546.07,502.9Zm-51.4-142.32c.4,1.12.79,2.23,1.18,3.34a4.07,4.07,0,0,1-.61.06,3.4,3.4,0,0,1-1.64-6.39Zm.57-3.43a3.4,3.4,0,0,1,1.67,6.37l-1.18-3.32c-.36-1-.72-2-1.07-3A3.68,3.68,0,0,1,495.24,357.15ZM431.69,211.66a6.64,6.64,0,0,1,3.17.81,3.4,3.4,0,0,1-6.34-.28A9.1,9.1,0,0,1,431.69,211.66Zm.05-4a3.4,3.4,0,0,1,3.37,3h-1.75a7.19,7.19,0,0,0-1.67-.19,11.26,11.26,0,0,0-2.18.19h-1.15A3.4,3.4,0,0,1,431.74,207.69ZM413,229.21a3.38,3.38,0,0,0,.57.11c-1.19,2.28-2.45,4.83-3.81,7.69Zm-41,99.09c.41-1,.8-1.94,1.2-2.91a3.4,3.4,0,0,1-1.79,6.31,3.32,3.32,0,0,1-.77-.1Zm-4,0a3.42,3.42,0,0,1,3.41-3.42,3.66,3.66,0,0,1,.75.09c-.4,1-.79,1.93-1.2,2.91s-.9,2.2-1.36,3.3A3.41,3.41,0,0,1,368.05,328.29Zm-69.49,187a16.31,16.31,0,0,1,.4-3.06,3.39,3.39,0,0,1,.12,6.48A10.8,10.8,0,0,1,298.56,515.25ZM299.72,505q-.81,2.67-1.35,4.77v-4.29A3.12,3.12,0,0,0,299.72,505Zm-5.13,10.49a3.4,3.4,0,0,1,3-3.37v1.18a13.49,13.49,0,0,0-.18,2,13.71,13.71,0,0,0,.18,2.26v1.32A3.4,3.4,0,0,1,294.59,515.45Zm31.13,17.25a3.11,3.11,0,0,0-1-2c7.21.89,16.12,1.52,27,2Zm99.29-.18h-3.34a3.4,3.4,0,0,1,6.71,0Zm0,4a3.42,3.42,0,0,1-3.36-2.85h6.72A3.42,3.42,0,0,1,425,536.49Zm4.93-4a5,5,0,0,0-9.86,0c-85.29-.06-114.57-1.78-120.38-12.39a5,5,0,0,0-.42-9.46c3.51-14.57,19.2-53.32,37.7-97.93a3.07,3.07,0,0,0,1,.19,3.14,3.14,0,0,0,1.53-5.89l12.64-30.78c6-14.32,12-28.92,17.91-43.19a5.16,5.16,0,0,0,1.37.21,5,5,0,0,0,2.39-9.33c21.1-51.06,33-79.39,41.13-94.81a3.15,3.15,0,0,0,2-2.94,3.82,3.82,0,0,0-.07-.68c4.11-7.32,7.2-11,10.14-12.66a5,5,0,0,0,9.09.49c3.36,2.66,7,8.8,12.12,20.75a3.13,3.13,0,0,0,2.2,5.27c7.48,18.3,18,47.69,34.43,93.89q3.84,10.8,8.15,22.85a5,5,0,0,0,2.17,9.45,4.81,4.81,0,0,0,1.14-.14c5.7,16,10.78,30.19,15.42,43.1l18.77,53.07a3.15,3.15,0,0,0,1.39,6,3,3,0,0,0,.91-.15c4.93,14.1,8.35,24.48,10.44,32.22,0,.05,0,.11,0,.17a3.13,3.13,0,0,0,.51,1.71,81.49,81.49,0,0,1,1.71,8.14,5,5,0,0,0-.69,9.59C540,529.05,516.25,532.39,430,532.51Zm116.86-14.6v-1.19a16.48,16.48,0,0,0,.19-2.58,29.62,29.62,0,0,0-.17-3,3.39,3.39,0,0,1,0,6.75Z"/></g></g></svg>