<svg xmlns="http://www.w3.org/2000/svg" viewBox="0 0 904.38 864.27"><title>blur_beziers_2_1</title><g id="Layer_2" data-name="Layer 2"><g id="Layer_6" data-name="Layer 6"><path d="M904.38,830.82a6,6,0,0,0-5.61-6v-8.22a3.79,3.79,0,1,0-.75,0v7.9c-2.21-6.37-8.36-10.57-18.45-14.43a3.68,3.68,0,0,0,.06-.58,3.77,3.77,0,0,0-7.06-1.85c-6.62-2.13-14.48-4.27-23.58-6.75-3.44-.94-7-1.9-10.64-2.92a5.92,5.92,0,0,0,.09-1,6,6,0,0,0-11.5-2.32c-23.31-7.94-38.85-23.46-60.19-76.92l1.8-11.23-5.41,2.06L518.39,90.08l4.91-1.88-8.36-6.79c-2.54-6.33-5-12.18-7.32-17.6L494.38,31a3.77,3.77,0,1,0-5.46-4c-7.79-12-15-18.43-22.74-20.66h8.46a3.78,3.78,0,1,0,0-.75h-9.46a6,6,0,0,0-11.93,0H443.12a3.79,3.79,0,1,0,0,.75h9.64C446,8.42,440.82,14,435.24,24.13a3.83,3.83,0,0,0-1.36-.26,3.78,3.78,0,0,0-2.07,6.94c-4.17,8.57-8.74,19.54-14.48,33.29-2.2,5.26-4.62,11.07-7.25,17.29l-8.48,6.76,4.81,1.9L135.88,729.39l-5.46-2.14,1.64,10.92c-26.38,57.1-67,64.77-94.16,69.89-16,3-28.16,5.32-31.54,15.8v-29.7a3.78,3.78,0,1,0-.75,0v30.51a6,6,0,0,0,0,11.93v12.6a3.79,3.79,0,1,0,.75,0V836.6h0c4.43,13.19,25.38,19.2,78.93,21.31H42.21a3.78,3.78,0,1,0,0,.75h73q11.3.15,24,.18a6,6,0,0,0,11.92,0q16.2,0,30.31-.18h99.45a3.79,3.79,0,1,0,0-.75H217.93c30-1,50.76-2.69,65.43-5.34,19.93-3.59,30.12-9,33.08-18.08v13.58a3.79,3.79,0,1,0,.75,0V834.29a6,6,0,0,0,0-11.93V792.14a3.78,3.78,0,1,0-.75,0v30c-4.34-12.81-23.18-15.68-44.57-18.94-28.61-4.36-60.8-9.28-64.43-40.29a6,6,0,0,0-.19-11.85c.7-12.09,3.64-24.06,9.83-41.58.11,0,.22,0,.33,0a3.77,3.77,0,0,0,2.15-6.88c4.88-13.17,11.37-29.33,19.84-50.39,4-9.91,8.43-21,13.35-33.31a6.2,6.2,0,0,0,1.74.26,6,6,0,0,0,2.94-11.2c9.48-17.93,28.33-24,98.33-24.32l9.55,5.52v-5.53h98.22v5.52l9.56-5.51c83.78.17,99.25,4.33,111.73,34.15a6,6,0,0,0,2.75,11.3,5.85,5.85,0,0,0,1.58-.22c6.34,16.35,11.9,30.6,16.76,43.05l6.49,16.66L624.48,720c.47,1.27.94,2.51,1.38,3.71a3.77,3.77,0,0,0,1.73,7.12,3.41,3.41,0,0,0,.85-.11c2.54,7,4.41,12.63,5.76,17.28a3.72,3.72,0,0,0,1.17,4.33,64,64,0,0,1,1.36,6.86A6,6,0,0,0,636.5,771c-4.4,21.68-32,27.27-56.66,32.24-19.74,4-38.52,7.77-43.06,19.32h-.1V797.62a3.78,3.78,0,1,0-.75,0v24.89a6,6,0,0,0,0,11.93v15.84a3.79,3.79,0,1,0,.75,0V835c3,9.75,13.41,15,35.05,18.37,15.07,2.35,36.27,3.72,63.51,4.5H571.15a3.78,3.78,0,1,0,0,.75h107q19.81.18,42.54.18a6,6,0,0,0,11.91,0q17.05,0,31.91-.18H868.82a3.79,3.79,0,1,0,0-.75H802.21c70.09-2.19,91.33-8.45,95.77-21.12h0V848a3.78,3.78,0,1,0,.75,0V836.79A6,6,0,0,0,904.38,830.82Zm-1.89,0a4.09,4.09,0,0,1-3.72,4.06v-1.46a24.14,24.14,0,0,0,.18-3,20.47,20.47,0,0,0-.18-2.77v-.89A4.08,4.08,0,0,1,902.49,830.82Zm-4.66-.39a19.06,19.06,0,0,1-.46,4.34,4.08,4.08,0,0,1,.1-7.93A17.91,17.91,0,0,1,897.83,830.43Zm-69.4-34.1c1.33.43,2.69.83,4.08,1.22l3.71,1a4.1,4.1,0,0,1-7.86-1.62A4.48,4.48,0,0,1,828.43,796.33Zm4-3.46a4.1,4.1,0,0,1,4.09,4.1,4.75,4.75,0,0,1,0,.53l-3.69-1c-1.38-.39-2.73-.79-4.06-1.22A4.11,4.11,0,0,1,832.46,792.87ZM492.63,31.43a3.61,3.61,0,0,0,1.05-.17l6.82,16.92c-3.11-6.47-6.08-12.08-9-16.93A3.61,3.61,0,0,0,492.63,31.43ZM459.43,6.55a23.7,23.7,0,0,1,3.78.3,4.08,4.08,0,0,1-8,.07A23.5,23.5,0,0,1,459.43,6.55Zm-.22-4.66a4.09,4.09,0,0,1,4.06,3.72h-.77a26,26,0,0,0-3.07-.19,25,25,0,0,0-3.17.19h-1.1A4.08,4.08,0,0,1,459.21,1.89ZM6.55,830.43a22.49,22.49,0,0,1,.3-3.79,4.08,4.08,0,0,1,.13,8A19.23,19.23,0,0,1,6.55,830.43Zm-4.66.21a4.09,4.09,0,0,1,3.72-4.06v.76a25.13,25.13,0,0,0-.19,3.09,22.51,22.51,0,0,0,.19,2.89v1.37A4.08,4.08,0,0,1,1.89,830.64Zm143.36,27.08h-4.14a4.08,4.08,0,0,1,8.08,0Zm-.1,4.66a4.1,4.1,0,0,1-4-3.54h8.08A4.1,4.1,0,0,1,145.15,862.38ZM316.26,828.2a19.36,19.36,0,0,1-.41,4.09,4.08,4.08,0,0,1,0-7.94A18.87,18.87,0,0,1,316.26,828.2Zm4.65.12a4.09,4.09,0,0,1-3.72,4.06v-1.23a21.7,21.7,0,0,0,.2-2.95,20.66,20.66,0,0,0-.2-2.78v-1.15A4.08,4.08,0,0,1,320.91,828.32ZM206.9,732a3.7,3.7,0,0,0,2.41-1.2,117.79,117.79,0,0,0-2.41,12.31Zm-.77,29.06a4.08,4.08,0,0,1-.09-8.11c0,1.32-.08,2.63-.08,4S206,759.7,206.13,761.05Zm4.49-4.06a4.09,4.09,0,0,1-3.36,4c-.1-1.33-.17-2.69-.17-4.11s0-2.63.07-3.94A4.09,4.09,0,0,1,210.62,757Zm43.29-144c-.5,1.27-1,2.5-1.49,3.75a4.08,4.08,0,0,1,2.07-7.61,4,4,0,0,1,1,.15C255,610.45,254.43,611.68,253.91,613Zm4.67.23a4.1,4.1,0,0,1-4.09,4.1,3.88,3.88,0,0,1-1-.15c.49-1.25,1-2.49,1.5-3.76s1-2.51,1.61-3.69A4.07,4.07,0,0,1,258.58,613.2ZM588.08,623c-.5-1.33-1-2.6-1.49-3.84a4,4,0,0,1,1-.13,4.07,4.07,0,0,1,1.94,7.67Zm-.51,4.22a4.09,4.09,0,0,1-2-7.64c.49,1.23,1,2.5,1.48,3.82s1,2.48,1.44,3.71A3.82,3.82,0,0,1,587.57,627.23Zm50.52,140.68c.09-1,.16-2.1.16-3.21s0-2.3-.16-3.52V761a4.08,4.08,0,0,1,0,8.12ZM637.34,756c-.19-1-.4-2-.65-3a3.55,3.55,0,0,0,.65.12Zm-3.72,9.09a4.1,4.1,0,0,1,3.33-4c.12,1.27.18,2.47.18,3.63a32.4,32.4,0,0,1-.3,4.38A4.09,4.09,0,0,1,633.62,765.09ZM536.87,828.2a14.55,14.55,0,0,1,.46-3.68,4.08,4.08,0,0,1-.11,7.94A24.33,24.33,0,0,1,536.87,828.2Zm-4.66.27a4.09,4.09,0,0,1,3.72-4.06v1.32a17.92,17.92,0,0,0-.19,2.47,27.78,27.78,0,0,0,.19,3.23v1.1A4.09,4.09,0,0,1,532.21,828.47Zm194.61,29.25h-4.17a4.07,4.07,0,0,1,8.07,0Zm-.14,4.66a4.08,4.08,0,0,1-4-3.54h8.07A4.09,4.09,0,0,1,726.68,862.38Zm6-4.66a6,6,0,0,0-11.91,0c-140.67-.11-177.61-4.18-183.09-23.42a6,6,0,0,0,.3-11.58c4.52-10.84,22.85-14.55,42.12-18.43,24.54-4.95,52-10.5,57.28-31.85v38.78a3.78,3.78,0,1,0,.75,0V771.06a6,6,0,0,0,0-11.94v-6a3.77,3.77,0,1,0-3.08-6.37c-1.34-4.5-3.15-9.86-5.53-16.45a3.76,3.76,0,0,0-2.56-7c-4.72-12.69-11.2-29.32-20-51.79-4.85-12.46-10.41-26.71-16.74-43a6,6,0,0,0-4.34-11.1c-.24-.56-.47-1.11-.71-1.66l-9.42-24.47a3.75,3.75,0,1,0-1.69.42,3.66,3.66,0,0,0,1-.15l6.43,16.72c-9.48-16.74-23.54-22.77-62.14-24.79h39.82a3.79,3.79,0,1,0,0-.75h-63.7q-10.27-.16-22.33-.18l-9.6-5.54v5.53H365.31V577l-9.6,5.54q-8,0-15.07.17H281.58a3.78,3.78,0,1,0,0,.75h38c-37.84,2.11-52.68,8-60.89,20.15l3.57-8.91a4,4,0,0,0,1.09.18,3.84,3.84,0,1,0-1.78-.47l-5.25,13.1a5.75,5.75,0,0,0-1.86-.3,6,6,0,0,0-2.78,11.28c-4.92,12.34-9.37,23.41-13.35,33.32-7.62,19-13.65,34-18.34,46.38l-1.57,3.91a3.59,3.59,0,0,0-1-.16,3.77,3.77,0,0,0-1.43,7.27c-2.39,6.77-4.3,12.71-5.78,18.16a3.77,3.77,0,1,0-4,4.61v18.66c0,.12,0,.25,0,.38a6,6,0,0,0,0,11.93V819.2a3.79,3.79,0,1,0,.75,0V766.8c5.74,28.5,36.95,33.26,64.8,37.51,21,3.19,39.45,6,43.66,18.22a6,6,0,0,0,0,11.59c-6.14,18.28-45.21,23.44-164.24,23.6a6,6,0,0,0-11.91,0c-93.31-.19-126-5.08-131.69-21.29a6,6,0,0,0-.25-11.63c2.89-10.34,14.47-12.53,30.85-15.62,25.71-4.85,63.34-11.95,89.87-60.38l-34.9,83.88a4,4,0,0,0-1.09-.18,3.83,3.83,0,1,0,1.79.47l38.71-93.05c.2-.44.41-.87.61-1.31l8.66-6.9-4.83-1.9L407.46,90.46l5.47,2.15-1.67-11.12c2.16-5.11,4.18-9.93,6-14.4l14.51-33.68c.34-.73.69-1.45,1-2.14a4,4,0,0,0,1,.16,3.77,3.77,0,0,0,2.34-6.73c5.49-10,10.56-15.42,17.17-17.34a6,6,0,0,0,11.68-.13c15.35,3.82,28.59,24.32,48.64,74.13l-1.79,11.18,5.42-2.06L762.09,709l-4.92,1.88,8.31,6.75c.61,1.53,1.21,3,1.81,4.49l18.94,49.6a3.75,3.75,0,1,0,1.69-.42,3.59,3.59,0,0,0-1,.15l-12.66-33.15C789.77,772,803,785.7,820,793.2L808.37,790a3.18,3.18,0,0,0,.07-.62,3.81,3.81,0,1,0-.26,1.35l18.42,5a6.06,6.06,0,0,0-.13,1.21,6,6,0,0,0,11.58,2.13l7.91,2.17,26.17,7.58a3.82,3.82,0,0,0-.07.68,3.77,3.77,0,0,0,7.16,1.66C889,814.92,894.88,819,897,825a6,6,0,0,0-.13,11.58C891.15,852.06,858.31,857.55,732.64,857.72Z"/><path d="M547.82,509.57v-5a3.77,3.77,0,1,0-3-6.42c-2.11-7.43-5.29-17-9.68-29.6a3.79,3.79,0,0,0-2.15-6.9l-.27,0c-3.66-10.36-8-22.49-13.17-36.78-6-16.73-12.78-35.52-20.73-57.89a6,6,0,0,0-2.54-11.39,6.19,6.19,0,0,0-1.45.18q-4.12-11.52-7.81-21.89c-13-36.33-22.22-62.33-29.28-80.75l-4.49-12.5a3.77,3.77,0,0,0-1.62-7.18,3.66,3.66,0,0,0-1.68.41C445.2,223,441.68,217,438.41,214a6,6,0,0,0,.29-1.53h1.42a3.78,3.78,0,1,0,0-.75H438.7a6,6,0,0,0-11.93,0h-1.42a3.79,3.79,0,1,0,0,.75h1.42a4.41,4.41,0,0,0,.09.73c-2.73,1.76-5.58,5.19-9.2,11.47a3.77,3.77,0,1,0-4.58,5.83l-13,31.26c-6.7,15.5-15.09,35.64-25.9,61.8a5.86,5.86,0,0,0-1.74-.26,6,6,0,0,0-2.8,11.27c-6.71,16.28-13.65,32.95-20.4,49.14L339.55,407A3.08,3.08,0,0,0,339,407a3.77,3.77,0,0,0-2.26,6.8c-15.46,37.3-28.44,69.2-34.55,87.56a3.77,3.77,0,1,0-3.58,5.73v3.41a6,6,0,0,0,0,11.94v6.08a3.79,3.79,0,1,0,.75,0v-6.08q.39,0,.75-.09c2.76,4.16,9.19,6.95,21.15,8.8a3.77,3.77,0,1,0,6.08,3.32h57.73c10.46.12,22.08.17,35,.19a6,6,0,0,0,11.91,0c9.92,0,19-.07,27.33-.18H528.1a3.78,3.78,0,1,0,0-.75h-38c38.7-1.55,52.39-5.19,56.41-12.25l.51,0v4.67a3.79,3.79,0,1,0,.75,0V521.5a6,6,0,0,0,0-11.93Zm-.94,5.57a12.07,12.07,0,0,1-.69,4.27,4.08,4.08,0,0,1,.44-7.89A28.87,28.87,0,0,1,546.88,515.14Zm.19-10.61v2.79c-.18-.92-.4-1.89-.64-2.91A4.52,4.52,0,0,0,547.07,504.53Zm-51.4-142.95q.7,2,1.41,4a3.86,3.86,0,0,1-.84.09,4.08,4.08,0,0,1-1.87-7.72Zm.57-4.11a4.08,4.08,0,0,1,1.9,7.7c-.47-1.31-.94-2.63-1.41-4s-.88-2.44-1.31-3.65A4.47,4.47,0,0,1,496.24,357.47ZM436.77,212.74l-.46-.27h.48C436.78,212.56,436.78,212.65,436.77,212.74Zm-4.08-.08a6.72,6.72,0,0,1,3.75,1.16,4.08,4.08,0,0,1-7.56-.38A9.16,9.16,0,0,1,432.69,212.66Zm.05-4.66a4.08,4.08,0,0,1,4.05,3.72h-2.43a7.85,7.85,0,0,0-1.67-.19,12.11,12.11,0,0,0-2.18.19h-1.83A4.09,4.09,0,0,1,432.74,208Zm-19,22.79a4.21,4.21,0,0,0,.51.12c-1.1,2.13-2.26,4.49-3.5,7.09Zm-40.72,98.5,1.46-3.53a4.08,4.08,0,0,1-2.05,7.62,3.88,3.88,0,0,1-1-.15Zm-4.68,0a4.09,4.09,0,0,1,4.09-4.09,4.24,4.24,0,0,1,1,.14L372,328.86l-1.62,3.94A4.09,4.09,0,0,1,368.37,329.28Zm-68.81,187a18.69,18.69,0,0,1,.54-3.72,4.07,4.07,0,0,1,.22,7.78A10.37,10.37,0,0,1,299.56,516.25Zm-.19-5.77v-3.41a4,4,0,0,0,1.09-.26c-.4,1.34-.74,2.57-1,3.68Zm-4.47,6a4.09,4.09,0,0,1,3.72-4.06v1.87a11.93,11.93,0,0,0,0,4.25v2A4.09,4.09,0,0,1,294.9,516.45Zm32.45,17.25a3.82,3.82,0,0,0-.69-1.84c7,.83,15.64,1.42,26.08,1.84Zm98.66-.19h-4a4.07,4.07,0,0,1,8.07,0Zm0,4.66a4.09,4.09,0,0,1-4-3.53h8.08A4.09,4.09,0,0,1,426,538.17Zm6-4.66a6,6,0,0,0-11.91,0c-46.86,0-76.69-.6-94.93-2.89a3.92,3.92,0,0,0-1.53-.32,3.07,3.07,0,0,0-.53.05c-12.4-1.73-19-4.37-21.82-8.36a6,6,0,0,0-.72-11.31q.58-2.24,1.47-5.1a3.69,3.69,0,0,0,.77-2.25s0-.07,0-.1c5.93-18.18,19.45-51.45,35-88.92a3.76,3.76,0,0,0,3-6.87l12.39-30.19C359,363.25,364.94,349,370.7,335a5.73,5.73,0,0,0,1.76.27A6,6,0,0,0,375.24,324c20.51-49.63,32.3-77.6,40.33-93.09a3.78,3.78,0,0,0,2.79-5.14c3.5-6.14,6.26-9.57,8.85-11.37A6,6,0,0,0,438,215c3.09,2.91,6.48,8.81,11.07,19.44a3.77,3.77,0,0,0,2.57,6.54l.15,0c7.47,18.34,17.9,47.6,34.18,93.27l7.8,21.89a6,6,0,0,0,2.52,11.41,5.62,5.62,0,0,0,1.48-.2c5.55,15.63,10.53,29.51,15.07,42.16L531.35,462a3.77,3.77,0,0,0,1.6,7.19,3.7,3.7,0,0,0,1.12-.18c4.56,13,7.8,22.86,9.89,30.34a3.75,3.75,0,0,0,1.16,4.41c.54,2.21,1,4.17,1.24,5.91a6,6,0,0,0-1,11.47C539.48,530.21,514.77,533.37,432,533.51Zm115.84-13.92v-1.87a16.66,16.66,0,0,0,.19-2.58,29.7,29.7,0,0,0-.19-3.11v-.55a4.07,4.07,0,0,1,0,8.11Z"/></g></g></svg>