<svg xmlns="http://www.w3.org/2000/svg" viewBox="0 0 904.38 864.27"><title>blur_beziers_3</title><g id="Layer_2" data-name="Layer 2"><g id="Layer_6" data-name="Layer 6"><path d="M904.38,830.82a6,6,0,0,0-5.36-6v-8.26a3.79,3.79,0,1,0-1.25,0v7.24c-2.41-6-8.48-10-18.2-13.74a3.68,3.68,0,0,0,0-.58,3.76,3.76,0,0,0-7-1.85c-6.62-2.13-14.48-4.27-23.58-6.75-3.44-.94-7-1.9-10.64-2.92a5.92,5.92,0,0,0,.09-1,6,6,0,0,0-11.5-2.32c-23.31-7.94-38.85-23.46-60.19-76.92l1.8-11.23-5.41,2.06L518.39,90.08l4.91-1.88L515,81.46,494.6,30.86A3.77,3.77,0,1,0,488.91,27C481.4,15.39,474.42,9.05,467,6.61h7.67a3.78,3.78,0,1,0,0-1.25h-9.49a6,6,0,0,0-11.91,0H443.1a3.79,3.79,0,1,0,0,1.25H452c-6.39,2.25-11.36,7.81-16.72,17.53a3.62,3.62,0,0,0-1.36-.27,3.78,3.78,0,0,0-2.07,6.94c-4.17,8.57-8.74,19.54-14.48,33.29-1.78,4.25-3.7,8.86-5.76,13.75L410,81.43l-8.43,6.72,4.81,1.9L135.88,729.39l-5.46-2.14,1.64,10.92c-26.38,57.1-67,64.77-94.16,69.89-15.59,2.94-27.6,5.22-31.29,15.1v-29a3.79,3.79,0,1,0-1.25,0v30.55a6,6,0,0,0,0,11.9v12.63a3.79,3.79,0,1,0,1.25,0V837.29c4.74,12.23,24.51,18.1,72.9,20.37H42.18a3.78,3.78,0,1,0,0,1.25h97a6,6,0,0,0,11.9,0H280.89a3.79,3.79,0,1,0,0-1.25H225c26.19-1,44.84-2.66,58.32-5.09,19.4-3.5,29.57-8.74,32.83-17.37v12.9a3.79,3.79,0,1,0,1.25,0V834.28a6,6,0,0,0,0-11.91V792.11a3.78,3.78,0,1,0-1.25,0v29.37c-4.76-12.25-23.3-15.08-44.32-18.29-28.61-4.36-60.8-9.28-64.43-40.29a6,6,0,0,0-.19-11.85c.7-12.09,3.63-24.06,9.83-41.58.11,0,.22,0,.33,0a3.77,3.77,0,0,0,2.15-6.88c1.34-3.61,2.79-7.44,4.38-11.53L252.84,619a6,6,0,0,0,4.59-11c9.17-17.35,27.11-23.61,91.67-24.27h6.74l9.47,5.47v-5.53h98.22v5.52l9.46-5.46h11.67c73.69.57,88.28,5.71,100.16,34.1a6,6,0,0,0,2.75,11.3,5.85,5.85,0,0,0,1.58-.22l36.52,94.91a3.77,3.77,0,0,0,1.92,7,4,4,0,0,0,.85-.1c2.54,7,4.41,12.62,5.76,17.27a3.72,3.72,0,0,0,1.17,4.33,64,64,0,0,1,1.36,6.86A6,6,0,0,0,636.5,771c-4.4,21.68-32,27.27-56.66,32.24-19.54,3.94-38.13,7.69-42.91,19V797.59a3.78,3.78,0,1,0-1.25,0v24.93a6,6,0,0,0,0,11.9v15.89a3.79,3.79,0,1,0,1.25,0V835.8c3.3,9.27,13.73,14.33,34.8,17.61,13.57,2.11,32.1,3.44,55.55,4.25H571.13a3.78,3.78,0,1,0,0,1.25h149.6a6,6,0,0,0,11.91,0h136.2a3.79,3.79,0,1,0,0-1.25H809.45c63.32-2.36,83.62-8.46,88.32-20.31V848a3.78,3.78,0,1,0,1.25,0V836.78A6,6,0,0,0,904.38,830.82Zm-1.89,0a4.1,4.1,0,0,1-3.47,4v-8.07A4.1,4.1,0,0,1,902.49,830.82Zm-4.72-1.9v3.18a17.7,17.7,0,0,1-.4,2.67,4.08,4.08,0,0,1,.1-7.93A17.07,17.07,0,0,1,897.77,828.92Zm-69.36-32.41,3.86,1.06,3.89,1.12a4.09,4.09,0,0,1-7.8-1.72A3.59,3.59,0,0,1,828.41,796.51Zm4.05-3.64a4.1,4.1,0,0,1,4.09,4.1,4.36,4.36,0,0,1,0,.52l-3.64-1h0l-.27-.07-.21-.06h0l-2.14-.58-1.5-.47A4.11,4.11,0,0,1,832.46,792.87ZM492.63,31.43a3.59,3.59,0,0,0,.81-.09L499,45.05c-2.56-5.17-5-9.75-7.43-13.8A3.61,3.61,0,0,0,492.63,31.43ZM457.7,6.61h3.49c.68,0,1.35.13,2,.24a4.08,4.08,0,0,1-8,.07A23.6,23.6,0,0,1,457.7,6.61Zm1.51-4.72a4.1,4.1,0,0,1,4,3.47h-8.07A4.1,4.1,0,0,1,459.21,1.89ZM6.61,832v-3.29c0-.72.13-1.42.24-2.08a4.09,4.09,0,0,1,.13,8A19.7,19.7,0,0,1,6.61,832Zm-4.72-1.37a4.08,4.08,0,0,1,3.47-4v8.06A4.09,4.09,0,0,1,1.89,830.64Zm139.23,27a4.08,4.08,0,0,1,8.06,0Zm4,4.72a4.09,4.09,0,0,1-4-3.47h8.06A4.08,4.08,0,0,1,145.15,862.38Zm171-35.8v3.27a17.69,17.69,0,0,1-.34,2.44,4.08,4.08,0,0,1,0-7.94A17.33,17.33,0,0,1,316.19,826.58Zm4.72,1.74a4.1,4.1,0,0,1-3.47,4v-8.07A4.1,4.1,0,0,1,320.91,828.32ZM207.15,732a3.76,3.76,0,0,0,2.16-1.18c-.92,3.71-1.63,7.21-2.16,10.61Zm-1.25,29a4.08,4.08,0,0,1,0-8.06Zm4.72-4a4.09,4.09,0,0,1-3.36,4c0-.66-.08-1.34-.11-2V753.3c0-.11,0-.23,0-.34A4.09,4.09,0,0,1,210.62,757ZM252.4,616.71a4.08,4.08,0,0,1,2.08-7.6,4,4,0,0,1,.92.11Zm6.18-3.51a4.11,4.11,0,0,1-4.1,4.1,4,4,0,0,1-.92-.12l2.91-7.27.1-.21A4.07,4.07,0,0,1,258.58,613.2Zm328.15,5.92a4.6,4.6,0,0,1,.84-.08,4.08,4.08,0,0,1,2.06,7.61Zm-3.25,4a4.09,4.09,0,0,1,2.07-3.54c.49,1.23,1,2.5,1.48,3.82s1,2.48,1.44,3.71a3.82,3.82,0,0,1-.9.11A4.1,4.1,0,0,1,583.48,623.13Zm54.86,137.93a4.08,4.08,0,0,1,0,8.06Zm-1.25-6.28c-.12-.58-.26-1.17-.4-1.78a2.6,2.6,0,0,0,.4.1Zm-3.47,10.31a4.1,4.1,0,0,1,3.33-4c.06.69.11,1.35.14,2v2.67c0,1.15-.12,2.27-.26,3.34A4.09,4.09,0,0,1,633.62,765.09Zm-96.69,65v-3.29a14.67,14.67,0,0,1,.4-2.25,4.08,4.08,0,0,1-.11,7.94A23.14,23.14,0,0,1,536.93,830.06Zm-4.72-1.59a4.09,4.09,0,0,1,3.47-4v8.06A4.08,4.08,0,0,1,532.21,828.47Zm190.44,29.19a4.08,4.08,0,0,1,8.07,0Zm4,4.72a4.1,4.1,0,0,1-4-3.47h8.07A4.1,4.1,0,0,1,726.68,862.38Zm22.81-4.72H732.64a6,6,0,0,0-11.91,0H697.67c-121.72-.56-154.87-5.21-160-23.36a6,6,0,0,0,.3-11.58c4.52-10.84,22.85-14.55,42.12-18.43,24.18-4.88,51.2-10.34,57-30.93v37.89a3.78,3.78,0,1,0,1.25,0V771a6,6,0,0,0,0-11.9v-6a3.78,3.78,0,1,0-3.33-6.35c-1.34-4.5-3.15-9.86-5.53-16.45a3.76,3.76,0,0,0-2.56-7c-4.72-12.69-11.2-29.32-20-51.79q-1.94-5-4-10.35l-12.6-32.76a6,6,0,0,0-2.75-11.29,5.81,5.81,0,0,0-1.52.2L576,591.15a3.76,3.76,0,1,0-1.92.54,3.84,3.84,0,0,0,.76-.08l5.89,15.31c-9.11-15.1-22.68-21-57-23.2h35.5a3.79,3.79,0,1,0,0-1.25H473L463.53,577v5.53H365.31V577l-9.47,5.46H281.56a3.78,3.78,0,1,0,0,1.25H315.5c-33.91,2.24-48.12,7.91-56.15,19l3.18-7.94a3.41,3.41,0,0,0,.85.11,3.82,3.82,0,1,0-2-.59l-5.27,13.15a5.84,5.84,0,0,0-1.63-.23,6,6,0,0,0-2.79,11.27L218.21,702a3.57,3.57,0,0,0-.8-.09,3.77,3.77,0,0,0-1.43,7.27c-2.39,6.77-4.3,12.72-5.78,18.16a3.78,3.78,0,1,0-4.3,4.59V751a6,6,0,0,0,0,11.9v56.29a3.79,3.79,0,1,0,1.25,0V767.88c6.31,27.53,37.06,32.24,64.55,36.43,21,3.19,39.45,6,43.66,18.22a6,6,0,0,0,0,11.59c-5.85,17.41-41.59,22.92-147.88,23.54H151.1a6,6,0,0,0-11.9,0H127.07C43,857.06,13,851.9,7.51,836.42a6,6,0,0,0-.25-11.63c2.89-10.34,14.47-12.53,30.85-15.62,25.37-4.79,62.35-11.77,88.81-58.5L92.84,832.6a3.41,3.41,0,0,0-.85-.11,3.81,3.81,0,1,0,2,.59l39.4-94.72,8.36-6.66-4.83-1.9L407.46,90.46l5.47,2.15-1.64-10.94L433,31.31a3.83,3.83,0,0,0,.9.12,3.77,3.77,0,0,0,2.34-6.73c5.49-10,10.56-15.42,17.17-17.34a6,6,0,0,0,11.68-.13C479.18,10.74,491.5,28.34,509,69.85l4.71,11.68-1.77,11,5.42-2.06L762.09,709l-4.92,1.88,8.06,6.55L786,771.8a3.75,3.75,0,1,0,1.91-.54,3.67,3.67,0,0,0-.75.08l-11.42-29.9c14.43,30.52,27,43.73,42.86,51.11l-10.21-2.78c0-.13,0-.25,0-.37a3.82,3.82,0,1,0-.36,1.58l18.48,5A6,6,0,0,0,838,799.23l34.11,9.87a3,3,0,0,0,0,.43,3.76,3.76,0,0,0,7.15,1.66C889,814.92,894.88,819,897,825a6,6,0,0,0-.13,11.58C891.42,851.35,861.28,857,749.49,857.66Z"/><path d="M548.07,509.58V504.5a3.78,3.78,0,1,0-3.29-6.39c-2.11-7.43-5.29-17-9.68-29.6a3.79,3.79,0,0,0-2.15-6.9l-.27,0c-3.66-10.36-8-22.49-13.17-36.78-4.78-13.28-10-27.86-16-44.49L498.81,367a6,6,0,0,0-2.58-11.38,5.58,5.58,0,0,0-1.42.18l-4.76-13.27L487,333.87c-9.3-26.07-16.7-46.82-22.74-63.27l-10.81-30.1a3.77,3.77,0,0,0-1.84-7.06,3.66,3.66,0,0,0-1.68.41C445.2,223,441.68,217,438.41,214a6.78,6.78,0,0,0,.28-1.28h1.45a3.78,3.78,0,1,0,0-1.25h-1.45a6,6,0,0,0-11.91,0h-1.45a3.79,3.79,0,1,0,0,1.25h1.45c0,.16.05.32.08.48-2.73,1.76-5.58,5.19-9.2,11.47a3.77,3.77,0,1,0-4.8,5.71l-38.69,93.17a6.1,6.1,0,0,0-1.71-.25,6,6,0,0,0-2.84,11.25l-6.57,16c-4.6,11.09-9.24,22.23-13.79,33.14L339.55,407A3.08,3.08,0,0,0,339,407a3.77,3.77,0,0,0-2.26,6.8c-15.46,37.3-28.44,69.2-34.55,87.56a3.77,3.77,0,1,0-3.83,5.7v3.46a6,6,0,0,0,0,11.9v6.13a3.79,3.79,0,1,0,1.25,0V522.4a4,4,0,0,0,.5-.07c2.76,4.16,9.19,6.95,21.15,8.8a3.77,3.77,0,1,0,6.06,3.57h92.74a6,6,0,0,0,11.91,0h96.15a3.78,3.78,0,1,0,0-1.25H495.81c34.4-1.67,46.93-5.3,50.75-12l.26,0v4.7a3.79,3.79,0,1,0,1.25,0v-4.7a6,6,0,0,0,0-11.91Zm-1.25,3.91v3a11,11,0,0,1-.63,2.88,4.08,4.08,0,0,1,.44-7.89C546.72,512.22,546.78,512.87,546.82,513.49Zm0-9v1.62q-.18-.83-.39-1.71Zm-51.2-142.79,1.37,3.87a3.77,3.77,0,0,1-.76.08,4.08,4.08,0,0,1-1.94-7.68Zm.61-4.24a4.08,4.08,0,0,1,1.94,7.68l-1.26-3.56h0l-.08-.22h0l-.08-.24h0l-1.28-3.57A3.94,3.94,0,0,1,496.23,357.47ZM436.77,212.74l0,0h0Zm-5.23,0h2.07a7.08,7.08,0,0,1,2.83,1.1,4.08,4.08,0,0,1-7.56-.38A8.72,8.72,0,0,1,431.54,212.72Zm1.2-4.72a4.1,4.1,0,0,1,4,3.47H428.7A4.1,4.1,0,0,1,432.74,208ZM373,329.57l1.56-3.77a4.08,4.08,0,0,1-2.12,7.58,4.19,4.19,0,0,1-.95-.12Zm41-98.7.27,0c-.53,1-1.07,2.11-1.63,3.24Zm-45.64,98.41a4.09,4.09,0,0,1,4.09-4.09,3.85,3.85,0,0,1,1,.13l-1.45,3.5h0l-.1.23-.09.22h0l-1.44,3.5A4.1,4.1,0,0,1,368.37,329.28Zm-68.75,188.2v-2.24a23.83,23.83,0,0,1,.48-2.71,4.07,4.07,0,0,1,.22,7.78A9.87,9.87,0,0,1,299.62,517.48Zm0-10.44a3.85,3.85,0,0,0,.84-.23c-.32,1.06-.59,2-.84,3Zm-4.72,9.41a4.09,4.09,0,0,1,3.47-4v8.06A4.08,4.08,0,0,1,294.9,516.45Zm127.09,17a4.08,4.08,0,0,1,8.07,0Zm-94.66,0a3.7,3.7,0,0,0-.67-1.59c5.74.68,12.53,1.2,20.5,1.59Zm98.7,4.72a4.1,4.1,0,0,1-4-3.47h8.07A4.1,4.1,0,0,1,426,538.17ZM446,533.45H432a6,6,0,0,0-11.91,0H399.66c-35.35-.19-59.08-.89-74.52-2.83a3.92,3.92,0,0,0-1.53-.32,3.07,3.07,0,0,0-.53.05c-12.4-1.73-19-4.37-21.82-8.36a6,6,0,0,0-.72-11.31q.58-2.24,1.47-5.1a3.69,3.69,0,0,0,.77-2.25s0-.07,0-.1c5.93-18.18,19.45-51.45,35-88.92a3.77,3.77,0,0,0,3.25-6.75L370.78,335a5.84,5.84,0,0,0,1.68.25A6,6,0,0,0,375.32,324l21.13-50.88c8.35-19.66,14.39-33.12,19.12-42.25a3.78,3.78,0,0,0,2.79-5.14c3.5-6.14,6.26-9.57,8.85-11.37A6,6,0,0,0,438,215c3.09,2.91,6.48,8.81,11.07,19.44a3.77,3.77,0,0,0,2.57,6.54l.15,0c2.09,5.13,4.41,11.11,7,18.06l34.88,97.14a6,6,0,0,0,2.59,11.37,5.83,5.83,0,0,0,1.4-.17l33.5,94.72a3.77,3.77,0,0,0,1.82,7.07,3.7,3.7,0,0,0,1.12-.18c4.56,13,7.8,22.86,9.89,30.34a3.75,3.75,0,0,0,1.16,4.41c.54,2.21,1,4.17,1.24,5.91a6,6,0,0,0-1,11.47C539.82,529.68,517.6,533,446,533.45Zm102.12-13.88V511.5a4.08,4.08,0,0,1,0,8.07Z"/></g></g></svg>