<svg xmlns="http://www.w3.org/2000/svg" viewBox="0 0 586.47 691.1"><defs><style>.cls-1{fill:#231f20;}</style></defs><title>Asset 4</title><g id="Layer_2" data-name="Layer 2"><g id="Layer_1-2" data-name="Layer 1"><path class="cls-1" d="M37,29.07c0,2.71-1.8,4.21-4.66,4.21-3.17,0-2.56-8-9.34-8-6.55,0-10.62,7.15-10.62,16.94,0,10.32,5.2,16.94,12.65,16.94,7.08,0,10.24-7.3,11.9-7.3a1,1,0,0,1,1.13,1C38,55.87,32.3,64,22.81,64,10.46,64,3.91,56.1,3.91,43.83c0-12.43,9.26-21.24,20-21.24C31.77,22.59,37,26.05,37,29.07Z"/><path class="cls-1" d="M54.58,53.69c0,4.52.68,5.72,2.79,6.18,1.88.37,3,.82,3,1.58,0,1.43-1.58,1.8-9.41,1.8s-9.41-.37-9.41-1.8c0-.76,1.13-1.21,3-1.58s2.71-1.59,2.71-5.95V31.55a2.89,2.89,0,0,0-2-3c-.91-.3-3.17-.15-3.17-1.51,0-1.8,8.29-4.44,11.07-4.44,1,0,1.43.9,1.43,3ZM45.92,6.93a4.64,4.64,0,1,0,9.27,0,4.69,4.69,0,0,0-4.52-4.75A4.88,4.88,0,0,0,45.92,6.93Z"/><path class="cls-1" d="M77.47,53.69c0,4.89,1.13,5.72,3.24,6.18,1.88.37,3.16.82,3.16,1.58,0,1.43-2.18,1.8-10,1.8s-9.41-.37-9.41-1.8c0-.76,1.13-1.21,3-1.58,2.11-.46,2.71-1.66,2.71-6.18V31.55a2.89,2.89,0,0,0-2-3C67.23,28.24,65,28.39,65,27c0-1.8,8.29-4.44,11.07-4.44,1,0,1.43.9,1.43,3,0,1.36.46,1.89,1.21,1.89,1.35,0,6.1-5.12,9.34-5.12s5.79,1.95,5.79,4.66c0,2.87-1.73,5.43-4.06,5.43-2.11,0-2.71-3.84-7.61-3.84-2.93,0-4.67,2.25-4.67,6.92Z"/><path class="cls-1" d="M128.3,29.07c0,2.71-1.81,4.21-4.67,4.21-3.16,0-2.56-8-9.33-8-6.56,0-10.62,7.15-10.62,16.94,0,10.32,5.19,16.94,12.65,16.94,7.08,0,10.24-7.3,11.9-7.3a1,1,0,0,1,1.13,1c0,3-5.73,11.15-15.21,11.15C101.8,64,95.24,56.1,95.24,43.83c0-12.43,9.27-21.24,20-21.24C123.11,22.59,128.3,26.05,128.3,29.07Z"/><path class="cls-1" d="M170.32,53.77c0,2.71.83,4.06,2.33,4.06.91,0,1.66-.45,2.26-.45s1.06.38,1.06,1.2c0,2-8.29,5.43-10.85,5.43-2.33,0-1.43-4.82-3-4.82S154.58,64,149,64c-6.63,0-11.15-5.43-11.15-13.33V31.55a2.89,2.89,0,0,0-2-3c-.9-.3-3.16-.15-3.16-1.51,0-1.8,8.28-4.44,11.07-4.44,1,0,1.43.9,1.43,2.94V46.61c0,8.44,3.39,12.58,9.18,12.58,4.45,0,8.66-3.47,8.66-9.79V31.55a2.89,2.89,0,0,0-2-3c-.9-.3-3.16-.15-3.16-1.51,0-1.8,8.28-4.44,11.07-4.44,1,0,1.43.9,1.43,3Z"/><path class="cls-1" d="M186,9.34c0-1.81-.83-3-2-3.39-.91-.3-3.17-.15-3.17-1.51,0-1.8,8.29-4.44,11.07-4.44,1,0,1.43.9,1.43,3V53.92c0,4.36.68,5.49,2.79,5.95,1.88.37,3,.82,3,1.58,0,1.43-1.58,1.8-9.41,1.8s-9.41-.37-9.41-1.8c0-.76,1.13-1.21,3-1.58,2.11-.46,2.71-1.66,2.71-6.18Z"/><path class="cls-1" d="M231.84,34.41V54c0,2.41.83,4.37,2.86,4.37,1.5,0,3-1.36,3.76-1.36s1.06.38,1.06,1.13c0,1.66-5.5,5.88-9.26,5.88-4.9,0-4.45-4-6.93-4s-6.18,4-11.3,4-9.34-3.62-9.34-10.24c0-5.73,4.75-8.66,10.85-10.25,7.45-2,11-1.35,11-7.3,0-4.82-2.86-8.43-7.68-8.43-6.93,0-8.43,4.06-10,4.06A1.72,1.72,0,0,1,205,30.12c0-2.18,7.76-7.53,16-7.53C227.09,22.59,231.84,26.51,231.84,34.41Zm-14.91,25c4.14,0,7.6-2.48,7.6-7.15,0-6-.37-7.23-3.84-7.23-5.27,0-10.31,2.18-10.31,6.33S213.39,59.41,216.93,59.41Z"/><path class="cls-1" d="M251.34,20.71c.37,2.63.75,3.84,3.84,3.84h5.12c1.43,0,2.56.45,2.56,1.88s-.53,2.34-2.86,2.19l-4.6-.31c-2.93-.22-3.69.46-3.69,4V50.15c0,6,3.17,8.28,6.86,8.28,2.78,0,4.67-2.86,5.95-2.86.67,0,1,.38,1,1.13C265.49,59,259.4,64,255,64a10.25,10.25,0,0,1-10.62-10.62V34.26c0-3.76-.38-5-1.51-5.87-1.28-1-3.16-.53-3.16-2,0-1.74,1.66-1.06,5.12-4.75,3.09-3.24,2.86-5.42,4.75-5.42C250.89,16.19,251,18.15,251.34,20.71Z"/><path class="cls-1" d="M300.81,34.71c0,4.22-2.71,5.5-10.62,5.5h-12a1.72,1.72,0,0,0-1.88,2C276.86,53.31,282.59,59,289.06,59c6.93,0,9.34-5.8,11.3-5.8.68,0,1.05.38,1.05.91,0,2.56-6,9.94-15.28,9.94-10.85,0-17.85-8.06-17.85-20.94,0-11.74,8.89-20.48,18.52-20.48S300.81,28.31,300.81,34.71Zm-14.68,2.71c4.59,0,6.62-.6,6.62-2.86a8.32,8.32,0,0,0-8.51-8.73c-3.76,0-7.53,2.94-7.53,9.41C276.71,36.82,277.62,37.42,286.13,37.42Z"/><path class="cls-1" d="M361.73,30.65c1.88,3.46,2.78,8.51,2.78,13.18,0,9.79-7.68,20.18-21.16,20.18-11.29,0-15.43-3.54-15.43-7.91V9a2.9,2.9,0,0,0-2-3c-.9-.3-3.31-.15-3.31-1.51C322.57,2.64,331,0,333.79,0c1,0,1.43.9,1.43,3V22.74c0,3.54.15,4.75,1.81,4.75,2,0,7.75-4.9,12.2-4.9C355.25,22.59,359.17,26,361.73,30.65ZM345.84,61.22c4.89,0,10.62-6,10.62-15.14,0-13.62-7.23-17.54-12-17.54-6.7,0-9.64,2.63-9.64,16C334.84,57.83,339.66,61.22,345.84,61.22Z"/><path class="cls-1" d="M389.74,22.59c10,0,19.35,7.38,19.35,20,0,14.08-9,21.39-19.88,21.39-12.12,0-19.8-8.14-19.8-20.71C369.41,29.37,381.08,22.59,389.74,22.59Zm.83,38.63c6.32,0,10.09-7,10.09-15.81,0-14.31-6.48-20-12.5-20-5.27,0-10.32,6.25-10.32,15.81C377.84,52.86,383.71,61.22,390.57,61.22Z"/><path class="cls-1" d="M434.16,22.59c10,0,19.36,7.38,19.36,20,0,14.08-9,21.39-19.88,21.39-12.13,0-19.81-8.14-19.81-20.71C413.83,29.37,425.5,22.59,434.16,22.59ZM435,61.22c6.33,0,10.09-7,10.09-15.81,0-14.31-6.47-20-12.5-20-5.27,0-10.31,6.25-10.31,15.81C422.27,52.86,428.14,61.22,435,61.22Z"/><path class="cls-1" d="M467.67,20.71c.38,2.63.76,3.84,3.84,3.84h5.12c1.43,0,2.56.45,2.56,1.88s-.52,2.34-2.86,2.19l-4.59-.31c-2.94-.22-3.69.46-3.69,4V50.15c0,6,3.16,8.28,6.85,8.28,2.79,0,4.67-2.86,6-2.86.68,0,1,.38,1,1.13,0,2.26-6.1,7.31-10.47,7.31a10.25,10.25,0,0,1-10.62-10.62V34.26c0-3.76-.37-5-1.5-5.87-1.28-1-3.16-.53-3.16-2,0-1.74,1.65-1.06,5.12-4.75,3.08-3.24,2.86-5.42,4.74-5.42C467.22,16.19,467.3,18.15,467.67,20.71Z"/><path class="cls-1" d="M490.41,9.34c0-1.81-.83-3-2-3.39-.9-.3-3.16-.15-3.16-1.51,0-1.8,8.28-4.44,11.07-4.44,1,0,1.43.9,1.43,3V53.92c0,4.36.67,5.49,2.78,5.95,1.89.37,3,.82,3,1.58,0,1.43-1.58,1.8-9.41,1.8s-9.41-.37-9.41-1.8c0-.76,1.13-1.21,3-1.58,2.11-.46,2.71-1.66,2.71-6.18Z"/><path class="cls-1" d="M538.75,34.71c0,4.22-2.71,5.5-10.61,5.5h-12a1.73,1.73,0,0,0-1.88,2C514.81,53.31,520.53,59,527,59c6.93,0,9.33-5.8,11.29-5.8.68,0,1.06.38,1.06.91,0,2.56-6,9.94-15.29,9.94-10.84,0-17.85-8.06-17.85-20.94,0-11.74,8.89-20.48,18.53-20.48S538.75,28.31,538.75,34.71Zm-14.68,2.71c4.59,0,6.63-.6,6.63-2.86a8.33,8.33,0,0,0-8.51-8.73c-3.77,0-7.53,2.94-7.53,9.41C514.66,36.82,515.56,37.42,524.07,37.42Z"/><path class="cls-1" d="M571.58,24.7c5.65,0,7.76-2.11,9.19-2.11a1.79,1.79,0,0,1,1.43,1.73c0,2.71-5.87,2.34-5.87,4.82,0,1.28,1.13,3,1.13,7.08,0,9.19-6.93,15.66-15.06,15.66h-1.21c-5.34,0-7,1.06-7,3.47s1.66,4.21,6.4,4.21h9.34c6.47,0,12.35,3.32,12.35,10.4,0,6.47-8.66,13.55-21,13.55-8,0-11.52-1.05-14.54-2.71-3.76-2.11-4.51-4.37-4.51-6.93,0-4.82,8.81-7.38,8.81-9.41,0-1.66-3.54-1.73-3.54-6.1,0-2.79,4.82-4.52,4.82-6.55,0-1.51-3-2-5.2-4.37A14.15,14.15,0,0,1,543.8,38c0-8.81,6.55-15.36,16.26-15.36C565.79,22.59,568.35,24.7,571.58,24.7ZM549.82,72.29c0,4.37,4.14,7.61,14.16,7.61,6.85,0,11.82-2.94,11.82-7.69,0-5.42-6.17-6.85-16.19-6.85C553.21,65.36,549.82,69.05,549.82,72.29Zm2.11-36.07c0,7.46,4.22,13,9.87,13,4.66,0,7.68-4.82,7.68-12,0-7.45-5.12-12.27-9.72-12.27C556.15,25,551.93,29.44,551.93,36.22Z"/><path class="cls-1" d="M15.05,158.09c-9.31,0-11.43-.38-11.43-1.81,0-1.21,1.67-1.52,4-2,2.12-.38,3.33-1.89,3.33-6.06V110.78c-.07-3.86-1.36-5.22-3.4-5.68-1.89-.37-3.79-.75-3.79-2,0-1.44,2.8-1.82,11.13-1.82h.23c6.81-.08,9.46-.38,13.09-.38,11.59,0,17.11,4.32,17.11,12,0,11.73-9.16,12.49-9.16,13.93,0,1.28,3.11.75,7.87,3.4,3.71,2.05,6.29,6.74,6.29,11.66,0,10.07-7.42,16.12-21.35,16.12Zm4-37c0,4.61,1.22,5.22,5.91,5.22,9,0,12.26-2.42,12.26-10.37,0-7.57-4.92-11.51-13.25-11.51-4,0-4.92,1.06-4.92,6.51Zm0,25.13c0,7.19,2.58,8.4,10,8.4,8.63,0,12.49-4.31,12.49-10.44,0-10.22-7.35-14.54-15.07-14.54-6.2,0-7.42,1-7.42,6.51Z"/><path class="cls-1" d="M58.5,103.89c0-1.81-.83-3-2-3.4-.91-.31-3.18-.15-3.18-1.52,0-1.81,8.33-4.46,11.13-4.46,1,0,1.44.91,1.44,3v51.18c0,4.39.68,5.52,2.8,6,1.89.38,3,.83,3,1.59,0,1.43-1.59,1.81-9.46,1.81s-9.46-.38-9.46-1.81c0-.76,1.14-1.21,3-1.59,2.12-.46,2.72-1.67,2.72-6.21Z"/><path class="cls-1" d="M110.2,148.56c0,2.72.84,4.08,2.35,4.08.91,0,1.67-.45,2.27-.45s1.06.38,1.06,1.21c0,2-8.32,5.45-10.9,5.45-2.35,0-1.44-4.84-3-4.84s-7.57,4.84-13.17,4.84c-6.66,0-11.2-5.45-11.2-13.4V126.22a2.9,2.9,0,0,0-2-3c-.9-.31-3.17-.16-3.17-1.52,0-1.81,8.32-4.46,11.12-4.46,1,0,1.44.91,1.44,3v21.19c0,8.48,3.41,12.65,9.24,12.65,4.46,0,8.7-3.49,8.7-9.84V126.22a2.91,2.91,0,0,0-2-3c-.91-.31-3.18-.16-3.18-1.52,0-1.81,8.33-4.46,11.13-4.46,1,0,1.43.91,1.43,3Z"/><path class="cls-1" d="M133.29,148.48c0,4.92,1.14,5.75,3.26,6.21,1.89.38,3.18.83,3.18,1.59,0,1.43-2.2,1.81-10.07,1.81s-9.46-.38-9.46-1.81c0-.76,1.13-1.21,3-1.59,2.11-.46,2.72-1.67,2.72-6.21V126.22a2.91,2.91,0,0,0-2-3c-.91-.31-3.18-.16-3.18-1.52,0-1.81,8.32-4.46,11.12-4.46,1,0,1.44.91,1.44,3,0,1.37.46,1.9,1.21,1.9,1.37,0,6.14-5.15,9.39-5.15s5.83,2,5.83,4.69c0,2.88-1.74,5.45-4.09,5.45-2.12,0-2.72-3.86-7.64-3.86-3,0-4.7,2.27-4.7,7Z"/><path class="cls-1" d="M166,148.48c0,4.92,1.13,5.75,3.25,6.21,1.89.38,3.18.83,3.18,1.59,0,1.43-2.2,1.81-10.07,1.81s-9.46-.38-9.46-1.81c0-.76,1.14-1.21,3-1.59,2.12-.46,2.72-1.67,2.72-6.21V126.22a2.91,2.91,0,0,0-2-3c-.91-.31-3.18-.16-3.18-1.52,0-1.81,8.33-4.46,11.13-4.46,1,0,1.44.91,1.44,3,0,1.37.45,1.9,1.21,1.9,1.36,0,6.13-5.15,9.38-5.15s5.83,2,5.83,4.69c0,2.88-1.74,5.45-4.09,5.45-2.12,0-2.72-3.86-7.64-3.86-2.95,0-4.69,2.27-4.69,7Z"/><path class="cls-1" d="M216.79,129.4c0,4.24-2.73,5.53-10.67,5.53h-12a1.73,1.73,0,0,0-1.89,2c.53,11.13,6.28,16.81,12.79,16.81,7,0,9.39-5.83,11.36-5.83.68,0,1.06.38,1.06.91,0,2.57-6,10-15.37,10-10.9,0-17.94-8.1-17.94-21,0-11.81,8.93-20.59,18.62-20.59S216.79,123,216.79,129.4ZM202,132.13c4.62,0,6.66-.61,6.66-2.88,0-5.15-3.63-8.78-8.55-8.78-3.79,0-7.57,3-7.57,9.46C192.57,131.52,193.47,132.13,202,132.13Z"/><path class="cls-1" d="M258.27,149.54c0,2.5.91,3.63,2.5,3.63,1.06,0,2.35-.53,3.26-.53a1.28,1.28,0,0,1,1.28,1.44c0,1.74-9.31,4.77-12.26,4.77-2.35,0-1.44-4.62-3.1-4.62-2.12,0-6.74,4.62-11.66,4.62a14.93,14.93,0,0,1-11.74-5c-3.25-3.4-5.07-8.55-5.07-15.36,0-11.58,7.72-21.27,18.62-21.27,3.26,0,6.14,1.13,8.63,1.13,1.9,0,2.2-1.28,2.2-3.93V103.74a2.91,2.91,0,0,0-1.89-3.1c-1.29-.38-3.56-.23-3.56-1.59,0-1.67,8.55-4.54,11.35-4.54.91,0,1.44.91,1.44,2.57Zm-15.67,4.24c5.83,0,8.71-4.54,8.71-15.9,0-14-5.6-17.79-11-17.79-6.05,0-10.75,5.53-10.75,16.51C229.58,146.66,235.34,153.78,242.6,153.78Z"/><path class="cls-1" d="M321.48,105.63l16.81,42.47c1.66,4.32,2.8,5.3,4.69,5.83,2.95.83,4.47,1.06,4.47,2.27,0,1.44-1.74,1.89-11.66,1.89-10.83,0-13-.3-13-2,0-2.35,6.89-.91,6.89-4.31,0-1.07-.68-2.58-3.4-9.62-.91-2.42-1.67-2.72-8.18-2.72H311c-5.68,0-6.66.53-7.27,2-2.5,6.28-3.25,7.8-3.25,9.77,0,4.46,7.49,2.12,7.49,4.84,0,1.59-2.19,2-11.66,2-7.26,0-9.46-.38-9.46-1.89,0-2.72,5.83.38,8.78-6.66l18.55-43.83c1.74-4.09,2.12-5.53,3.48-5.53S319.89,101.62,321.48,105.63Zm-9.76,16.51c-2.27,5.52-5,11.81-5,12.71,0,1.06,1.67,1.22,8.63,1.22,7.19,0,8.25-.31,8.25-1.29s-1-3.41-3.48-10.45c-3-8.48-3.56-10.14-4.32-10.14S314.59,115.17,311.72,122.14Z"/><path class="cls-1" d="M358.5,103.21c0,2.5-3.71,1.82-5.91,2.42-2.49.69-2.27,3.26-.53,7L364,140.61c1.51,3.25,1.59,4.09,2.5,4.09s1.13-.91,2.42-4.17l10.07-27.1c2.19-5.45,1.06-7.42-1.44-7.87s-4.85-.3-4.85-2.35c0-1.59,2-1.89,12.5-1.89,7.79,0,9.68,0,9.68,1.89,0,1.52-1.28,1.52-4,2-4.16.68-5.07,3.71-7.26,9.31l-15.83,40.42c-.9,2.28-1.81,3.94-3.1,3.94s-2.12-1.21-3.33-4L343.74,114c-5.3-11.81-10.07-7.11-10.07-10.9,0-1.44,1.29-1.74,10.9-1.74C355.85,101.32,358.5,101.55,358.5,103.21Z"/><path class="cls-1" d="M404.3,110.78c0-3.86-1.37-5.22-3.41-5.68-2.57-.53-4.92-.75-4.92-2,0-1.44,2.35-1.82,12.26-1.82,10.22,0,12.42.38,12.42,1.82,0,1.21-2.42,1.43-4.92,2-2.05.46-3.33,1.82-3.33,5.68v37.85c0,3.86,1.36,5.22,3.4,5.68,2.8.6,5.38.76,5.38,2,0,1.43-2.2,1.81-12.72,1.81s-12.87-.38-12.87-1.81c0-1.21,2.35-1.37,5.38-2,2.12-.46,3.33-1.89,3.33-6.06Z"/><path class="cls-1" d="M476.74,126.68c0-2.58-.91-3.71-5.22-3.71h-8.71c-3.33,0-4,.15-4,3v22.71c0,4.47.68,5.6,2.8,6.06,1.89.38,3,.83,3,1.59,0,1.43-1.59,1.81-9.46,1.81s-9.46-.38-9.46-1.81c0-.76,1.13-1.21,3-1.59,2.12-.46,2.73-1.67,2.73-6.21V126.22c0-4.23-5.23-2.72-5.23-5.07,0-2.5,5.23-.15,5.23-5.52,0-15.82,11.58-21.12,19.68-21.12,6.89,0,12.34,2.8,12.34,6.51a4.89,4.89,0,0,1-5.07,4.69c-3.26,0-2.73-7.19-10.37-7.19-4.09,0-9.24,4.16-9.24,11.35v6.51c0,2.5.68,2.73,4.39,2.73h8.63a18.46,18.46,0,0,0,4.62-.38,40,40,0,0,1,6.21-1.51c1,0,1.43.91,1.43,3v28.47c0,4.39.69,5.52,2.81,6,1.89.38,3,.83,3,1.59,0,1.43-1.59,1.81-9.46,1.81s-9.46-.38-9.46-1.81c0-.76,1.13-1.21,3-1.59,2.12-.46,2.72-1.67,2.72-6.21Z"/><path class="cls-1" d="M499.45,103.89c0-1.81-.83-3-2-3.4-.91-.31-3.18-.15-3.18-1.52,0-1.81,8.32-4.46,11.13-4.46,1,0,1.43.91,1.43,3v51.18c0,4.39.69,5.52,2.8,6,1.9.38,3,.83,3,1.59,0,1.43-1.59,1.81-9.46,1.81s-9.46-.38-9.46-1.81c0-.76,1.13-1.21,3-1.59,2.12-.46,2.72-1.67,2.72-6.21Z"/><path class="cls-1" d="M548.12,129.4c0,4.24-2.72,5.53-10.67,5.53h-12a1.73,1.73,0,0,0-1.9,2c.53,11.13,6.29,16.81,12.8,16.81,7,0,9.38-5.83,11.35-5.83.68,0,1.06.38,1.06.91,0,2.57-6,10-15.37,10-10.9,0-17.94-8.1-17.94-21,0-11.81,8.93-20.59,18.62-20.59S548.12,123,548.12,129.4Zm-14.76,2.73c4.62,0,6.66-.61,6.66-2.88,0-5.15-3.63-8.78-8.55-8.78-3.78,0-7.57,3-7.57,9.46C523.9,131.52,524.81,132.13,533.36,132.13Z"/><path class="cls-1" d="M578.33,118.73c1.66,0,2,2.2,2,5.15,0,4.39-.3,5.75-1.36,5.75-2.88,0-3.33-9.92-10.67-9.92-4.32,0-6.74,2.5-6.74,6.06,0,3.26,1.89,5.9,9.31,9,8.78,3.71,11.66,7.57,11.66,13.09,0,6.74-5.6,11-13.86,11-5.14,0-8.17-1.51-12.18-1.51-2.8,0-2.73-4.39-2.73-7.27,0-2.5.15-5.6,1.59-5.6,2.5,0,3.41,11.88,13,11.88,4.46,0,6.43-2.72,6.43-6.13,0-3.63-2.35-6.74-10.52-10.07s-9.62-7.64-9.62-12.11c0-6.13,5.68-10.82,13.33-10.82C572.35,117.22,575.07,118.73,578.33,118.73Z"/><path class="cls-1" d="M23.61,232.15c.13,2,.32,2.37,1,2.37,1.6,0,10-9.47,10-16.58s-5.19-4.8-5.19-8.44a3.91,3.91,0,0,1,3.71-3.84c3,0,5.83,3.26,5.83,7.87,0,13.37-10.75,20.86-15.36,26.75C20,245,14.21,255.89,5.25,255.89c-3.14,0-5.25-1.09-5.25-3.45a3.78,3.78,0,0,1,3.65-4c2,0,2.17,3,5,3,3.84,0,9.67-6.91,9.67-13.5,0-3.33-1.16-26.3-5.63-26.3-2.12,0-3.14,4.54-4.8,4.54-.52,0-.77-.38-.77-1,0-2.05,4.09-9.53,9.28-9.53C19.52,205.66,22.14,209.56,23.61,232.15Z"/><path class="cls-1" d="M70.65,218.39c0,9.09-7.42,21.82-18.24,21.82-7.93,0-10.62-5.31-10.62-12.48,0-10.94,8.7-22.07,18.56-22.07C68,205.66,70.65,210.26,70.65,218.39Zm-6.52,0c0-4.8-1.35-9.47-5.7-9.47-4.1,0-10.11,5.89-10.11,18.69,0,4.48,1.34,9.34,6.21,9.34C59,237,64.13,230.1,64.13,218.39Z"/><path class="cls-1" d="M94.14,236.18c0-3.9,3.14-10.17,3.14-10.94a.4.4,0,0,0-.39-.45c-.32,0-.51.19-1,1-2.62,4.29-8.9,14.4-15.36,14.4-3.2,0-4.93-2.17-4.93-5.37,0-4.16,6.21-19.07,6.21-22.72,0-1-.26-1.41-1-1.41-2.88,0-4.29,4.1-5.7,4.1-.38,0-.64-.26-.64-.83,0-2,5.32-8.32,9.67-8.32,2.56,0,3.65,1,3.65,3.84,0,4.92-6.15,20.86-6.15,23.61,0,1.86.77,2.43,1.92,2.43,3.07,0,8.19-6.14,12.16-13.25,3.58-6.46,3.9-12.73,4.93-14.33a5.34,5.34,0,0,1,4.61-2c1.21,0,1.6.51,1.15,1.66-1.86,4.8-6.66,22.65-6.66,26.05,0,1.21.32,1.85,1.15,1.85,3.72,0,6.34-6.08,7.62-6.08a.68.68,0,0,1,.77.77c0,2.75-6.08,10-11.14,10C95.42,240.21,94.14,238.93,94.14,236.18Z"/><path class="cls-1" d="M123.9,200c.77,0,1,.32.83,1.54-.77,5-.19,5.95,1.67,5.88l3.84-.12c1.08-.07,1.66.19,1.66,1.15a2.47,2.47,0,0,1-2.5,2.37c-1.28,0-3.2-.07-4.16-.07-1.4,0-1.79.64-2.43,3-1.73,6.46-3.9,16.57-3.9,19.52,0,1.21.64,1.66,1.53,1.66,3.52,0,6.53-6,7.94-6,.51,0,.64.32.64,1,0,2.81-6,10.36-11.46,10.36-3.19,0-4.73-1.34-4.73-4.54,0-4.67,4.48-20.8,4.48-23.17,0-2.94-3.46-1.72-3.46-3.26s3.52-1.22,5.51-3.58C122,202.46,122.56,200,123.9,200Z"/><path class="cls-1" d="M153.08,236.18c0-3.9,3.14-10.17,3.14-10.94,0-.32-.19-.45-.38-.45s-.52.19-1,1c-2.62,4.29-8.89,14.4-15.36,14.4-3.2,0-4.92-2.17-4.92-5.37,0-4.16,6.2-19.07,6.2-22.72,0-1-.25-1.41-1-1.41-2.88,0-4.29,4.1-5.69,4.1-.39,0-.64-.26-.64-.83,0-2,5.31-8.32,9.66-8.32,2.56,0,3.65,1,3.65,3.84,0,4.92-6.15,20.86-6.15,23.61,0,1.86.77,2.43,1.92,2.43,3.08,0,8.2-6.14,12.16-13.25,3.59-6.46,3.91-12.73,4.93-14.33a5.34,5.34,0,0,1,4.61-2c1.22,0,1.6.51,1.15,1.66-1.85,4.8-6.65,22.65-6.65,26.05,0,1.21.32,1.85,1.15,1.85,3.71,0,6.33-6.08,7.61-6.08a.68.68,0,0,1,.77.77c0,2.75-6.08,10-11.13,10C154.36,240.21,153.08,238.93,153.08,236.18Z"/><path class="cls-1" d="M200.83,214.36c0,12.73-10.43,25.79-20.67,25.79-5.32,0-9.86-2.11-8.58-8.51L179,194.07c.58-2.88.32-4-1.08-4-2.76,0-4.74,1.21-4.74-.26,0-1.73,5.38-3.71,11.65-3.71,1.15,0,1.79.64,1.47,2.11l-3.46,16.25c-2.24,10.37-4.6,12.55-3.84,12.87.58.25,1.28-1.41,1.86-2.24,3.33-5,8.19-9.47,13.31-9.47C198.14,205.66,200.83,208.41,200.83,214.36Zm-6.6,2.37c0-4.16-1.4-6.53-4.22-6.53-4,0-8.57,6.85-10.37,10.11a32.19,32.19,0,0,0-2.56,11.07c0,2.82,1.48,5.38,5.12,5.38C187.2,236.76,194.23,230.81,194.23,216.73Z"/><path class="cls-1" d="M227.64,231.06c0,2.11-6.59,9.15-14.53,9.15-5.37,0-9-3.26-9-11.39,0-12.8,9.09-23.16,19.33-23.16,3.13,0,6.21,1.21,6.21,5.63,0,4.67-4.42,9.53-15.3,11.84-2.75.57-4.29.57-4.29,2.56,0,7.36,2.31,10.11,6.47,10.11,5.44,0,8.83-5.57,10.36-5.57A.73.73,0,0,1,227.64,231.06Zm-17-11.39c0,1,.38,1.28,1.6,1.28,4.86,0,10.88-2.49,10.88-7.81,0-2.75-1.28-4-3.52-4C216,209.18,210.62,214.62,210.62,219.67Z"/><path class="cls-1" d="M262.2,209.69c0,3.9-3.2,10.49-3.2,11.26,0,.32.19.45.39.45s.51-.19,1-1c2.62-4.29,9-14.72,15.49-14.72,3.2,0,4.67,1.79,4.67,4.8s-3.07,9.34-3.07,10c0,.32.19.45.38.45s.51-.19,1-1c2.63-4.28,8.77-14.2,15.24-14.2,3.2,0,4.92,2.17,4.92,5.37,0,4.16-6.33,19.39-6.33,23,0,1.22.38,1.86,1.28,1.86,3.52,0,6.27-6.21,7.68-6.21.38,0,.64.25.64.83,0,2.82-6.21,10-11.07,10-2.95,0-4.48-1.34-4.48-4.54,0-4.67,6.2-20.48,6.2-23.23,0-1.86-.76-2.43-1.92-2.43-3.07,0-8.32,6.46-12.28,13.56-3.59,6.47-3.27,12.74-4.29,14.34a5.34,5.34,0,0,1-4.61,2c-1.09,0-1.47-.38-1.47-1.28,0-2.43,6.33-23.42,6.33-26.17,0-1.86-.76-2.43-1.91-2.43-3.08,0-8.32,6.46-12.29,13.56-3.59,6.47-3.27,12.74-4.29,14.34a5.34,5.34,0,0,1-4.61,2c-1.09,0-1.47-.38-1.47-1.28,0-2.62,6.4-23.61,6.4-26.36,0-1.35-.32-1.86-1.15-1.86-2.43,0-4.16,4-5.44,4a.68.68,0,0,1-.77-.77c0-1.53,5.18-8.25,9.79-8.25C261.05,205.66,262.2,206.94,262.2,209.69Z"/><path class="cls-1" d="M334.33,217.56c-2.82,10.75-3.07,14.4-3.07,16.19,0,1.22.38,1.86,1.28,1.86,3.52,0,5.63-5.44,7-5.44.38,0,.64.25.64.83,0,2.56-5.38,9.21-10.43,9.21-3,0-4.48-1.34-4.48-4.54,0-2.94,2.11-5.82,1.08-5.82-1.28,0-6.14,10.36-14,10.36-4.48,0-6.53-4.73-6.53-9.4,0-13.83,11.07-25.15,19.39-25.15,4.23,0,5.38,1.4,7.23,1.4,2.37,0,3-2,4.16-2C338.17,205,337.21,206.55,334.33,217.56Zm-4.67-4.93c0-3.13-1.67-4.8-4.42-4.8-5.44,0-12.8,11.2-12.8,20.8,0,4.48,1,6.85,3.52,6.85s7.87-5.19,10.24-9.73A34.56,34.56,0,0,0,329.66,212.63Z"/><path class="cls-1" d="M366.65,210.65a3.37,3.37,0,0,1-3.14,3.52c-2.36,0-2.56-5.63-7.87-5.63a3.82,3.82,0,0,0-3.9,3.9c0,6.4,12.48,9.09,12.48,17.6,0,5.44-4.67,10.17-13.25,10.17-3.9,0-8.64-1.72-8.64-5.5,0-1.79,1.86-4,3.26-4,2.5,0,3.2,6.4,9,6.4,2.82,0,4.61-1.53,4.61-4.09,0-7.24-12.8-10.56-12.8-18,0-5,5.12-9.4,12.29-9.4C364,205.66,366.65,208.54,366.65,210.65Z"/><path class="cls-1" d="M381.05,200c.77,0,1,.32.83,1.54-.77,5-.19,5.95,1.67,5.88l3.84-.12c1.08-.07,1.66.19,1.66,1.15a2.47,2.47,0,0,1-2.5,2.37c-1.28,0-3.2-.07-4.16-.07-1.4,0-1.79.64-2.43,3-1.73,6.46-3.9,16.57-3.9,19.52,0,1.21.64,1.66,1.53,1.66,3.52,0,6.53-6,7.94-6,.51,0,.64.32.64,1,0,2.81-5.95,10.36-11.46,10.36-3.2,0-4.73-1.34-4.73-4.54,0-4.67,4.48-20.8,4.48-23.17,0-2.94-3.46-1.72-3.46-3.26s3.52-1.22,5.51-3.58C379.19,202.46,379.71,200,381.05,200Z"/><path class="cls-1" d="M413.62,231.06c0,2.11-6.59,9.15-14.52,9.15-5.38,0-9-3.26-9-11.39,0-12.8,9.09-23.16,19.33-23.16,3.14,0,6.21,1.21,6.21,5.63,0,4.67-4.42,9.53-15.3,11.84-2.75.57-4.28.57-4.28,2.56,0,7.36,2.3,10.11,6.46,10.11,5.44,0,8.83-5.57,10.37-5.57A.73.73,0,0,1,413.62,231.06Zm-17-11.39c0,1,.39,1.28,1.6,1.28,4.87,0,10.88-2.49,10.88-7.81,0-2.75-1.28-4-3.52-4C402,209.18,396.6,214.62,396.6,219.67Z"/><path class="cls-1" d="M431.86,209.69c0,3.9-3.58,10.49-3.58,11.26,0,.32.19.45.39.45s.64-.32,1.08-1.15c3.46-6.47,7.62-14.59,13.38-14.59a3.63,3.63,0,0,1,3.9,3.84c0,2.81-1.66,4.09-3.07,4.09-1.66,0-2.43-2.24-4.48-2.24s-5,3.71-9.41,12.67c-4.67,9.47-2.88,12.55-3.9,14.15-.83,1.28-2.82,2-4.86,2-1.09,0-1.48-.38-1.48-1.28,0-2.62,6.4-23.61,6.4-26.36,0-1.35-.32-1.86-1.15-1.86-2.43,0-4.16,4-5.44,4a.68.68,0,0,1-.77-.77c0-1.53,5.19-8.25,9.8-8.25C430.71,205.66,431.86,206.94,431.86,209.69Z"/><path class="cls-1" d="M457.85,251.09c0,1.73-6.08,4.8-12.35,4.8-1.15,0-1.67-.45-1.47-2.11.12-1.15,4.35-21.89,7.48-33.92.9-3.45,1.92-5.18,1.73-5.63-.32-.64-3.52,3.78-4.41,4.93-1.35,1.85-2.88.51-2-1,2.82-4.8,5.44-6.14,7.62-10.88,1.6-3.52,1.79-4,4.54-4,1.22,0,1.41.25,1.15,1.47-1.28,5.7-4.41,12.22-3.52,12.54.32.13,1.41-1.21,2.18-2.3,3.52-4.86,9.09-9.34,13.18-9.34,4.48,0,6.53,4.73,6.53,9.4,0,13.83-10.94,25.15-19.26,25.15-4.35,0-6.59-3.39-7.3,1.35l-1,6.4c-.51,3.39,0,4,1.41,4C454.78,251.92,457.85,248.85,457.85,251.09Zm-3.71-18.17a5,5,0,0,0,5.12,5.12c5.44,0,12.67-11.2,12.67-20.8,0-4.48-1-6.85-3.52-6.85-3.27,0-9.47,6.66-11.33,10.43A29,29,0,0,0,454.14,232.92Z"/><path class="cls-1" d="M482.17,213.91c0-1.53,5.18-8.25,10-8.25,2.37,0,3.39,1.4,3.39,4,0,4.55-6.72,20.48-6.72,24.13,0,1.22.39,1.86,1.28,1.86,3.52,0,5.76-5.51,7.17-5.51.39,0,.64.26.64.83,0,2.82-5.69,9.28-10.56,9.28-2.94,0-4.48-1.34-4.48-4.54,0-4.67,6.66-19.9,6.66-23.29,0-1.16-.32-1.67-1.15-1.67-2.5,0-4.1,4-5.32,4C482.55,214.68,482.17,214.42,482.17,213.91ZM490.55,192a3.94,3.94,0,1,0,4-4A4.15,4.15,0,0,0,490.55,192Z"/><path class="cls-1" d="M524.73,231.06c0,2.11-6.59,9.15-14.53,9.15-5.38,0-9-3.26-9-11.39,0-12.8,9.08-23.16,19.32-23.16,3.14,0,6.21,1.21,6.21,5.63,0,4.67-4.42,9.53-15.29,11.84-2.76.57-4.29.57-4.29,2.56,0,7.36,2.3,10.11,6.46,10.11,5.44,0,8.83-5.57,10.37-5.57A.73.73,0,0,1,524.73,231.06Zm-17-11.39c0,1,.39,1.28,1.6,1.28,4.87,0,10.88-2.49,10.88-7.81,0-2.75-1.28-4-3.52-4C513.08,209.18,507.7,214.62,507.7,219.67Z"/><path class="cls-1" d="M552.31,230.29c0,2.18-6.66,9.92-14.59,9.92-5.06,0-8.32-4.09-8.32-10.24,0-14.46,9.54-24.31,17.92-24.31,5.5,0,8.32,2.68,8.32,5a3.35,3.35,0,0,1-3.27,3.65c-2.94,0-2.17-4.87-7.48-4.87-4.87,0-9,8.39-9,17.6,0,4.74,1.34,8.45,4.8,8.45,5.31,0,9.28-6,10.81-6A.73.73,0,0,1,552.31,230.29Z"/><path class="cls-1" d="M581.11,231.06c0,2.11-6.59,9.15-14.53,9.15-5.37,0-9-3.26-9-11.39,0-12.8,9.09-23.16,19.33-23.16,3.13,0,6.2,1.21,6.2,5.63,0,4.67-4.41,9.53-15.29,11.84-2.75.57-4.29.57-4.29,2.56,0,7.36,2.31,10.11,6.47,10.11,5.43,0,8.83-5.57,10.36-5.57A.73.73,0,0,1,581.11,231.06Zm-17-11.39c0,1,.38,1.28,1.6,1.28,4.86,0,10.88-2.49,10.88-7.81,0-2.75-1.28-4-3.52-4C569.46,209.18,564.09,214.62,564.09,219.67Z"/><path class="cls-1" d="M27,287.15l16.3,37c1.59,3.69,1.84,5.2,2.85,5.2s1.51-1.68,2.94-5.37l14.37-37c1.42-3.61,3.27-4.29,8.31-4.29,7.9,0,9.75.17,9.75,1.43,0,3.45-6.47.84-6.22,7.56L77,335.53c.17,4,2,5.38,4.37,5.8,3.11.58,4.45,1,4.45,2.26,0,1.68-3.36,2.1-12.6,2.1-10.42,0-12.52-.33-12.52-2,0-1.51,1.77-1.6,4.37-2.19,1.93-.42,3.11-1.84,3-5.37L66.7,302c-.17-4.62-.25-6-.84-6s-1.26,1.26-3.11,5.8L47.47,340c-1,2.52-2,5.13-3.45,5.13-1.59,0-2.35-2.19-3.69-5.21l-16.47-37c-1.43-3.11-2.27-6-3.19-6s-.92,3.36-1.18,8.07l-1.26,28c-.25,5.8,1,7.9,4.12,8.48,2.1.42,4.7.76,4.7,2.1,0,1.77-2.94,2.1-12.68,2.1-9.49,0-11.34-.42-11.34-2.1s2-1.68,5-2.18c3.28-.5,4.79-2.1,5.12-8.23l2.1-41.08c.34-7-7.22-4-7.22-7.47,0-1.6,3.28-1.94,11.34-1.94C24.37,282.69,25.46,283.62,27,287.15Z"/><path class="cls-1" d="M118.45,281.85c17.72,0,30.65,12.35,30.65,31.76,0,19.74-14.19,32.92-31.5,32.92-19.65,0-31-12-31-31.5C86.61,294.45,102.15,281.85,118.45,281.85Zm1.09,60.57c12.18,0,19.32-10,19.32-25.37,0-21.08-11.43-31.25-22.51-31.25-10.5,0-19.49,8.57-19.49,26.63C96.86,328.39,106.43,342.42,119.54,342.42Z"/><path class="cls-1" d="M204,299.16c0-10.67-1.85-11.43-5.8-12.27-2.1-.42-4.7-.25-4.7-2.1s2.35-2.1,13.35-2.1c10.5,0,12.35.42,12.35,2.1s-2,1.68-5,2.19-5.12,1.76-5.12,9.91v41.24c0,5.3-.59,7.56-2.19,7.56-2.69,0-3.86-2.77-7.31-7.05l-28.3-35.45c-3.95-4.87-4.2-5.46-5.3-5.46s-1.26,2-1.26,7.48v24c0,10.67,1.85,11.34,6.64,12.26,2.1.42,4.7-.08,4.7,2.1,0,1.94-1.68,2.1-14,2.1-11.18,0-12.52-.42-12.52-2.1s2-1.68,5-2.18c3.28-.5,5.12-1.85,5.12-11.26V294.62c0-10.16-7.47-6.47-7.47-10.08,0-1.51,1.68-1.85,10.67-1.85,5.46,0,4.7,1.52,10.08,8.15l23.1,28.9c3.52,4.37,5.62,6.63,6.88,6.63,1,0,1.1-3.36,1.1-7.39Z"/><path class="cls-1" d="M250.49,281.85c17.73,0,30.66,12.35,30.66,31.76,0,19.74-14.19,32.92-31.5,32.92-19.65,0-31-12-31-31.5C218.66,294.45,234.2,281.85,250.49,281.85Zm1.09,60.57c12.18,0,19.32-10,19.32-25.37,0-21.08-11.42-31.25-22.51-31.25-10.5,0-19.49,8.57-19.49,26.63C228.9,328.39,238.48,342.42,251.58,342.42Z"/><path class="cls-1" d="M331.38,300.5c0,13-10.92,21-21.59,21-3.1,0-5.71-.17-7.05-.17a2.8,2.8,0,0,0-2.86,2.94v11.18c0,4.11,1.51,5.54,4.2,6,3.11.59,4.87.92,4.87,2.27,0,1.59-1.84,2-13.44,2-10.41,0-12.76-.42-12.76-2,0-1.35,1.84-1.68,4.45-2.19,2.35-.42,3.69-2.1,3.69-6.72V292.52c0-3.53-1.68-5.12-3.78-5.63s-4.2-.84-4.2-2.18c0-1.6,3.2-2,12.44-2h.84c7.3-.08,10.24-.42,14.28-.42C325.25,282.27,331.38,290.51,331.38,300.5Zm-31.5,12c0,4.79,2.27,5.38,6.55,5.38,9.33,0,15.54-5.38,15.54-14.78,0-8.91-7.39-17-16.63-17-4.45,0-5.46,1.17-5.46,7.22Z"/><path class="cls-1" d="M366.24,281.85c17.73,0,30.66,12.35,30.66,31.76,0,19.74-14.19,32.92-31.5,32.92-19.65,0-31-12-31-31.5C334.41,294.45,350,281.85,366.24,281.85Zm1.09,60.57c12.18,0,19.32-10,19.32-25.37,0-21.08-11.42-31.25-22.51-31.25-10.5,0-19.49,8.57-19.49,26.63C344.65,328.39,354.23,342.42,367.33,342.42Z"/><path class="cls-1" d="M406.64,293.61c0-4.62-1.42-6.21-3.78-6.72-2.1-.42-4.2-.84-4.2-2.18,0-1.6,3.11-2,12.35-2,10.42,0,12.52.42,12.52,2,0,1.34-2.1,1.76-4.2,2.18-2.35.51-3.7,2.1-3.7,6.72v41.92c0,5,1.26,6.3,5.46,6.3h2.44c19.32,0,19.07-13.27,22-13.27,1.09,0,2,.5,2,1.68,0,4.62-2.52,15.45-8.73,15.45H411.26c-10.41,0-12.76-.42-12.76-2,0-1.35,1.84-1.68,4.45-2.19,2.35-.42,3.69-2.1,3.69-6.72Z"/><path class="cls-1" d="M459.65,293.19c0-4.28-1.51-5.79-3.78-6.3-2.86-.58-5.46-.84-5.46-2.18,0-1.6,2.6-2,13.61-2,11.34,0,13.77.42,13.77,2,0,1.34-2.69,1.6-5.46,2.18-2.27.51-3.69,2-3.69,6.3v42c0,4.29,1.51,5.8,3.78,6.3,3.1.68,6,.84,6,2.19,0,1.59-2.44,2-14.11,2s-14.28-.42-14.28-2c0-1.35,2.6-1.51,6-2.19,2.35-.5,3.7-2.1,3.7-6.72Z"/><path class="cls-1" d="M509.54,310.58c4.62,0,6.3-1.43,6.72-3.78.59-3.11.59-5.46,2.19-5.46s2.43,3,2.43,10.92c0,9.49-.84,11.17-2.43,11.17s-1.51-2.1-2.19-5.46c-.5-2.35-2.1-3.69-6.72-3.69h-3.27c-4.79,0-6,1.34-6,6.21v14.12c0,6,1.52,7.22,6.56,7.22h1.34c22.09,0,21.59-13.27,24.53-13.27,1.09,0,2,.5,2,1.68,0,4.62-2.52,15.45-8.73,15.45H495.68c-10.16,0-12.51-.42-12.51-2,0-1.35,1.85-1.68,4.45-2.19,2.35-.42,3.7-2.1,3.7-6.72V293.53c0-4.54-1.43-6.13-3.78-6.64-2.1-.42-4.2-.84-4.2-2.18,0-1.6,3.1-2,12.34-2h19.16c7.81,0,8.23-1.26,10.5-1.26,2.85,0,5.29,10.25,5.29,14.62a1.84,1.84,0,0,1-2.1,2c-2.69,0-2.35-11.68-16-11.68H508c-6,0-7.73.76-7.73,7.22v12.52c0,3.95,1.85,4.45,6,4.45Z"/><path class="cls-1" d="M574.9,284.21c3,0,4.36,9.4,4.36,15,0,1.93-.67,2.43-1.59,2.43-3.28,0-6.64-16.12-18.9-16.12-5,0-9.83,3.52-9.83,9.49,0,5.21,2.27,10.33,14,14,13.35,4.2,19.32,10.33,19.32,20.32,0,9.75-8.15,17.22-20.92,17.22-7.81,0-10.25-2.43-16.46-2.43-4.87,0-5.63-11.43-5.63-18.82,0-1.34.42-2.43,1.93-2.43,2.86,0,3.87,19.74,21.34,19.74a10.49,10.49,0,0,0,10.67-10.5c0-5.55-1.94-10.84-16.22-15.38-12.18-3.86-16.21-10.66-16.21-17.64,0-9.74,8.32-17.22,19.74-17.22C567,281.85,568.93,284.21,574.9,284.21Z"/><path class="cls-1" d="M28.9,417c0,1.77.64,2.57,1.77,2.57.75,0,1.66-.38,2.3-.38a.91.91,0,0,1,.91,1c0,1.24-6.59,3.38-8.68,3.38-1.66,0-1-3.27-2.2-3.27-1.5,0-4.77,3.27-8.25,3.27A10.55,10.55,0,0,1,6.44,420C4.13,417.6,2.85,414,2.85,409.13c0-8.2,5.46-15.06,13.18-15.06,2.31,0,4.34.8,6.11.8,1.34,0,1.56-.91,1.56-2.79v-7.55a2.06,2.06,0,0,0-1.34-2.2c-.91-.27-2.52-.16-2.52-1.13,0-1.18,6.06-3.21,8-3.21.64,0,1,.64,1,1.82Zm-11.1,3c4.13,0,6.17-3.22,6.17-11.26,0-9.92-4-12.6-7.78-12.6-4.29,0-7.61,3.92-7.61,11.69C8.58,414.92,12.65,420,17.8,420Z"/><path class="cls-1" d="M57.41,402.48v13.94c0,1.72.59,3.11,2,3.11,1.07,0,2.14-1,2.68-1s.75.27.75.81c0,1.18-3.91,4.18-6.59,4.18-3.49,0-3.17-2.84-4.94-2.84s-4.39,2.84-8,2.84-6.64-2.57-6.64-7.29c0-4.07,3.37-6.17,7.72-7.29,5.3-1.39,7.82-1,7.82-5.2,0-3.43-2-6-5.47-6-4.93,0-6,2.89-7.13,2.89a1.22,1.22,0,0,1-1.28-1.23c0-1.56,5.52-5.36,11.36-5.36C54,394.07,57.41,396.85,57.41,402.48ZM46.8,420.28c3,0,5.41-1.77,5.41-5.09,0-4.29-.27-5.15-2.73-5.15-3.75,0-7.35,1.56-7.35,4.5S44.28,420.28,46.8,420.28Z"/><path class="cls-1" d="M74.45,416.21c0,3.48.81,4.07,2.31,4.39,1.34.27,2.25.59,2.25,1.13,0,1-1.55,1.28-7.13,1.28s-6.7-.26-6.7-1.28c0-.54.8-.86,2.15-1.13,1.5-.32,1.92-1.18,1.92-4.39V400.45a2.06,2.06,0,0,0-1.44-2.15c-.65-.21-2.25-.1-2.25-1.07,0-1.29,5.89-3.16,7.88-3.16.69,0,1,.64,1,2.14,0,1,.33,1.34.86,1.34,1,0,4.34-3.64,6.65-3.64s4.13,1.39,4.13,3.32-1.24,3.86-2.9,3.86c-1.5,0-1.93-2.73-5.41-2.73-2.09,0-3.33,1.6-3.33,4.93Z"/><path class="cls-1" d="M95.73,416.47c0,3,.49,3.81,2,4.13,1.34.27,2.14.59,2.14,1.13,0,1-1.12,1.28-6.7,1.28s-6.7-.26-6.7-1.28c0-.54.8-.86,2.14-1.13,1.5-.32,1.93-1.18,1.93-4.39V384.37a2.06,2.06,0,0,0-1.44-2.15c-.65-.21-2.42-.11-2.42-1.07,0-1.29,6.06-3.16,8-3.16.65,0,1,.59,1,1.87v25.63c0,1.07.54,1.39,1.18,1.39,1.24,0,2.2-.8,5-3.38l2.36-2.52c1.12-1.23,1.87-1.93,1.87-3,0-1.6-2.95-.91-2.95-2.14,0-.86,1.61-1.29,7.35-1.29,3.59,0,5.2.22,5.2,1.18,0,1.13-1.88.91-3.59,1.72a14.39,14.39,0,0,0-3.92,2.95l-2.36,2.3c-2,1.93-2.78,2.84-2.78,3.7s1.07,2.3,2.36,3.91l4,4.93c2.14,2.63,4.07,5.26,6.54,5.26a11.24,11.24,0,0,0,2.78-.59c.43,0,.65.27.65.75,0,1.18-3.7,2.84-6.17,2.84-2.84,0-5.09-1-7.4-4.07l-6.16-8.31c-1-1.4-2-2.74-2.79-2.74s-1.18.38-1.18,1.5Z"/><path class="cls-1" d="M125.7,400.77c0-1.45-.59-2.2-1.45-2.47-.65-.21-2.25-.1-2.25-1.07,0-1.29,5.89-3.16,7.88-3.16.69,0,1,.64,1,2.14s.48,1.34.8,1.34c1.18,0,5.73-3.48,9.7-3.48,4.34,0,7.4,3.59,7.4,9.22v12.92c0,3.21.48,4.07,2,4.39,1.34.27,2.15.59,2.15,1.13,0,1-1.13,1.28-6.7,1.28s-6.71-.26-6.71-1.28c0-.54.81-.86,2.15-1.13,1.5-.32,1.93-1.18,1.93-4.39v-9.55c0-6-2.25-8.79-6.38-8.79-3.86,0-6.32,1.88-6.32,6.6V416.9c0,2.68.58,3.43,2,3.7s2.14.59,2.14,1.13c0,1-1.12,1.28-6.7,1.28s-6.7-.26-6.7-1.28c0-.54.81-.86,2.15-1.13s1.82-1,1.93-3.43Z"/><path class="cls-1" d="M178,402.7c0,3-1.93,3.91-7.56,3.91h-8.52a1.22,1.22,0,0,0-1.34,1.45c.37,7.88,4.44,11.9,9.05,11.9,4.94,0,6.65-4.13,8-4.13.49,0,.76.27.76.64,0,1.83-4.24,7.08-10.89,7.08-7.72,0-12.7-5.74-12.7-14.9,0-8.36,6.32-14.58,13.19-14.58S178,398.14,178,402.7Zm-10.46,1.93c3.27,0,4.72-.43,4.72-2a5.93,5.93,0,0,0-6.06-6.22c-2.68,0-5.36,2.09-5.36,6.7C160.8,404.2,161.45,404.63,167.5,404.63Z"/><path class="cls-1" d="M199.61,395.14c1.18,0,1.45,1.55,1.45,3.64,0,3.11-.22,4.08-1,4.08-2,0-2.36-7-7.56-7-3.05,0-4.77,1.77-4.77,4.29,0,2.3,1.34,4.18,6.6,6.37,6.21,2.63,8.25,5.36,8.25,9.28,0,4.77-4,7.77-9.81,7.77-3.64,0-5.79-1.07-8.63-1.07-2,0-1.93-3.11-1.93-5.15,0-1.77.11-4,1.13-4,1.77,0,2.41,8.41,9.16,8.41,3.17,0,4.56-1.93,4.56-4.34,0-2.57-1.66-4.77-7.45-7.13s-6.81-5.41-6.81-8.58c0-4.34,4-7.66,9.44-7.66C195.38,394.07,197.3,395.14,199.61,395.14Z"/><path class="cls-1" d="M224.43,395.14c1.18,0,1.44,1.55,1.44,3.64,0,3.11-.21,4.08-1,4.08-2,0-2.36-7-7.56-7-3,0-4.77,1.77-4.77,4.29,0,2.3,1.34,4.18,6.59,6.37,6.22,2.63,8.26,5.36,8.26,9.28,0,4.77-4,7.77-9.81,7.77-3.65,0-5.79-1.07-8.63-1.07-2,0-1.93-3.11-1.93-5.15,0-1.77.11-4,1.12-4,1.77,0,2.42,8.41,9.17,8.41,3.16,0,4.56-1.93,4.56-4.34,0-2.57-1.66-4.77-7.45-7.13s-6.81-5.41-6.81-8.58c0-4.34,4-7.66,9.43-7.66C220.19,394.07,222.12,395.14,224.43,395.14Z"/><path class="cls-1" d="M260.34,394.07c7.13,0,13.77,5.25,13.77,14.26,0,10-6.37,15.22-14.15,15.22-8.63,0-14.09-5.79-14.09-14.74A14.57,14.57,0,0,1,260.34,394.07Zm.59,27.5c4.5,0,7.18-5,7.18-11.26,0-10.18-4.61-14.26-8.9-14.26-3.75,0-7.34,4.45-7.34,11.26C251.87,415.62,256.05,421.57,260.93,421.57Z"/><path class="cls-1" d="M299.9,382.11a3,3,0,0,1-3.27,3.06c-1.88,0-2.26-4.34-6.22-4.34-2.36,0-4.67,2-4.67,8.14v4.51c0,1.77.49,1.93,1.88,1.93h3.81c1.28,0,2,.37,2,1.34s-.59,1.71-2,1.61l-3.76-.22c-1.44-.11-1.93.11-1.93,2.09v16.08c0,3.17.49,4,2,4.29,1.34.27,2.14.59,2.14,1.13,0,1-1.12,1.28-6.7,1.28s-6.7-.26-6.7-1.28c0-.54.8-.86,2.14-1.13,1.51-.32,1.93-1.18,1.93-4.39V400.45c0-3-3.69-1.93-3.69-3.6s3.69-.1,3.69-3.91c0-11.2,7.13-14.95,12.33-14.95C297.05,378,299.9,379.92,299.9,382.11Z"/><path class="cls-1" d="M316.62,392.73c.26,1.87.53,2.73,2.73,2.73H323c1,0,1.82.32,1.82,1.34s-.38,1.66-2,1.56l-3.27-.22c-2.09-.16-2.63.32-2.63,2.84v12.71c0,4.23,2.26,5.89,4.88,5.89,2,0,3.33-2,4.24-2,.48,0,.69.26.69.8,0,1.61-4.34,5.2-7.45,5.2a7.29,7.29,0,0,1-7.55-7.56V402.38c0-2.68-.27-3.6-1.08-4.18s-2.25-.38-2.25-1.45c0-1.24,1.18-.75,3.65-3.38,2.19-2.3,2-3.86,3.37-3.86C316.3,389.51,316.35,390.91,316.62,392.73Z"/><path class="cls-1" d="M338.16,416.21c0,3.21.49,4.07,2,4.39,1.34.27,2.14.59,2.14,1.13,0,1-1.12,1.28-6.7,1.28s-6.7-.26-6.7-1.28c0-.54.8-.86,2.14-1.13s1.93-1,1.93-3.7V384.37a2.06,2.06,0,0,0-1.44-2.15c-.65-.21-2.42-.11-2.42-1.07,0-1.29,6.06-3.16,8-3.16.64,0,1,.59,1,1.87v16.35c0,1.4.75,1.34,1.08,1.34,1.18,0,5.46-3.48,9.43-3.48,4.34,0,7.4,3.59,7.4,9.22V416.9c0,2.68.59,3.43,2,3.7s2.15.59,2.15,1.13c0,1-1.13,1.28-6.71,1.28s-6.7-.26-6.7-1.28c0-.54.81-.86,2.15-1.13s1.93-1,1.93-3.7V406.66c0-6-2.25-8.79-6.38-8.79-3.86,0-6.33,1.93-6.33,6.6Z"/><path class="cls-1" d="M385.23,402.7c0,3-1.93,3.91-7.56,3.91h-8.53a1.23,1.23,0,0,0-1.34,1.45c.38,7.88,4.45,11.9,9.06,11.9,4.93,0,6.65-4.13,8-4.13.49,0,.75.27.75.64,0,1.83-4.23,7.08-10.88,7.08-7.72,0-12.7-5.74-12.7-14.9,0-8.36,6.32-14.58,13.18-14.58S385.23,398.14,385.23,402.7Zm-10.46,1.93c3.27,0,4.72-.43,4.72-2a5.93,5.93,0,0,0-6.06-6.22c-2.68,0-5.36,2.09-5.36,6.7C368.07,404.2,368.72,404.63,374.77,404.63Z"/><path class="cls-1" d="M423.6,402.48v13.94c0,1.72.59,3.11,2,3.11,1.07,0,2.14-1,2.68-1s.75.27.75.81c0,1.18-3.91,4.18-6.59,4.18-3.49,0-3.17-2.84-4.94-2.84s-4.39,2.84-8,2.84-6.64-2.57-6.64-7.29c0-4.07,3.37-6.17,7.72-7.29,5.3-1.39,7.82-1,7.82-5.2,0-3.43-2-6-5.46-6-4.94,0-6,2.89-7.13,2.89a1.23,1.23,0,0,1-1.29-1.23c0-1.56,5.52-5.36,11.36-5.36C420.23,394.07,423.6,396.85,423.6,402.48ZM413,420.28c2.95,0,5.41-1.77,5.41-5.09,0-4.29-.27-5.15-2.73-5.15-3.75,0-7.34,1.56-7.34,4.5S410.47,420.28,413,420.28Z"/><path class="cls-1" d="M440.65,416.21c0,3.48.8,4.07,2.3,4.39,1.34.27,2.25.59,2.25,1.13,0,1-1.55,1.28-7.13,1.28s-6.7-.26-6.7-1.28c0-.54.81-.86,2.15-1.13,1.5-.32,1.93-1.18,1.93-4.39V400.45A2.07,2.07,0,0,0,434,398.3c-.65-.21-2.25-.1-2.25-1.07,0-1.29,5.89-3.16,7.88-3.16.69,0,1,.64,1,2.14,0,1,.32,1.34.85,1.34,1,0,4.35-3.64,6.65-3.64s4.13,1.39,4.13,3.32-1.24,3.86-2.9,3.86c-1.5,0-1.93-2.73-5.41-2.73-2.09,0-3.32,1.6-3.32,4.93Z"/><path class="cls-1" d="M477.09,398.68c0,1.93-1.28,3-3.32,3-2.25,0-1.82-5.74-6.65-5.74-4.66,0-7.55,5.1-7.55,12.06,0,7.35,3.69,12.07,9,12.07,5,0,7.29-5.2,8.47-5.2a.71.71,0,0,1,.8.75c0,2.14-4.07,7.93-10.82,7.93-8.79,0-13.46-5.63-13.46-14.37s6.6-15.11,14.26-15.11C473.4,394.07,477.09,396.53,477.09,398.68Z"/><path class="cls-1" d="M488.88,416.21c0,3.21.49,4.07,2,4.39,1.34.27,2.14.59,2.14,1.13,0,1-1.12,1.28-6.7,1.28s-6.7-.26-6.7-1.28c0-.54.81-.86,2.15-1.13s1.93-1,1.93-3.7V384.37a2.07,2.07,0,0,0-1.45-2.15c-.65-.21-2.41-.11-2.41-1.07,0-1.29,6.05-3.16,8-3.16.64,0,1,.59,1,1.87v16.35c0,1.4.76,1.34,1.08,1.34,1.18,0,5.46-3.48,9.43-3.48,4.34,0,7.4,3.59,7.4,9.22V416.9c0,2.68.59,3.43,2,3.7s2.15.59,2.15,1.13c0,1-1.13,1.28-6.7,1.28s-6.71-.26-6.71-1.28c0-.54.81-.86,2.15-1.13s1.93-1,1.93-3.7V406.66c0-6-2.25-8.79-6.38-8.79-3.86,0-6.33,1.93-6.33,6.6Z"/><path class="cls-1" d="M523.24,416.21c0,3.21.48,4.07,2,4.39,1.34.27,2.14.59,2.14,1.13,0,1-1.13,1.28-6.7,1.28s-6.7-.26-6.7-1.28c0-.54.8-.86,2.14-1.13s1.93-1.12,1.93-4.23V400.45a2.06,2.06,0,0,0-1.44-2.15c-.65-.21-2.26-.1-2.26-1.07,0-1.29,5.9-3.16,7.88-3.16.7,0,1,.64,1,2.14Zm-6.16-33.29a3.3,3.3,0,1,0,3.37-3.38A3.47,3.47,0,0,0,517.08,382.92Z"/><path class="cls-1" d="M549.77,402.11a12,12,0,0,0,1.08-3.81c0-2-3.06-1-3.06-2.46,0-.75,1.82-1.24,6-1.24,3.38,0,4.66.27,4.66,1,0,1.66-3.21.27-4.87,4.34l-7.94,19.62c-1.12,2.84-1.77,4-2.84,4S541,422.48,540,420l-8.95-20.47c-1.5-3.44-4-2-4-3.6,0-1.18,2-1.34,6.54-1.34,4.93,0,6.75.16,6.75,1.29,0,1.55-3.32.64-3.32,2.41a11,11,0,0,0,1.07,4l3.86,9.59c1,2.42,1.29,4,1.93,4s1.13-1.45,1.77-3.11Z"/><path class="cls-1" d="M581.45,402.7c0,3-1.93,3.91-7.56,3.91h-8.52a1.23,1.23,0,0,0-1.34,1.45c.38,7.88,4.45,11.9,9.06,11.9,4.93,0,6.65-4.13,8-4.13.48,0,.75.27.75.64,0,1.83-4.23,7.08-10.88,7.08-7.72,0-12.71-5.74-12.71-14.9,0-8.36,6.33-14.58,13.19-14.58S581.45,398.14,581.45,402.7ZM571,404.63c3.27,0,4.72-.43,4.72-2a5.94,5.94,0,0,0-6.06-6.22c-2.68,0-5.36,2.09-5.36,6.7C564.3,404.2,564.94,404.63,571,404.63Z"/><path class="cls-1" d="M32.83,507.61c0,5,1.76,5.92,4,6.4,3,.64,4.64.64,4.64,2.08S39.31,518,28.67,518s-13-.4-13-1.92,2.16-1.6,4.64-2.08c2.24-.4,3.92-1.44,3.92-6.4V468.33c0-5.84-1.84-6.8-5.52-6.8h-.48c-12.64,0-11.92,12.72-14.48,12.72a1.75,1.75,0,0,1-2-1.92c0-4.16,1.52-15.52,4.24-15.52,2.16,0,2.56,1.2,10,1.2h25c7.44,0,7.85-1.2,10-1.2,2.72,0,4.24,11.36,4.24,15.52a1.75,1.75,0,0,1-2,1.92c-2.56,0-1.6-12.72-14.48-12.72h-.48c-3.68,0-5.52,1-5.52,6.8Z"/><path class="cls-1" d="M68.83,507.85c0,4.8.72,6.08,3,6.56,2,.4,3.2.88,3.2,1.68,0,1.52-1.68,1.92-10,1.92s-10-.4-10-1.92c0-.8,1.2-1.28,3.2-1.68s2.88-1.52,2.88-5.52V460.33a3.08,3.08,0,0,0-2.16-3.2c-1-.32-3.6-.16-3.6-1.6,0-1.92,9-4.72,12-4.72,1,0,1.52.88,1.52,2.8V478c0,2.08,1.12,2,1.6,2,1.76,0,8.16-5.2,14.08-5.2,6.48,0,11,5.36,11,13.76v20.32c0,4,.88,5.12,3,5.52s3.2.88,3.2,1.68c0,1.52-1.68,1.92-10,1.92s-10-.4-10-1.92c0-.8,1.2-1.28,3.2-1.68s2.88-1.52,2.88-5.52V493.61c0-9-3.36-13.12-9.52-13.12-5.76,0-9.44,2.88-9.44,9.84Z"/><path class="cls-1" d="M138.19,487.69c0,4.48-2.88,5.84-11.28,5.84H114.19a1.83,1.83,0,0,0-2,2.16c.56,11.76,6.64,17.76,13.52,17.76,7.36,0,9.92-6.16,12-6.16.72,0,1.12.4,1.12,1,0,2.72-6.32,10.56-16.24,10.56-11.52,0-19-8.56-19-22.24,0-12.48,9.44-21.76,19.68-21.76S138.19,480.89,138.19,487.69Zm-15.6,2.88c4.88,0,7-.64,7-3,0-5.44-3.84-9.28-9-9.28-4,0-8,3.12-8,10C112.59,489.93,113.55,490.57,122.59,490.57Z"/><path class="cls-1" d="M210.11,475c0,12.4-10.4,20-20.56,20-3,0-5.44-.16-6.72-.16a2.67,2.67,0,0,0-2.72,2.8v10.64c0,3.92,1.44,5.28,4,5.68,3,.56,4.64.88,4.64,2.16,0,1.52-1.76,1.92-12.8,1.92-9.92,0-12.16-.4-12.16-1.92,0-1.28,1.76-1.6,4.24-2.08,2.24-.4,3.52-2,3.52-6.4V467.37c0-3.36-1.6-4.88-3.6-5.36s-4-.8-4-2.08c0-1.52,3-1.92,11.84-1.92h.8c7-.08,9.76-.4,13.6-.4C204.27,457.61,210.11,465.45,210.11,475Zm-30,11.44c0,4.56,2.16,5.12,6.24,5.12,8.88,0,14.8-5.12,14.8-14.08,0-8.48-7-16.16-15.84-16.16-4.24,0-5.2,1.12-5.2,6.88Z"/><path class="cls-1" d="M232.51,474.81c10.64,0,20.56,7.84,20.56,21.28,0,15-9.52,22.72-21.12,22.72-12.88,0-21-8.64-21-22C210.91,482,223.31,474.81,232.51,474.81Zm.88,41c6.72,0,10.72-7.44,10.72-16.8,0-15.2-6.88-21.28-13.28-21.28-5.6,0-11,6.64-11,16.8C219.87,507,226.11,515.85,233.39,515.85Z"/><path class="cls-1" d="M279.31,474.81c10.64,0,20.56,7.84,20.56,21.28,0,15-9.52,22.72-21.12,22.72-12.88,0-21-8.64-21-22C257.71,482,270.11,474.81,279.31,474.81Zm.88,41c6.72,0,10.72-7.44,10.72-16.8,0-15.2-6.88-21.28-13.28-21.28-5.6,0-11,6.64-11,16.8C266.67,507,272.91,515.85,280.19,515.85Z"/><path class="cls-1" d="M316.43,507.85c0,5.2,1.2,6.08,3.44,6.56,2,.4,3.36.88,3.36,1.68,0,1.52-2.32,1.92-10.64,1.92s-10-.4-10-1.92c0-.8,1.2-1.28,3.2-1.68,2.24-.48,2.88-1.76,2.88-6.56V484.33a3.08,3.08,0,0,0-2.16-3.2c-1-.32-3.36-.16-3.36-1.6,0-1.92,8.8-4.72,11.76-4.72,1,0,1.52,1,1.52,3.2,0,1.44.48,2,1.28,2,1.44,0,6.48-5.44,9.92-5.44s6.16,2.08,6.16,5c0,3-1.84,5.76-4.32,5.76-2.24,0-2.88-4.08-8.08-4.08-3.12,0-5,2.4-5,7.36Z"/><path class="cls-1" d="M366.19,468c0-4.08-1.44-5.52-3.6-6-2.72-.56-5.2-.8-5.2-2.08,0-1.52,2.48-1.92,13-1.92,10.8,0,13.12.4,13.12,1.92,0,1.28-2.56,1.52-5.2,2.08-2.16.48-3.52,1.92-3.52,6v40c0,4.08,1.44,5.52,3.6,6,3,.64,5.68.8,5.68,2.08,0,1.52-2.32,1.92-13.44,1.92s-13.6-.4-13.6-1.92c0-1.28,2.48-1.44,5.68-2.08,2.24-.48,3.52-2,3.52-6.4Z"/><path class="cls-1" d="M428.51,507.85c0,4.8.72,6.08,3,6.56,2,.4,3.2.88,3.2,1.68,0,1.52-1.68,1.92-10,1.92s-10-.4-10-1.92c0-.8,1.2-1.28,3.2-1.68,2.24-.48,2.88-1.76,2.88-6.56V493.61c0-9-3.36-13.12-9.52-13.12-5.76,0-9.44,3.12-9.44,9.84v18.56c0,4,.88,5.12,3,5.52s3.2.88,3.2,1.68c0,1.52-1.68,1.92-10,1.92s-10-.4-10-1.92c0-.8,1.2-1.28,3.2-1.68,2.24-.48,2.88-1.76,2.88-6.56V484.33a3.08,3.08,0,0,0-2.16-3.2c-1-.32-3.36-.16-3.36-1.6,0-1.92,8.8-4.72,11.76-4.72,1,0,1.52,1,1.52,3.2,0,2.08.72,2,1.2,2,1.76,0,8.32-5.2,13.76-5.2,7.2,0,7.6,5.36,11,5.36,3.76,0,9.28-5.36,16.4-5.36,6.48,0,11,5.36,11,13.76v19.28c0,4.8.72,6.08,3,6.56,2,.4,3.2.88,3.2,1.68,0,1.52-1.68,1.92-10,1.92s-10-.4-10-1.92c0-.8,1.2-1.28,3.2-1.68,2.24-.48,2.88-1.76,2.88-6.56V493.61c0-9-3.36-13.12-9.52-13.12-5.76,0-9.28,2.72-9.44,9.36Z"/><path class="cls-1" d="M495.55,487.37v20.8c0,2.56.88,4.64,3,4.64,1.6,0,3.2-1.44,4-1.44s1.12.4,1.12,1.2c0,1.76-5.84,6.24-9.84,6.24-5.2,0-4.72-4.24-7.36-4.24s-6.56,4.24-12,4.24-9.92-3.84-9.92-10.88c0-6.08,5-9.2,11.52-10.88,7.92-2.08,11.68-1.44,11.68-7.76,0-5.12-3-9-8.16-9-7.36,0-9,4.32-10.64,4.32a1.83,1.83,0,0,1-1.92-1.84c0-2.32,8.24-8,17-8C490.51,474.81,495.55,479,495.55,487.37Zm-15.84,26.56c4.4,0,8.08-2.64,8.08-7.6,0-6.4-.4-7.68-4.08-7.68-5.6,0-11,2.32-11,6.72C472.75,509.93,476,513.93,479.71,513.93Z"/><path class="cls-1" d="M535,477.05c6,0,8.24-2.24,9.76-2.24a1.9,1.9,0,0,1,1.52,1.84c0,2.88-6.24,2.48-6.24,5.12,0,1.36,1.2,3.2,1.2,7.52,0,9.76-7.36,16.64-16,16.64H524c-5.68,0-7.44,1.12-7.44,3.68s1.76,4.48,6.8,4.48h9.92c6.88,0,13.12,3.52,13.12,11,0,6.88-9.2,14.4-22.32,14.4-8.48,0-12.24-1.12-15.44-2.88-4-2.24-4.8-4.64-4.8-7.36,0-5.12,9.36-7.84,9.36-10,0-1.76-3.76-1.84-3.76-6.48,0-3,5.12-4.8,5.12-7,0-1.6-3.2-2.16-5.52-4.64a15.06,15.06,0,0,1-3.52-10.08c0-9.36,7-16.32,17.28-16.32C528.83,474.81,531.55,477.05,535,477.05Zm-23.12,50.56c0,4.64,4.4,8.08,15,8.08,7.28,0,12.56-3.12,12.56-8.16,0-5.76-6.56-7.28-17.2-7.28C515.47,520.25,511.87,524.17,511.87,527.61Zm2.24-38.32c0,7.92,4.48,13.84,10.48,13.84,5,0,8.16-5.12,8.16-12.72,0-7.92-5.44-13-10.32-13C518.59,477.37,514.11,482.09,514.11,489.29Z"/><path class="cls-1" d="M581.79,487.69c0,4.48-2.88,5.84-11.28,5.84H557.79a1.83,1.83,0,0,0-2,2.16c.56,11.76,6.64,17.76,13.52,17.76,7.36,0,9.92-6.16,12-6.16.72,0,1.12.4,1.12,1,0,2.72-6.32,10.56-16.24,10.56-11.52,0-19-8.56-19-22.24,0-12.48,9.44-21.76,19.68-21.76S581.79,480.89,581.79,487.69Zm-15.6,2.88c4.88,0,7-.64,7-3,0-5.44-3.84-9.28-9-9.28-4,0-8,3.12-8,10C556.19,489.93,557.15,490.57,566.19,490.57Z"/><path class="cls-1" d="M33,577.6c-2.77,10.58-3,14.17-3,15.94,0,1.19.37,1.82,1.26,1.82,3.46,0,5.54-5.35,6.93-5.35.37,0,.63.25.63.82,0,2.52-5.3,9.07-10.27,9.07-2.9,0-4.41-1.32-4.41-4.47,0-2.9,2.08-5.74,1.07-5.74-1.26,0-6.05,10.21-13.8,10.21C7,599.9,5,595.24,5,590.64,5,577,15.9,565.88,24.09,565.88c4.16,0,5.3,1.38,7.12,1.38,2.33,0,3-2,4.1-2C36.82,565.25,35.88,566.76,33,577.6Zm-4.6-4.85c0-3.09-1.64-4.73-4.35-4.73-5.35,0-12.6,11-12.6,20.48,0,4.41.95,6.74,3.47,6.74s7.75-5.1,10.08-9.58A34,34,0,0,0,28.44,572.75Z"/><path class="cls-1" d="M54.46,569.85c0,3.84-3.15,10.33-3.15,11.09a.39.39,0,0,0,.38.44c.31,0,.5-.19,1-1,2.58-4.22,8.88-14.49,15.24-14.49,3.15,0,4.85,2.14,4.85,5.29,0,4.1-6.23,19.09-6.23,22.68,0,1.2.37,1.83,1.26,1.83,3.46,0,6.17-6.11,7.56-6.11.37,0,.63.25.63.82,0,2.77-6.11,9.83-10.9,9.83-2.9,0-4.41-1.33-4.41-4.48,0-4.6,6.11-20.16,6.11-22.87,0-1.83-.76-2.39-1.89-2.39-3,0-8.19,6.36-12.1,13.35-3.53,6.37-3.21,12.54-4.22,14.12a5.26,5.26,0,0,1-4.54,1.95c-1.07,0-1.45-.38-1.45-1.26,0-2.58,6.31-23.25,6.31-26,0-1.32-.32-1.82-1.14-1.82-2.39,0-4.09,3.9-5.35,3.9a.67.67,0,0,1-.76-.75c0-1.52,5.1-8.13,9.64-8.13C53.33,565.88,54.46,567.14,54.46,569.85Z"/><path class="cls-1" d="M95.85,574c0-1.52,5.1-8.13,9.83-8.13,2.33,0,3.34,1.38,3.34,3.91,0,4.47-6.62,20.16-6.62,23.75,0,1.19.38,1.82,1.26,1.82,3.47,0,5.67-5.41,7.06-5.41.38,0,.63.25.63.82,0,2.77-5.61,9.13-10.4,9.13-2.9,0-4.41-1.32-4.41-4.47,0-4.6,6.55-19.6,6.55-22.94,0-1.13-.31-1.63-1.13-1.63-2.46,0-4,3.9-5.23,3.9C96.23,574.76,95.85,574.51,95.85,574Zm8.25-21.55a3.88,3.88,0,1,0,4-4A4.08,4.08,0,0,0,104.1,552.46Z"/><path class="cls-1" d="M127.54,569.85c0,3.84-3.15,10.33-3.15,11.09a.39.39,0,0,0,.38.44c.31,0,.5-.19,1-1,2.59-4.22,8.89-14.49,15.25-14.49,3.15,0,4.6,1.76,4.6,4.72s-3,9.2-3,9.83c0,.32.19.44.37.44s.51-.19,1-1c2.59-4.23,8.63-14,15-14,3.15,0,4.85,2.14,4.85,5.29,0,4.1-6.24,19.09-6.24,22.68,0,1.2.38,1.83,1.26,1.83,3.47,0,6.18-6.11,7.56-6.11.38,0,.63.25.63.82,0,2.77-6.11,9.83-10.9,9.83-2.9,0-4.41-1.33-4.41-4.48,0-4.6,6.11-20.16,6.11-22.87,0-1.83-.75-2.39-1.89-2.39-3,0-8.19,6.36-12.09,13.35-3.53,6.37-3.22,12.54-4.22,14.12a5.27,5.27,0,0,1-4.54,1.95c-1.07,0-1.45-.38-1.45-1.26,0-2.39,6.24-23.06,6.24-25.77,0-1.83-.76-2.39-1.89-2.39-3,0-8.19,6.36-12.1,13.35-3.53,6.37-3.21,12.54-4.22,14.12a5.26,5.26,0,0,1-4.54,1.95c-1.07,0-1.45-.38-1.45-1.26,0-2.58,6.3-23.25,6.3-26,0-1.32-.31-1.82-1.13-1.82-2.39,0-4.1,3.9-5.36,3.9a.66.66,0,0,1-.75-.75c0-1.52,5.1-8.13,9.64-8.13C126.4,565.88,127.54,567.14,127.54,569.85Z"/><path class="cls-1" d="M181.66,610.61c0,1.7-6,4.73-12.16,4.73-1.14,0-1.64-.44-1.45-2.08.12-1.14,4.28-21.55,7.37-33.39.88-3.41,1.89-5.11,1.7-5.55-.32-.63-3.47,3.72-4.35,4.85-1.32,1.83-2.83.51-2-.94,2.77-4.73,5.35-6.05,7.5-10.71,1.57-3.47,1.76-4,4.47-4,1.2,0,1.39.25,1.13,1.45-1.26,5.6-4.34,12-3.46,12.35.31.12,1.38-1.2,2.14-2.27,3.47-4.79,9-9.2,13-9.2,4.41,0,6.43,4.66,6.43,9.26,0,13.61-10.78,24.76-19,24.76-4.28,0-6.49-3.34-7.18,1.32l-1,6.3c-.5,3.34,0,3.91,1.39,3.91C178.63,611.43,181.66,608.41,181.66,610.61ZM178,592.72a4.9,4.9,0,0,0,5,5c5.36,0,12.48-11,12.48-20.48,0-4.41-1-6.74-3.47-6.74-3.21,0-9.32,6.55-11.15,10.27A28.64,28.64,0,0,0,178,592.72Z"/><path class="cls-1" d="M229.09,590.89c0,2.08-6.49,9-14.3,9-5.29,0-8.88-3.21-8.88-11.21,0-12.6,9-22.81,19-22.81,3.08,0,6.11,1.2,6.11,5.54,0,4.6-4.35,9.39-15.06,11.66-2.71.57-4.22.57-4.22,2.52,0,7.24,2.27,9.95,6.36,9.95,5.36,0,8.7-5.48,10.21-5.48C228.78,590.07,229.09,590.32,229.09,590.89Zm-16.76-11.21c0,.94.38,1.26,1.58,1.26,4.79,0,10.71-2.46,10.71-7.69,0-2.71-1.26-3.91-3.46-3.91C217.63,569.34,212.33,574.7,212.33,579.68Z"/><path class="cls-1" d="M247.62,569.85c0,3.84-3.53,10.33-3.53,11.09,0,.31.19.44.37.44s.63-.32,1.08-1.14c3.4-6.36,7.49-14.36,13.16-14.36a3.57,3.57,0,0,1,3.85,3.78c0,2.77-1.64,4-3,4-1.64,0-2.39-2.2-4.41-2.2s-4.91,3.65-9.26,12.47c-4.6,9.33-2.83,12.35-3.84,13.92-.82,1.26-2.77,2-4.79,2-1.07,0-1.45-.38-1.45-1.26,0-2.58,6.3-23.25,6.3-26,0-1.32-.31-1.82-1.13-1.82-2.4,0-4.1,3.9-5.36,3.9a.66.66,0,0,1-.75-.75c0-1.52,5.1-8.13,9.63-8.13C246.48,565.88,247.62,567.14,247.62,569.85Z"/><path class="cls-1" d="M294.42,551.45a3.39,3.39,0,0,1-3.59,3.66c-2.58,0-2.45-5.11-7.43-5.11s-7.06,13.3-7.06,15.94c0,1.07.51,1.2,1.64,1.2h5.92c1.07,0,1.58.31,1.58,1.45s-.76,2-2.65,2c-.94,0-4.22-.25-5.42-.25-1.57,0-1.82,1.2-2,2.71-.51,4.54-2.08,18.59-4.16,27.22-1.95,8.19-4.91,15.06-13.55,15.06-4.91,0-6.86-2.21-6.86-4.67,0-2.07,1.45-3.34,3.71-3.34s1.64,5,5.55,5c4.41,0,5.73-11.28,7.24-20.54,1.26-7.69,2.27-17.9,2.27-19,0-3.59-4.53-2-4.53-4s4.78-.32,5.48-3.91c2.08-10.46,7.24-18.21,16.69-18.21C291.15,546.66,294.42,548.87,294.42,551.45Z"/><path class="cls-1" d="M306.65,590.89c0,2.08-6.49,9-14.31,9-5.29,0-8.88-3.21-8.88-11.21,0-12.6,9-22.81,19-22.81,3.09,0,6.11,1.2,6.11,5.54,0,4.6-4.35,9.39-15.06,11.66-2.71.57-4.22.57-4.22,2.52,0,7.24,2.27,9.95,6.36,9.95,5.36,0,8.7-5.48,10.21-5.48A.72.72,0,0,1,306.65,590.89Zm-16.76-11.21c0,.94.38,1.26,1.57,1.26,4.79,0,10.71-2.46,10.71-7.69,0-2.71-1.26-3.91-3.46-3.91C295.18,569.34,289.89,574.7,289.89,579.68Z"/><path class="cls-1" d="M334.37,590.14c0,2.14-6.56,9.76-14.37,9.76-5,0-8.19-4-8.19-10.08,0-14.24,9.39-23.94,17.64-23.94,5.42,0,8.19,2.65,8.19,4.91a3.29,3.29,0,0,1-3.21,3.59c-2.9,0-2.14-4.78-7.37-4.78-4.79,0-8.82,8.25-8.82,17.32,0,4.66,1.32,8.32,4.72,8.32,5.23,0,9.14-5.92,10.65-5.92A.72.72,0,0,1,334.37,590.14Z"/><path class="cls-1" d="M351.94,560.27c.76,0,1,.32.82,1.51-.76,4.92-.19,5.86,1.64,5.8l3.78-.13c1.07-.06,1.64.19,1.64,1.14a2.43,2.43,0,0,1-2.46,2.33c-1.26,0-3.15-.06-4.09-.06-1.39,0-1.77.63-2.4,3-1.7,6.36-3.84,16.32-3.84,19.21,0,1.2.63,1.64,1.51,1.64,3.46,0,6.43-5.92,7.81-5.92.51,0,.63.31.63.94,0,2.78-5.86,10.21-11.28,10.21-3.15,0-4.66-1.32-4.66-4.47,0-4.6,4.41-20.48,4.41-22.81,0-2.9-3.4-1.7-3.4-3.21s3.47-1.2,5.42-3.53C350.11,562.73,350.62,560.27,351.94,560.27Z"/><path class="cls-1" d="M401,590.14c0,2.14-6.56,9.76-14.37,9.76-5,0-8.19-4-8.19-10.08,0-14.24,9.39-23.94,17.64-23.94,5.42,0,8.19,2.65,8.19,4.91a3.29,3.29,0,0,1-3.21,3.59c-2.9,0-2.14-4.78-7.37-4.78-4.79,0-8.82,8.25-8.82,17.32,0,4.66,1.32,8.32,4.72,8.32,5.23,0,9.14-5.92,10.65-5.92A.72.72,0,0,1,401,590.14Z"/><path class="cls-1" d="M407.7,574c0-1.52,5.1-8.13,9.82-8.13,2.33,0,3.34,1.38,3.34,3.91,0,4.47-6.61,20.16-6.61,23.75,0,1.19.38,1.82,1.26,1.82,3.46,0,5.67-5.41,7.05-5.41.38,0,.63.25.63.82,0,2.77-5.6,9.13-10.39,9.13-2.9,0-4.41-1.32-4.41-4.47,0-4.6,6.55-19.6,6.55-22.94,0-1.13-.31-1.63-1.13-1.63-2.46,0-4,3.9-5.23,3.9C408.07,574.76,407.7,574.51,407.7,574ZM416,552.46a3.88,3.88,0,1,0,4-4A4.08,4.08,0,0,0,416,552.46Z"/><path class="cls-1" d="M439.38,569.85c0,3.84-3.15,10.33-3.15,11.09a.39.39,0,0,0,.38.44c.32,0,.51-.19,1-1,2.58-4.22,8.88-14.49,15.25-14.49,3.15,0,4.85,2.14,4.85,5.29,0,4.1-6.24,19.09-6.24,22.68,0,1.2.38,1.83,1.26,1.83,3.47,0,6.18-6.11,7.56-6.11.38,0,.63.25.63.82,0,2.77-6.11,9.83-10.9,9.83-2.9,0-4.41-1.33-4.41-4.48,0-4.6,6.11-20.16,6.11-22.87,0-1.83-.75-2.39-1.89-2.39-3,0-8.19,6.36-12.09,13.35-3.53,6.37-3.22,12.54-4.22,14.12A5.27,5.27,0,0,1,429,599.9c-1.07,0-1.45-.38-1.45-1.26,0-2.58,6.3-23.25,6.3-26,0-1.32-.31-1.82-1.13-1.82-2.4,0-4.1,3.9-5.36,3.9a.67.67,0,0,1-.76-.75c0-1.52,5.11-8.13,9.64-8.13C438.25,565.88,439.38,567.14,439.38,569.85Z"/><path class="cls-1" d="M487.83,590.89c0,2.08-6.49,9-14.3,9-5.29,0-8.88-3.21-8.88-11.21,0-12.6,8.94-22.81,19-22.81,3.09,0,6.11,1.2,6.11,5.54,0,4.6-4.34,9.39-15,11.66-2.71.57-4.22.57-4.22,2.52,0,7.24,2.26,9.95,6.36,9.95,5.35,0,8.69-5.48,10.21-5.48C487.52,590.07,487.83,590.32,487.83,590.89Zm-16.76-11.21c0,.94.38,1.26,1.58,1.26,4.79,0,10.71-2.46,10.71-7.69,0-2.71-1.26-3.91-3.47-3.91C476.36,569.34,471.07,574.7,471.07,579.68Z"/><path class="cls-1" d="M506.29,569.85c0,3.84-3.15,10.33-3.15,11.09a.39.39,0,0,0,.38.44c.31,0,.5-.19,1-1,2.58-4.22,8.88-14.49,15.24-14.49,3.15,0,4.6,1.76,4.6,4.72s-3,9.2-3,9.83c0,.32.19.44.38.44s.5-.19,1-1c2.59-4.23,8.63-14,15-14,3.15,0,4.85,2.14,4.85,5.29,0,4.1-6.24,19.09-6.24,22.68,0,1.2.38,1.83,1.26,1.83,3.47,0,6.18-6.11,7.56-6.11.38,0,.63.25.63.82,0,2.77-6.11,9.83-10.9,9.83-2.9,0-4.41-1.33-4.41-4.48,0-4.6,6.11-20.16,6.11-22.87,0-1.83-.75-2.39-1.89-2.39-3,0-8.19,6.36-12.09,13.35-3.53,6.37-3.22,12.54-4.22,14.12a5.26,5.26,0,0,1-4.54,1.95c-1.07,0-1.45-.38-1.45-1.26,0-2.39,6.24-23.06,6.24-25.77,0-1.83-.76-2.39-1.89-2.39-3,0-8.19,6.36-12.1,13.35-3.53,6.37-3.21,12.54-4.22,14.12a5.26,5.26,0,0,1-4.54,1.95c-1.07,0-1.45-.38-1.45-1.26,0-2.58,6.31-23.25,6.31-26,0-1.32-.32-1.82-1.14-1.82-2.39,0-4.09,3.9-5.35,3.9a.67.67,0,0,1-.76-.75c0-1.52,5.1-8.13,9.64-8.13C505.16,565.88,506.29,567.14,506.29,569.85Z"/><path class="cls-1" d="M577.86,577.6c-2.77,10.58-3,14.17-3,15.94,0,1.19.38,1.82,1.26,1.82,3.47,0,5.55-5.35,6.93-5.35.38,0,.63.25.63.82,0,2.52-5.29,9.07-10.26,9.07-2.9,0-4.41-1.32-4.41-4.47,0-2.9,2.07-5.74,1.07-5.74-1.26,0-6,10.21-13.8,10.21-4.41,0-6.43-4.66-6.43-9.26,0-13.61,10.9-24.76,19.09-24.76,4.16,0,5.29,1.38,7.12,1.38,2.33,0,3-2,4.1-2C581.64,565.25,580.69,566.76,577.86,577.6Zm-4.6-4.85c0-3.09-1.64-4.73-4.35-4.73-5.35,0-12.6,11-12.6,20.48,0,4.41,1,6.74,3.47,6.74s7.75-5.1,10.08-9.58A34,34,0,0,0,573.26,572.75Z"/><path class="cls-1" d="M19.43,681.44c0,3.8,1.17,5,3.45,5.46,2.55.48,4,.75,4,1.86,0,1.31-1.52,1.65-11,1.65-8.55,0-10.49-.34-10.49-1.65,0-1.11,1.52-1.38,3.66-1.8,1.93-.34,3-1.72,3-5.52V646.67c0-2.76-1.38-4.14-3.11-4.56s-3.45-.69-3.45-1.79c0-1.31,2.62-1.66,10.21-1.66h2.21c4.49-.07,6.9-.34,10.21-.34,11.66,0,16.29,5.31,16.29,12.76,0,6.56-2.83,10.49-7.66,13.18-2.55,1.38-2.83,1.59-2.83,2.28s.62,1.66,3,4.76l5.59,7.45c6,8,7.59,8.42,11.1,8.42,1.59,0,2.07.48,2.07,1.38,0,1.52-1.93,2.55-7,2.55-6.42,0-7.59-.27-13-8.55l-8.42-12.7c-1.31-1.93-1.94-2.27-5-2.27-2.14,0-2.76.68-2.76,3.58Zm0-22.42c0,4.55,1.1,5.11,6.07,5.11,7.66,0,11.18-3.25,11.18-10.29,0-7.38-5.18-12.35-12.76-12.35-3.66,0-4.49,1-4.49,5.94Z"/><path class="cls-1" d="M85.74,664.26c0,3.87-2.49,5-9.73,5H65a1.58,1.58,0,0,0-1.73,1.86C63.8,681.31,69,686.48,75,686.48c6.35,0,8.56-5.31,10.35-5.31.62,0,1,.34,1,.83,0,2.34-5.45,9.1-14,9.1-9.93,0-16.35-7.38-16.35-19.18,0-10.76,8.14-18.77,17-18.77S85.74,658.4,85.74,664.26Zm-13.46,2.49c4.21,0,6.07-.55,6.07-2.62a7.63,7.63,0,0,0-7.79-8c-3.45,0-6.9,2.69-6.9,8.63C63.66,666.2,64.49,666.75,72.28,666.75Z"/><path class="cls-1" d="M118.86,637.77c0,2.69-1.93,3.93-4.21,3.93s-2.9-5.59-8-5.59c-3,0-6,2.55-6,10.49v5.79c0,2.28.62,2.49,2.42,2.49H108c1.65,0,2.62.48,2.62,1.72s-.76,2.21-2.62,2.07l-4.83-.27c-1.87-.14-2.49.14-2.49,2.69v20.7c0,4.07.62,5.11,2.55,5.52,1.73.34,2.76.76,2.76,1.45,0,1.31-1.44,1.65-8.62,1.65s-8.63-.34-8.63-1.65c0-.69,1-1.11,2.76-1.45,1.94-.41,2.49-1.52,2.49-5.66V661.37c0-3.87-4.76-2.49-4.76-4.63s4.76-.14,4.76-5c0-14.43,9.18-19.26,15.87-19.26C115.2,632.45,118.86,634.94,118.86,637.77Z"/><path class="cls-1" d="M129.48,653.15c9.18,0,17.74,6.77,17.74,18.36,0,12.9-8.22,19.59-18.22,19.59-11.11,0-18.15-7.45-18.15-19C110.85,659.36,121.55,653.15,129.48,653.15Zm.76,35.4c5.8,0,9.25-6.42,9.25-14.49,0-13.11-5.94-18.35-11.46-18.35-4.83,0-9.45,5.72-9.45,14.49C118.58,680.89,124,688.55,130.24,688.55Z"/><path class="cls-1" d="M161.84,681.65c0,4.49,1,5.25,3,5.66,1.73.34,2.9.76,2.9,1.45,0,1.31-2,1.65-9.18,1.65s-8.62-.34-8.62-1.65c0-.69,1-1.11,2.76-1.45,1.93-.41,2.48-1.52,2.48-5.66V661.37a2.67,2.67,0,0,0-1.86-2.77c-.83-.27-2.9-.13-2.9-1.38,0-1.65,7.59-4.07,10.14-4.07.9,0,1.31.83,1.31,2.76,0,1.25.42,1.73,1.11,1.73,1.24,0,5.59-4.69,8.55-4.69s5.32,1.79,5.32,4.27-1.59,5-3.73,5c-1.93,0-2.48-3.52-7-3.52-2.69,0-4.28,2.07-4.28,6.35Z"/><path class="cls-1" d="M214.7,681.65c0,4.14.62,5.25,2.55,5.66,1.72.34,2.76.76,2.76,1.45,0,1.31-1.45,1.65-8.63,1.65s-8.62-.34-8.62-1.65c0-.69,1-1.11,2.76-1.45,1.93-.41,2.48-1.52,2.48-5.66V669.37c0-7.73-2.89-11.32-8.21-11.32-5,0-8.14,2.69-8.14,8.49v16c0,3.45.76,4.41,2.55,4.76s2.76.76,2.76,1.45c0,1.31-1.45,1.65-8.62,1.65s-8.63-.34-8.63-1.65c0-.69,1-1.11,2.76-1.45,1.94-.41,2.49-1.52,2.49-5.66V661.37a2.67,2.67,0,0,0-1.87-2.77c-.82-.27-2.89-.13-2.89-1.38,0-1.65,7.59-4.07,10.14-4.07.9,0,1.31.83,1.31,2.76s.62,1.73,1,1.73c1.51,0,7.17-4.49,11.86-4.49,6.21,0,6.56,4.63,9.53,4.63,3.24,0,8-4.63,14.14-4.63,5.59,0,9.52,4.63,9.52,11.87v16.63c0,4.14.62,5.25,2.56,5.66,1.72.34,2.76.76,2.76,1.45,0,1.31-1.45,1.65-8.63,1.65s-8.62-.34-8.62-1.65c0-.69,1-1.11,2.76-1.45,1.93-.41,2.48-1.52,2.48-5.66V669.37c0-7.73-2.9-11.32-8.21-11.32-5,0-8,2.35-8.14,8.08Z"/><path class="cls-1" d="M272.86,664v17.94c0,2.2.76,4,2.63,4,1.38,0,2.76-1.24,3.45-1.24s1,.34,1,1c0,1.52-5,5.38-8.49,5.38-4.48,0-4.07-3.65-6.34-3.65s-5.66,3.65-10.35,3.65-8.56-3.31-8.56-9.38c0-5.24,4.35-7.93,9.94-9.38,6.83-1.8,10.07-1.25,10.07-6.7,0-4.41-2.62-7.72-7-7.72-6.35,0-7.73,3.72-9.17,3.72a1.58,1.58,0,0,1-1.66-1.59c0-2,7.11-6.9,14.63-6.9C268.52,653.15,272.86,656.74,272.86,664ZM259.2,686.9c3.8,0,7-2.28,7-6.56,0-5.52-.34-6.62-3.52-6.62-4.83,0-9.45,2-9.45,5.79C253.2,683.45,256,686.9,259.2,686.9Z"/><path class="cls-1" d="M290.73,651.43c.35,2.41.69,3.52,3.52,3.52h4.69c1.32,0,2.35.41,2.35,1.72s-.48,2.14-2.62,2l-4.21-.27c-2.69-.21-3.38.41-3.38,3.65v16.36c0,5.45,2.9,7.59,6.28,7.59,2.55,0,4.28-2.62,5.45-2.62.62,0,.9.34.9,1,0,2.07-5.59,6.69-9.6,6.69a9.38,9.38,0,0,1-9.72-9.72V663.85c0-3.45-.35-4.62-1.38-5.38s-2.9-.49-2.9-1.87c0-1.58,1.52-1,4.69-4.34,2.83-3,2.62-5,4.35-5C290.32,647.29,290.39,649.08,290.73,651.43Z"/><path class="cls-1" d="M355,647.63c0,8.84-8.07,10.77-8.07,12.29,0,1.1,1.59,2.13,4.28,5.45,4.07,5,4.83,7.24,5.93,7.24,1.31,0,8.69-10.62,8.69-12.9,0-3.93-5.24-2.49-5.24-4.35,0-1,1.38-1.52,9.32-1.52,5.24,0,7.24.35,7.24,1.52,0,1.52-3.59.21-6.9,5.18-8.62,12.9-10.9,13.87-10.76,15.25,0,.69.62,1.58,3.1,4.76,1.86,2.34,4,4.07,5.73,4.07,5.38,0,6.55-4.21,7.66-4.21s1.24.27,1.24,1.17c0,2-3.93,9.52-11,9.52s-10.7-9.17-12.21-9.17-7.32,9.17-15.74,9.17a13.51,13.51,0,0,1-13.73-13.59c0-12.21,12.84-14.76,12.84-16.42,0-2.14-5.94-3.52-5.94-12.08,0-6.27,5.87-10.9,13.11-10.9C350.9,638.11,355,642.18,355,647.63ZM331.1,674.34c0,6.34,5.24,11,10.14,11,5.59,0,9.52-5.25,9.52-6.56s-.62-3.45-5.38-9.24c-3.79-4.49-4.9-4.9-6.28-4.9C336.48,664.68,331.1,669,331.1,674.34Zm6.55-27.4c0,5.25,4.9,10.49,6.63,10.49S349,654,349,649.57c0-5.32-1.93-9-6-9C340.21,640.6,337.65,642.8,337.65,646.94Z"/><path class="cls-1" d="M423.76,641.22c-8.62,0-16.69,7-16.69,21.87,0,13.11,9.17,24,19.94,24,6.9,0,9.52-3.38,9.52-9.66,0-3.86-.41-6.55-2.76-7.24-3-.9-4.69-1-4.69-2.35S431.7,666,440.67,666c8,0,9.38.41,9.38,1.72,0,1-1.1,1.52-3.45,2.21-2,.55-2.83,2.42-2.83,6.49,0,1.58.28,3.52.28,5.45,0,4.55-9.52,9.24-18.91,9.24-16,0-26.49-9.86-26.49-25.87,0-16.49,12-27.26,24.7-27.26,4.49,0,7.11,1,9,1,2.76,0,4.49-.69,6.35-.69,2.62,0,4.69,8.42,4.69,12a1.51,1.51,0,0,1-1.72,1.65C438.81,652,436.39,641.22,423.76,641.22Z"/><path class="cls-1" d="M462.2,681.65c0,4.14.62,5.25,2.55,5.66,1.73.34,2.76.76,2.76,1.45,0,1.31-1.45,1.65-8.62,1.65s-8.63-.34-8.63-1.65c0-.69,1-1.11,2.76-1.45s2.48-1.31,2.48-4.76V640.67a2.64,2.64,0,0,0-1.86-2.76c-.83-.28-3.1-.14-3.1-1.39,0-1.65,7.79-4.07,10.35-4.07.82,0,1.31.76,1.31,2.42v21c0,1.8,1,1.73,1.38,1.73,1.52,0,7-4.49,12.14-4.49,5.59,0,9.52,4.63,9.52,11.87v17.53c0,3.45.76,4.41,2.56,4.76s2.76.76,2.76,1.45c0,1.31-1.45,1.65-8.63,1.65s-8.62-.34-8.62-1.65c0-.69,1-1.11,2.76-1.45s2.48-1.31,2.48-4.76V669.37c0-7.73-2.9-11.32-8.21-11.32-5,0-8.14,2.49-8.14,8.49Z"/><path class="cls-1" d="M511.05,653.15c9.18,0,17.73,6.77,17.73,18.36,0,12.9-8.21,19.59-18.21,19.59-11.11,0-18.15-7.45-18.15-19C492.42,659.36,503.11,653.15,511.05,653.15Zm.76,35.4c5.79,0,9.24-6.42,9.24-14.49,0-13.11-5.93-18.35-11.45-18.35-4.83,0-9.45,5.72-9.45,14.49C500.15,680.89,505.53,688.55,511.81,688.55Z"/><path class="cls-1" d="M555.9,654.53c1.52,0,1.86,2,1.86,4.7,0,4-.27,5.24-1.24,5.24-2.62,0-3-9-9.73-9-3.93,0-6.14,2.28-6.14,5.52,0,3,1.73,5.38,8.49,8.21,8,3.38,10.62,6.9,10.62,11.94,0,6.14-5.1,10-12.62,10-4.7,0-7.46-1.38-11.11-1.38-2.56,0-2.49-4-2.49-6.62,0-2.28.14-5.11,1.45-5.11,2.28,0,3.11,10.84,11.8,10.84,4.07,0,5.87-2.49,5.87-5.59,0-3.31-2.14-6.14-9.6-9.18s-8.76-7-8.76-11c0-5.59,5.18-9.87,12.15-9.87C550.45,653.15,552.93,654.53,555.9,654.53Z"/><path class="cls-1" d="M573.49,651.43c.35,2.41.69,3.52,3.52,3.52h4.69c1.32,0,2.35.41,2.35,1.72s-.48,2.14-2.62,2l-4.21-.27c-2.69-.21-3.38.41-3.38,3.65v16.36c0,5.45,2.9,7.59,6.28,7.59,2.55,0,4.28-2.62,5.45-2.62.62,0,.9.34.9,1,0,2.07-5.59,6.69-9.59,6.69a9.38,9.38,0,0,1-9.73-9.72V663.85c0-3.45-.35-4.62-1.38-5.38s-2.9-.49-2.9-1.87c0-1.58,1.52-1,4.69-4.34,2.83-3,2.62-5,4.35-5C573.08,647.29,573.15,649.08,573.49,651.43Z"/></g></g></svg>