<svg xmlns="http://www.w3.org/2000/svg" viewBox="0 0 410.43 406.13"><defs><style>.cls-1,.cls-16,.cls-2,.cls-21,.cls-27,.cls-38,.cls-9{fill:#6200a8;}.cls-10,.cls-16,.cls-19,.cls-2,.cls-21,.cls-27,.cls-38,.cls-6,.cls-9{font-size:8.6px;font-family:BentonSans-Regular, BentonSans;}.cls-3,.cls-9{letter-spacing:0.01em;}.cls-4{letter-spacing:-0.01em;}.cls-27,.cls-5{letter-spacing:0.01em;}.cls-10,.cls-19,.cls-29,.cls-6{fill:#eee;}.cls-6{letter-spacing:-0.02em;}.cls-7{letter-spacing:0em;}.cls-8{letter-spacing:-0.02em;}.cls-11{letter-spacing:0em;}.cls-12,.cls-16{letter-spacing:-0.03em;}.cls-13{letter-spacing:-0.04em;}.cls-14{letter-spacing:-0.05em;}.cls-15{letter-spacing:-0.04em;}.cls-17{letter-spacing:0em;}.cls-18{letter-spacing:-0.04em;}.cls-19,.cls-31,.cls-38{letter-spacing:-0.01em;}.cls-20{letter-spacing:0.01em;}.cls-21{letter-spacing:-0.06em;}.cls-22{letter-spacing:-0.02em;}.cls-23{letter-spacing:-0.01em;}.cls-24{letter-spacing:0.01em;}.cls-25{letter-spacing:-0.03em;}.cls-26{letter-spacing:-0.02em;}.cls-28{letter-spacing:-0.03em;}.cls-30{letter-spacing:-0.01em;}.cls-32{letter-spacing:-0.02em;}.cls-33{letter-spacing:-0.02em;}.cls-34{letter-spacing:-0.01em;}.cls-35{letter-spacing:0em;}.cls-36{letter-spacing:-0.01em;}.cls-37{letter-spacing:-0.01em;}.cls-39{letter-spacing:0em;}.cls-40{letter-spacing:0em;}.cls-41{letter-spacing:-0.01em;}</style></defs><title>book_pages_detail</title><g id="Layer_2" data-name="Layer 2"><g id="Layer_1-2" data-name="Layer 1"><path class="cls-1" d="M244,220.16l1.65.82C245.62,220.9,245.21,220.67,244,220.16Z"/><path class="cls-1" d="M38.36,311.53l0-.44A2.05,2.05,0,0,0,38.36,311.53Z"/><path class="cls-1" d="M219.25,213.17l0,.11S219.32,213.22,219.25,213.17Z"/><polygon class="cls-1" points="219.12 390.57 219.12 390.57 218.57 391.09 219.12 390.57"/><path class="cls-1" d="M115.21,297.26l0,.17A.14.14,0,0,0,115.21,297.26Z"/><path class="cls-1" d="M88.8,265.5l1.27-1.17,1.31-1.13L94,261l2.63-2.06a27.15,27.15,0,0,1,3.14-2.42l3.47-2.45.86-.43a20.77,20.77,0,0,1,2.25-1.48l0,.05c1-.7,2.31-1.39,2.84-1.74l0,.05.74-.44h-1l1-.23-2.86-.05a4.25,4.25,0,0,0-.48.44c-1.52.91-1.84,1-2.63,1.47l.34-.25-3.08,2-2.5,1.75c-1,.77-1,1-2.8,2.32.51-.51-.19.06-.84.56.41-.33.51-.46-.38.16-.1.11-.28.27-.44.42,0,0,0,0,0,0-1.07.86-.86.74-.35.36,0,0,0,0,.21-.09-1.23.75-3.06,2.54-3.3,2.52-.78.68-1.52,1.29-2.18,1.92l-1.87,1.84c-.6.59-1.2,1.15-1.77,1.75l-.28.3c0,1.51-.34,1.3-.42,2.7l2.11-2.15Z"/><path class="cls-1" d="M210.2,314.66l.18.17A.2.2,0,0,0,210.2,314.66Z"/><polygon class="cls-1" points="130.09 299.93 130.1 299.93 130.51 299.81 130.09 299.93"/><path class="cls-1" d="M86.65,317.66h0l0,.06Z"/><path class="cls-1" d="M217.14,320.25h0l0,.06Z"/><path class="cls-1" d="M88.08,316.61l.3.37c.11-.26.27-.45.5-.27l0,.13c.16-.39.49-.27.57-.46l0,.13.29-.14v.19A1.27,1.27,0,0,1,91,316l-.16-.5c1,.35,1-.79,2-.31l0,.13c.62-1.6,1.75.51,2.41-1-.08.2.12.25.14.38a1.09,1.09,0,0,0,.64-1.47c.33-.08.35.24.49.61a.62.62,0,0,1,.38-.79l-.08.2.71-.34-.36-.78c.45.13.36,1,.68.67l-.18-.68c.58,0,1.16.94,1.82,1.3,2.25-.31,4.17-2.63,6.49-2l.22.47c.23.71.28-1.23.53-.58l.15-.4c.1.11.28.2.2.4.23,0,.2-.16.3-.42l.35.37c.94.08,1.45-1,2.39-1.09,1.3.52,3.12-.94,4.19-1.71.77-.76,1.87-.55,3-.44-.76.2-1.65.27-1.73,1.13-.08,0,0,.16,0,.21l-.79.63s-3.71,3.17,2.23,4.1l.06.11c.61-.15.91-.34.76-1.06.57.52.39-.25.65-.16l0,.06c-.16-.66.84-.12.72-.72,0,.05.17.21.12.27.11-.23.23-.58.55-.26.33-.47,1-.86.82-1.63l.07.11c-.18-.49.14-.23.14-.57,0,0,.09.05.1.07-.16-.51.43-.5.42-.78l.21.21.28-.35-.16.06c-.52-.63.59.15.47-.46.29-.13-.71-1.66-.21-1.58-.15-.38.33.54.29.18.3.3.11.26.38.47,0-.27.66,0,.73-.47l.27.2c0-.38.21-.47.49-.57s.54-.19.39-.45c.12-.48,1.29.14,1.06-.53h.67c.29-.18-.48-.3,0-.44.32.09.55-.21.74,0a1.12,1.12,0,0,0,.75-.77c.13-.29.29-.55,1.19-.88-.66-.13.17-.45-.37-.52.39,0,.72-.62,1.19-.34,0,0,0,.08-.19.09H130c1.43-.49.2-.65.73-1-.31.14-.41.27-.7.23l.43-.34h.42l.85-.58-.71.2c.58-.3,1.81-.66,1.18-.73-.4,0-1.14.44-1.09.24l.24-.13a.76.76,0,0,0-.47-.77,2.06,2.06,0,0,1-1,.18l.54-.2c-1.4.09.94-.49-.31-.46l-.84.25c-1.54.26.69-.53-1.24-.13.32,0-.93.51-1,.34l.51-.19c-.25,0-.48.08-.5,0,.33-.09.68-.3.36-.33l.69-.22-1.23.27c.06-.34-1-.18-.65-.56a1.25,1.25,0,0,0-1.22-.05c.45-.2.11-.41.56-.66-.55.21-1.35.28-1.33-.1l.08,0a2,2,0,0,0-1.29-.29,1.46,1.46,0,0,1-1.17-.33c-.11.37-.46.06-.52.55a.65.65,0,0,1-.54-.07,1.94,1.94,0,0,1-.23-.27c-.15-.17-.29-.2-.57.51-.24,0-.16-.41-.25-.52l.07-.06a1.68,1.68,0,0,1-.83-.12c-.19.1-.4.78-.62.54.16-.25,0-.23-.06-.26.07,0,.12-.12,0-.33a.39.39,0,0,1-.12.15.13.13,0,0,1,0-.06c-.19,0-.18.14-.12.2a.65.65,0,0,0,0,.17c-.07-.39-.48-.1-.37-.58-.53,0-1,.36-1.48.43a.57.57,0,0,1,.32-.5h-.32c.1-.34.22-.15.33-.19-.19-.66-.87.36-1.14-.27l-.16.25v-.05a.63.63,0,0,1-.26.34c0-.31.2-.69,0-.72-.08-.34-.49,0-.75.12.1.08,0,.24-.06.33s-.08-.33-.19-.23l.1-.41c-.07.4-.38.34-.46.5,0-.32.23-.22.31-.44l-.62-.11c-.3.25-.07.4-.27.72-.21,0-.48.26-.63,0l0,.37c-.44.18-.64.08-.78-.35-3.49,2.19-1.67,3.85-1.67,3.85.83,1.08,1.67.19,3,.25.88.41,1.1,1,1.87,1.22a1.37,1.37,0,0,0-.65.67v-.14c-.19.59-.4.17-.69.52,0-.06-.07-.09-.07-.12-.22.61-1,.31-1.23.6l-.1-.33-.68.23.28,0c.15,1-.68-.48-1,.24-.5,0-.44,2.2-1,1.86-.12.51,0-.79-.25-.36-.14-.5.08-.35-.11-.74-.28.32-.7-.39-1,.05l-.12-.4c-.36.86-1.18-.31-1.37.48-.48.48-.7-1.14-1.09-.19l-.37-.51c-.28,0,0,.73-.36.52-.08-.36-.43-.2-.35-.58-.79-.42-1.09,1.1-2.18.35,0,.74-.53.43-.53,1-.1-.3-.85.16-.55-.63,0-.06.1-.07.12.05l0-.43c-.68-.67-.75.65-1.26.64.18.11.36,0,.31.34l-.46.06v-.38l-.71-.05.21.42c-.38-.15-.69-.87-.89-.16-.07.39.46.52.16.74a5.81,5.81,0,0,0-1.85-.48c.18.48,0,.5-.09.64l-.13-.43c-.43.75-.46-.9-.91-.28l.05.63c-.3,1-.51-.83-.79.49.21-.13.36.93,0,.81l0-.44c-.13.13-.14.32-.26.26,0-.25-.11-.63-.32-.5l0-.56-.24.88c-.44-.37-.83.33-1.12-.23,0,0-.79-.11-.78.58,0-.44-.4-.5-.41-1-.07.51-.52,1-.86.59l0-.07c-.94-.3-1.21,1-2.09.61.16.5-.29.32,0,1-.59.84-1.72-1-1.47,1.11-.31.2-.52-.37-.73-.43l.06-.12a3.12,3.12,0,0,1-1.27.47c-.19.26,0,1.2-.47,1.09,0-.41-.11-.3-.27-.26.07-.07.07-.18-.09-.33a14.14,14.14,0,0,0,.21,2.08c-.26-1.54-.36,2.7-.66,1.49.13.89.25,2.56.32,4.34a18.61,18.61,0,0,0,2.12-.82C86.85,316.81,87.76,317.36,88.08,316.61Z"/><path class="cls-1" d="M246.88,291.15l.16.05A.17.17,0,0,0,246.88,291.15Z"/><path class="cls-1" d="M251.28,301a3.22,3.22,0,0,1-.24-.28c-.14-.16-.28-.19-.57.52-.23,0-.15-.42-.24-.52l.07-.06a1.62,1.62,0,0,1-.84-.13c-.18.1-.4.78-.62.54.17-.25,0-.22-.06-.25.08,0,.13-.12.05-.34a.56.56,0,0,1-.13.16.64.64,0,0,0,0-.07c-.19.05-.19.14-.12.2a.44.44,0,0,0,0,.18c-.08-.4-.49-.11-.38-.58-.52,0-1,.35-1.47.42a.59.59,0,0,1,.32-.5h-.32c.1-.35.22-.15.33-.2-.19-.65-.87.36-1.14-.26l-.16.25V300a.67.67,0,0,1-.26.35c0-.32.2-.69,0-.73-.08-.33-.5,0-.75.12.1.09,0,.24-.06.33s-.08-.33-.2-.22l.11-.41c-.07.39-.38.34-.47.49,0-.31.23-.21.32-.43l-.62-.11c-.31.24-.07.39-.27.72-.22,0-.48.26-.63-.05l0,.38c-.44.18-.64.08-.78-.35-3.49,2.19-1.67,3.84-1.67,3.84.83,1.09,1.67.19,3,.26.88.41,1.1,1,1.86,1.22a1.37,1.37,0,0,0-.64.66V306c-.19.6-.4.17-.69.52,0-.06-.07-.09-.07-.11-.22.6-1,.31-1.23.6l-.11-.33-.68.22.28,0c.15.95-.68-.47-1,.24-.51,0-.45,2.21-1.06,1.86-.11.51,0-.79-.24-.35-.14-.51.08-.36-.11-.74-.29.32-.7-.4-1,0l-.12-.4c-.37.86-1.19-.3-1.37.49-.49.47-.7-1.14-1.09-.2l-.38-.51c-.27,0,0,.73-.35.52-.08-.36-.43-.2-.36-.58-.78-.41-1.09,1.1-2.17.35,0,.75-.53.43-.53,1-.1-.31-.86.15-.56-.63,0-.07.11-.07.13.05l0-.43c-.68-.68-.76.64-1.26.64.18.1.35,0,.3.34l-.45.05v-.38l-.71,0,.2.41c-.37-.14-.68-.87-.88-.15-.07.39.46.52.15.74a5.69,5.69,0,0,0-1.84-.49c.18.49,0,.5-.1.64l-.13-.42c-.42.74-.46-.91-.91-.29l.06.63c-.3,1-.52-.83-.79.49.21-.13.36.93,0,.81l0-.43c-.13.12-.14.31-.26.25,0-.25-.11-.62-.32-.49v-.57l-.23.88c-.45-.36-.83.33-1.12-.22,0,0-.79-.12-.79.58,0-.45-.39-.5-.4-1-.07.5-.52,1-.87.58l0-.06c-.94-.3-1.21,1-2.1.61.17.5-.29.32,0,.95-.59.83-1.72-1-1.47,1.11-.31.19-.53-.37-.73-.43l.05-.13a3,3,0,0,1-1.27.47c-.18.26,0,1.21-.46,1.09,0-.41-.12-.29-.28-.25.09-.09.09-.23-.19-.43a.67.67,0,0,1,0,.28.24.24,0,0,1,0-.09c-.23.2-.16.3,0,.32a.58.58,0,0,0,.1.22c-.4-.41-.76.24-1-.4-.76.36-1.16,1.17-1.76,1.59a.74.74,0,0,1,.08-.82l-.44.24c-.12-.47.2-.34.32-.47-.76-.62-1,1.06-1.8.53l0,.41-.06-.05a.81.81,0,0,1-.1.6c-.2-.39-.24-.95-.56-.84-.36-.33-.68.39-1,.7.2,0,.2.26.16.43s-.36-.33-.44-.12l-.16-.55c.2.5-.28.67-.28.91-.2-.38.16-.41.12-.73l-1,.33c-.24.51.2.51.16,1-.28.19-.49.65-.92.42l.23.45c-.48.53-.84.57-1.36.18-1.64,2.53-1.53,3.91-1,4.68a2.45,2.45,0,0,0,1.48.94c2,.67,2.5-1,4.43-1.85,1.84-.2,2.56.64,4.31-.21a12.74,12.74,0,0,0,2.61-.95c.21-.85,1.12-.3,1.44-1.05l.3.38c.11-.26.27-.46.49-.27l0,.12c.17-.38.5-.26.58-.46l0,.13.29-.13v.19a1.28,1.28,0,0,1,1.22-.54l-.16-.51c1,.36,1-.79,1.95-.31l0,.13c.61-1.6,1.75.52,2.41-1-.08.19.12.25.14.37a1.09,1.09,0,0,0,.63-1.47c.34-.07.35.24.5.62a.61.61,0,0,1,.38-.79l-.08.2.7-.35-.36-.78c.46.13.36,1,.69.68l-.18-.68c.58,0,1.16.93,1.82,1.29,2.25-.31,4.16-2.62,6.49-2l.22.47c.22.71.28-1.23.53-.59l.15-.4c.1.11.27.21.2.4.22,0,.2-.15.3-.41l.35.37c.94.08,1.45-1,2.39-1.1,1.3.52,3.12-.94,4.19-1.7.76-.77,1.87-.56,2.95-.44-.76.19-1.65.26-1.73,1.13-.09,0,0,.16,0,.21l-.79.62s-3.72,3.17,2.22,4.11l.07.1c.61-.15.91-.34.76-1.05.57.52.38-.26.65-.16l0,0c-.16-.66.84-.11.72-.72,0,.05.17.21.12.27.11-.23.23-.57.55-.26.33-.47,1-.85.82-1.62l.07.11c-.18-.5.14-.24.14-.57l.1.06a.38.38,0,0,1,.18-.49c-.11-3.82.23-7.73.21-11.47a.34.34,0,0,0,0,.16A.69.69,0,0,1,251.28,301Z"/><path class="cls-1" d="M247.15,289.93l-.17-.11A.14.14,0,0,0,247.15,289.93Z"/><path class="cls-1" d="M245.71,299.85l0,.17A.15.15,0,0,0,245.71,299.85Z"/><path class="cls-1" d="M250.48,281.19a1.56,1.56,0,0,0-.2-.16l-.12-.11a1.08,1.08,0,0,0-.3-.16,1.8,1.8,0,0,0-.71-.09,6.49,6.49,0,0,0-1.43.27c-1.17.59-1.9-1.77-3.12-1.07,0-.09-.13.07-.15.13l-.92-.27s-4.52-1.14-2,4l0,.11c.46.39.77.52,1.24,0-.09.73.41.17.48.42l0,.06c.43-.49.55.59.95.16,0,0-.07.25-.14.25.21,0,.49-.11.5.18a4.48,4.48,0,0,0-1.28.3,18.56,18.56,0,0,0-2.68.72c-.25.68-1.15.22-1.5.82l-.29-.31c-.12.21-.28.37-.51.2v-.1c-.18.31-.51.21-.6.37l0-.11-.3.1,0-.16a1.44,1.44,0,0,1-1.25.42l.15.45c-1-.35-1,.67-2,.21l0-.11c-.64,1.46-1.77-.56-2.45.87.08-.18-.12-.24-.14-.36-.43.24-.9.43-.65,1.4-.33.07-.35-.24-.49-.6a.6.6,0,0,1-.38.76l.07-.19-.71.32.37.78c-.46-.13-.37-1-.69-.68l.18.68c-.58,0-1.17-.94-1.84-1.32-2.28.24-4.17,2.61-6.54,1.91l-.23-.51c-.24-.76-.26,1.29-.52.6l-.15.41c-.1-.12-.28-.23-.21-.44-.23,0-.2.16-.3.43l-.36-.42c-1-.15-1.45,1-2.41,1-1.36-.7-3.18.75-4.22,1.6-1.36,1.6-4.11-1-5.46.85-.09-.1-.17.19-.14.27l-1.59.33a6.94,6.94,0,0,0-2.88,1.51c-1,1.06-1.06,2.56,2.65,4.95v.17c1,.19,1.53.15,1.9-.84.37,1,.73-.07,1,.21v.09c.31-.92,1.25.39,1.56-.45,0,.09.07.38,0,.42.33-.22.77-.58,1,0,.84-.38,2.13-.42,2.44-1.53v.18c.15-.74.39-.21.66-.63,0,.07.08.11.08.14.18-.74,1-.37,1.2-.72l.13.4.66-.28h-.28c-.2-1.14.71.55,1-.3.51,0,.35-2.55,1-2.14.09-.58,0,.9.26.4.16.58-.07.41.14.85.27-.37.72.44,1-.07l.13.45c.34-1,1.2.31,1.36-.57.46-.52.73,1.23,1.09.19l.38.54c.28,0,0-.79.35-.57.08.39.43.21.36.61.79.42,1.06-1.19,2.16-.42,0-.79.52-.47.51-1.06.11.32.85-.18.57.65,0,.06-.1.07-.13-.05l.06.45c.69.68.74-.7,1.24-.7-.17-.11-.35,0-.3-.35l.45-.06v.39l.71,0-.21-.43c.38.14.69.87.88.14.07-.4-.46-.52-.16-.76a5.51,5.51,0,0,0,1.84.44c-.18-.48,0-.51.09-.65l.14.43c.41-.77.46.89.9.24l-.06-.63c.29-1,.52.81.78-.52-.21.14-.36-.92,0-.81l0,.43c.13-.13.13-.32.26-.26,0,.25.11.61.32.47l0,.56.23-.88c.44.33.82-.37,1.11.15,0,0,.77.05.77-.62,0,.43.39.45.4.94.06-.5.51-1,.85-.64l0,.06c.92.19,1.2-1.08,2.05-.78-.15-.44.29-.32.05-.87.59-.8,1.65.69,1.46-1.12.31-.2.5.27.7.3l-.06.11a3.75,3.75,0,0,1,1.26-.53c.19-.24,0-1,.5-1-.06.35.1.24.25.19-.09.08-.09.2.17.33a.63.63,0,0,1,.07-.23s0,0,0,.07c.24-.19.17-.27,0-.27a.28.28,0,0,0-.09-.17c.38.3.76-.26.92.23a19,19,0,0,0,1.81-1.41.52.52,0,0,1-.12.64l.44-.23c.09.35-.21.28-.34.4.71.4,1-.91,1.79-.58l.07-.32,0,0a.55.55,0,0,1,.14-.46c.17.28.17.7.49.59.3.19.61-.24.89-.51a8.91,8.91,0,0,0-.36,1.34.56.56,0,0,1-.25-.51l-.15.27c-.23-.25,0-.26,0-.37-.63-.17-.15.89-.79.8l.13.25-.05,0a.64.64,0,0,1,.15.39c-.24-.18-.47-.51-.6-.35-.31-.1-.23.41-.27.67.12,0,.2.1.24.21s-.31-.1-.28.05l-.28-.29c.28.25.09.48.17.62-.24-.17-.06-.29-.2-.47l-.4.45c.05.37.29.25.46.58-.09.19,0,.52-.35.49l.29.21c-.07.45-.25.56-.67.46,0,3.93,2.3,3.27,2.3,3.27,1.3-.14,1-1.27,1.7-2.32.92-.62,1.6-.31,2.23-1.29a2.9,2.9,0,0,0,.36-.34,12.47,12.47,0,0,1,.24-3.76c0-2.62,0-5.53,0-8.5h-.24A3.68,3.68,0,0,1,250.48,281.19Zm-2.95,3.69a6.28,6.28,0,0,1-1.47.05.64.64,0,0,0,.19-.18l0,.11c.28-.41.26,0,.52-.2,0,.06,0,.09,0,.11.3-.4.63.06.84-.1Zm.33-.15c0-.09.08-.09.11-.05Zm.69,4.66,0-.05c-.2,0-.18-.18-.13-.31s.33.22.42.06l.08.25C248.82,289.41,248.77,289.59,248.55,289.39Zm.44-.05a.31.31,0,0,1,0-.1h.05l.14.1A.28.28,0,0,0,249,289.34Zm.34-.28c-.06-.05-.1,0-.15.06a.1.1,0,0,0,0-.09c.09-.09.18-.17.19-.25A.21.21,0,0,1,249.33,289.06Z"/><path class="cls-1" d="M96.65,258.88l0,0-.13.11Z"/><path class="cls-1" d="M227.73,384.25l0-.05c-2.46-.23-3.45.13-6.17-.06l.1.17a33.82,33.82,0,0,0-4.12.08l.17-.06h-1l0,0c-.4.06-1.31,0-2.11.1l0,0a6.53,6.53,0,0,0-1.71,0l-.61-.14c-1.56.21-3.89,0-5.21.22h0l-.13,0,.11,0c-2.78,0-5.81.11-8.66.09-6,.13-7.49-.2-13.24-.28-6.55.13-9.39.62-14.89.25,0,0-11-.5,2.94-1.88a19.54,19.54,0,0,0,4.27.06l-.37-.17a21.3,21.3,0,0,0,3.12-.05c.54-.17-.8-.21.34-.35l3.17,0c-.13.11-1.25.09-1,.23.2-.08,1.78-.09,1.58-.27l.05.19a9.82,9.82,0,0,1,1.24.08c.25-.05.44-.13-.15-.16a20.17,20.17,0,0,1,3.47-.14c1.06,0,.73.17,1,.32.31,0,.79-.12.79-.19l-.43-.07c.31,0,.42,0,.43.07l.12,0,.45-.12c2.13.24,4.06-.29,5.88,0-.47,0-1.33,0-1.35.12l1.53,0c-.62,0-1.13.14-.88.26,2.15-.09,4-.32,6.59-.37.11.22,1.71.05,2.6.21-.12,0-.16-.06-.14-.08-.4,0-.55-.06.32-.1,0,0,0,0,0,0a1.68,1.68,0,0,0,.38-.08c.68.08.58.13.25.15.52,0,1.08,0,.63.1a7.34,7.34,0,0,0,2.27-.31c1.55,0,2.15,0,4.23-.05l-.27,0a9.13,9.13,0,0,0,1.89.2c.88-.69,2.88,0,5.32-.24-.31-.22.93-.13.83-.3,2.35.21,4.21-.2,6.84,0l-.14,0a9.6,9.6,0,0,0,3.09-.12c-.37.16.91.22.44.36a11.27,11.27,0,0,1,2.68-.13c.33-.2.67-.39,1.08-.6-1,.81-.35.77,2.35-.88l-1.61,1.44c1.61-1.2,3.24-2.36,4.82-3.58,4.12-2.13,9.91-6.64,11.65-7.46l1.29-.93c.78-.58,1.85-1.34,2.92-2.24s2.19-1.81,3.13-2.65a17.12,17.12,0,0,0,2-2.09c-1.29,1.57,2.91-2,2-.66.87-1,2.57-2.89,4.42-4.74l1.15-1.22-.09-.56c-3.1-1.54-6.63-1.87-10.24-2.06-2.78-.14-5.61-.21-8.33-.61-.45,6.09-.83,10.14-1.16,12.56v.7c1.44.25,1.82.55,0,.88v1.19h-.57c-.12.22-.22.21-.32,0l-11.28-.13c-2.83.16-6.16.32-10.12.49a113.68,113.68,0,0,0-14.14-.28l1.2.32c-3.8-.25-7-.05-10.35,0-1.8.29,2.64.41-1.12.63l-10.55-.08c.44-.19,4.16-.11,3.17-.39-.6.13-5,.11-5.28.36l0,.08c-.06,0-.06-.05,0-.08l-.12-.27c-1.36.09-2.37-.18-4.12-.19-.85.08-1.48.22.48.28-3.64.1-8.75.42-11.52.13-3.51,0-2.43-.35-3.43-.62a9.19,9.19,0,0,0-2.62.3l1.42.15c-1,0-1.4-.09-1.42-.15l-.42,0-1.48.21c-7.08-.52-13.5.36-19.54-.19,1.56-.05,4.43.12,4.48-.18h-5.08c2.08,0,3.76-.22,2.95-.43-7.15.07-13.3.41-21.9.4-.35-.41-5.66-.15-8.63-.49.41.07.52.12.46.15,1.32.05,1.82.13-1,.18.05,0,0,0-.06-.06a9.82,9.82,0,0,0-1.27.14c-2.24-.19-1.9-.27-.81-.29-1.71,0-3.58,0-2.1-.22-4.58-.2-5,.39-7.54.48-5.12-.09-7.12-.1-14-.08l.88-.06c-.95,0-1.59-.16-2.46-.26-.43-.05-.92-.1-1.53-.13-.84,0-2-.06-3.39-.06a13.59,13.59,0,0,1-1.53.25,32.36,32.36,0,0,1-.32-4.73c0-1.23,0-2.48.07-3.94.11-2.88.27-6.28.08-10-.41,1-.23-3.11-.56-2.75.17-3.37.12-6.44,0-9.54a.54.54,0,0,0,0,.11s0-.07-.08-.14c-.27.42-.51-.11-.66.63v-.18c-.31,1.11-1.61,1.14-2.44,1.52-.19-.59-.63-.23-1,0,.11,0,0-.33,0-.42-.31.84-1.25-.47-1.57.45V339c-.29-.28-.66.79-1-.21-.37,1-.94,1-1.9.84v-.17c-3.71-2.39-3.63-3.89-2.65-4.95A6.94,6.94,0,0,1,76.07,333l1.59-.33c0-.08,0-.37.14-.27,1.35-1.8,4.1.75,5.46-.85a13.21,13.21,0,0,1,1.06-.81c0-2.13,0-4.36.07-6.78l0,.44a43.05,43.05,0,0,0,.1-5.89,3.17,3.17,0,0,1-.49.12c-1.74.86-2.46,0-4.31.22-1.92.89-2.44,2.51-4.42,1.84a2.47,2.47,0,0,1-1.48-.93c-.54-.77-.65-2.15,1-4.69.51.39.87.36,1.36-.17l-.24-.46c.44.24.64-.22.92-.41,0-.53-.4-.53-.16-1l1-.34c0,.32-.32.35-.12.74,0-.24.48-.41.28-.92L78,313c.08-.21.28.18.44.12s0-.41-.16-.43c.28-.31.6-1,1-.7.32-.11.36.45.56.84a.84.84,0,0,0,.11-.59l-.19-.17c.11,0,.16.07.19.17l0,.05,0-.41c.84.53,1-1.15,1.8-.54-.12.14-.44,0-.32.48l.44-.24a.72.72,0,0,0-.08.81c.6-.42,1-1.22,1.77-1.58.19.63.55,0,1,.4a.58.58,0,0,1-.1-.22c-.13,0-.21-.13,0-.33l0,.09a.63.63,0,0,0,.06-.27l.1.09c-.13-2.9,0-7.37,0-7.37.38-1.46,0-7.13.3-10.7l-.49-4.63.34,1.64c0-2.45.2-2.92.34-1.93,0-1.11-.06-1.66-.11-3.33l.26.76c.12-3-.53-4.3-.49-1.85-.75-6.19.38-3.62-.17-9.19l-.39-1.09h0l-.19-.54.19.54a26.75,26.75,0,0,1,0-2.92c-.75.75-1.43,1.44-2,2.09L79,275.42l-3,3.44c-1.08,1.24-2.17,2.74-3.57,4.52-1.49,2.11-2.73,3.95-3.8,5.65s-2,3.24-2.85,4.76-1.68,3-2.58,4.56-1.75,3.26-2.81,5.15c0,0-.82,1.64-1.64,3.16a.28.28,0,0,0,.16-.24l0,0c.3,0,.23-.29.54-.35l-.08-.09a.57.57,0,0,0,.31-.3v0l.08-.07v0c0-.06.12-.08.14-.19v0c.08,0,.11-.06.13-.13l.11,0c0-.22.34-.22.34-.45h0a7.92,7.92,0,0,1,.69-.59c.45-.44.71-.36,1.23-.67.49-.48.52-.93,1.14-1.07,0,0,1.13-.4.54,1.24-.18,0-.28,0-.39.23l.1.07c-.14,0-.17.14-.23.23s.15.06.11.21l-.25.21c0-.06.07-.12,0-.18s-.11.16,0,.25l-.08-.11c0,.06-.09,0-.13,0s0,.1.07.07-.1.32-.23.3-.13-.05-.22-.11a.16.16,0,0,0,0,.15h0l0,.09c-.28,0-.22.42-.49.38,0,0,.13-.06.06-.15l-.11.12a.14.14,0,0,0,0-.2,4,4,0,0,1-.4.61c-.1-.11-.16.09-.3.05a.08.08,0,0,1,0,0s.07,0,0,.07h0v.07c-.09,0-.1,0-.08-.07s-.08.08-.1,0,0,.23-.06.31a1.62,1.62,0,0,0-.33.29v0c-.07,0-.17-.09-.24,0,.21.44-.24.19-.35.47.12.1,0,.13.06.22-.29,0-.27.37-.57.44v0c-.13-.05-.23.13-.21.26,0-.12-.17-.07-.19-.17a.16.16,0,0,1-.07.18l-.17.1c-.13-.07-.32.24-.51.25l-.16.35.05-.2c-.11.1-.14,0-.11-.08s-.07.08-.13.15v-.14c-.12,0-.16.38,0,.28-.27.55-.16-.06-.41.38l-.07.24h0l0,.11,0-.11c-.32.38,0-.29-.37.13l0-.15a.47.47,0,0,0-.17.3,1.45,1.45,0,0,1-.61.21v-.09c0-.14,0,.23-.13.29s0-.35,0-.61l-.07.22,0-.47.08-.07,0-.26c-.07,0,0,.11-.06.24,0-.3-.31-.23-.19-.73l.1-.06a.06.06,0,0,0,0,.08c.18.11.06-.3.12-.37-.12,0-.07-.28-.24-.27a1.1,1.1,0,0,0-.06-.7c0-.1-.07-.19-.09-.29a.28.28,0,0,1,0-.18c.1,0,.06-.08.15-.09s-.14-.05-.13-.14l.13-.1c-.24-.16.17-.16,0-.34s.1-.3-.12-.46l.11,0c-.12-.13.07-.23,0-.34.1,0,.06,0,.19,0-.11-.1.23,0,.1-.06.1-.19-.49-.26-.48-.42-.19-.14.2-.35-.06-.34v.08l0-.22.09,0c-.08-.09,0-.33-.16-.42l0,0c-.1-.11,0-.16-.14-.24h0c-.25-.15-.25-.57-.33-.85.13,0,.06-.19,0-.31,0,0,.07,0,.09,0-.19-.14.12-.38-.09-.52h0c.07-.08-.18-.25,0-.32-.22-.16-.23-.35-.18-.65h0c1.18-2.15,1.5.39,1.5.39l.06.53s.08,0,.06.05c.39.53-.21,1.28.14,1.8.18.38.5,1,.33,1.43,0,.31.25.53.21.83l-.1.09c.07.05.1.05.1.12s-.07,0-.1.05l.09.06c-.12,0,.1.11.16.16.62-1.65,1.62-4.15,3.37-7.75,1-1.73,2-3.23,3.38-5.87l-.39.44c1-1.54,1.78-2.87,2.59-4.23.37-.79-.8,1,.09-.59,1.84-2.83.93-1.4,2.84-4.2-.06.22-1.09,1.68-.74,1.34.13-.29,1.57-2.37,1.28-2.17h.15a17.87,17.87,0,0,1,1.23-1.56c.21-.34.35-.62-.23.12a46.39,46.39,0,0,1,3.31-4.43c1.07-1.3.85-.83,1.23-1.13a6.33,6.33,0,0,0,.71-1.05l-.48.49c.33-.38.45-.5.48-.49l.14-.15.38-.6c1.18-1.23,2.25-2.45,3.26-3.64a33.47,33.47,0,0,1,3.15-3.24c-.51.56-1.52,1.5-1.45,1.6L84,267.65c-.68.73-1.19,1.35-.87,1.14l1.45-1.53c0-.6,0-1.47-.08-2.82l.27-.19c-.06-1.62,0-3.2-.37-2.65.08-3.76.17-7.85.25-11.71l3.84.08,1.69,0,1,.05,3.7.15c3.62-.09-1.38-.25.37-.47,3.87-.4,5.08.08,8.51.22l-1-.28,4.15.08a17,17,0,0,1,2.28-1.41c1.3-.69,2.91-1.43,4.59-2.42-.51.08,1.3-.75,1.1-.77,3.44-1.52,6-3,10-4.44l-.19.09c1.1-.3,3.7-1.43,4.59-1.81-.51.3,1.43-.33.76,0a18.42,18.42,0,0,1,2.42-.94c1-.33,1.87-.57,1.87-.57.73-.05,3.28-1,5-1.32l2.11-.74-.74.32c1.14-.32,1.38-.28.93-.11.52-.1.77-.24,1.55-.43l-.34.18c1.42-.27,2-.65.83-.38,2.84-.93,1.73-.25,4.3-1l.49-.24h0l.25-.12-.24.12c2.89-.67,1.1.06,4-.64l.11.09c.76-.16,1.52-.26,1.24-.35,1.39-.2,2.91-.4,4.36-.57l3.92-.36c1.72-.24-.67,0,.15-.2a22,22,0,0,1,4.09-.31l-.48-.07c1.13-.07,2.25-.19,3.37-.22l-.46.11,2.26-.12c.63-.11-.32,0-1.05,0,1.22-.06,2.33-.2,3.44-.31a24.5,24.5,0,0,1,3.46-.09l-.29.11a1.81,1.81,0,0,0-.55,0c-2.43.24,1.8.05,1.92.12.69-.18,2.87-.06,3.8-.24,2.16.09,4.08.12,5.87.13a49.08,49.08,0,0,1,5.09.19c-.85,0,1.07.13,1,.21,1.43.15,1.08-.09,2.38,0l1.17.24c3,0,2.06.36,5,.51,1.9,0,4.36.61,7.2.73l.08.12c2.16.21,3.25.56,5,.74.44.18-.44,0-.41.14,1.79.16-.49.16.72.21,2.46.51,5,.38,7.39.85,2.58.36,4.68,1.23,5.19,1.08l-1.3-.3c1.17.22,2.33.52,3.49.79l.07.12c.71.15,1.9.43,3.12.77s2.48.71,3.37.88l.16,0-.16,0s.1,0,.19.1c1.8.43,2.2.76,3.82,1.11l-.2,0a54.3,54.3,0,0,1,5.95,2l3.54,1.51,3.31,1.57a40.58,40.58,0,0,0,3.7,2.1l.35.19-.35-.19a1.36,1.36,0,0,0-.35-.12A66.28,66.28,0,0,1,263,250.9l-.09-.05c.81.66,3.36,2.57,3.53,3.1a29.23,29.23,0,0,1,6.72,7.86l-.15-.15a25.4,25.4,0,0,1,3,7.64,7.6,7.6,0,0,1,.19,2.92c-.18.51-.35-1.51-1.45-4.26a32.72,32.72,0,0,0-5-8.5c-1-1.22-1.92-2.22-2.6-2.94l-1.14-1.1a46.61,46.61,0,0,0-6.12-5,5.42,5.42,0,0,1-.86-.53c-7.33-4.56-16.33-8.92-24.65-11l-2.38-.62-2.71-.61c-1.87-.46-3.9-.83-5.91-1.23s-4-.72-5.84-1.06-3.53-.59-4.91-.84l-3.32-.46-3.16-.29-6.31-.59-1.2-.21a16,16,0,0,1-2-.07c.61,0-.11-.09-.44-.15H195c-.39-.19-3.09.12-3.28-.08l-.45-.15a134,134,0,0,0-16.57-.11c-5.71.3-11.5.91-17,1.65-2.68.3-4.35.26-7.09.78l.06.16c-1.89.4-.45-.06-2.45.26l.78.06c-1.25.23-2.47.56-3.71.84l.59-.18a13.38,13.38,0,0,0-2.69.77c-.24,0,0-.18-1.59.25,0,.26-2.39.84-4.6,1.56,0,0-.83.2-.24,0-1.19.44-2.26.78-3.27,1.09s-1.93.63-2.87.92a40.12,40.12,0,0,0-5.92,2.26l0,0c-3.65,1.34-5,2.18-8.91,3.94l.2,0c-.92.4-1.86.91-2.83,1.43s-2,1-2.89,1.63l.21-.17-.59.35,3.74,0c1.33-.19-.66-.16-2.17-.25,5.07.08,9.26-.72,14.38-.21l-.61.28c0-.08-.72-.09-1.15-.05-5.08.43,3.74.26,4,.46,1.45-.34,6-.07,7.92-.53,9,.63,16-.27,22.82.1-1.76.23,2.23.18,2.05.41,3,.19,2.24-.33,4.95-.27l2.47.37c6.35-.54,4.34.51,10.44.28,3.93-.48,9.18.39,15.09-.12l.18.28c4.54-.24,6.89.29,10.56.12,1,.29-.9.15-.78.51,3.74-.25-1,.59,1.53.27,5.25.34,10.45-1.17,15.51-1.08,5.4-.44,10.07.67,11,0l-2.78-.06,7.44-.06.2.25c1.42-.08,3.77-.05,6.24,0h3.7l2.47,0,2.42-.09c0,.4,0,.73.06,1a3.28,3.28,0,0,1,0,.51l0-.51s0,.39-.09.74l.05,2,0,1.42c0,.69,0,1.28,0,1.86a29,29,0,0,0,.2,4l-.1-.41c.43,4.34.46,12.38.48,20a2.33,2.33,0,0,1,1.1.2c0,.12,0,.23,0,.35.27-.11.35-.19.56-.12-.22.08-.15.2-.17.29l.44-.16c-.37.44,1.39-.58.95-.12l-.27.33c.59.56,1.61.68,3,.78a22.25,22.25,0,0,1,4,.46l-.1.08c-1.18.6-2.87,1.16-3.38,1.51l.94-.21c0,.19-.84.23-1.4.52l1.2-.31-.32.45-.13,0c-.14.16-.11.31.43.24-.51.09-.84.1-1.08.32,1.21-.14.92.2.72.53-.13,0-.38.14-.46.06.32.32-.28.65-.8.9s-1,.48-.78.94l-.1,0a1.22,1.22,0,0,0-.82.64,1.32,1.32,0,0,1-.79.69l.38.15a1.87,1.87,0,0,0-.91,1.06l-.06-.12-.21.26-.06-.07c0,.17-.34.29-.38.64l-.05-.07c-.24,0-.22.12-.2.32l-.29-.15c.09.53-.59.45-.41,1h0v0c-.23.3-.45.64-.71.93,0,1.82.05,4,.09,5.85a3.38,3.38,0,0,0-.24-1.57c.09,1,.11,2,.12,3.08.11-.26.38-.07.48-.39a1.45,1.45,0,0,0,1.17.32,1.94,1.94,0,0,1,1.29.3l-.08,0c0,.38.78.3,1.33.09-.45.26-.12.47-.56.66a1.14,1.14,0,0,1,.85-.09,1.09,1.09,0,0,1,.37.15c-.35.37.71.22.65.56l1.23-.28-.7.23c.32,0,0,.24-.35.33,0,.07.25,0,.5,0l-.51.2c.06.16,1.31-.31,1-.34,1.92-.4-.3.38,1.24.12l.84-.25h0l.42-.12-.41.12c1.25,0-1.09.56.31.47l-.55.19a2,2,0,0,0,1-.17.77.77,0,0,1,.48.77l-.24.12c-.06.2.69-.23,1.09-.24.62.08-.61.43-1.18.74l.71-.2-.85.57-.42,0-.43.34c.29,0,.39-.1.7-.24-.53.37.7.52-.74,1h-.47c.15,0,.22-.07.18-.1-.46-.27-.79.31-1.19.35.54.06-.29.39.38.52-.9.33-1.06.59-1.19.88a1.19,1.19,0,0,1-.75.77c-.19-.19-.42.1-.74,0-.47.14.31.27,0,.44l-.68,0c.23.67-.94,0-1,.52.15.26-.13.36-.4.45s-.53.19-.49.57l-.27-.2c-.06.45-.73.21-.72.48-.27-.21-.08-.17-.38-.48,0,.37-.44-.56-.29-.18-.5-.07.5,1.45.21,1.59.12.6-1-.18-.48.46l.17-.07-.28.36-.21-.21c0,.12-.12.19-.24.28,0,.81.06,1.61.13,2.4l-.06-.2c-.2,2.15.37,8.7-.27,9.7a158.77,158.77,0,0,1,.31,17.34c.51.24,1,.48,1.38.69,1.11-.09-.32-.68.28-1.18,1.31-.87,1.49.38,2.46.88l-.19-.75,2.05.59-.38.55,1.39.27c.46-.44-.14-.45-.55-.73,1.48.39,3-1.54,4.36,0l-.29.69c.05-.2-.18-.25-.32-.17-1.68.94,1,.83,1,1.37.57-.85,1.81,0,2.57-1.1,2.43,2,4.87-.11,6.75,1.15-.61.53.59.56.45,1.19.82.61.8-.82,1.58-.54l.58,1.11c2.11-1.2,1.09,1.56,3,1.21a1.16,1.16,0,0,1,.77-.3c.66-.84,1.3-1.66,1.91-2.5l2-2.94c.69-1,1.31-2,1.93-3l1.89-3c1.17-2.07,2.51-4.08,3.75-6.33-.28.11.24-1,.71-2s.79-2,.29-1.5c2.05-4.86,3.91-9.29,5.21-13.07a47.81,47.81,0,0,0,1.35-5.13,11.32,11.32,0,0,0,0-3.81c.23-1.18.33-2.13.47-2.91s.26-1.42.39-2a19.58,19.58,0,0,0,.55-3.2l0,1.16c.09-2.27.21-4.13.12-5.76s0-3-.19-4.33-.19-2.55-.36-3.88-.41-2.73-.66-4.4c-.94-3.25-1.61-3.61-3.27-9.33.44.87.45.73.29.1s-.65-1.7-1.05-2.75c.56,1.32.82,1.7-.06-1.13-.23-.35-.52-.93-.83-1.44,0,0,0-.15,0-.11-1.7-3.34-1.5-2.71-.79-1.12-.08-.06-.07.1.08.61-.33-.91-.77-2-1.28-3.07l-1.73-3.14c-.53-1-1.12-1.85-1.51-2.53a3,3,0,0,1-.57-1.32c-.76-1.19-1.62-2.24-2.43-3.27a38.23,38.23,0,0,0-2.46-2.94L281,245a1.45,1.45,0,0,1-.63-.06l0,.19a2.44,2.44,0,0,0-1.13.07l.05-.06-.27,0v-.05c-.11.06-.36,0-.58.1v0a.47.47,0,0,0-.47,0l-.17-.15c-.43.22-1.07,0-1.43.22h0l0,0,0,0c-.77,0-1.6.11-2.38.08-1.64.13-2.06-.22-3.64-.32-1.79.13-2.58.65-4.08.24,0,0-3-.56.82-2a1.44,1.44,0,0,0,1.17.07l-.1-.18a1.62,1.62,0,0,0,.85-.05c.15-.18-.21-.22.1-.37l.87,0c0,.12-.34.09-.26.24.05-.08.49-.09.43-.28l0,.2c.11-.06.19.09.34.08s.12-.13,0-.16c.3-.08.72-.29.95-.15s.2.19.28.34c.09,0,.22-.12.22-.19l-.12-.08c.09,0,.12.05.12.08l0,0,.13-.13c.58.26,1.12-.3,1.61,0-.13,0-.36,0-.37.14l.42,0c-.17,0-.31.15-.24.27a17.85,17.85,0,0,1,1.81-.38c0,.24.47,0,.71.23q0-.06,0-.09c-.11,0-.15-.06.08-.11,0,0,0,0,0,0a.22.22,0,0,0,.1-.09c.19.09.16.14.07.16.14,0,.3,0,.17.11.38.09.42-.25.63-.32a6.07,6.07,0,0,0,1.16,0l-.08,0c.16,0,.22.25.52.22l0-.06-1.25-1.19c-.81-.81-1.69-1.5-2.54-2.23s-1.69-1.45-2.58-2.11c-1.79-1.32-3.53-2.71-5.47-4-.34-.41,0-.35.62,0a20.66,20.66,0,0,1,2.79,1.8c-.85-.69-1.75-1.32-2.66-1.94l-2.7-1.87c.25-.28,3.22,2,4.88,3.17a46.7,46.7,0,0,0-4.76-3.64l-2.63-1.6c-.89-.54-1.79-1.06-2.73-1.53-1.87-1-3.76-2-5.75-2.9-1-.47-2-1-3-1.48s-2-1-3.05-1.5c-.62-.16-1.23-.35-1.86-.48l-.49-.24a12.62,12.62,0,0,1-3.29-.83c-1.09-.76.37-.73-3.93-2.17a42,42,0,0,0-6.71-2.07c-1.3-.34-2.66-.55-4-.82s-2.57-.53-3.73-.69c1.23.26,1.63.44,1.59.5a3.83,3.83,0,0,1-1.06,0c-2.2-.44-3.41-1-5.15-1.22l-.1-.37c-.36.28-6-.63-6.77-.51-.61-.24.26-.22,1.37-.12a18,18,0,0,0,2.72.2l-2.78-.44-1.84-.22-2.1-.25-2.11-.24-4.65-.37c-4.82,0,.85.48-1.47.7-2.12-.06-4.22-.06-6.38-.09s-4.41,0-6.84-.09c.51.12,1,.24,1.54.38-4,.23-7.13.37-10,.57l-4.08.19c-1.32.08-2.62.13-4,.17-4.89.83-9,1.71-12.43,2.58q-7.59,1.37-15.24,3.41c-1.2.32-2.39.66-3.58,1-1.09.16-2.42.39-4,.71A144.89,144.89,0,0,0,115.9,227l.43-.33-3.91,1.63-3.52,1.65c-2.26,1-4.28,2.14-6.19,3.18s-3.67,2.15-5.38,3.24-3.32,2.28-5,3.51c-1.59-.08-8.08,5.39-10.41,6.89l.17-.21c-5.34,4.85-11.85,9.09-16.31,14.54A4.47,4.47,0,0,1,67,259.37c-3.52,3.69-7.93,9.09-8.48,9.14-.51.64-1,1.3-1.56,2,.31.14.41.56.59.34l-.18-.12.54.23,0,.12c.25,0,.7.42,1,.38,0,0,0,0,0,.06.32.05.32.23.65.17l-.05,0a6.73,6.73,0,0,1,2.15.78c-.06.17.35.29.65.4-.09,0-.13,0-.16,0,.48,0,.72.6,1.22.58l0,0c.12.16.7.14.64.45a2.57,2.57,0,0,1,1.57.65l0,0a9.6,9.6,0,0,1,.73.87l0,0c-.28-.07.1-.21-.07-.33s0-.33-.28-.4l.09-.05c-.15-.08,0-.24-.12-.31.08-.08.06,0,.18-.08-.14-.05.21-.08.06-.09,0-.21-.54-.07-.59-.22-.23-.07.06-.4-.18-.3l0,.08-.13-.19.07-.05c-.1,0-.1-.31-.29-.34l0,0c-.13-.07,0-.16-.22-.18h0c-.29-.05-.43-.44-.61-.68.12-.08,0-.2-.1-.29s.08,0,.1,0c-.23-.07,0-.4-.27-.46h0c0-.09-.25-.17-.06-.31-.27-.08-.34-.25-.4-.55h0c.35-2.43,1.54-.17,1.54-.17l.24.47s.09,0,.08,0c.55.35.25,1.27.76,1.63.3.29.83.79.81,1.23s.42.4.49.69l-.06.13c.08,0,.1,0,.13.07s-.06.05-.07.08l.11,0c-.14.11.34,0,.19.14l-.09.09a4.18,4.18,0,0,0,.68,1.35c.31.47.71,1,1,1.53a4,4,0,0,1-.49,0c-.49-.11-1-.34-1.23-.37l.17.16c-.15.05-.19-.13-.42-.18l.25.19-.36,0,0,0c-.13,0-.25.05-.19.16-.08-.09-.09-.17-.26-.16.12.23-.16.26-.42.3,0,0-.11-.05,0-.09a.73.73,0,0,1-.37.11.56.56,0,0,1-.2-.06.32.32,0,0,0-.41.06v0c-.26-.15-.36.1-.65,0l0,.13a.51.51,0,0,0-.43.06v0h-.1v0s-.14,0-.22.08v0c-.06-.06-.12,0-.18,0l-.06-.1c-.16.16-.41,0-.54.17h0a5.5,5.5,0,0,1-.91.09c-.62.11-.78-.12-1.38-.16-.68.11-1,.46-1.55.22,0,0-1.16-.32.27-1.32a.33.33,0,0,0,.44,0l0-.12c.13.08.22,0,.33,0s-.09-.14,0-.25l.33,0c0,.07-.13.06-.1.16,0-.06.19-.07.16-.2v.14c0-.05.08.05.13.05s0-.09,0-.11c.12-.06.27-.2.36-.11s.08.12.12.22a.2.2,0,0,0,.08-.13h0l0-.09c.23.16.42-.21.62,0,0,0-.14,0-.14.09l.16,0a.14.14,0,0,0-.09.18,3.85,3.85,0,0,1,.68-.27c0,.15.18,0,.28.14a.08.08,0,0,1,0-.06s-.06,0,0-.07v0a.09.09,0,0,0,0-.06c.07.06.07.09,0,.11s.11,0,.07.07c.14.05.15-.18.23-.22a1.51,1.51,0,0,0,.44-.05l0,0c.06,0,.09.16.2.13.08-.48.3,0,.55-.18,0-.16.1-.09.09-.21a.27.27,0,0,0,.19,0c-.84-.31-1.69-.74-1.69-.74L62.15,275s-.15,0-.18,0c-1.48-.29-2.57-1.83-4-2.15a19.64,19.64,0,0,1-2.18-.78,107.15,107.15,0,0,0-8.56,13.24A64.56,64.56,0,0,0,41,301l0-.55c-.44,2.21-.9,3.58-1.25,5A36.23,36.23,0,0,0,38.58,311a3.29,3.29,0,0,1-.22.54c0,.61-.14,1.29-.23,2s-.13,1.51-.21,2.31-.18,1.65-.28,2.5-.1,1.72-.14,2.58-.14,1.71-.14,2.53,0,1.63,0,2.38,0,1.47,0,2.11.13,1.21.19,1.7l-.29.28.22,2.43c.08.81.25,1.61.37,2.41l.39,2.41c.15.8.36,1.59.54,2.38l-.37-1.78c-.13-.6-.18-1.21-.27-1.81a3.9,3.9,0,0,1,.58,1.72c.19.83.36,1.92.56,3.19a33.61,33.61,0,0,0,1,4.23,25.39,25.39,0,0,0,1.82,4.72,24.45,24.45,0,0,0,2.23,4.46,44.33,44.33,0,0,0,2.87,4.14l.75,1,.8,1c.53.65,1.06,1.31,1.56,2s1.05,1.31,1.56,2,1,1.34,1.47,2c2.32,2.25-2.32-1.77,1,1.74-.24.41-1.69-1.53-1.16-.36,1.65,1.72,2.78,3.33,4.21,4.86.7.78,1.4,1.61,2.25,2.44s1.84,1.67,3,2.6l-.05.42c1.57,1.12,3.07,2.23,4.47,3.35s2.82,2.11,4.14,3.09,2.65,1.84,3.89,2.63a29.86,29.86,0,0,0,3.68,1.88c7.11,3.37,4.21,3.48,12,6.08l2.82,1.61c3.29,1.27,2.57.28,6.18,1.76-.32.22,4.67,1.61,2.39,1.24,1,.36,2.1.72,3.18,1s2.18.55,3.29.81c2.21.56,4.53.88,6.9,1.32,1.19.23,2.41.34,3.65.54s2.51.4,3.81.56c2.6.32,5.31.78,8.19,1.17,2.55-.31,8.36.28,10.25-.13.15.13,3.07.16,5.13.23s3.27.05,0,.4c-.56,0-1.56,0-1.49-.07l-.79.34c.83.09,1.64.15,2.44.19s1.58,0,2.35,0c1.54-.05,3-.13,4.54-.29,3-.36,5.95-.73,9.2-1.05-1.94.08-4.5.36-2.8,0l6-.57-1.23.42c1.51-.1,3-.33,4.5-.49s3-.32,4.5-.58l-1.29-.15c4.38-.58,6.06-.17,10.84-1.75,2.14-.74-4.2.4.34-.68a161.69,161.69,0,0,0,21.68-5.3c-.8-.15,1.13-.81,3.06-1.62l.34.25c3.69-1.58,4.42-1.73,5.18-1.81s1.51-.12,5.11-1.87l1.08-1a23.24,23.24,0,0,1,5.11-2.37,19.6,19.6,0,0,0,5.47-3c-1.8,1-1.95.7-.87-.11A14.45,14.45,0,0,0,227.73,384.25Z"/><path class="cls-1" d="M66.74,276.44h0s0,0-.06,0,0,0,0,0Z"/><path class="cls-1" d="M240.57,285.93h0l0-.05Z"/><path class="cls-1" d="M85.63,336.49l.12.4.67-.28h-.28c-.2-1.14.71.55,1-.3.51,0,.34-2.56,1-2.14.09-.58,0,.89.26.4.16.58-.07.41.14.85.27-.37.72.44,1-.07l.13.45c.33-1,1.2.31,1.35-.57.47-.52.74,1.23,1.09.19l.39.54c.28,0,0-.79.34-.57.09.38.44.21.37.61.79.42,1.06-1.19,2.16-.42,0-.79.52-.47.51-1.06.11.32.85-.18.57.64,0,.07-.1.08-.13,0l.06.45c.69.68.74-.7,1.24-.7-.17-.11-.35,0-.3-.35l.45-.06v.39l.71,0-.21-.43c.38.14.69.87.88.13.07-.4-.46-.51-.16-.75a5.45,5.45,0,0,0,1.84.44c-.18-.49,0-.51.09-.65l.13.42c.42-.76.47.9.91.25l0,.31-.09-.94c.29-1,.51.81.78-.52-.21.14-.36-.92,0-.81l0,.43c.13-.13.13-.32.26-.26,0,.25.11.61.32.47l0,.56.23-.88c.44.33.82-.38,1.1.15,0,0,.78,0,.78-.62,0,.43.39.45.4.93.06-.49.51-1,.85-.63l0,.06c.91.19,1.19-1.08,2-.78-.15-.44.29-.33,0-.87.59-.8,1.64.68,1.46-1.12.31-.2.5.27.7.3l-.06.11a3.75,3.75,0,0,1,1.26-.53c.19-.24,0-1,.49-1,0,.34.1.24.26.19-.09.07-.09.19.17.33a1.2,1.2,0,0,1,.06-.24s0,0,0,.08c.24-.19.17-.27,0-.27a.28.28,0,0,0-.09-.17c.38.29.76-.26.92.23.76-.37,1.19-1,1.81-1.42a.52.52,0,0,1-.13.65l.45-.23c.09.35-.22.28-.34.4.71.4,1-.91,1.79-.58l.06-.32.06,0a.54.54,0,0,1,.13-.46c.18.28.18.7.5.59.3.19.61-.24.88-.51a10.21,10.21,0,0,0-.35,1.34.56.56,0,0,1-.25-.51l-.15.27c-.23-.25,0-.26,0-.37-.63-.17-.14.89-.78.8l.12.25,0,0a.64.64,0,0,1,.15.38c-.25-.17-.47-.5-.6-.35-.31-.1-.23.42-.27.68.11,0,.2.1.24.21s-.31-.1-.28.05l-.28-.29c.28.25.08.48.17.62-.25-.18-.06-.29-.2-.47l-.4.45c.05.37.29.25.46.58-.09.18,0,.51-.35.49l.29.21c-.07.44-.25.56-.68.46.06,3.93,2.31,3.27,2.31,3.27,1.3-.14,1-1.27,1.7-2.32.92-.62,1.6-.31,2.23-1.29a6.55,6.55,0,0,0,1.07-1.27c-.19-.56.5-.48.41-1l.29.14c0-.19,0-.31.2-.31l0,.07c0-.35.36-.47.38-.64l.06.06.21-.25.06.12a1.87,1.87,0,0,1,.91-1.06l-.38-.15a1.38,1.38,0,0,0,.79-.69,1.22,1.22,0,0,1,.82-.64l.1,0c-.22-.46.24-.67.78-.94s1.12-.58.8-.91c.08.09.33-.05.46-.05.2-.33.49-.68-.72-.53.24-.22.57-.23,1.07-.32-.54.07-.56-.08-.42-.24l.13,0,.32-.45-1.2.31c.56-.29,1.42-.33,1.4-.52l-.95.21c.52-.35,2.21-.91,3.39-1.51l.1-.09a23.52,23.52,0,0,0-4-.45c-1.37-.1-2.38-.22-3-.78l.26-.33c.45-.46-1.32.56-.94.12l-.44.16c0-.1-.05-.22.17-.3-.21-.06-.29,0-.57.13,0-.12,0-.23,0-.35a2.7,2.7,0,0,0-1.35-.2,3.64,3.64,0,0,1-1.36-.09,1.56,1.56,0,0,0-.2-.16l-.12-.11a1.08,1.08,0,0,0-.3-.16,1.83,1.83,0,0,0-.71-.09,6.14,6.14,0,0,0-1.44.27c-1.16.59-1.89-1.78-3.11-1.07,0-.09-.14.07-.15.13l-.92-.27s-4.52-1.14-2,4l0,.11c.45.39.76.52,1.24,0-.09.73.41.16.48.42l0,.06c.42-.49.55.59,1,.16,0,.05-.07.25-.14.24.21,0,.49-.1.5.18a5,5,0,0,0-1.29.31,17.23,17.23,0,0,0-2.67.72c-.25.68-1.15.22-1.5.82l-.29-.32c-.12.21-.29.37-.51.21v-.1c-.19.31-.51.2-.6.36l0-.1-.3.1,0-.16a1.44,1.44,0,0,1-1.25.42l.15.45c-1-.35-1.05.67-2,.21l0-.11c-.64,1.46-1.77-.56-2.45.87.08-.18-.12-.24-.14-.36-.43.24-.9.43-.65,1.4-.34.07-.35-.24-.49-.6a.59.59,0,0,1-.39.76l.08-.19-.71.32.37.78c-.46-.13-.37-1-.7-.68l.19.68c-.58,0-1.18-.95-1.84-1.32-2.28.24-4.17,2.61-6.54,1.91l-.23-.51c-.24-.76-.26,1.29-.53.59l-.14.42c-.1-.12-.28-.23-.21-.44-.23,0-.2.16-.3.43l-.36-.42c-1-.15-1.46,1-2.42,1-1-.5-2.16.1-3.15.79,0,2.21.1,4.31.16,6.39C84.71,336.52,85.43,336.82,85.63,336.49ZM120,326.33a.21.21,0,0,1,0,.28c-.06-.06-.1,0-.15.06a.1.1,0,0,0,0-.1C119.92,326.49,120,326.41,120,326.33Zm-.35.45s0,0,0,0a.42.42,0,0,0,.14.11.31.31,0,0,0-.21,0A.43.43,0,0,1,119.67,326.78Zm-.53-.2c.16-.05.33.22.42.06l.08.25c-.15.07-.2.25-.42.05l0-.05C119.07,326.89,119.09,326.71,119.14,326.58Zm-.5-4.35-.11,0C118.57,322.19,118.61,322.18,118.64,322.23Zm-1.72.07,0,.11c.28-.41.26,0,.52-.2,0,.06,0,.09,0,.11.3-.4.63.06.84-.1l0,.21a6.89,6.89,0,0,1-1.47.05A.8.8,0,0,0,116.92,322.3Z"/><path class="cls-1" d="M206.9,347.12h0a.67.67,0,0,0-.12.06Z"/><path class="cls-1" d="M191.92,334.57l.38.36C192.31,334.79,192.22,334.66,191.92,334.57Z"/><path class="cls-1" d="M251.66,345.58c0-1.4.08-2.71.1-4a18.86,18.86,0,0,0-3.57-1.36c0,.8-.42.72-.93.82l.05-.69c-2,.71-.46-1.57-2.41-1.05l.23-.45-.69,1.35c-1.86,1.12-.69-1.5-2.8.07.74,0,.13,1.51-.73,1.1l.33-.61c-.52.07-.72.32-1,.14.35-.31.3-.91-.45-.9l.61-.73-1.55,1c-1-.83-2.77-.2-3.08-1.15,0,0-2.22-.75-2.89.15.55-.54-.68-1-.21-1.61-.7.6-2.53.92-3.12.09l.15-.06c-2.48-1.11-4.58.38-6.77-.85,0,.76-1.17.18-1,1.18-2.54.6-4.09-2.57-5.39.26-1.12,0-1.2-.88-1.74-1.12l.28-.12a20,20,0,0,1-4.19-.4c-.8.18-1.12,1.53-2.43,1,.52-.48,0-.46-.56-.54.34,0,.47-.22-.15-.68a1.09,1.09,0,0,1-.42.3.33.33,0,0,1,0-.14c-.88.07-.76.26-.37.39,0,.09,0,.2.08.36-.78-.83-2.46-.31-2.43-1.26-2.59-.15-4.55.54-6.73.59-.17-.52.39-.87,1-1l-1.54,0c.12-.69.93-.27,1.41-.34-1.63-1.39-3.86.57-5.81-.77l-.52.48-.11-.11c0,.29-.57.62-.89.66-.21-.64.22-1.38-.83-1.5-.73-.71-2.38-.06-3.5.11.56.18.32.49,0,.67-.52-.06-.73-.71-1.17-.51l.07-.82c.09.8-1.48.62-1.73.93-.2-.65.89-.4,1.09-.84l-3.15-.35c-1.21.45.09.8-.55,1.44-1,0-2.05.44-3.11-.22l.25.78c-1.93.29-3,.05-4.16-.88-7.32,2-8.35,3.94-7.55,5.38s3.45,2.36,3.45,2.36c5.19,2.37,8.3.63,14.84,1,5.62,1.18,6.92,2.8,12.88,3.09,2.79.52,5.83.65,8.59.89,1.46-.9,3.6.52,5.28-.17l.5.71a1.66,1.66,0,0,1,1.72.06l-.06.18c.86-.36,1.71.06,2.14-.12l-.06.18,1,.07-.2.23a7.9,7.9,0,0,1,4.1.31v-.77c2.56,1.25,3.77-.17,6,1.2l-.06.18c3.35-1.55,4.63,2.1,8.07.69-.43.18.11.42.05.61,1.48,0,3,.14,3.29-1.37,1.06.19.79.61.84,1.22.09-.67,1.05-.8,1.89-.71l-.42.2,2.4.15-.28-1.34c1.2.56.09,1.6,1.33,1.49l.15-1.07c1.7.48,2.48,2.27,4,3.35a24.23,24.23,0,0,0,2.43.46c.16-2.27.34-4.83.52-7.7Z"/><path class="cls-1" d="M123.27,330.16h0v0Z"/><path class="cls-1" d="M111.23,323.48h0l0-.05Z"/><path class="cls-1" d="M117.82,327.48l-.17-.11A.14.14,0,0,0,117.82,327.48Z"/><path class="cls-1" d="M117.55,328.7l.16.05A.15.15,0,0,0,117.55,328.7Z"/><path class="cls-1" d="M57.9,306.6a.37.37,0,0,0,0,.36l.15-.41h0Z"/><path class="cls-1" d="M317.28,345.89v.22A.17.17,0,0,0,317.28,345.89Z"/><path class="cls-1" d="M317.49,354h0l-.06,0Z"/><path class="cls-1" d="M275.82,349.93c-.89,1-1.8,2-2.79,3,.13-.15.24-.3.36-.46-.94.78-2.28,2.13-3.69,3.6l.07.37c-.07,1.3,2.07-1.62,2.14-.39l.84-.47c.18.26.59.57.17.81.69.15.74-.05,1.3-.37l.64.92c2.66,1,5.24-.17,8.1.54,3.26,2.09,10.05,1.56,14,.86,2.82-.73,5.65.05,8.53.52a35.57,35.57,0,0,0,8.6.76.73.73,0,0,0,.66-.11c1,.16,2,.35,3,.54a8.32,8.32,0,0,0-3,1.85c-1.26,1.52-4-.36-5.25,1.31-.08-.07-.15.18-.12.25l-1.52.44s-7.31,2.32,0,5.64l0,.15c.93.05,1.47-.06,1.79-1,.39.82.7-.15,1,.06v.08c.27-.84,1.22.18,1.49-.58,0,.07.08.31,0,.37.31-.24.72-.6.92-.11.79-.42,2-.61,2.29-1.59v.15c.11-.64.37-.22.61-.61,0,.06.08.08.08.11.15-.65.94-.43,1.13-.75l.14.33.63-.32-.27,0c-.24-.94.7.39,1-.37.49,0,.24-2.2.86-1.93.07-.5.05.76.27.32.18.47,0,.35.17.7.25-.34.7.29,1-.17l.15.36c.29-.86,1.16.14,1.28-.63.44-.5.76,1,1.06,0,.14.14.26.29.4.42.46-.07.05-.7.59-.62.11.31.69,0,.58.41a2.55,2.55,0,0,0,1.61-.64,2.94,2.94,0,0,1,2.1-.52c-.33-.58.74-.55.43-.95.34.18,1.39-.45,1.36.21,0,.06-.14.1-.26,0l.35.29c.85.08,1.15-.13,1.3-.37s.16-.52.64-.63c-.33,0-.56.09-.73,0a1.41,1.41,0,0,0,.31-.21l.36-.1.34.22,1.42-.3-.81-.14c.85-.08,2.26.14,1.89-.33-.31-.23-1.46-.06-1.14-.3.74-.08,1.77-.2,2.76-.37a2.83,2.83,0,0,0-.44-.64,2.56,2.56,0,0,1-1.35-.4l.71.07c-1.8-.76,1.24-.11-.38-.86l-1.09-.17c-1-.32-.76-.38-.6-.46s.24-.2-1-.5c.41.25-1.21.13-1.29-.14l.67,0c-.33-.16-.63-.2-.64-.31.42.07.87,0,.46-.25l.9.12c-.54-.15-1.07-.27-1.58-.39.09-.44-1.27-.89-.81-1.2a2.55,2.55,0,0,0-.47-.44,1.56,1.56,0,0,0-1.1-.4c.58,0,.16-.51.75-.59-.71,0-1.75-.45-1.7-1l.1,0a3.87,3.87,0,0,0-1.64-1.23,1.22,1.22,0,0,0-.32-.13,1.34,1.34,0,0,1-.24-.12.7.7,0,0,1-.31-.45c-.26.37-.41-.06-.7.45-.95,0-.34-1.79-1.68-.56-.33-.15-.06-.59-.14-.77l.12,0a3.33,3.33,0,0,1-1.1-.73c-.3,0-.85.62-1.06.19.32-.17.14-.23,0-.34.12,0,.22,0,.19-.35a.52.52,0,0,1-.23.09s0,0,.05-.06c-.28-.08-.31,0-.24.14a.41.41,0,0,0-.1.19c.05-.51-.63-.47-.3-.93a12.83,12.83,0,0,0-2.19-.56.59.59,0,0,1,.63-.34l-.44-.22c.27-.33.37,0,.53,0,0-.89-1.34-.21-1.46-1.11l-.32.17v-.07a.67.67,0,0,1-.49.22c.16-.35.54-.66.27-.85,0-.44-.69-.32-1.08-.38.1.16-.07.28-.22.33s0-.44-.17-.39l.29-.4c-.24.41-.65.12-.82.24.15-.34.39-.08.6-.27l-.82-.57c-.51.07-.24.4-.64.64-.31-.12-.76,0-.86-.5l-.18.41c-.67-.1-.91-.36-.94-.95-5.65.06-3.79,3.24-3.79,3.24.74,1.83,2.23,1.39,4,2.4,1.26,1.3,1.1,2.27,2.77,3.17a14.13,14.13,0,0,0,2.26,1.51c.41-.14.64.1.9.31a2.17,2.17,0,0,1-1.08-.16l.08-.06c-1.78.49-3.34-1.11-5-.78.07-.06.14-.32.51-.26-1.18-.11-2.79-.25-2.78-.88-2.78-.51-6.5-2.28-8.45-1.48l.16-.19c-1.13.61-1.31-.25-2.51-.06,0-.14-.11-.22-.09-.26-1.24.68-3.22-.6-4.18-.34l0-.65c-.74-.1-1.48-.18-2.22-.25l.8.28c-.55,1.74-1.5-1.41-3.27-.5-1.47-.48-3.6,3.31-5,2.18-.87.75.86-1.29-.35-.8.11-1,.61-.52.44-1.33-1.16.29-1.65-1.25-3.09-.81l.06-.76c-1.58.9-2.68-.63-3.76-.64-.11.15-.22.29-.34.43C277.53,348,276.72,349,275.82,349.93Z"/><polygon class="cls-1" points="335.58 358.49 335.59 358.5 336.13 358.58 335.58 358.49"/><path class="cls-1" d="M299.2,350.14s.08,0,.11-.05S299.21,350.12,299.2,350.14Z"/><polygon class="cls-1" points="309.14 247.29 309.14 247.29 309.13 247.31 309.14 247.29"/><path class="cls-1" d="M56.77,270.45c-.34-.21-1,.25-1.33-.08-.25.05.26-.14-.06-.17.07-.15.17,0,.16-.19-.29-.05-.35-.36-.72-.42l0-.12c-.53,0-.72-.55-1.1-.48-.49-.11-.12-.49-.69-.48l-.1-.25c-.18-.12-.24.13-.41-.05.06-.1-.24-.22-.06-.25-.41-.4-1.1-.26-1.61-.84-.24.13-.51-.15-.68-.05,0-.09-.64-.33-.19-.34,0,0,.09,0,.07.06l.1-.09c-.26-.4-.72-.21-1.07-.42.09.09.24.15.1.19l-.33-.18.12-.07-.47-.3v.16c-.22-.18-.2-.43-.56-.4-.17,0,.15.28-.13.19a11.24,11.24,0,0,0-1.12-.85c0,.16-.14.1-.27.07l.05-.12c-.53-.05,0-.34-.54-.43l-.16.13c-.51,0-.09-.35-.69-.25.18.07-.05.31-.24.15l.11-.09c-.13,0-.19,0-.26-.07.1,0,.12-.14-.07-.21l.19-.09-.43.05c-.2-.24-.68-.29-.71-.5,0,0-.51-.35-.72-.23.16-.06-.12-.25,0-.34a.82.82,0,0,1-.78-.26h0c-.55-.44-1.15-.33-1.63-.77,0,.15-.3-.07-.32.14-.66-.1-.88-.87-1.35-.43-.28-.09-.25-.27-.37-.37h.08a6.52,6.52,0,0,1-1-.45c-.2,0-.36.2-.65,0,.15-.05,0-.09-.11-.15.08,0,.12,0,0-.15a.3.3,0,0,1-.13,0s0,0,0,0c-.22-.06-.2,0-.11.05s0,0,0,.08c-.15-.24-.6-.28-.54-.47-.63-.26-1.16-.29-1.7-.47,0-.12.14-.14.31-.1l-.38-.15c.06-.13.24,0,.36.06-.33-.42-1-.23-1.4-.67l-.16.05,0,0c0,.06-.17.07-.26,0s.14-.25-.12-.37-.59-.22-.88-.28c.13.08.06.12,0,.13s-.15-.2-.27-.2l.06-.16c0,.17-.4,0-.48,0,0-.15.25,0,.32-.07l-.77-.35c-.32,0,0,.16-.21.23a1.66,1.66,0,0,1-.76-.31l0,.17a1.56,1.56,0,0,1-1-.54c-3.85-.53-1.42,1.15-1.42,1.15,1.16.93,2,.87,3.63,1.52a20.61,20.61,0,0,0,3,1.76c.66.35,1.41.64,2.09.93.41-.05.87.42,1.32.43l.09.19a.54.54,0,0,1,.42.16l0,0c.23,0,.42.16.54.17l0,0,.24.1-.06,0a2.72,2.72,0,0,1,1,.42l0-.15c.57.47.94.3,1.44.77l0,0c.92,0,1,.81,2,.84-.12,0,0,.09,0,.12.37.13.75.29.89,0,.25.13.17.19.15.31,0-.12.3-.06.5,0h-.11l.59.24v-.28c.27.21-.06.31.26.4l.08-.19c.4.24.51.64.85,1,1.65.9,3.69,1.3,5.09,2.4v.17c-.07.22.58-.09.54.13h.23c0,.06.12.16,0,.16.16.09.19.06.34.05l.12.22c.61.42,1.3.45,2,.84a4.63,4.63,0,0,0,1.22.73c.39-.52.79-1,1.18-1.54A.65.65,0,0,0,56.77,270.45Z"/><polygon class="cls-1" points="330.45 381.61 330.45 381.61 330.44 381.61 330.45 381.61"/><path class="cls-1" d="M336.17,383.59h.05a1.47,1.47,0,0,0-.38-.53.4.4,0,0,1-.33-.06l.14,0c-.48-.16.21-.12-.23-.31h-.24c-.48-.09.11-.18-.48-.26.13.07-.2.14-.26,0l.13,0c-.09,0-.15,0-.18-.08s.16-.06,0-.13l.19,0-.37,0c-.07-.18-.41-.26-.38-.41s-.17-.2-.31-.12c.1-.05,0-.15.11-.22-.12.05-.32,0-.31-.12h0c-.15-.25-.47-.14-.58-.4-.06.11-.13,0-.19.12-.29,0-.19-.51-.54-.18-.1-.05,0-.17-.07-.23h0a1.39,1.39,0,0,1-.37-.23c-.09,0-.23.16-.31,0,.09-.05,0-.07,0-.1s.06,0,0-.1l-.07,0v0c-.09,0-.09,0-.06,0a.06.06,0,0,0,0,.05c0-.15-.22-.14-.14-.27a5.24,5.24,0,0,0-.69-.2.13.13,0,0,1,.17-.08l-.14-.07c.07-.09.11,0,.16,0,0-.26-.41-.08-.5-.34l-.08,0v0s-.1.06-.13.06.13-.18,0-.24-.23-.11-.35-.13c0,.05,0,.08-.05.09s0-.12-.07-.11l.07-.11c0,.11-.19,0-.24.06s.12,0,.17-.07l-.28-.18c-.15,0-.05.11-.16.17s-.23,0-.28-.15l0,.11c-.21,0-.29-.11-.33-.28-1.71-.08-1,.86-1,.86.31.54.75.44,1.34.75s.45.67,1,.95a4.94,4.94,0,0,0,.75.47c.21-.06.31.22.52.19v.12c.07,0,.14,0,.16.08l0,0c.11,0,.16.08.21.07l0,0,.09.05,0,0a.56.56,0,0,1,.38.21l.06-.1c.14.27.37.12.48.4v0a.3.3,0,0,1,.31.12c-1.11-.22-2.87-.47-5.47-.77l.12-.06a32,32,0,0,0-6.42.12c-.3-.35-2.27,0-2.92-.15l.06,0c-1.68.27-3.47-.22-5.1,0a.65.65,0,0,1,.47-.13c-1.18.05-2.81.13-2.89-.08a80.46,80.46,0,0,0-8.6.29l.12-.06a17.79,17.79,0,0,1-2.49.14c-.07,0-.15,0-.14-.05-1.12.22-3.28,0-4.19.13l-.06-.14-2.25,0,.84,0c-.29.37-1.69-.23-3.32,0-1.52,0-3.09.77-4.67.59-.75.17.66-.28-.46-.15,0-.19.52-.12.23-.27-1.1.09-1.81-.2-3.18-.07l-.05-.15c-1.78.28-3.36-.2-4.55.07-1.83.12-1.23-.45-3.14-.15l-.75-.21c-.81,0-.58.25-1.49.15.06-.13-1.15-.1-.61-.22-2.06-.2-4.17.28-6.88-.05-.59.25-1.95.1-2.38.28-.08-.1-2.73,0-1.2-.25.13,0,.36,0,.34,0l.19-.15c-1.55-.28-2.81.15-4.33.11.45.05,1.05,0,.65.14l-1.42,0,.3-.13-2.12-.07.29.16a7.43,7.43,0,0,0-2.56-.13c-.53.13,1,.21-.11.26-1.38-.1-3.45-.26-5.22-.31.17.17-.31.17-.8.2l0-.15c-1.87.21-.69-.33-2.55-.16l-.32.21c-1.68.3-.91-.31-2.77.09.74,0,.35.34-.56.27l.23-.15a5.69,5.69,0,0,1-1,.07c.29-.08.15-.21-.58-.19l.49-.18-1.39.27c-1.08-.16-2.79,0-3.23-.17h-.17c-.7.4-1.36.84-2.62,1.58l.7-.76a18.89,18.89,0,0,0-2.68,1.57,34.21,34.21,0,0,0,5.93,0c-.4.06.17.09.14.13,1.47-.05,3.05-.07,3.07-.42,1.07,0,.87.11,1,.24,0-.15.93-.21,1.77-.22l-.39.06,2.41-.05-.48-.29c1.28.08.33.35,1.55.28l0-.24c1.77.05,2.8.41,4.51.58,7.09.1,14.71-.5,21.31-.09l.29.18c.13.26,1.82-.38,2.07-.14l.77-.12c.22,0,.67.09.29.15a4.77,4.77,0,0,0,1.24-.11l.76.16c2.8.13,5.18-.19,8.13-.12a132.34,132.34,0,0,0,14-.15c5.4-.39,11.67.64,17.2.2a1.64,1.64,0,0,0,.64-.08l5.06,0s8,0,11.38-.35c0,0,0,.05-.06,0l0,.1s-.09,0-.07-.08-.06.06-.08.13l-.12-.06c-.3.06-.41.36-.7.46s-.94.47-1.23.76c-.37.49-1.26.17-1.62.7,0,0-.05.06,0,.08l-.47.21s-2.26,1.11.12,1.52v0c.3-.05.46-.11.55-.37.14.19.22-.09.31,0v0c.07-.24.39,0,.46-.26,0,0,0,.08,0,.1s.22-.2.29-.08c.24-.17.63-.3.69-.59v0c0-.18.11-.08.18-.2l0,0c0-.18.28-.17.34-.27l0,.08.2-.13-.09,0c-.09-.24.23.06.3-.16.16-.05,0-.61.24-.58,0-.14,0,.2.09.07.06.11,0,.1.06.18.08-.11.23,0,.31-.12l.06.09c.07-.25.37,0,.39-.25s.25.21.33-.06l.14.09c.08,0,0-.18.08-.17s.14,0,.13.11a.19.19,0,0,0,.16-.05l.23-.17a1,1,0,0,1,.63-.27c-.06-.16.25-.21.18-.32.09,0,.42-.21.38,0a.1.1,0,0,1-.08,0l.08.07c.5-.05.35-.3.62-.41-.12,0-.2.08-.24,0l.24-.11.08.05.43-.17h-.22c.25-.07.64-.07.56-.2S336.06,383.69,336.17,383.59Z"/><polygon class="cls-1" points="335.41 382.65 335.42 382.65 335.53 382.65 335.41 382.65"/><path class="cls-1" d="M299.31,382.07h0Z"/><polygon class="cls-1" points="243.81 381.48 243.81 381.48 243.98 381.38 243.81 381.48"/><path class="cls-1" d="M33.08,258.87l.07.1S33.15,258.91,33.08,258.87Z"/><path class="cls-1" d="M36.13,262.67Z"/><path class="cls-1" d="M281,245a2.05,2.05,0,0,1,1.07,0V245c.86-.49,1.35.34,2.23-.12-.11.06,0,.1,0,.14.41,0,.84-.07.85-.44.3,0,.24.12.28.26,0-.16.25-.23.48-.24l-.1.07.66-.06-.13-.3c.35.09.09.37.42.3v-.25c.48.05.77.43,1.23.62,1.95.12,4.05-.51,5.86-.05l.08.19c0,.27.5-.41.57-.15l.21-.13c.06,0,.18.11.07.17.2,0,.2,0,.35-.12l.2.17c.77.14,1.43-.18,2.24-.11a9.49,9.49,0,0,0,3.85-.14c1.49-.4,3.21.71,4.73.25,0,0,.17-.05.17-.08l1.39.05s.89,0,1.77-.07c0,0,0,0,0,.07-.16.26-.56-.07-.42.4-.09.08-.17,0-.24,0v0a1.56,1.56,0,0,1-.37.23c-.05.07,0,.28-.12.3,0-.1,0-.06-.09,0s0-.06-.07-.08a.08.08,0,0,1,0,.07s0,0,0,0,0,.09,0,.08,0,0,0,0c-.13-.06-.23.13-.3,0-.23.15-.33.38-.5.54a.14.14,0,0,1,0-.2l-.13.09c-.05-.1.05-.09.09-.14-.26-.07-.27.34-.54.3v.1h0a.19.19,0,0,1,0,.15c-.07-.07-.1-.2-.2-.15s-.19.16-.27.26.07,0,.06.09-.12-.05-.14,0l-.06-.12c.07.1-.07.19-.06.25s0-.12,0-.19l-.29.17c-.06.14.08.1.08.23s-.13.2-.27.18l.09.09a.34.34,0,0,1-.42.16c-.86,1.52.33,1.31.33,1.31.63,0,.74-.47,1.3-.87.56-.22.81-.09,1.32-.46a7.6,7.6,0,0,0,.78-.46c0-.23.33-.18.41-.39l.1.06c0-.07.07-.13.15-.11v0c0-.11.14-.11.16-.16v0l.09-.06v0a.6.6,0,0,1,.36-.24l-.06-.1c.31,0,.29-.28.59-.26v0c.07-.21.21-.22.35-.23a.78.78,0,0,0,.21,0,.68.68,0,0,0,.28-.26c0,.07.07,0,.08.07.22-.16.46-.3.25-.46.15-.08.19,0,.3,0-.1-.06,0-.16.1-.22v.05l.31-.2-.32-.06c.24-.06.35.09.46,0l-.22-.07c.26-.1.78-.08,1.27-.2l.44-.22c-.51-.33-1.1-.65-1.59-.94a4.43,4.43,0,0,1-1.2-.92l.05-.12c.09-.16-.31.11-.24,0l-.11,0s0-.1,0-.11-.08,0-.15,0v-.14c-.19-.23-.52-.2-.75-.41-.17-.4-.86-.63-1.26-.76-.62-.1-.74-1.06-1.39-1.14,0,0-.07,0-.09,0l-.41-.32s-2.06-1.52-1.32.82l0,0c.19.24.32.37.6.32-.11.21.18.15.19.26h0c.25,0,.21.33.45.29,0,0-.06.07-.09.05s.28.1.21.22c.26.14.57.43.85.35l0,0c.17-.07.12.06.27.06a.1.1,0,0,0,0,0c.18,0,.29.18.41.18l0,.08.2.12-.06-.07c.18-.19.06.24.29.2s.57-.26.63-.06c.14-.05-.16.12,0,.11-.07.11-.09,0-.12.14.13,0,.07.23.24.23l-.05.09c.26-.05.2.32.41.24s.08.12.08.19c-.26-.15-.59-.32-1-.5l0-.06a2.33,2.33,0,0,0-1.77.12c-.08-.38-.62-.05-.8-.17l0,0c-.47.28-.95-.24-1.4,0,0,0,0-.13.13-.14-.33.05-.77.13-.8-.09a5.88,5.88,0,0,0-2.36.29l0-.06c-.28.23-.36,0-.68.15,0,0,0,0,0-.06-.31.23-.9,0-1.15.13l0-.14-.61,0,.23,0c-.09.39-.47-.25-.92,0-.41,0-.85.82-1.28.62-.21.18.18-.3-.13-.16,0-.2.15-.13.07-.29-.31.09-.5-.21-.87-.08l0-.16c-.49.29-.92-.22-1.25.06-.5.13-.33-.48-.86-.17l-.2-.21c-.23,0-.16.26-.41.15,0-.13-.32-.11-.17-.24-.56-.21-1.15.3-1.89-.06-.16.26-.53.1-.66.3,0-.12-.74,0-.32-.27,0,0,.1,0,.09,0l.05-.16c-.42-.3-.77.16-1.19.11.13.05.29,0,.18.15l-.39,0,.08-.13-.58-.08.08.16c-.28-.08-.38-.36-.7-.13-.14.13.27.22,0,.27a8.84,8.84,0,0,0-1.43-.34c0,.19-.09.18-.22.22l0-.16c-.51.22-.18-.36-.69-.18l-.1.22c-.46.31-.24-.33-.76.1.21,0,.1.35-.15.28l.06-.16c-.14,0-.18.1-.27.07.08-.08,0-.23-.16-.2l.14-.19-.39.28c-.29-.17-.76,0-.88-.18,0,0-.64-.11-.79.12.13-.14-.22-.2-.12-.38-.16.17-.65.31-.84.12l0,0c-.72-.18-1.23.25-1.88,0,0,.19-.31.08-.23.32-.64.23-1.17-.43-1.43.19l1.27,1.2C280.38,244.23,280.71,244.59,281,245Zm30.32-.82h0Z"/><polygon class="cls-1" points="286.54 242.1 286.54 242.1 286.58 241.99 286.54 242.1"/><path class="cls-1" d="M244,8.83l1.65.82C245.64,9.57,245.23,9.34,244,8.83Z"/><path class="cls-1" d="M38.37,100.2l.05-.45A1.82,1.82,0,0,0,38.37,100.2Z"/><path class="cls-1" d="M219.26,1.84l0,.11S219.33,1.89,219.26,1.84Z"/><polygon class="cls-1" points="219.13 179.24 219.13 179.24 218.59 179.75 219.13 179.24"/><polygon class="cls-1" points="145.91 106.32 145.91 106.32 145.91 106.34 145.91 106.32"/><path class="cls-1" d="M137.66,105.49h0l0,0Z"/><path class="cls-1" d="M195.69,111.43l-.12-.06c0,.07-.51,0-.83-.07-.25-.23.13-.31-.91-.63a20,20,0,0,0-3.43-1c.57.21.36.22.1.19a11.28,11.28,0,0,0-1.19-.46v-.2c.15.24-1.41-.25-1.62-.23-.25-.23.83.14,1,.08l-3.11-1c-1.15-.22.14.24-.44.23a22.22,22.22,0,0,1-3.06-.92l.3.27a19.73,19.73,0,0,1-4.13-1.39c-14.07-3-3.47.91-3.47.91,5.25,2.09,8.18,2.5,14.61,4.42,4.21,1.42,6,2.23,9.19,3.28v-.27c.66-.13.53-.24,0-.33v-.26c.06-.44.13-1,.2-1.78a14.36,14.36,0,0,1-2.63-.85Z"/><path class="cls-1" d="M138.06,107.09c-.06.11,0,.07.14,0-.06,0-.07.07.08.1a.17.17,0,0,1,.06-.08,0,0,0,0,1,0,0c.16-.08.12-.1,0-.09s0,0,0,0c.2.07.48-.14.55,0,.49-.17.81-.43,1.22-.6.06.07,0,.17-.13.23l.29-.11c0,.12-.15.11-.24.16.41.1.69-.38,1.15-.32l.06-.11h0s.06-.14.12-.17.06.23.26.17.45-.17.65-.28c-.12,0-.1-.06-.05-.11s.18.06.25,0l.05.14c-.08-.12.23-.21.25-.28.09.09-.13.13-.14.21l.62-.18c.19-.16-.08-.12,0-.26s.35-.23.6-.21l-.11-.1a1.16,1.16,0,0,1,.85-.18,6,6,0,0,0,.55-.42,1.32,1.32,0,0,0,.1.18c0,.07-.14,0-.18,0v0a.77.77,0,0,1-.19.23c0,.07.12.23,0,.26s0-.05-.08,0,0-.06-.08-.06a.13.13,0,0,1,0,.06v0c0,.06,0,.08,0,.07l0,0c-.12,0-.12.12-.23,0-.11.16-.1.35-.18.5a.15.15,0,0,1-.06-.17l-.07.1c-.07-.08,0-.09,0-.13-.21,0-.08.31-.3.3l0,.08h0a.16.16,0,0,1,0,.12c-.08,0-.14-.15-.2-.1s-.09.15-.11.24.07,0,.08.07-.11,0-.1,0l-.09-.09c.09.08,0,.16,0,.21s0-.1-.05-.16l-.16.17c0,.13.09.08.14.19s0,.17-.14.17l.1.07c0,.15-.11.2-.25.18-.1,1.34.7,1,.7,1,.45-.09.38-.46.66-.85.33-.24.56-.16.81-.51a3.07,3.07,0,0,0,.41-.47c0-.18.19-.18.17-.36l.1,0c0-.06,0-.11.07-.1v0c0-.08.08-.11.1-.18l0,0,.08-.09,0,0a.8.8,0,0,1,.35-.4l-.12,0c.38-.18.2-.34.6-.51h0c-.05-.16.11-.24.3-.34s.4-.23.31-.34.11,0,.15,0,.2-.25-.21-.18a.8.8,0,0,1,.37-.13c-.18,0-.18,0-.13-.08h0l.13-.16-.41.13c.2-.12.48-.15.49-.21l-.33.09c.12-.08.37-.19.64-.32.08-.06.16-.11.17-.16a9.35,9.35,0,0,0-1.47-.1,2.32,2.32,0,0,1-1.18-.22l0-.11c.08-.16-.38.2-.32,0l-.13.06s-.05-.07,0-.1c-.09,0-.1,0-.18.05l-.06-.11c-.38-.14-.54,0-.74,0-.22-.25-.72-.12-1,0s-.76-.54-1.19-.31c0,0-.05,0-.05,0l-.36-.08s-1.72-.31-.6,1.27l0,0c.19.12.31.15.47,0,0,.23.15,0,.19.12v0c.15-.16.23.18.36,0,0,0,0,.08,0,.08s.21,0,.2.08c.2,0,.47.1.63-.1v0c.09-.13.09,0,.18-.07a.08.08,0,0,1,0,0c.1-.13.23,0,.31,0v0c-.58.18-1.07.5-1.92.8a14.38,14.38,0,0,0-2.64.48c-.56.13-1.14.34-1.67.51a.9.9,0,0,1-.51.23c0,.61,0,1.22,0,1.86a3.84,3.84,0,0,1,.54-.15C137.81,107.34,137.78,107.1,138.06,107.09Zm7.51-2.83c.12,0,.32-.06.25,0l-.18,0s.1,0,.06,0l-.15,0Zm0,0h0Zm-.27.25,0,0c0,.06,0,0-.09,0h0Zm-.64-1.14c.07-.1-.07.18,0,.1s0,0,0,0l-.21,0C144.5,103.46,144.57,103.35,144.62,103.42Z"/><path class="cls-1" d="M195.17,111.17l.4.2S195.48,111.27,195.17,111.17Z"/><path class="cls-1" d="M142.47,93.3s.12-.07.11-.09l1-.23s.3-.07.69-.19c0,.09-.09.17-.12.25-.11.44-.9.24-1,.72,0,0,0,.06,0,.07l-.29.23s-1.34,1.13.6,1.28l0,0c.2-.06.31-.13.29-.36.17.15.13-.09.22-.07v0c0-.21.28-.06.26-.26,0,0,.05.07,0,.09s.1-.19.19-.1c.13-.16.38-.31.33-.55l0,0c0-.15.06-.08.07-.19l0,0c0-.16.16-.17.16-.26l.07.06.1-.12,0,0c-.15-.19.19,0,.17-.16s-.18-.52,0-.51c0-.12.08.17.09,0,.08.09,0,.08.1.14,0-.09.19,0,.2-.12l.07.08c0-.12,0-.12.13-.15s.17-.06.15-.16.35.07.35-.18h.19c.1,0-.11-.12,0-.16s.18-.07.21,0c.36-.15.15-.39.7-.58-.18-.06.08-.17-.06-.2.11,0,.25-.22.36-.11s0,0-.06,0H148c.45-.16.11-.24.29-.37-.1.05-.14.1-.22.08l.16-.12h.12l.29-.2-.22.06c.19-.1.57-.21.4-.25h0l-.11,0c-.11,0-.21.09-.2,0h0a.39.39,0,0,0-.25-.29.51.51,0,0,1-.32,0l.16-.06c-.45,0,.25-.15-.16-.15l-.25.07c-.47.07.17-.17-.42,0,.11,0-.24.16-.28.1l.14-.06c-.08,0-.14,0-.16,0s.19-.09.08-.11l.2-.06-.37.08c0-.12-.35-.07-.28-.19s-.24-.14-.41,0c.13-.06,0-.14.11-.22-.15.07-.41.09-.44,0h0a.84.84,0,0,0-.46-.1c-.08,0-.16,0-.22-.07,0,.12-.1,0-.12.18-.2.09-.22-.37-.4,0-.09,0-.07-.13-.1-.16l0,0a.78.78,0,0,1-.3,0c-.07,0-.13.23-.22.15.06-.07,0-.07,0-.08s0,0,0-.1l0,0v0c-.06,0-.06,0,0,0v.06c0-.12-.18,0-.14-.18-.19,0-.36.09-.52.1a.16.16,0,0,1,.1-.15h-.11c0-.1.08,0,.12,0-.08-.2-.31.09-.41-.1l-.06.07v0s-.06.1-.09.1.06-.2,0-.22-.18,0-.27,0,0,.07,0,.1,0-.1-.08-.07l0-.13c0,.12-.13.1-.15.15s.07-.07.1-.13l-.22,0c-.1.06,0,.11-.09.21s-.16.07-.22,0v.12a.19.19,0,0,1-.28-.12c-1.2.61-.53,1.14-.53,1.14.31.34.59.08,1.07.12s.43.41.86.44a1.7,1.7,0,0,0,.45.08,1.46,1.46,0,0,0-.33.22c-.12-.23-.45.09-.6,0v0c-.28.28-.72,0-1,.27a.11.11,0,0,1,.06-.12c-.22.09-.52.23-.58.09-.54.18-1.33.31-1.62.64v0c-.16.21-.26.09-.46.23,0,0,0,0,0,0-.18.21-.63.19-.79.3l0-.09-.43.13.17,0c0,.28-.37-.08-.65.17,0,.52,0,1.12,0,1.6a11.34,11.34,0,0,0,1.86-.7C140.06,93.47,141.47,93.89,142.47,93.3Zm3.1-1.79.25-.13c0,.05-.32.15-.21.13l.24-.09s-.08.07-.2.13l-.09,0Zm-.06,0Zm-.08,0h0Z"/><polygon class="cls-1" points="219.82 74.95 219.82 74.95 219.82 74.95 219.82 74.95"/><path class="cls-1" d="M220.16,74.88l-.23.1c-.11,0,.19-.08.21-.13l-.26.12h0l.09,0C220.08,75,220.18,74.9,220.16,74.88Z"/><path class="cls-1" d="M199.17,92.61l-.13.12s-.15,0-.08-.09c-.14,0-.14.06-.22.14l-.18-.08c-.57.06-1,.4-1.57.51a7.23,7.23,0,0,0-2.71.84c-1,.55-2.41.14-3.4.74,0,0-.12.07-.11.09l-1,.23s-4.81,1.2-.76,1.78l0,0a1.8,1.8,0,0,0,1.24-.41c.12.23.45-.1.6,0v0c.28-.27.72,0,1-.27,0,0,0,.09-.06.11.22-.09.52-.23.58-.09A4.57,4.57,0,0,0,194,95.6v0c.16-.21.26-.09.46-.23l0,0c.18-.21.63-.19.79-.31l0,.1.43-.14-.17,0c0-.28.38.08.65-.18.31,0,.46-.71.8-.66.12-.16-.08.24.12.08,0,.14-.08.12,0,.21.19-.12.39,0,.63-.12l0,.11c.3-.29.69,0,.88-.28s.32.2.6,0c0-.55,0-1.1,0-1.64C199.23,92.64,199.2,92.65,199.17,92.61Z"/><polygon class="cls-1" points="147.87 90.52 147.87 90.52 147.99 90.48 147.87 90.52"/><path class="cls-1" d="M195.68,82.44h0Z"/><path class="cls-1" d="M199.29,79.29c-.54,0-.83.4-1.33.37.06.12-.2.11-.1.26-.44.28-1-.1-1,.43-.21.09-.29,0-.4,0l0,0a4.69,4.69,0,0,1-.82.24c-.13.09-.1.33-.38.34.06-.11,0-.07-.15,0,.07,0,.08-.07-.07-.1a.17.17,0,0,1-.06.08s0,0,0,0c-.16.08-.12.1,0,.09s0,0,0,0c-.21-.07-.49.13-.55,0-.49.17-.81.42-1.22.59-.07-.07,0-.16.13-.23l-.29.11c0-.12.15-.11.24-.16-.41-.09-.69.38-1.15.31l-.06.12h0s-.06.14-.12.17-.06-.23-.26-.17-.45.16-.65.27c.12,0,.09.06,0,.1s-.19,0-.25,0l0-.13c.07.12-.23.21-.26.27s.14-.13.15-.21l-.62.18c-.19.16.07.12,0,.27s-.35.22-.6.19l.1.1a1.1,1.1,0,0,1-.84.18c-2.48,1.69-.23,1.49-.23,1.49,1.14,0,1.61-.5,2.86-.93A15.21,15.21,0,0,0,194,83c.56-.13,1.14-.34,1.68-.5.21-.25.71-.19,1-.42l.14.07a.38.38,0,0,1,.33-.12v0c.14-.11.33-.11.39-.17v0l.19-.06,0,0a1.84,1.84,0,0,1,.79-.26l0-.12a3.69,3.69,0,0,0,1-.25c0-.65,0-1.29,0-1.9a.23.23,0,0,1-.12,0Z"/><polygon class="cls-1" points="219.75 74.92 219.74 74.92 219.74 74.92 219.75 74.92"/><path class="cls-1" d="M273.05,138.52l-.23-.26c-6.31-2.48-13.94-4.28-20.83-6.6-1.61-.7-2.5-1.38-4.21-2l-.06.23c-1.21-.31-.2-.27-1.42-.75l.37.42-2.36-.7.4.06c-.82-.25-1.75-.48-1.8-.33-.09-.18.14-.22-.91-.56-.13.33-1.68-.14-3.13-.55,0,0-.5-.24-.09-.17-3.26-.58-4.78-1.9-8-2.42l.05,0c-2.33-1-3.41-1-6-2l0,.2a35.58,35.58,0,0,0-4-1.22h.18l-1-.28,0,0c-.41-.07-1.27-.42-2.09-.56l0,0a6.29,6.29,0,0,0-1.69-.49l-.54-.33c-1.59-.28-3.79-1.26-5.16-1.43h0l-.13,0h.11c-2.72-.83-5.71-1.71-8.48-2.62-1.44-.43-2.61-.8-3.64-1.15v.17h-.21c0,.08-.08.07-.11,0h-4.19c-1.05.07-2.27.15-3.74.23a41.82,41.82,0,0,0-5.23,0l.44.11c-1.4-.08-2.6,0-3.83,0-.66.11,1,.14-.41.23l-3.91,0c.17-.07,1.54-.06,1.17-.15s-2.19.06-1.93.18l-.07-.13c-.5,0-.87,0-1.52,0-.31,0-.55.09.18.1a39.66,39.66,0,0,1-4.26.1c-1.3,0-.91-.12-1.28-.21a3.28,3.28,0,0,0-1,.12l.53,0a1.5,1.5,0,0,1-.53,0h-.15l-.55.08c-2.62-.16-5,.2-7.23,0a7.06,7.06,0,0,0,1.65-.09l-1.87,0c.76,0,1.38-.1,1.09-.17-2.65,0-4.93.21-8.11.24-.13-.15-2.1,0-3.2-.14.16,0,.2,0,.17.06.49,0,.68,0-.38.07,0,0,0,0,0,0a4.24,4.24,0,0,0-.47.06c-.83-.06-.71-.09-.3-.1-.64,0-1.33,0-.78-.07a15.05,15.05,0,0,0-2.79.21c-1.9,0-2.64,0-5.19,0l.32,0c-.35,0-.59-.06-.91-.09a13.84,13.84,0,0,0-1.72,0,6.47,6.47,0,0,1-.93.15,17.84,17.84,0,0,1-.08-1.82c0-.45,0-.9,0-1.42,0-1,.09-2.22,0-3.51-.15.38-.09-1.15-.21-1,0-.16,0-.32,0-.48l-.28.1,0,0c-.11,0-.19-.13-.4,0,0,.54-.56.16-1,.44.11.15-.16.14-.1.26-.5,0-.79.36-1.33.37l0,0c-.17-.08-.49.1-.58.25,0-.14-.22-.11-.15-.23-.07.18-.54.23-.54.23s-.42.11-.66,0l-.22.26.06-.15c-.14.06-.19,0-.15-.1s-.09,0-.18.09l0-.11c-.19,0-.2.27-.06.22-.29.38-.25-.09-.53.21l0,.25v-.09c-.33.22-.2-.23-.53,0l0-.11c-.09,0-.18.07-.12.19a6.69,6.69,0,0,1-1.07.05c-.21.09.1.07,0,.19s-.3,0-.52,0l.08.1-.42,0,0-.1-.28.06c-.06.09.06,0,.16.06-.31,0-.48.43-.83.31v-.12s.05,0,.07,0c.25-.25-.25,0-.28-.12,0,.16-.35.12-.41.33-.6-.1-.92.36-1.36.32.08-.11-.15,0-.16-.13-.2,0-.1.17-.26.19l-.19-.11c-.31.31-.3-.13-.64,0-.18.25-.58,0-.88.29l0-.11c-.24.16-.43,0-.63.12-.08-.1,0-.08,0-.21-.19.15,0-.25-.11-.08-.35,0-.5.61-.8.66-.28.25-.67-.1-.65.18l.17,0-.44.14,0-.09c-.16.11-.62.09-.8.31,0,0,0,0,0,0-.21.14-.3,0-.46.23v-.05c-.29.33-1.08.46-1.63.65-.05-.14-.36,0-.58.09.07,0,.06-.09.07-.12-.27.26-.72,0-1,.28v0c-.15-.05-.47.28-.6,0a1.82,1.82,0,0,1-1.23.42v0c-4-.57.77-1.77.77-1.77l1-.23s.07-.11.11-.09c1-.61,2.42-.19,3.4-.75a7.44,7.44,0,0,1,2.72-.83c.59-.11,1-.46,1.56-.51l.18.08c.09-.09.08-.12.22-.15-.06.06,0,.08.09.1l.13-.13c.09.16.3-.39.37-.21l.09.11c1.37,0,2.75-.87,4.15-1.16.37,0,.64.24,1,.18l-.05-.17c.23-.11.09.13.36.12l-.15-.18.46-.16-.06.06c.16,0,.33-.14.3-.25.05.09,0,.17.24.12-.06-.25.25-.35.52-.46,0,0,.12,0,.06.09.54-.48,1,0,1.56-.51v0c.52,0,.65-.27,1.22-.27l-.06-.12a2.09,2.09,0,0,0,.8-.26l0,.05.18-.07v0c.07-.06.26-.06.4-.18v0a.36.36,0,0,0,.32-.12l.15.07a1.18,1.18,0,0,1,.47-.2c0-1.92-.14-3.75,0-6.07v.17A21.52,21.52,0,0,0,137,96c.11.45.15-1.12.24-.55a5.18,5.18,0,0,1-.07-.76,2.72,2.72,0,0,1-.85.11c-.59.11-1,.45-1.57.5l-.18-.08c-.08.09-.08.12-.22.15.06-.06,0-.08-.08-.1l-.13.12c-.1-.15-.31.39-.38.21l-.09-.11c-1.37,0-2.74.85-4.15,1.13-.36,0-.63-.24-1-.18l.05.17c-.22.11-.09-.13-.35-.13l.14.18-.46.16.07-.06c-.16,0-.34.14-.31.25,0-.09,0-.17-.24-.12.06.25-.24.34-.52.45,0,0-.12,0,0-.08-.55.47-1,0-1.57.49v0c-.52,0-.65.27-1.22.27l.06.12a1.83,1.83,0,0,0-.79.25l0,0-.19.06v0c-.07.06-.26.06-.4.18v0a.36.36,0,0,0-.32.12l-.15-.08c-.26.24-.77.17-1,.42h0l0,0s0,0,0,0c-.53.17-1.11.38-1.67.5a14.35,14.35,0,0,1-2.64.47c-1.26.42-1.72.92-2.86.93,0,0-2.25.19.22-1.5a1.11,1.11,0,0,0,.85-.17l-.1-.1a1.16,1.16,0,0,0,.59-.2c.08-.15-.19-.1,0-.26l.61-.18c0,.08-.23.12-.14.21,0-.07.33-.16.26-.28l0,.14c.07-.07.16,0,.26,0s.06-.11-.06-.1c.2-.11.46-.33.65-.28s.18.09.26.18.14-.13.12-.17h0l.07-.11c.46.06.74-.41,1.14-.31-.08.05-.27,0-.24.16l.29-.11c-.11.06-.19.16-.12.23a11.64,11.64,0,0,1,1.22-.59c.06.15.34-.06.54,0a.05.05,0,0,1,0,0c-.08,0-.11,0,0-.08v0a.16.16,0,0,0,.06-.08c.15,0,.14.06.08.09.1,0,.21-.07.14,0,.29,0,.25-.25.39-.34a5.13,5.13,0,0,0,.82-.25l0,0c.12,0,.2.13.41,0,0-.54.56-.16,1-.44-.1-.14.16-.14.11-.26.5,0,.78-.35,1.33-.36l0,0c.17.09.49-.1.58-.24,0,.14.22.11.15.23.06-.18.53-.23.53-.23s.42-.1.66,0l.23-.27-.07.16c.14-.06.2,0,.15.1s.09,0,.19-.09l0,.12c.19,0,.2-.28.06-.22.29-.39.25.09.52-.21l0-.17c.33-.21.2.24.52,0l0,.11c.09,0,.19-.07.12-.19a6.78,6.78,0,0,1,1.08,0c.2-.09-.11-.07,0-.19s.31,0,.53,0l-.09-.1.43,0,0,.1.28,0c.06-.1-.05-.06-.15-.07.31,0,.47-.42.83-.3v.12s0,0-.07,0c-.26.24.24,0,.28.12.05-.16.34-.12.41-.33.59.11.91-.35,1.35-.31-.08.12.15,0,.16.13.2,0,.1-.16.27-.18l.18.11c.32-.31.31.13.64,0s.58,0,.88-.28l0,.11c.24-.16.43,0,.63-.11.09.09,0,.07,0,.21.19-.16,0,.24.11.08.35,0,.5-.61.81-.66h0c0-.63,0-1.14,0-1.14.14-.54,0-2.64.11-4l-.18-1.71.12.61c0-.91.07-1.08.13-.71,0-.41,0-.62,0-1.24l.1.29c0-1.12-.2-1.6-.19-.69-.27-2.29.14-1.34-.06-3.4l-.14-.41h0l-.08-.2.08.2c-.12-2.28.25-.82.11-3.12l.1-.07c0-.6,0-1.19-.14-1,0-1.5.08-3.16.11-4.69l2.22.06,1.2,0c1.34,0-.51-.09.14-.18a15.45,15.45,0,0,1,3.15.09l-.36-.11,2.6,0-.37.09h1.75c.49-.07-.25-.06-.81-.09,1.88,0,3.43-.27,5.33-.08l-.23.1s-.27,0-.43,0c-1.88.16,1.39.1,1.48.18.54-.13,2.21,0,2.93-.2,3.33.23,5.93-.1,8.45,0-.65.08.82.06.76.15,1.11.07.83-.13,1.83-.1l.92.13c2.35-.2,1.6.19,3.86.11,1.46-.18,3.4.14,5.59,0l.06.11c1.68-.09,2.55.1,3.91,0,.36.11-.33.06-.29.19,1.39-.09-.35.22.57.1,1.95.12,3.87-.43,5.74-.4,2-.16,3.73.25,4.09,0l-1,0,2.75,0,.08.1c.56,0,1.5,0,2.48,0s1.81,0,3.12-.07h0s.12,0,.22,0h.24c.06,2.12-.05,2.23.09,3.5l0-.15c.09.92.14,2.29.16,3.83a.67.67,0,0,0,.46-.26c0,.14.22.11.15.24.07-.19.54-.24.54-.24s.42-.1.66,0l.22-.26-.06.15c.14,0,.19,0,.15.11s.09,0,.18-.1l0,.12c.19,0,.2-.27.06-.22.29-.38.25.09.53-.21l0-.16c.33-.22.2.23.53,0l0,.1c.09,0,.18-.07.12-.18a6.69,6.69,0,0,1,1.07-.05c.21-.08-.1-.07,0-.18s.31,0,.52,0l-.08-.09.42-.06,0,.11.28-.06c.06-.09-.06,0-.15-.06.3-.05.47-.42.82-.3v.11s0,0-.07,0c-.26.25.25.05.28.12.05-.15.35-.12.41-.32.6.1.92-.35,1.36-.31-.08.11.15,0,.16.13.19,0,.1-.17.26-.18l.19.1c.32-.3.3.13.64,0,.18-.24.58,0,.87-.27l0,.1c.25-.16.44,0,.64-.11.08.1,0,.07,0,.21.2-.15,0,.24.12.08.34.05.5-.61.8-.65.28-.26.66.1.65-.18l-.17,0,.43-.14,0,.09c.16-.11.62-.09.8-.3l0,0c.21-.14.3,0,.46-.23v0a4.82,4.82,0,0,1,1.63-.64c.05.14.36,0,.58-.08-.07,0-.06.09-.07.11.27-.25.71,0,1-.27v0c.15,0,.47-.28.6,0a1.08,1.08,0,0,1,.32-.22,2.15,2.15,0,0,1-.44-.09c-.44,0-.49-.27-.87-.43s-.76.21-1.07-.13c0,0-.67-.53.54-1.14,0,.14.13.17.28.12v-.11c.06.09.15,0,.23,0s0-.14.08-.21l.23,0c0,.07-.1,0-.11.13s.14,0,.16-.14l0,.12s0,.06.07.07a.07.07,0,0,0,0-.1c.09,0,.23-.12.26,0s0,.12,0,.22a.21.21,0,0,0,.08-.1h0l.05-.07c.11.19.33-.1.41.1,0,0-.08-.05-.11,0h.11a.17.17,0,0,0-.11.14c.17,0,.33-.12.52-.1,0,.14.11.06.14.18a.07.07,0,0,1,0-.05s0,0,0-.06,0,0,0,0a.07.07,0,0,0,0,0c0,.07,0,.1,0,.11s.08,0,0,.07.15-.12.21-.15a.65.65,0,0,0,.3,0l0,0s0,.16.09.16c.18-.42.2,0,.41,0,0-.14.09-.06.11-.17.06.09.14.07.23.06a.75.75,0,0,1,.45.11h0c0,.12.29.1.45,0-.12.08,0,.15-.11.21a.48.48,0,0,1,.41,0c-.07.12.25.08.27.19l.37-.08-.2.07c.11,0,0,.08-.07.11s.08,0,.16,0l-.15.06s.4-.09.29-.11c.58-.11-.06.13.42.06l.24-.08h0l.12,0-.12,0c.41,0-.29.18.16.16l-.15.06a.57.57,0,0,0,.31,0,.42.42,0,0,1,.26.28h0s.1,0,.2-.05a.33.33,0,0,1,.12,0h0c.18,0-.21.15-.4.25l.22-.06-.29.2h-.12l-.15.12c.08,0,.12,0,.22-.07-.18.12.16.2-.3.36h-.13s.07,0,.06,0-.26.1-.37.11c.15,0-.12.14.06.2-.54.2-.33.44-.69.58,0-.07-.13,0-.21,0s.06.1,0,.16h-.19c0,.26-.27,0-.35.18s-.06.13-.15.16-.13,0-.12.15l-.07-.07c0,.13-.18,0-.2.12-.08-.06,0,0-.11-.15,0,.12-.13-.17-.09-.05-.16,0,.11.46,0,.51,0,.2-.32,0-.17.17l.06,0-.11.12-.06-.06c0,.09-.2.11-.17.26h0c0,.11-.11,0-.07.19v0c0,.25-.21.39-.34.55-.09-.09-.14,0-.18.1s0-.07,0-.08c0,.19-.29,0-.26.25v0c-.08,0-.05.23-.22.07,0,.23-.08.3-.29.37l0,0c-1.93-.15-.59-1.28-.59-1.28l.28-.22s0-.08,0-.07c.1-.48.89-.28,1-.73a2.72,2.72,0,0,1,.12-.25l-.7.2-1,.23s-.07.1-.11.08c-1,.6-2.42.18-3.4.72a7.29,7.29,0,0,1-2.72.82c-.59.1-1,.44-1.56.5l-.18-.08c-.09.08-.08.11-.22.14.06-.06,0-.07-.09-.09l-.13.12c-.09-.16-.3.38-.38.21L208,79c-1.36,0-2.74.85-4.14,1.14-.37,0-.64-.24-1-.19l.05.17c-.23.11-.09-.13-.36-.12l.15.18-.46.16.06-.07c-.16,0-.33.15-.3.25-.05-.08,0-.17-.24-.12.05.25-.25.35-.53.46,0,0-.12,0,0-.09-.54.48-1,0-1.56.5v0l-.25,0c0,1.66,0,3.37,0,4.84a20.2,20.2,0,0,0-.06,3.56,1.12,1.12,0,0,0-.09-.58,30.24,30.24,0,0,1,0,3.56c.1-.09.22-.34.28-.21l.09.11c1.37-.05,2.74-.87,4.15-1.17.36,0,.63.24,1,.18l-.05-.16c.22-.12.09.12.35.12l-.14-.18.46-.16-.07.06c.16,0,.34-.15.31-.25.05.08,0,.17.24.12-.06-.25.24-.35.52-.46,0,0,.12,0,0,.08.54-.48,1,0,1.56-.51v0c.53,0,.65-.28,1.22-.28l0-.12a1.72,1.72,0,0,0,.79-.26l0,0,.19-.06v0c.07-.06.26-.06.39-.18v0a.38.38,0,0,0,.33-.12l.15.07c.26-.23.76-.17,1-.42h0l0,0s0,0,0,0c.54-.17,1.12-.39,1.68-.51A14.41,14.41,0,0,1,216.3,88c.86-.3,1.35-.62,1.95-.81,0-.08,0,0,0-.16-.09.07.05-.21,0-.1-.1-.14-.28.38-.38.33-.14.14-.18-.26-.24,0l.06,0h-.16v-.09c-.07.05-.2-.09-.3,0s0,0,0,0-.09-.07-.19.06l0,0c-.16.19-.43.09-.64.1,0-.14-.11-.1-.19-.09s0-.06,0-.07c-.14.13-.22-.2-.36,0v0c0-.08-.21.1-.2-.13-.16.17-.28.13-.46,0v0c-1.11-1.59.61-1.27.61-1.27l.35.07s0-.07,0,0c.44-.24.78.5,1.2.3s.79-.2,1,.05c.2.07.35-.12.74,0l0,.11c.08,0,.1-.06.18,0s0,.06,0,.1l.13-.06c-.07.15.4-.21.31,0l0,.11a2.31,2.31,0,0,0,1.17.21,9.18,9.18,0,0,1,1.47.11s-.08.1-.16.15a5.28,5.28,0,0,0-.64.32l.32-.09c0,.07-.29.1-.49.21L222,87l-.13.17,0,0c-.06.06-.06.12.13.08-.18.05-.28.05-.37.14.4-.08.29.05.21.17s-.13.06-.16,0-.12.24-.31.34-.35.19-.3.35h0c-.39.16-.22.32-.6.5l.12,0a.89.89,0,0,0-.35.39v0l-.08.1,0,0c0,.08-.12.1-.1.19l0,0c-.06,0-.07,0-.07.11l-.09,0c0,.18-.22.17-.17.36h0a3,3,0,0,1-.41.46c-.25.36-.48.28-.82.52s-.2.75-.66.84c0,0-.8.3-.69-1,.14,0,.21,0,.25-.18l-.1-.06c.11,0,.1-.11.14-.18s-.13-.06-.14-.18l.15-.17c0,.06,0,.1.06.15s0-.13-.05-.2l.09.09s.08,0,.1,0,0-.08-.07-.06,0-.27.11-.24.12,0,.2.1a.24.24,0,0,0,0-.13h0l0-.09c.22,0,.08-.33.29-.29,0,0-.08,0,0,.12l.06-.09a.16.16,0,0,0,.07.16,2.67,2.67,0,0,1,.18-.49c.1.1.11-.06.23,0s0,0,0,0-.06,0,0-.06a0,0,0,0,1,0,0,.07.07,0,0,0,0-.06c.08,0,.09,0,.08.06s.05-.06.08,0,0-.14,0-.22a1.62,1.62,0,0,0-.45.19l.1.1a1.23,1.23,0,0,0-.6.2c-.07.15.2.1,0,.27l-.61.18c0-.08.22-.13.14-.21s-.33.15-.26.27l0-.13c-.07.06-.16,0-.26,0s-.06.11.06.1c-.2.11-.46.34-.65.28s-.18-.08-.27-.17-.13.12-.12.17h0l-.07.12c-.46-.06-.74.41-1.14.32.08,0,.27,0,.24-.16l-.29.11c.11-.07.19-.17.12-.23-.4.17-.72.43-1.22.6-.06-.15-.34,0-.55,0,0,0,.05,0,.05.05s.11,0-.05.09v0a.22.22,0,0,0-.05.08c-.15,0-.14-.06-.08-.1-.1,0-.21.08-.14,0-.29,0-.25.25-.39.34a6.42,6.42,0,0,0-.82.25l.05,0c-.12,0-.2-.12-.41,0,0,.54-.56.16-1,.45.1.14-.16.14-.11.26-.5,0-.78.36-1.33.37l0,0c-.17-.09-.49.1-.57.24,0-.13-.22-.11-.16-.23-.06.19-.53.24-.53.24s-.42.1-.66,0l-.23.26.07-.16c-.14.06-.2,0-.15-.1s-.09,0-.19.1l0-.12c-.19,0-.2.28-.06.22-.29.39-.25-.09-.52.21l0,.25V93c-.33.21-.2-.23-.52,0l0-.1c-.09,0-.19.07-.12.18a5.8,5.8,0,0,1-1.08,0c-.2.09.11.08,0,.19s-.31,0-.53,0l.09.09-.43.06,0-.11-.28.06c-.06.1,0,.06.15.07-.31,0-.47.42-.82.3v-.11s.05,0,.08,0c.25-.25-.25,0-.29-.12,0,.15-.34.12-.41.33-.59-.11-.91.35-1.35.31.08-.11-.15,0-.16-.12-.2,0-.1.16-.27.18l-.18-.11,0,0c0,.36,0,.72,0,1.07v-.07c-.08.79.13,3.22-.11,3.59a66.14,66.14,0,0,1,.08,7.89l0-.16c-.17,2.51-.31,4.38-.43,5.72a15.8,15.8,0,0,1,3.12,1c-.47-.12-1.29-.46-1.36-.3l1.51.44c-.62-.16-1.15-.22-.95,0,2.13.59,4,1,6.55,1.71,0,.25,1.65.58,2.47,1-.1-.07-.13-.11-.1-.12-.39-.14-.52-.23.33,0,0,0,0,0,0,0a1.46,1.46,0,0,0,.4,0c.63.3.52.31.19.23.5.16,1.06.31.59.3a8.12,8.12,0,0,0,2.31.41c1.5.49,2.09.68,4.13,1.27l-.27,0a9.66,9.66,0,0,0,1.78.78c1.08-.4,2.82.89,5.27,1.44-.23-.32.95.17.9,0,2.23.94,4.18,1.13,6.69,2.12l-.14,0a10.28,10.28,0,0,0,3,.85c-.4,0,.83.49.33.48a13.62,13.62,0,0,1,2.81.77c.37.34,2.1.69,3.1,1.18l1.44.17-.53,0c.72.2.82.38.5.36a6.54,6.54,0,0,0,1,.25l-.27.07c.87.35,1.36.12.63-.08,1.95.19,1,.54,2.73.77l.39-.1h0l.19-.05-.19.05c1.86.42.53.58,2.43,1v.16c.48.12.94.28.84.06,1.7.59,3.68,1.4,5,1.93,1.08.3-.36-.26.19-.21a7.36,7.36,0,0,1,2.46.92l-.23-.24,2,.73-.33,0,1.38.47c.42,0-.17-.15-.6-.34,1.48.52,2.85.49,4.26,1.25l-.22.08s-.2-.11-.33-.13c-1.57-.25,1.05.49,1.09.62.48,0,1.77.53,2.42.47,2.53,1.18,4.75,1.37,6.69,2.21-.56,0,.62.3.53.41.85.38.71,0,1.5.32l.48.31q.69-.83,1.32-1.65c.78-1,1.54-2,2.25-2.93l2-2.95c.68-1,1.31-2,1.92-3l1.89-3c1.17-2.07,2.51-4.09,3.76-6.34-.29.12.24-1,.7-2s.79-2,.3-1.49c2.05-4.86,3.9-9.3,5.2-13.08a46.62,46.62,0,0,0,1.35-5.13,11,11,0,0,0,0-3.8c.23-1.18.34-2.13.47-2.92s.26-1.41.39-2a19.45,19.45,0,0,0,.55-3.19l0,1.16c.09-2.27.21-4.13.12-5.76s0-3-.19-4.33-.19-2.56-.36-3.88-.41-2.73-.66-4.4c-.94-3.25-1.61-3.61-3.27-9.34.45.87.45.74.29.11s-.65-1.71-1.05-2.75c.56,1.32.83,1.7-.06-1.13-.23-.35-.52-.93-.83-1.45,0,0,0-.14,0-.1-1.69-3.35-1.5-2.71-.79-1.13-.08-.06-.07.1.08.62-.33-.91-.77-2-1.28-3.08l-1.73-3.14c-.52-1-1.12-1.85-1.5-2.52a3.11,3.11,0,0,1-.58-1.32c-.76-1.19-1.62-2.24-2.43-3.28a38,38,0,0,0-2.45-2.93c-.49-.52-1-1-1.43-1.55a4,4,0,0,0-1.36-.59v.28c-.43.08-.09-.23-.54-.33l.16.34-.85,0,.14-.07c-.3,0-.63.08-.63.26-.05-.16,0-.28-.36-.28,0,.4-.57.43-1.09.49,0-.06-.19-.1-.05-.16-1.14.51-1.77-.41-2.87.13v-.05c-.87-.28-1.23.14-2.19-.09l0,.2a3.64,3.64,0,0,0-1.46.08l.06-.07-.35,0v0c-.14.06-.46,0-.75.11l0,0a.73.73,0,0,0-.61,0l-.21-.17c-.56.25-1.38-.06-1.85.24h0l-.05,0,0,0c-1,0-2.06.12-3.07.09-2.12.14-2.65-.25-4.69-.36-2.32.14-3.33.71-5.28.26,0,0-3.9-.62,1.06-2.21a2.16,2.16,0,0,0,1.51.08l-.13-.2a2.29,2.29,0,0,0,1.11-.06c.19-.2-.28-.24.12-.41l1.12,0c0,.12-.44.1-.34.26.07-.09.64-.1.56-.31l0,.22c.15-.07.25.1.44.09s.16-.15-.05-.18c.39-.08.94-.32,1.23-.16.37,0,.26.21.36.38.12,0,.29-.14.29-.22l-.16-.08c.12,0,.15,0,.16.08l0,0,.16-.15c.75.29,1.44-.33,2.08,0-.16,0-.47-.05-.47.14l.54,0c-.22.05-.4.16-.32.3.77-.1,1.42-.36,2.34-.41,0,.25.61.05.92.25a.17.17,0,0,1-.05-.1c-.14,0-.19-.07.11-.12,0,0,0,0,0,0a.33.33,0,0,0,.14-.1c.24.1.2.16.08.18.18,0,.38,0,.23.13.48.09.53-.29.8-.37a8.77,8.77,0,0,0,1.5,0l-.1,0c.21,0,.28.28.67.24.32-.81,1,0,1.89-.27-.11-.26.33-.15.29-.36.84.26,1.5-.22,2.43,0l-.05,0a1.12,1.12,0,0,0,1.09-.13c-.13.19.32.26.16.42.19-.27,1-.14,1-.14.15.24.76,0,1.14.2l.5-.31-.18.21c.26,0,.31.13.2.22.12,0,.18,0,.36-.07l-.08.17a.24.24,0,0,0,.32-.24l0,0a.15.15,0,0,0-.08,0l0,0-.76-.72c-.81-.8-1.69-1.5-2.54-2.22s-1.69-1.46-2.58-2.11c-1.79-1.33-3.53-2.71-5.47-4-.34-.41,0-.35.63,0a19.38,19.38,0,0,1,2.78,1.8c-.85-.69-1.75-1.32-2.66-1.94L265,19.85c.25-.28,3.22,2,4.88,3.17a48.27,48.27,0,0,0-4.76-3.65l-2.63-1.6c-.89-.53-1.79-1.06-2.73-1.52-1.87-1-3.76-2-5.75-2.91-1-.47-2-1-3-1.47s-2-1-3.05-1.5c-.62-.16-1.23-.35-1.86-.48l-.49-.24a13.07,13.07,0,0,1-3.29-.83c-1.09-.77.37-.74-3.93-2.17a41.72,41.72,0,0,0-6.71-2.07c-1.29-.35-2.66-.56-4-.83s-2.57-.52-3.73-.69c1.23.27,1.63.44,1.59.5a3.43,3.43,0,0,1-1.06,0c-2.2-.43-3.41-1-5.14-1.22L219.29,2c-.35.28-6-.63-6.77-.51-.61-.24.27-.22,1.37-.13a16.76,16.76,0,0,0,2.72.2l-2.77-.43L212,.86l-2.1-.25L207.78.37,203.14,0c-4.83,0,.84.47-1.48.69-2.12,0-4.21,0-6.38-.08s-4.41,0-6.84-.09c.51.11,1,.24,1.54.38-4,.22-7.13.36-10,.57l-4.08.19c-1.32.08-2.62.13-4,.17-4.89.83-9,1.71-12.43,2.58Q152,5.78,144.31,7.82c-1.2.32-2.39.65-3.58,1-1.09.16-2.42.39-4,.7a145.62,145.62,0,0,0-20.8,6.1l.43-.34-3.9,1.64-3.53,1.65c-2.26,1-4.28,2.13-6.19,3.18S99.06,23.9,97.34,25s-3.32,2.29-5,3.51c-1.59-.07-8.08,5.39-10.4,6.9l.17-.21C80,37.11,77.71,39,75.42,40.8v0c.13,0,.24.08.26-.07a8.18,8.18,0,0,1,1.12.85c.28.08,0-.16.13-.19.36,0,.34.21.56.39v-.15l.47.3-.11.06.32.18c.14,0,0-.09-.1-.18.35.21.81,0,1.07.41l-.1.1s0-.06-.07-.06c-.45,0,.21.24.19.33.17-.09.44.18.68,0,.51.58,1.2.45,1.61.84-.18,0,.12.16.06.25.17.18.23-.07.41,0l.1.25c.57,0,.2.37.69.48.38-.07.57.49,1.1.48l0,.13c.37,0,.43.36.73.42,0,.15-.1,0-.17.19.32,0-.19.22.06.17.3.32,1-.14,1.33.07.48,0,.58.64.79.38l-.18-.12.54.24,0,.11c.25,0,.7.43,1,.39,0,0,0,0,0,.05.32,0,.32.23.65.18l0,0a6.46,6.46,0,0,1,2.15.77c-.06.17.36.3.65.4-.09,0-.13,0-.16.05.48,0,.72.59,1.22.57l0,0c.11.16.69.15.63.46a2.51,2.51,0,0,1,1.57.65l-.05,0a8.39,8.39,0,0,1,.73.87l0-.05c-.28-.08.1-.22-.07-.34s0-.32-.28-.39l.09-.06c-.15-.08,0-.24-.12-.31.08-.08.06,0,.18-.07-.14-.06.21-.09.07-.1,0-.2-.55-.07-.6-.22-.23-.07.06-.4-.18-.3l0,.09-.13-.2.07,0c-.1-.05-.1-.31-.29-.34,0,0,0,0,0,0s0-.16-.22-.17h0c-.29-.06-.43-.45-.61-.69.12-.08,0-.2-.1-.29s.08,0,.1,0c-.22-.07,0-.4-.27-.46h0c0-.1-.25-.17-.06-.32-.27-.08-.34-.24-.4-.54h0c.35-2.43,1.55-.16,1.55-.16l.23.47s.09,0,.08,0c.55.35.25,1.28.76,1.63.3.29.83.8.81,1.23s.42.4.49.7l-.06.12c.08,0,.1,0,.13.08s-.06,0-.07.08l.11,0c-.14.1.34,0,.19.13l-.09.09a4.33,4.33,0,0,0,.68,1.36c.31.46.71,1,1,1.53h-.49c-.49-.11-1-.35-1.23-.37l.17.16c-.15,0-.18-.14-.42-.19l.25.2-.36,0,0,0c-.13,0-.25.06-.19.16-.08-.09-.09-.16-.26-.16.12.24-.16.26-.42.3,0,0-.11-.05,0-.09a.7.7,0,0,1-.36.11.56.56,0,0,1-.21-.06.31.31,0,0,0-.41.07v0c-.26-.16-.36.1-.65,0l0,.12a.6.6,0,0,0-.43.06l0,0h-.11v0s-.14,0-.22.08v0c-.06,0-.12,0-.18,0l-.06-.1c-.16.15-.41,0-.54.16h0v0a5.5,5.5,0,0,1-.91.09c-.62.11-.78-.11-1.38-.16-.68.11-1,.46-1.55.22,0,0-1.16-.32.27-1.32.13.12.25.13.45,0l0-.11c.13.07.23,0,.33,0s-.09-.14,0-.24l.33,0c0,.07-.13.06-.1.16,0-.05.19-.07.16-.19v.13s.08,0,.13,0,0-.09,0-.11c.12,0,.27-.2.36-.11s.08.12.12.22a.2.2,0,0,0,.08-.13v0l0-.09c.23.16.42-.21.62,0,0,0-.14,0-.14.09l.16,0c-.07,0-.12.11-.09.18a6.42,6.42,0,0,1,.68-.27c0,.16.18,0,.28.14a.06.06,0,0,1,0-.05s-.06,0,0-.08v0l0-.06c.08.05.07.09,0,.1s.11,0,.07.07c.15.05.15-.17.23-.22a1.23,1.23,0,0,0,.44,0l0,0c.06,0,.09.16.2.13.08-.48.31,0,.56-.18,0-.15.09-.09.08-.21a.27.27,0,0,0,.19,0c-.84-.31-1.69-.74-1.69-.74l-1.19-.61s-.15,0-.18,0c-1.48-.29-2.57-1.83-4-2.15a10.46,10.46,0,0,1-3.4-1.5c-.67-.4-1.36-.42-2-.85L81.41,46a.48.48,0,0,1-.34-.06c.11,0,0-.09,0-.15h-.23c0-.22-.61.09-.54-.13v-.17c-1.41-1.09-3.45-1.5-5.1-2.4-.34-.34-.44-.74-.85-1l-.08.19c-.3-.08,0-.18-.23-.37l0,0v.22l-.18-.07a55.62,55.62,0,0,0-8,7.62A4.35,4.35,0,0,1,67,48c-3.53,3.69-7.93,9.09-8.49,9.14A111.54,111.54,0,0,0,47.25,73.93,64.29,64.29,0,0,0,41,89.69l0-.55c-.44,2.21-.9,3.57-1.25,5a36,36,0,0,0-1.18,5.47,3.85,3.85,0,0,1-.22.54c0,.61-.13,1.28-.23,2s-.12,1.5-.21,2.31-.18,1.65-.27,2.49l-.15,2.58c0,.86-.13,1.71-.14,2.54s0,1.63,0,2.38,0,1.46,0,2.11.13,1.21.2,1.7l-.3.28.22,2.43c.09.81.25,1.61.37,2.41l.39,2.41c.15.8.36,1.58.54,2.37l-.37-1.78c-.13-.59-.18-1.2-.27-1.8a3.9,3.9,0,0,1,.58,1.71c.19.84.36,1.92.56,3.19a31.38,31.38,0,0,0,1,4.23,24.73,24.73,0,0,0,1.81,4.73A24.69,24.69,0,0,0,44.36,143a43.6,43.6,0,0,0,2.87,4.14l.75,1,.8,1c.54.65,1.06,1.31,1.57,2s1,1.31,1.55,2,1,1.33,1.47,2c2.32,2.25-2.31-1.77,1,1.73-.24.42-1.69-1.52-1.16-.35,1.65,1.72,2.78,3.33,4.21,4.86.7.78,1.4,1.61,2.25,2.44s1.84,1.66,3,2.59l0,.43c1.58,1.11,3.07,2.23,4.47,3.34s2.82,2.12,4.15,3.1,2.64,1.83,3.88,2.63a31.33,31.33,0,0,0,3.68,1.88c7.11,3.37,4.21,3.48,12.06,6.08l2.81,1.61c3.29,1.27,2.57.28,6.19,1.76-.32.21,4.66,1.6,2.38,1.24,1.05.36,2.11.72,3.18,1s2.18.55,3.29.81c2.22.56,4.53.88,6.9,1.31,1.19.23,2.42.35,3.66.55s2.5.4,3.8.56c2.6.32,5.31.78,8.19,1.17,2.56-.31,8.36.27,10.25-.13.15.13,3.07.16,5.13.22s3.27.05,0,.41c-.56,0-1.56,0-1.49-.07l-.78.34c.82.08,1.63.15,2.43.19s1.58,0,2.35,0c1.54-.05,3-.14,4.54-.29,3-.37,6-.73,9.21-1.06-1.94.09-4.51.36-2.81,0l6-.56-1.23.41c1.51-.1,3-.32,4.51-.49s3-.32,4.49-.57l-1.29-.15c4.38-.59,6.06-.17,10.84-1.75,2.15-.74-4.2.39.34-.68a161.47,161.47,0,0,0,21.68-5.31c-.8-.15,1.13-.8,3.06-1.61l.35.25c3.69-1.59,4.41-1.74,5.17-1.81s1.52-.12,5.11-1.87l1.08-1a23.24,23.24,0,0,1,5.11-2.37,19.91,19.91,0,0,0,5.47-3c-2.76,1.53-1.66,0,1.82-1.69l-.71.77c1.85-1.09,2.43-1.53,3.7-2.18-1,.8-.34.77,2.35-.88l-1.61,1.44c1.61-1.2,3.24-2.36,4.82-3.59a57.7,57.7,0,0,0,5.67-3.5,4.76,4.76,0,0,0-2.1-1.48l-.14,1.07c-1.25.11-.14-.93-1.34-1.49l.28,1.34-2.4-.15.42-.2c-.83-.09-1.79,0-1.88.71,0-.61.21-1-.84-1.22-.25,1.51-1.82,1.38-3.3,1.36.06-.18-.48-.42-.05-.6-3.43,1.41-4.71-2.24-8.07-.69l.06-.18c-2.27-1.37-3.48,0-6-1.2v.77a7.93,7.93,0,0,0-4.11-.31l.21-.23-1-.07.06-.18c-.43.18-1.28-.24-2.14.11l.06-.17a1.6,1.6,0,0,0-1.71-.06l-.51-.71c-1.67.69-3.81-.73-5.27.17h0l-.14.06a.45.45,0,0,1,.12-.06c-2.77-.24-5.81-.37-8.59-.89-6-.29-7.27-1.91-12.89-3.09-6.53-.37-9.65,1.37-14.84-1,0,0-2.64-.91-3.44-2.36s.22-3.42,7.55-5.38c1.13.93,2.22,1.17,4.16.88l-.25-.78c1,.66,2.1.23,3.1.22.64-.64-.65-1,.55-1.44l3.15.35c-.2.44-1.29.19-1.08.84.24-.31,1.81-.13,1.72-.93l-.07.82c.44-.2.65.45,1.18.51.28-.18.52-.49,0-.67,1.13-.17,2.77-.82,3.51-.11,1.05.12.61.86.82,1.5.32,0,.85-.37.89-.66l-.38-.36c.31.09.39.22.38.36l.11.11.52-.48c1.95,1.34,4.19-.62,5.82.77-.49.07-1.3-.35-1.41.34l1.53,0c-.64.1-1.2.45-1,1,2.18,0,4.15-.75,6.73-.59,0,.95,1.66.43,2.44,1.26a.43.43,0,0,1-.09-.36c-.38-.13-.51-.32.37-.39a.33.33,0,0,0,0,.14,1.12,1.12,0,0,0,.43-.3c.61.46.48.64.14.68.51.08,1.08.06.56.54,1.32.53,1.64-.83,2.44-1a20,20,0,0,0,4.19.4l-.28.12c.54.23.61,1.12,1.73,1.12,1.3-2.83,2.86.34,5.4-.26-.17-1,1-.42,1-1.18,2.19,1.23,4.28-.26,6.76.85l-.14.06c.59.83,2.42.51,3.11-.09-.46.66.76,1.07.22,1.61.66-.9,2.88-.15,2.88-.15.31,1,2.12.32,3.08,1.15l1.55-1-.6.73c.74,0,.79.59.45.9.31.18.51-.07,1-.14l-.32.61c.85.41,1.47-1.12.72-1.1,2.11-1.57.95,1.05,2.8-.07l.69-1.35-.23.45c1.95-.52.42,1.76,2.41,1.05l0,.69c.5-.1,1,0,.92-.82a24.8,24.8,0,0,1,5,2c1.12-.09-.32-.67.29-1.17,1.3-.87,1.48.38,2.45.88l-.18-.75,2,.59-.38.55.59.11.52-.43-.27-.14a1.69,1.69,0,0,0,.38,0c.49-.41,1-.82,1.41-1.21a16.3,16.3,0,0,0,2-2.09c-1.29,1.57,2.92-2,2-.66.87-1,2.58-2.89,4.42-4.74s3.65-3.84,4.84-4.82c-.12.15-.23.31-.36.46.83-.86,1.6-1.71,2.36-2.54l-.29-.05C274.94,138.72,273.09,138.81,273.05,138.52Z"/><path class="cls-1" d="M95.67,52.18h0l-.07,0s0,0,0,0Z"/><path class="cls-1" d="M301.36,145.24l.1,0Z"/><path class="cls-1" d="M328.47,153.94h.14a32.12,32.12,0,0,0-6.3-1.9c-.19-.44-2.21-.75-2.8-1.06h.06c-1.73-.27-3.32-1.31-5-1.58a.64.64,0,0,1,.5,0c-1.17-.33-2.78-.76-2.8-1a86.26,86.26,0,0,0-8.48-2.42H304a17.56,17.56,0,0,1-2.48-.65c-.06,0-.13-.08-.11-.09-1.17-.14-3.22-1-4.14-1.19l0-.15-2.19-.67.8.29c-.4.27-1.58-.76-3.24-1-1.47-.52-3.25-.21-4.74-.89-.79-.06.73-.06-.41-.29,0-.19.55,0,.32-.19-1.11-.26-1.71-.76-3.08-1.06v-.16c-1.82-.3-3.22-1.25-4.46-1.37-1.83-.45-1.06-.82-3-1.13l-.18-.12c-.37.44-.75.89-1.16,1.32l-.43.49.5.08c.2.11.62.3.23.24a5.34,5.34,0,0,0,1.25.28l.69.39c2.69,1,5.11,1.45,8,2.43a136.64,136.64,0,0,0,13.75,4.26c5.39,1.31,11.19,4.28,16.72,5.58a1.46,1.46,0,0,0,.65.13l4.92,1.62S346,161.87,328.47,153.94Z"/><path class="cls-1" d="M74,41.89l0,0,1.39-1.12,0-.09c-.53-.05,0-.34-.54-.42l-.16.12c-.51,0-.09-.35-.69-.24.18.06,0,.3-.24.14l.11-.08c-.13,0-.19,0-.26-.07.1,0,.12-.15-.07-.22l.19-.08-.43,0c-.2-.25-.68-.29-.7-.51,0,0-.52-.34-.73-.23.17-.06-.12-.24,0-.33a.85.85,0,0,1-.78-.27h0c-.55-.44-1.15-.34-1.63-.78,0,.16-.3-.06-.31.15-.67-.11-.88-.88-1.36-.43-.28-.1-.25-.28-.37-.38h.08a6.89,6.89,0,0,1-1-.46c-.2,0-.36.21-.65,0,.15,0,0-.1-.11-.16.08,0,.12,0,0-.15a.31.31,0,0,1-.13,0s0,0,0,0c-.22-.07-.2,0-.11,0a.07.07,0,0,0,0,.08c-.15-.23-.6-.28-.54-.46-.63-.26-1.16-.3-1.7-.48,0-.12.14-.14.31-.1l-.38-.15c.06-.12.24,0,.37.06-.34-.42-1-.23-1.41-.66l-.16,0,0,0c0,.05-.17.07-.25.05s.13-.26-.13-.37-.59-.22-.88-.29c.13.09.06.13,0,.14s-.15-.21-.27-.21l.06-.15c0,.16-.4,0-.47,0,0-.15.24,0,.31-.07l-.77-.35c-.32,0,0,.17-.21.24a1.8,1.8,0,0,1-.76-.32l0,.18a1.63,1.63,0,0,1-1-.54c-3.85-.53-1.42,1.14-1.42,1.14,1.16.93,2,.87,3.63,1.53a20.56,20.56,0,0,0,3,1.75c.66.35,1.41.64,2.09.93.41,0,.87.42,1.32.44l.09.18a.58.58,0,0,1,.42.16l0,0c.23,0,.42.17.54.17l0,0,.24.1-.06,0a2.83,2.83,0,0,1,1,.43l0-.16c.57.47.94.3,1.44.77l0,0c.92,0,1,.82,2,.84-.12,0,0,.09,0,.12.37.13.75.3.89,0,.25.12.17.18.15.3.06-.12.3-.06.5,0h-.11l.41.17L74,42Z"/><path class="cls-1" d="M62,34.61l.07.11S62.08,34.65,62,34.61Z"/><path class="cls-1" d="M65.06,38.42h0Z"/><polygon class="cls-1" points="74.91 40.28 74.91 40.28 74.99 40.22 74.91 40.28"/><path class="cls-1" d="M278.38,31l1.67,1.59c.35.35.7.73,1,1.1a1.15,1.15,0,0,0,.23.1c2.51.14,5.22-.55,7.55,0l.1.21c0,.31.65-.45.74-.17l.27-.13c.08.05.24.11.1.18a.63.63,0,0,0,.44-.13l.27.19c1,.16,1.84-.2,2.88-.12,1.25.39,3.62,0,5-.15,1.91-.44,4.13.79,6.09.28.06,0,.23-.06.23-.09l1.79,0s8.69.18,2.1-2.4l.05-.06a3.44,3.44,0,0,0-2.28.12c-.1-.41-.8,0-1-.18l0,0c-.6.32-1.23-.27-1.81,0,0,0,0-.14.17-.15-.42.05-1,.14-1-.1-1,.06-2.4-.06-3.05.31l.05-.06c-.37.25-.48,0-.89.16,0,0-.05-.05,0-.06-.4.25-1.17,0-1.49.14l0-.16-.8,0,.3,0c-.11.43-.6-.28-1.18,0-.54-.06-1.1.9-1.66.68-.26.21.24-.33-.16-.17,0-.23.19-.14.09-.33-.4.11-.64-.23-1.13-.08l0-.18c-.63.32-1.19-.24-1.61.07-.65.14-.43-.53-1.11-.19L290,31c-.29,0-.21.29-.53.17,0-.15-.41-.12-.22-.26-.73-.24-1.48.32-2.44-.08-.21.29-.69.11-.84.33,0-.13-1,0-.43-.3.05,0,.13,0,.13,0l.06-.17c-.54-.33-1,.18-1.53.12.16.06.37.05.23.16l-.5,0,.1-.15-.75-.09.1.18c-.36-.09-.49-.4-.9-.15-.19.15.34.25,0,.3a14.06,14.06,0,0,0-1.85-.37c.06.2-.11.19-.28.24l0-.18c-.67.24-.24-.39-.9-.2l-.12.24c-.59.35-.33-.33-.95.09l0,.05S278.38,31,278.38,31Z"/><polygon class="cls-1" points="279.36 30.55 279.36 30.55 279.42 30.43 279.36 30.55"/><path class="cls-1" d="M299.36,162.85s.08,0,.11,0S299.37,162.83,299.36,162.85Z"/><path class="cls-1" d="M258.91,155.37l-.8-.16-1.09.91c-1.06.9-2.14,1.66-2.92,2.23l-1.29.93c-1,.48-3.37,2.19-6,4a11.89,11.89,0,0,0,1.94,1.87,58.94,58.94,0,0,0,10.76,1.07c3.62.19,7.15.52,10.24,2.06l.16.93c-.06,1.3,2.07-1.62,2.14-.39l.85-.47c.18.26.59.57.17.81.69.15.74-.06,1.3-.37l.63.92c2.67,1,5.24-.17,8.11.54,3.25,2.09,10,1.56,14,.86,2.83-.73,5.65.05,8.54.52a35.49,35.49,0,0,0,8.59.76.72.72,0,0,0,.67-.12c1.65.27,3.31.58,4.95.94l3.46.7a53.36,53.36,0,0,0,6.28,1c1.9.13,3.29-.28,3.17-1.67s-1.79-3.42-6.2-5.32l.15-.17c-2.71-.56-4.44-.74-6.44-.16-.16-1-2.24-.36-2.83-.77l.07-.06c-1.77.49-3.34-1.11-5-.78.08-.06.15-.32.52-.26-1.18-.11-2.79-.26-2.79-.88-2.78-.51-6.5-2.28-8.44-1.48l.15-.19c-1.13.61-1.31-.25-2.5-.06,0-.14-.12-.22-.1-.26-1.23.68-3.22-.6-4.17-.34l0-.65c-.74-.1-1.48-.18-2.22-.25l.8.28c-.55,1.74-1.5-1.41-3.27-.5-1.46-.48-3.6,3.31-5,2.18-.87.75.86-1.29-.35-.8.1-1,.6-.52.43-1.33-1.16.29-1.64-1.25-3.08-.81l.05-.76c-1.95,1.11-3.16-1.48-4.52-.34-1.9.35-.89-2.41-3-1.21l-.59-1.12c-.78-.27-.76,1.16-1.58.55.15-.63-1.06-.66-.44-1.19-1.89-1.26-4.33.84-6.76-1.15-.76,1.14-2,.25-2.56,1.1,0-.54-2.69-.43-1-1.37.15-.08.37,0,.33.17l.28-.69c-1.21-1.39-2.62.1-4,.06l-.11.1C259,154.94,259.28,155,258.91,155.37Z"/><text class="cls-2" transform="translate(0 35.59)">S<tspan class="cls-3" x="5.65" y="0">olar ene</tspan><tspan class="cls-4" x="38.26" y="0">r</tspan><tspan class="cls-5" x="41.61" y="0">gy</tspan></text><text class="cls-2" transform="translate(0 253.59)">S<tspan class="cls-3" x="5.65" y="0">olar ene</tspan><tspan class="cls-4" x="38.26" y="0">r</tspan><tspan class="cls-5" x="41.61" y="0">gy</tspan></text><text class="cls-6" transform="translate(154.33 37.12)">R<tspan class="cls-5" x="5.65" y="0">e</tspan><tspan class="cls-7" x="10.48" y="0">c</tspan><tspan class="cls-8" x="15.1" y="0">y</tspan><tspan class="cls-3" x="19.52" y="0">cle</tspan></text><text class="cls-9" transform="translate(316.83 35.59)">H<tspan class="cls-7" x="6.44" y="0">e</tspan><tspan x="11.2" y="0">at</tspan></text><text class="cls-10" transform="translate(83.32 102.28)"><tspan class="cls-3">Mat<tspan class="cls-11" x="15.81" y="0">t</tspan><tspan x="19.07" y="0">er</tspan></tspan><tspan x="0" y="13.2">E</tspan><tspan class="cls-5" x="5.24" y="13.2">ne</tspan><tspan class="cls-4" x="15.21" y="13.2">r</tspan><tspan class="cls-3" x="18.57" y="13.2">gy</tspan></text><text class="cls-10" transform="translate(225.45 77.4)"><tspan class="cls-3">Mat<tspan class="cls-11" x="15.81" y="0">t</tspan><tspan x="19.07" y="0">er</tspan></tspan><tspan x="-0.84" y="13.2">E</tspan><tspan class="cls-5" x="4.39" y="13.2">ne</tspan><tspan class="cls-4" x="14.37" y="13.2">r</tspan><tspan class="cls-3" x="17.72" y="13.2">gy</tspan></text><text class="cls-10" transform="translate(100.99 154.96)"><tspan class="cls-12">E</tspan><tspan class="cls-4" x="4.94" y="0">CO</tspan><tspan class="cls-13" x="17.27" y="0">S</tspan><tspan class="cls-14" x="22.55" y="0">Y</tspan><tspan class="cls-15" x="27.59" y="0">S</tspan><tspan x="32.87" y="0">TEM</tspan></text><text class="cls-16" transform="translate(139.6 81.21)">E<tspan class="cls-4" x="4.94" y="0">C</tspan><tspan class="cls-17" x="10.91" y="0">ONOM</tspan><tspan class="cls-18" x="37.79" y="0">Y</tspan></text><text class="cls-19" transform="translate(204.45 111.36) rotate(18.05)">E<tspan class="cls-7" x="5.11" y="0">c</tspan><tspan class="cls-3" x="9.73" y="0">onomic </tspan><tspan class="cls-7" x="42.07" y="0">s</tspan><tspan class="cls-3" x="46.48" y="0">e</tspan><tspan class="cls-20" x="51.32" y="0">r</tspan><tspan class="cls-3" x="54.88" y="0">vi</tspan><tspan class="cls-7" x="61.64" y="0">c</tspan><tspan class="cls-3" x="66.25" y="0">e</tspan></text><text class="cls-21" transform="translate(344.94 171.88)">W<tspan class="cls-3" x="7.49" y="0">el</tspan><tspan class="cls-4" x="14.56" y="0">f</tspan><tspan class="cls-3" x="17.43" y="0">a</tspan><tspan class="cls-22" x="22.27" y="0">r</tspan><tspan class="cls-3" x="25.56" y="0">e</tspan></text><text class="cls-21" transform="translate(344.94 375.73)">W<tspan class="cls-3" x="7.49" y="0">el</tspan><tspan class="cls-4" x="14.56" y="0">f</tspan><tspan class="cls-3" x="17.43" y="0">a</tspan><tspan class="cls-22" x="22.27" y="0">r</tspan><tspan class="cls-3" x="25.56" y="0">e</tspan></text><text class="cls-9" transform="translate(345.94 81.4)">EM<tspan class="cls-23" x="12.96" y="0">P</tspan><tspan class="cls-24" x="18.46" y="0">T</tspan><tspan class="cls-25" x="23.9" y="0">Y</tspan><tspan x="29.07" y="0"> </tspan><tspan class="cls-26" x="31.17" y="0" xml:space="preserve"> W</tspan><tspan class="cls-24" x="40.84" y="0">ORLD</tspan></text><text class="cls-27" transform="translate(353.69 294.14)">FUL<tspan class="cls-28" x="16.21" y="0">L</tspan><tspan class="cls-3" x="20.85" y="0"> </tspan><tspan class="cls-26" x="22.94" y="0" xml:space="preserve"> W</tspan><tspan class="cls-3" x="32.62" y="0">ORLD</tspan></text><path class="cls-29" d="M109.35,67.67l.31-.28S109.55,67.45,109.35,67.67Z"/><path class="cls-29" d="M205.86,45.53l.1,0C205.89,45.53,205.87,45.52,205.86,45.53Z"/><polygon class="cls-29" points="122 57.85 121.99 57.86 121.91 57.94 122 57.85"/><path class="cls-29" d="M107.4,72.51a60.93,60.93,0,0,1,4-4.71c1.19-1.27,2.42-2.55,4.4-4.55s4.1-3.75,6.16-5.39a19,19,0,0,1,1.85-1.5c.73-.5,1.49-1,2.06-1.5.18-.08.35-.17.53-.24a8.75,8.75,0,0,1,1.35-.89v0c.6-.47,1.35-.88,1.67-1.09v0l.79-.47-.12.11a25.93,25.93,0,0,1,3.41-1.9l-.15-.06c1.17-.55,2-.91,2.73-1.3l1.17-.57c.42-.17.89-.34,1.44-.53l0,0a15.34,15.34,0,0,1,1.83-.85c.59-.21,1.15-.38,1.71-.55,1.12-.36,2.27-.65,3.68-1.23-.35.14.17,0,.15.05,1.32-.48,2.78-.8,2.74-1.05,1-.25.82-.14,1-.08a4.13,4.13,0,0,1,1.6-.52l-.35.11,2.23-.5-.48-.1c1.2-.19.35.17,1.48-.11l0-.15c1.66-.23,2.67-.16,4.29-.26,3.34-.42,6.84-.61,10.28-.86a43.39,43.39,0,0,1,5.09-.09c1.67,0,3.31.07,4.87.19l.27.15c.11.19,1.74-.12,2,.07l.74,0c.2,0,.63.12.26.13a6.86,6.86,0,0,0,1.18,0l.71.17c.66.08,1.3.14,1.93.18s1.24.16,1.86.23c1.24.15,2.5.3,3.88.53,1.66.3,4,.94,6.42,1.4.6.13,1.22.23,1.81.37l1.73.45,3.06.78c5,1.3,10.32,4.09,15.1,6.23a2.76,2.76,0,0,0,.57.23c1.39.78,2.82,1.51,4.19,2.34l2.87,1.75,2.57,1.68c.85.61,1.74,1.17,2.46,1.7,1.48,1,2.45,1.79,2.38,1.44s-1.27-1.87-4.76-4.74l.12,0a28.15,28.15,0,0,0-5.28-3.25c-.12-.38-1.91-1.08-2.42-1.45h.07c-1.51-.65-2.92-1.69-4.41-2.22a.87.87,0,0,1,.45.12A15.91,15.91,0,0,1,216,49.14l-4.18-1.72a34.35,34.35,0,0,0-3.62-1.12h.12c-1-.19-1.22-.41-2.3-.71l-.11-.07c-1.09-.16-3.05-.86-3.91-1l0-.1-2.09-.58.78.24c-.33.15-1.55-.56-3.12-.73-1.43-.34-3-.13-4.47-.55-.74,0,.66-.1-.42-.17,0-.14.51,0,.26-.15-1.07-.1-1.71-.4-3-.51l0-.11c-1.73,0-3.18-.68-4.34-.57-1.77-.07-1.15-.41-3-.36l-.7-.21c-.79-.09-.58.13-1.45,0,.06-.09-1.1-.17-.58-.21a16.36,16.36,0,0,0-3.08-.11,27.43,27.43,0,0,1-3.55-.11c-.57.16-1.88,0-2.3.16-.08-.1-2.63.12-1.16-.13.12,0,.35,0,.33,0l.18-.11a36.05,36.05,0,0,0-4.17.3c.43,0,1,0,.63.06l-1.37.06.28-.1-2,0,.29.1a7.75,7.75,0,0,0-2.48.08c-.5.14,1,0-.09.19-1.33.08-3.34.15-5,.42.17.09-.28.16-.74.26l-.08-.1c-1.76.44-.7-.15-2.44.32l.14-.1-.43.31c-1.54.53-.9,0-2.61.61.7-.17.38.14-.48.32l.19-.16a7,7,0,0,1-.93.29c.27-.13.12-.18-.57,0l.43-.24-1.26.51c-1,.13-2.58.79-3,.77l-1.14.33a7.43,7.43,0,0,0-1.45.62c.39-.24-.79.14-.49-.09a17.82,17.82,0,0,1-2.77,1.14l.12-.06a22.21,22.21,0,0,0-3.14,1.36c-.94.49-1.87.92-2.9,1.4.14.06-1,.55-.62.55-1,.6-2,1.07-2.78,1.48a3.82,3.82,0,0,0-1.62,1.19,10.35,10.35,0,0,1-1.62.86l.21-.15c-1.68,1.11-2.13,1.48-3.37,2.32a9.75,9.75,0,0,1-1.62,1.49c.29-.33-.13,0-.53.31.24-.2.3-.3-.25.06-.06.08-.16.18-.25.28s0,0,0,0c-.63.55-.5.48-.19.25,0,0,0,0,.14,0-.74.46-1.87,1.52-2,1.48a61.21,61.21,0,0,0-4.49,4.52c-.22.11.07-.28.47-.73l-1,1.07c-.07-.09.55-.65.85-1-1.37,1.12-2.41,2.71-3.88,4.16l-.21.38-.09.08s-.22.42-.41.66-.16-.17-.8.63a19.45,19.45,0,0,0-2,2.68c.36-.44.29-.26.17,0a8.7,8.7,0,0,0-.76.92l-.14,0c.22-.08-.67,1.16-.73,1.34-.25.18.39-.68.41-.83-1.2,1.66-.59.84-1.75,2.53-.51,1,.21-.1,0,.4-.5.82-.94,1.65-1.57,2.55l.28-.23a40.56,40.56,0,0,1-2.09,3.52,30.27,30.27,0,0,0-2.07,5.74c-.18.88,0,.88.24.46s.68-1.18,1-1.86l.67-1.25,3.24-5.81A64.29,64.29,0,0,1,107.4,72.51Z"/><path class="cls-29" d="M103.59,85l-.06,0A0,0,0,0,0,103.59,85Z"/><path class="cls-29" d="M96.69,83.56h0A0,0,0,0,0,96.69,83.56Z"/><polygon class="cls-29" points="101.21 84.71 101.21 84.71 101.21 84.69 101.21 84.71"/><path class="cls-29" d="M103.13,83.45c-.52.31-.79.22-1.23.67a5.52,5.52,0,0,0-.69.59c0,.22-.3.23-.34.44l-.11,0c0,.08-.05.14-.13.13v0c0,.11-.13.13-.14.18v0l-.08.07v0a.58.58,0,0,1-.31.29l.08.09c-.31.06-.24.33-.55.35v0a.33.33,0,0,1-.31.29.4.4,0,0,0-.19.07s0,0,0,.13,0-.06,0-.08a.7.7,0,0,0,0,.36s0-.06-.06-.16a.25.25,0,0,1,0,.23V86.9l-.09.11v.25c-.06,0,0-.32,0-.21l0,.23c-.09,0,0-.32,0-.49l-.06,0s-.1,0-.16-.13a.34.34,0,0,1,0-.39l.12,0c.18,0-.29-.15-.13-.2L98.44,86s0-.08.1,0,0-.08-.1-.12l.1-.1c0-.3-.21-.51-.22-.82.17-.4-.14-1.06-.32-1.44-.36-.51.25-1.27-.14-1.79,0,0,0-.06-.06-.06l-.06-.52s-.33-2.55-1.5-.39h0c0,.3,0,.48.18.65-.23.07,0,.24,0,.32h0c.21.15-.1.39.09.53,0,0-.09,0-.1,0,0,.12.13.28,0,.31.09.29.08.71.34.86h0c.16.08,0,.14.13.24l0,0c.17.1.08.34.15.42l-.09,0,.06.23v-.09c.26,0-.13.2.06.34,0,.16.57.24.48.42.13.06-.21,0-.1.07-.13,0-.09,0-.19,0,.08.1-.11.21,0,.34l-.1,0c.22.15-.08.37.12.46s-.29.17-.06.34l-.12.1c0,.09.18,0,.12.14s0,.13-.14.08a.25.25,0,0,0,0,.19c0,.09.06.19.09.28a1.12,1.12,0,0,1,0,.7c.18,0,.12.31.25.27-.07.08.06.48-.12.38a.07.07,0,0,1,0-.09l-.09.07c-.12.49.18.42.19.72,0-.13,0-.22.06-.24l0,.27-.08.07,0,.46.08-.21c0,.26-.14.64,0,.6s.08-.42.13-.29v.09a1.48,1.48,0,0,0,.6-.2.49.49,0,0,1,.17-.3l0,.15c.32-.42,0,.25.37-.14l0,.12L98.7,89c.25-.45.14.17.4-.39-.1.1-.06-.24.06-.27l0,.14c.07-.08.08-.14.13-.15s0,.18.11.08l0,.19.15-.35c.2,0,.38-.32.52-.24l.17-.1a.19.19,0,0,0,.07-.19c0,.11.15.06.19.17,0-.12.08-.3.2-.25h0c.29-.06.28-.41.56-.44-.08-.09.07-.11,0-.22.11-.27.56,0,.34-.46.08-.09.18,0,.24,0v0a1.4,1.4,0,0,1,.33-.29c0-.09-.09-.27.06-.32s0,0,.1,0,0,.07.08.07a.16.16,0,0,1,0-.07s0,0,0,0,0-.09,0-.08l0,0c.15,0,.21-.16.31,0a6.34,6.34,0,0,0,.4-.61.14.14,0,0,1,0,.19l.11-.11c.07.09,0,.1-.06.15.26,0,.21-.38.48-.38V85h0a.16.16,0,0,1,0-.15c.08.06.13.19.22.12s.17-.19.23-.3-.08,0-.08-.08.13,0,.14,0l.08.1c-.09-.09,0-.19,0-.25s0,.12,0,.19l.26-.21c0-.16-.09-.09-.12-.22s.1-.22.24-.22l-.1-.08a.34.34,0,0,1,.38-.23c.6-1.64-.53-1.23-.53-1.23C103.65,82.51,103.62,83,103.13,83.45Z"/><path class="cls-1" d="M332.14,152.24v.06S332.16,152.27,332.14,152.24Z"/><path class="cls-1" d="M330.77,159.15h0Z"/><polygon class="cls-1" points="331.88 154.62 331.88 154.62 331.87 154.62 331.88 154.62"/><path class="cls-1" d="M330.61,152.72c.31.51.23.77.68,1.21a6.5,6.5,0,0,0,.59.69c.23,0,.24.3.45.34l0,.11c.08,0,.14.05.13.13h0c.11,0,.13.12.19.13l0,0,.07.07h0a.58.58,0,0,1,.3.32l.09-.09c.06.31.33.24.35.55h0c.22,0,.26.17.29.31a.73.73,0,0,0,.07.19s0,0,.13,0-.05,0-.08,0a.66.66,0,0,0,.36,0s-.06.05-.16.06a.31.31,0,0,1,.23,0h-.06l.11.09h.25c0,.06-.31,0-.21,0l.23,0c0,.09-.31.06-.49,0,0,0,0,0,0,.05s0,.1-.13.16a.36.36,0,0,1-.4,0l-.05-.11c0-.18-.14.29-.19.13l-.07.09s-.08,0-.05-.1-.07,0-.11.1l-.1-.1c-.3,0-.51.22-.82.22-.4-.16-1.06.16-1.43.34-.52.36-1.28-.24-1.8.16,0,0-.06,0-.06.06l-.52.06s-2.54.35-.38,1.5v0c.3,0,.48,0,.64-.19.07.23.24,0,.32.05v0c.14-.21.38.09.52-.1,0,0,0,.09,0,.1.12-.05.27-.13.31,0,.28-.08.7-.08.85-.33v0c.09-.17.14,0,.25-.14s0,0,0,0c.1-.17.34-.08.42-.16l0,.09.23-.06h-.09c0-.26.2.13.34-.06.17,0,.24-.58.42-.49.06-.13,0,.21.06.1,0,.13,0,.09,0,.19.1-.08.21.1.34,0l0,.1c.15-.21.37.08.46-.12s.18.29.34.05l.1.13c.09,0,0-.18.14-.13s.13.05.09.15a.27.27,0,0,0,.18,0l.28-.1a1.19,1.19,0,0,1,.7-.06c0-.17.31-.12.27-.24.08.06.48-.07.37.11,0,0-.05,0-.08,0l.07.09c.49.12.42-.18.72-.2-.13,0-.22,0-.24-.05l.27,0,.06.07.47,0-.22-.07c.27,0,.65.13.61,0s-.42-.07-.29-.13h.09a1.38,1.38,0,0,0-.21-.6.45.45,0,0,1-.3-.17l.15,0c-.43-.31.25-.05-.14-.37l.12,0-.35-.1c-.45-.25.16-.14-.39-.41.1.11-.24.07-.28-.05l.14,0c-.07-.07-.14-.08-.15-.13s.18,0,.08-.11l.19,0-.35-.15c0-.2-.32-.38-.24-.52l-.11-.16a.16.16,0,0,0-.18-.07c.1,0,0-.15.17-.19-.13,0-.31-.08-.26-.21h0c-.08-.3-.42-.28-.45-.56-.09.08-.12-.06-.22.06-.28-.11,0-.57-.47-.35-.09-.07,0-.18,0-.24h0a1.62,1.62,0,0,1-.29-.33c-.09,0-.27.09-.32-.06.1,0,.05,0,0-.1s.06,0,.07-.08h-.06c-.08-.06-.09,0-.07,0a.11.11,0,0,0,0,0c0-.15-.16-.2-.05-.31a4.76,4.76,0,0,0-.61-.39.14.14,0,0,1,.19,0l-.11-.11c.09-.06.1,0,.15.06,0-.26-.38-.2-.38-.48l-.1,0v0a.16.16,0,0,1-.15,0c.06-.08.18-.13.11-.22s-.19-.17-.3-.23,0,.08-.07.08,0-.13,0-.14l.1-.08c-.08.09-.19,0-.25,0s.12,0,.19,0l-.21-.26c-.16,0-.09.1-.22.12s-.22-.09-.23-.23l-.07.1a.34.34,0,0,1-.23-.38c-1.65-.59-1.23.54-1.23.54C329.67,152.2,330.12,152.23,330.61,152.72Z"/><path class="cls-1" d="M317.45,158.6v.22A.17.17,0,0,0,317.45,158.6Z"/><path class="cls-1" d="M316.34,179.34s0,0,0,0A.06.06,0,0,0,316.34,179.34Z"/><path class="cls-1" d="M317.66,166.68h0l0,0Z"/><path class="cls-1" d="M312.62,162c1.27,1.3,1.11,2.27,2.78,3.17a14,14,0,0,0,2.25,1.51c.74-.26.9.71,1.63.58l-.09.41c.25,0,.48,0,.49.25l-.08.08c.38-.07.49.24.68.21l-.08.08.27.15-.14.09a1.4,1.4,0,0,1,1.12.66l.26-.37a.94.94,0,0,0,.72.63c.12,0,.27,0,.11.25l-.09.07c.59-.3.57,0,.42.1s-.37.26.45.19a1.85,1.85,0,0,0-.42.1,6.24,6.24,0,0,0,1.75,0c.11.11-.31.11-.82.15a2.16,2.16,0,0,1,1.08.12l-.29,0,.49.22,1.2,0c-.17.14-1.51-.05-1.05.09l1.1.08c.06.2-1.42.11-2.28,0l-.14,0c-.51,0-.19.28-.33.56s-.6.58-1.23.23l-.27-.39c-.18-.29-.06-.07,0,.17s.13.51,0,.22a1.13,1.13,0,0,1,0,.32c-.11-.09-.28-.17-.22-.35-.22.05-.19.16-.27.4l-.36-.31c-.94,0-1.37,1-2.29,1.15-1.33-.44-3,1-4,1.83-1.25,1.52-4-.36-5.24,1.31-.09-.07-.15.18-.13.25l-1.52.44s-7.31,2.32.05,5.64v.15c.94.05,1.48-.06,1.79-1,.39.82.7-.15,1,.06v.08c.26-.84,1.22.18,1.49-.58,0,.07.07.31,0,.37.31-.24.72-.6.92-.11.79-.42,2-.61,2.29-1.59v.15c.12-.64.37-.22.61-.61.05.06.08.08.09.11.14-.65.94-.43,1.12-.75l.14.33.63-.32-.27,0c-.24-.94.7.39,1-.37.49,0,.24-2.2.87-1.93.07-.5.05.76.26.32.18.47-.05.35.17.7.25-.34.71.29,1-.17l.15.36c.28-.86,1.16.14,1.28-.63.43-.5.75,1,1.06,0,.13.14.26.29.4.42.45-.07.05-.7.58-.62.12.31.7,0,.58.41a2.57,2.57,0,0,0,1.62-.64A3,3,0,0,1,329,176c-.32-.57.75-.54.43-.94.34.17,1.39-.45,1.36.21,0,.06-.14.1-.26,0l.35.29c.85.08,1.15-.13,1.3-.37s.17-.52.64-.63c-.42,0-.68.14-.85-.08l.79-.22.34.22,1.42-.3-.8-.14c.84-.08,2.25.14,1.88-.33-.3-.23-1.46-.06-1.14-.3.75-.08,1.77-.2,2.76-.37a2.54,2.54,0,0,0-.44-.64,2.55,2.55,0,0,1-1.34-.4l.7.07c-1.8-.76,1.26-.1-.38-.87l.54.09-1.62-.25c-1-.32-.76-.38-.6-.46s.23-.2-1-.5c.41.25-1.21.13-1.28-.14l.66.05c-.32-.16-.62-.2-.64-.31.42.07.88,0,.47-.25l.9.12c-.55-.15-1.08-.27-1.59-.39.09-.44-1.27-.89-.81-1.2a2.68,2.68,0,0,0-.46-.44,1.57,1.57,0,0,0-1.11-.4c.59,0,.17-.52.76-.59-.72-.05-1.76-.45-1.71-1l.11,0a3.9,3.9,0,0,0-1.65-1.23,1.7,1.7,0,0,0-.32-.14,1,1,0,0,1-.23-.11.74.74,0,0,1-.32-.45c-.26.37-.41-.06-.7.45-1,0-.34-1.79-1.68-.56-.33-.15-.05-.59-.14-.77l.13,0a3.28,3.28,0,0,1-1.11-.73c-.3,0-.85.62-1.06.19.32-.17.14-.24,0-.34.11,0,.21-.05.19-.35a.57.57,0,0,1-.23.09l0-.07c-.28-.07-.31,0-.24.15a.41.41,0,0,0-.1.19c0-.51-.62-.47-.29-.93a12.05,12.05,0,0,0-2.2-.56.6.6,0,0,1,.64-.34l-.44-.22c.26-.33.36,0,.53,0,0-.89-1.34-.21-1.47-1.11l-.32.17v-.07a.68.68,0,0,1-.49.22c.15-.35.53-.66.26-.85,0-.44-.69-.32-1.08-.38.11.16-.07.28-.21.33s0-.44-.18-.39l.3-.4c-.24.41-.65.12-.83.24.16-.34.4-.08.6-.27l-.81-.57c-.51.07-.25.4-.65.64-.3-.12-.76,0-.85-.5l-.19.41c-.67-.1-.91-.36-.94-1-5.65.06-3.78,3.24-3.78,3.24C309.32,161.42,310.81,161,312.62,162Z"/><path class="cls-1" d="M306.85,35.29l.06,0A0,0,0,0,0,306.85,35.29Z"/><path class="cls-1" d="M308.44,30.59h0Z"/><polygon class="cls-1" points="309.15 35.96 309.15 35.96 309.14 35.98 309.15 35.96"/><path class="cls-1" d="M307.05,36.89c.57-.22.81-.09,1.32-.46a5.57,5.57,0,0,0,.78-.47c0-.22.34-.17.41-.38l.11.06c0-.07.07-.13.14-.11v0c0-.11.15-.11.17-.16v0l.08-.06v0a.6.6,0,0,1,.36-.24l-.06-.1c.31,0,.29-.28.59-.26v0c.07-.22.21-.23.35-.24a.49.49,0,0,0,.21,0,.75.75,0,0,0,.28-.26c0,.06.07,0,.08.06.22-.15.46-.29.25-.45.15-.08.19,0,.3,0-.1-.07,0-.16.11-.23l0,.05.31-.19-.31-.07c.23,0,.35.1.45,0l-.22-.07c.26-.1.78-.09,1.27-.2l.44-.22c-.5-.33-1.1-.66-1.59-.94a4.45,4.45,0,0,1-1.2-.93l.05-.12c.09-.15-.31.11-.23,0l-.12,0s0-.09,0-.1-.08,0-.15,0v-.14c-.19-.24-.52-.2-.75-.42-.17-.39-.86-.62-1.26-.75-.61-.1-.74-1.07-1.39-1.14,0,0-.07,0-.08,0l-.42-.32s-2.06-1.53-1.32.81l0,0c.19.24.32.36.6.31-.11.22.18.16.19.26l0,0c.26-.06.21.33.45.29,0,0-.06.07-.09.05.12,0,.29.1.21.22.27.14.57.43.85.35l0,0c.17-.06.13.07.27.07s0,0,0,0c.18-.06.29.18.41.18l-.05.08L309,31l-.07-.06c.18-.2.06.23.29.19.11.12.57-.25.64-.05.13-.06-.17.12,0,.11-.08.11-.1,0-.13.14.13,0,.07.22.24.23l0,.09c.26-.05.21.31.41.23s-.07.33.21.28l0,.16c.06.07.15-.11.19,0s.06.13,0,.17a.23.23,0,0,0,.11.11l.06,0c.05,0,.11,0,0,.09.19-.09.12,0,.28-.06-.08,0,.06.06-.18.09,0,0,0,0,0,0l-.13,0c-.23.08.18,0,.18,0s0,0,.13,0v0H311l-.05,0h.18c-.07,0-.41,0-.11,0s.25,0,.34,0h-.47l.2,0-.16,0c.17.07-.33-.09-.19,0l-.09,0,.27.11c.2.13-.26-.12,0,.07,0,0,.25.13.17.12L311,33s0,0,0,0-.13-.1-.13-.08l-.1-.09a.86.86,0,0,1,.13.14c-.11-.06-.07.07-.16,0s0,0-.06,0a.17.17,0,0,0-.11.17c0-.11-.13-.08-.15-.2,0,.12-.13.29-.25.22v0c-.3,0-.34.36-.63.34.07.11-.08.11,0,.23-.16.25-.56-.07-.42.4-.09.08-.17,0-.24,0l0,0a1.24,1.24,0,0,1-.38.23c-.05.08,0,.29-.11.3,0-.1,0-.06-.1,0s0-.06-.07-.08a.08.08,0,0,1,0,.07v0c-.06.07,0,.08,0,.08l0,0c-.13-.06-.22.13-.3,0-.23.16-.33.39-.5.54a.15.15,0,0,1,0-.2l-.13.1c-.05-.1.05-.1.09-.14-.26-.08-.27.34-.54.29v.1h0a.16.16,0,0,1,0,.15c-.07-.08-.1-.21-.19-.15s-.2.16-.28.26.07,0,.06.08-.12,0-.14,0l-.06-.11c.07.1-.07.18-.06.24s0-.11,0-.18l-.28.16c-.06.15.07.11.08.23s-.13.2-.28.19l.09.08c-.13.18-.24.22-.41.17-.86,1.52.32,1.31.32,1.31C306.38,37.72,306.49,37.28,307.05,36.89Z"/><text class="cls-6" transform="translate(168 226.98)">R<tspan class="cls-5" x="5.65" y="0">e</tspan><tspan class="cls-7" x="10.48" y="0">c</tspan><tspan class="cls-8" x="15.1" y="0">y</tspan><tspan class="cls-3" x="19.52" y="0">cle</tspan></text><text class="cls-9" transform="translate(316.82 246.92)">H<tspan class="cls-7" x="6.44" y="0">e</tspan><tspan x="11.2" y="0">at</tspan></text><text class="cls-10" transform="translate(42 320.61)"><tspan class="cls-3">Mat<tspan class="cls-11" x="15.81" y="0">t</tspan><tspan x="19.07" y="0">er</tspan></tspan><tspan x="0" y="19.8">E</tspan><tspan class="cls-5" x="5.24" y="19.8">ne</tspan><tspan class="cls-4" x="15.21" y="19.8">r</tspan><tspan class="cls-3" x="18.57" y="19.8">gy</tspan></text><text class="cls-10" transform="translate(266.8 286.73)"><tspan class="cls-3">Mat<tspan class="cls-11" x="15.81" y="0">t</tspan><tspan x="19.07" y="0">er</tspan></tspan><tspan x="-0.84" y="19.8">E</tspan><tspan class="cls-5" x="4.39" y="19.8">ne</tspan><tspan class="cls-4" x="14.37" y="19.8">r</tspan><tspan class="cls-3" x="17.72" y="19.8">gy</tspan></text><text class="cls-10" transform="translate(100.98 387.3)"><tspan class="cls-12">E</tspan><tspan class="cls-4" x="4.94" y="0">CO</tspan><tspan class="cls-13" x="17.27" y="0">S</tspan><tspan class="cls-14" x="22.55" y="0">Y</tspan><tspan class="cls-15" x="27.59" y="0">S</tspan><tspan x="32.87" y="0">TEM</tspan></text><text class="cls-16" transform="translate(100.99 270.65)">E<tspan class="cls-4" x="4.94" y="0">C</tspan><tspan class="cls-17" x="10.91" y="0">ONOM</tspan><tspan class="cls-18" x="37.79" y="0">Y</tspan></text><text class="cls-2" transform="translate(253.79 377.43) rotate(0.39)"><tspan class="cls-25">E</tspan><tspan class="cls-30" x="4.98" y="0">c</tspan><tspan class="cls-31" x="9.47" y="0">o</tspan><tspan class="cls-32" x="14.35" y="0">s</tspan><tspan class="cls-33" x="18.59" y="0">y</tspan><tspan class="cls-31" x="22.99" y="0">s</tspan><tspan class="cls-34" x="27.26" y="0">t</tspan><tspan class="cls-35" x="30.39" y="0">em </tspan><tspan class="cls-36" x="44.91" y="0">s</tspan><tspan class="cls-35" x="49.19" y="0">e</tspan><tspan x="53.9" y="0">r</tspan><tspan class="cls-37" x="57.34" y="0">vi</tspan><tspan class="cls-30" x="63.83" y="0">c</tspan><tspan class="cls-35" x="68.32" y="0">e</tspan></text><text class="cls-38" transform="matrix(0.99, 0.16, -0.16, 0.99, 295.26, 328.07)">E<tspan class="cls-7" x="5.11" y="0">c</tspan><tspan class="cls-3" x="9.73" y="0">onomic </tspan><tspan class="cls-39"><tspan x="0" y="8.8">s</tspan><tspan class="cls-5" x="4.41" y="8.8">e</tspan><tspan class="cls-20" x="9.25" y="8.8">r</tspan><tspan class="cls-24" x="12.81" y="8.8">vi</tspan><tspan class="cls-7" x="19.56" y="8.8">c</tspan><tspan class="cls-3" x="24.18" y="8.8">e</tspan></tspan></text><text class="cls-10" transform="matrix(0.99, 0.12, -0.12, 0.99, 176.96, 141.24)"><tspan class="cls-31">E</tspan><tspan class="cls-7" x="5.11" y="0">c</tspan><tspan x="9.73" y="0">o</tspan><tspan class="cls-40" x="14.74" y="0">s</tspan><tspan class="cls-41" x="19.11" y="0">y</tspan><tspan x="23.63" y="0">s</tspan><tspan class="cls-11" x="28.04" y="0">t</tspan><tspan class="cls-3" x="31.3" y="0">em </tspan><tspan class="cls-7" x="46.2" y="0">s</tspan><tspan class="cls-3" x="50.61" y="0">e</tspan><tspan class="cls-20" x="55.44" y="0">r</tspan><tspan class="cls-3" x="59.01" y="0">vi</tspan><tspan class="cls-7" x="65.76" y="0">c</tspan><tspan class="cls-3" x="70.38" y="0">e</tspan></text></g></g></svg>